<svg xmlns="http://www.w3.org/2000/svg" viewBox="0 0 256 256">
  <circle cx="94.412" cy="238.851" r="17.149" fill="#4e56b0"/>
  <path fill="#339" d="M94.412 251c-8.62 0-15.733-6.366-16.947-14.649a17.16 17.16 0 0 0-.203 2.5c0 9.471 7.678 17.149 17.149 17.149s17.149-7.678 17.149-17.149c0-.852-.083-1.682-.202-2.5-1.213 8.283-8.327 14.649-16.946 14.649z"/>
  <circle cx="199.381" cy="238.851" r="17.149" fill="#4e56b0"/>
  <path fill="#339" d="M199.381 251c-8.62 0-15.733-6.366-16.947-14.649a17.16 17.16 0 0 0-.203 2.5c0 9.471 7.678 17.149 17.149 17.149s17.149-7.678 17.149-17.149c0-.852-.083-1.682-.202-2.5-1.212 8.283-8.326 14.649-16.946 14.649z"/>
  <circle cx="217" cy="39" r="39" fill="#d476e2"/>
  <path fill="#ea82fa" d="M216.931 3.98c20.898-.037 37.984 16.371 39.017 37.02.035-.685.053-1.374.052-2.068-.038-21.54-17.53-38.97-39.069-38.932C195.392.038 177.962 17.53 178 39.069c.001.641.02 1.278.052 1.911 1.039-20.579 18.034-36.963 38.879-37z"/>
  <path fill="#fff7f2" d="M233.496 32H224v-9.497a7 7 0 1 0-14 0V32h-9.496a7 7 0 1 0 0 14H210v9.497a7 7 0 1 0 14 0V46h9.496a7 7 0 1 0 0-14z"/>
  <path fill="#6770e6" d="M254.688 90.126a6.037 6.037 0 0 0-4.764-2.308H60.259l-7.596-20.112a22.94 22.94 0 0 0-11.23-12.445l-4.595-2.297a8.097 8.097 0 0 1-4.536 9.058l4.601 2.3a12.831 12.831 0 0 1 6.284 6.964L81.43 172.542c2.146 5.683 7.4 9.641 13.367 10.242-9.47 5.324-15.464 11.878-17.83 19.567-1.804 5.862-.182 9.801 1.495 12.073 2.483 3.362 6.628 5.192 11.29 6.181l-.094 18.738c-.025 4.978 6.426 6.96 9.201 2.827l13.73-20.453h82.596l-.088 17.626c-.025 4.978 6.426 6.96 9.201 2.827l13.73-20.453h7.997a5.065 5.065 0 0 0 0-10.13H103.09c-12.752 0-15.772-2.224-16.479-3.18-.425-.576-.412-1.61.038-3.075 4.227-13.737 28.61-20.788 38.162-22.458h97.555c7.43 0 13.821-5.048 15.54-12.275l17.927-75.303a6.037 6.037 0 0 0-1.145-5.17zM64.084 97.948h57.332l4.377 31.116H75.837L64.084 97.948zm32.291 74.795a5.874 5.874 0 0 1-5.468-3.78l-11.244-29.769h47.556l4.72 33.549H96.375zm84.007 0h-38.213l-4.72-33.549h46.972l-4.039 33.549zm5.258-43.679h-49.616l-4.377-31.116h57.74l-3.747 31.116zm42.412 39.188a5.824 5.824 0 0 1-5.685 4.491h-31.783l4.039-33.549h40.347l-6.918 29.058zm9.329-39.188h-41.539l3.746-31.116h45.2l-7.407 31.116z"/>
  <path fill="#ff8354" d="M28.915 62.769H8.104C3.628 62.769 0 59.141 0 54.665s3.628-8.104 8.104-8.104h20.811c4.476 0 8.104 3.628 8.104 8.104s-3.628 8.104-8.104 8.104z"/>
  <path fill="#8f95e6" d="M253.971 89.36c-1.147-1.04-2.686-1.542-4.234-1.542H60.258l-7.597-20.113a23.005 23.005 0 0 0-11.23-12.445l-4.595-2.298a8.09 8.09 0 0 1-.429 4.786l5.023 2.511a23.003 23.003 0 0 1 11.232 12.446l7.215 19.103a1.56 1.56 0 0 0 1.46 1.009h188.587a6.035 6.035 0 0 1 5.605 3.754l.304-1.278c.512-2.152-.168-4.398-1.862-5.933z"/>
  <path fill="#ffac8c" d="M8.104 51.562h20.811a8.104 8.104 0 0 1 7.707 5.604 8.104 8.104 0 0 0-7.707-10.604H8.104A8.103 8.103 0 0 0 .397 57.165a8.104 8.104 0 0 1 7.707-5.603z"/>
</svg>
