<svg xmlns="http://www.w3.org/2000/svg" viewBox="0 0 64 64" id="bubble-chat"><path fill="#0BB8A6" d="M38.28 16.36v18.39c0 2.31-1.87 4.18-4.18 4.18H16.85l-7.58 5.59c-.38.28-.93.01-.93-.47v-5.12H4.18C1.87 38.93 0 37.06 0 34.75v-18.4c0-2.3 1.87-4.17 4.17-4.17H34.1c2.31.01 4.18 1.88 4.18 4.18z"></path><path fill="#F2F5F4" d="M12.6 26.45c0 1.42-1.15 2.56-2.56 2.56s-2.56-1.15-2.56-2.56c0-1.42 1.15-2.56 2.56-2.56s2.56 1.14 2.56 2.56zm9.1 0c0 1.42-1.15 2.56-2.56 2.56-1.42 0-2.56-1.15-2.56-2.56 0-1.42 1.15-2.56 2.56-2.56 1.42 0 2.56 1.14 2.56 2.56zm9.1 0c0 1.42-1.15 2.56-2.56 2.56-1.42 0-2.56-1.15-2.56-2.56 0-1.42 1.15-2.56 2.56-2.56 1.42 0 2.56 1.14 2.56 2.56z"></path><path fill="#0CAD99" d="M25.72 23.54v18.39c0 2.31 1.87 4.18 4.18 4.18h17.26l7.58 5.59c.38.28.93.01.93-.47v-5.12h4.17c2.31 0 4.18-1.87 4.18-4.18v-18.4c0-2.3-1.87-4.17-4.17-4.17H29.89c-2.3.01-4.17 1.88-4.17 4.18z"></path><circle cx="53.96" cy="33.63" r="2.56" fill="#F2F5F4"></circle><circle cx="44.86" cy="33.63" r="2.56" fill="#F2F5F4"></circle><path fill="#F2F5F4" d="M33.2 33.63c0 1.42 1.15 2.56 2.56 2.56 1.42 0 2.56-1.15 2.56-2.56 0-1.42-1.15-2.56-2.56-2.56a2.546 2.546 0 0 0-2.56 2.56z"></path></svg>