<svg xmlns="http://www.w3.org/2000/svg" viewBox="0 0 203.64 91.67"><title>Arrow_rotate</title><g id="Layer_2" data-name="Layer 2"><g id="Layer_1-2" data-name="Layer 1"><path d="M201.67,32.55c.77-9.88,1.14-19.79,2-29.66A2.73,2.73,0,0,0,200.44,0c-12,2.07-23.82,4.49-35.69,7.11a2.75,2.75,0,0,0-1,4.91,173.15,173.15,0,0,0,15.47,10.69c-16.91,29.81-45.9,52.32-79.37,60.3C66.8,90.92,30.75,84.5,2.16,66.3A1.39,1.39,0,0,0,.59,68.59c29,20.25,65.65,27.87,100.28,20.08,35.17-7.91,65.88-31.21,83.54-62.55C188.5,29,192.58,32,196.62,35A3.26,3.26,0,0,0,201.67,32.55ZM197.92,5.93c-.65,6.79-1.43,13.57-2.13,20.36q-10.87-8.14-22.1-15.82C181.69,8.62,189.83,7.28,197.92,5.93Z" style="fill:#3d3c3c;opacity:0.5"/></g></g></svg>