<svg xmlns="http://www.w3.org/2000/svg" viewBox="0 0 34.56 280.04"><title>Arrow_vertical</title><g id="Layer_2" data-name="Layer 2"><g id="Layer_1-2" data-name="Layer 1"><path d="M22.61,275.27A133.84,133.84,0,0,0,31.45,247c.6-3.24-2-5.91-3.36-3.36-2.28,4.34-4.45,8.89-6.61,13.45.86-40.25.22-80.84.26-121.08,0-40.89-.11-81.78-.12-122.67,1.26,1.85,3.11,5.24,3.93,6.35a74.68,74.68,0,0,0,5.73,7.15c1.7,1.78,4.24-2,2.9-5A134.27,134.27,0,0,0,27.6,9.45C25.83,6.39,23.48.73,20.76.07c-2.28-.55-4,2.27-5.75,4.36q-5,6.06-9.94,12.11C1.35,21.07,5,31.71,8.65,27.05,10.25,25,15.07,17.52,18.16,14c-.56,40.67-1.23,81.34-1.74,122-.5,40.51-1.69,81.35-1.35,121.89A165.3,165.3,0,0,0,3.21,242c-2.27-2.62-4.15,2.87-2.7,6,4.8,10.4,10.25,20.08,15.46,29.87C18.24,282.17,21.54,279.4,22.61,275.27Z" style="fill:#3d3c3c;opacity:0.5"/></g></g></svg>