<svg xmlns="http://www.w3.org/2000/svg" viewBox="0 0 36.58 32.9"><title>Arrow_left</title><g id="Layer_2" data-name="Layer 2"><g id="Layer_1-2" data-name="Layer 1"><g style="opacity:0.5"><path d="M27.48,9.76q4.08-4.32,8.22-8.57c.48-.49,1.18.23.75.74C34.73,4,33,6,31.29,8s-5.13,4.7-5.32,7.42S28.35,20.8,29.71,23l4.51,7.32c.71,1.15-1.11,2.21-1.82,1.06-1.95-3.19-3.92-6.38-5.86-9.58C25.45,20,23,17.35,23.35,15.06,23.68,13,26.15,11.17,27.48,9.76Z" style="fill:#3d3c3c"/><path d="M16.73,8.75C19.46,5.86,22.16,2.93,25,.19c.61-.58,1.41.28.91.91-1.71,2.14-3.52,4.17-5.33,6.22C19,9.18,16.14,11.48,15,13.73c-1.26,2.6,2.41,7.36,3.59,9.48,1.49,2.68,3,5.34,4.44,8.06a1.09,1.09,0,0,1-1.87,1.1c-2-3.4-3.83-6.9-5.73-10.35-1.18-2.14-3.36-4.82-3-7.44C12.82,12.23,15.2,10.36,16.73,8.75Z" style="fill:#3d3c3c"/><path d="M3.67,8.93C5.87,6,8.06,3.09,10.35.25c.56-.69,1.7.2,1.22.94C9.88,3.81,8.12,6.38,6.35,9c-1.58,2.29-4.56,5-3.38,7.9.95,2.33,3,4.67,4.37,6.8l4.8,7.42c.87,1.35-1.28,2.6-2.15,1.26l-5.79-9C2.8,21.1.24,18.36,0,15.66S2.24,10.84,3.67,8.93Z" style="fill:#3d3c3c"/></g></g></g></svg>