
<svg version="1.1" id="Layer_1" xmlns="http://www.w3.org/2000/svg" xmlns:xlink="http://www.w3.org/1999/xlink" x="0px" y="0px"
	 viewBox="0 0 512 512" style="enable-background:new 0 0 512 512;" xml:space="preserve">
<style type="text/css">
	.st0{fill:#00A859;}
</style>
<g transform="translate(0.000000,512.000000) scale(0.100000,-0.100000)">
	<path class="st0" d="M105,4426c-37-17-80-62-94-99c-8-19-11-362-11-1083c0-873,2-1060,14-1087c16-39,61-82,99-96
		c40-15,4854-15,4894,0c38,14,83,57,99,96c21,48,21,2128,0,2176c-16,39-61,82-99,96c-20,8-762,11-2450,11
		C556,4439,130,4437,105,4426z M4950,3245V2220H2560H170v1025v1025h2390h2390V3245z"/>
	<path class="st0" d="M1125,4081c-49-22-73-48-91-98c-20-56-20-1420,0-1476c18-50,42-76,91-98c38-17,82-19,750-19
		c669,0,712,2,750,19c46,21,79,54,94,94c15,39,15,1445,0,1484c-15,42-68,92-109,103c-21,6-307,10-740,10
		C1207,4100,1163,4098,1125,4081z M2560,3370c0-308-2-560-4-560s-43,73-91,163c-48,89-99,177-113,196c-35,47-102,75-159,66
		c-67-10-110-57-194-213c-39-74-75-130-79-125c-5,4-61,105-125,223s-129,227-145,242c-36,34-97,53-143,44c-71-13-95-41-199-231
		c-55-99-103-184-109-190c-5-5-9,168-9,461c0,259,3,474,7,477c3,4,312,7,685,7h678V3370z M1724,2893c97-177,176-325,176-328
		s-159-4-352-3c-328,3-353,4-356,21c-4,22,338,651,348,640C1545,3219,1627,3070,1724,2893z M2355,2819c72-133,132-245,133-250
		c2-6-75-8-193-7l-197,3l-39,70l-38,70l97,178c53,97,99,177,102,177S2284,2951,2355,2819z"/>
	<path class="st0" d="M1855,3816c-93-44-144-126-145-232c-1-227,280-338,436-172c52,54,68,95,68,173c1,59-3,78-28,123
		C2119,3827,1977,3874,1855,3816z M2025,3638c32-38,29-81-11-115c-78-70-184,48-109,122C1941,3682,1991,3679,2025,3638z"/>
	<path class="st0" d="M2930,3990c-43-43-34-110,20-137c20-10,153-12,603-10l579,2l24,28c31,37,31,81-1,112l-24,25h-591
		C2966,4010,2949,4009,2930,3990z"/>
	<path class="st0" d="M537,3472c-166-167-197-203-197-227c0-25,31-61,198-227c176-177,201-198,230-198c46,0,82,38,82,86
		c0,35-11,48-150,188l-149,151l149,151c140,140,150,153,150,188c0,49-36,86-82,86C738,3670,715,3650,537,3472z"/>
	<path class="st0" d="M2939,3657c-46-35-50-88-10-128l29-29h497h497l29,29c37,38,39,82,4,116l-24,25h-503
		C3078,3669,2951,3666,2939,3657z"/>
	<path class="st0" d="M4295,3645c-18-17-25-35-25-61c0-35,10-48,150-188l149-151l-149-151c-144-145-150-152-150-192
		c0-48,34-82,84-82c26,0,57,26,228,198c168,167,198,202,198,227s-30,60-198,227c-176,177-201,198-230,198
		C4330,3670,4311,3661,4295,3645z"/>
	<path class="st0" d="M2929,3301c-17-18-29-40-29-56s12-38,29-56l29-29h372h371l24,25c17,16,25,35,25,60s-8,44-25,60l-24,25h-371
		h-372L2929,3301z"/>
	<path class="st0" d="M2929,2961c-17-18-29-40-29-56s12-38,29-56l29-29h242h242l29,29c17,18,29,40,29,56s-12,38-29,56l-29,29h-242
		h-242L2929,2961z"/>
	<path class="st0" d="M2950,2637c-55-28-64-94-18-137c19-18,35-20,140-20c113,0,120,1,143,25c42,41,31,105-22,133
		C3164,2654,2982,2653,2950,2637z"/>
	<path class="st0" d="M895,1866c-221-52-394-220-450-441c-19-77-19-211,1-288c27-107,79-195,163-277c119-117,248-170,416-170
		c163,0,302,57,416,170c323,321,188,858-249,996C1124,1878,967,1883,895,1866z M1112,1699c177-37,321-202,335-381
		c14-182-80-342-247-422c-61-29-72-31-176-31c-107,0-112,1-185,37c-187,92-278,294-224,494C673,1611,893,1745,1112,1699z"/>
	<path class="st0" d="M947,1526c-113-42-177-133-177-250c1-183,202-303,368-220c188,93,186,359-2,456C1085,1538,997,1545,947,1526z
		 M1081,1341c32-33,36-58,14-100c-37-73-155-43-155,39c0,40,47,90,85,90C1041,1370,1063,1358,1081,1341z"/>
	<path class="st0" d="M1966,1524c-32-10-64-32-97-64c-161-161-49-430,178-430c219,0,334,256,191,425C2180,1523,2060,1554,1966,1524z
		 M2083,1358c79-42,52-158-37-158c-47,0-91,50-82,93C1977,1355,2032,1386,2083,1358z"/>
	<path class="st0" d="M2998,1527c-173-55-237-272-119-408c94-111,269-120,369-19c105,104,106,257,3,360
		C3180,1531,3088,1555,2998,1527z M3132,1342c10-9,20-31,24-48c9-44-35-94-82-94c-89,0-116,115-39,159
		C3060,1373,3110,1365,3132,1342z"/>
	<path class="st0" d="M4030,1531c-106-34-176-120-187-226c-20-195,188-338,365-249c232,115,162,463-96,480
		C4081,1538,4044,1536,4030,1531z M4151,1341c69-70-2-171-96-135c-19,8-45,55-45,84c0,31,53,80,85,80C4111,1370,4133,1358,4151,1341
		z"/>
</g>
</svg>
