<svg xmlns="http://www.w3.org/2000/svg" viewBox="0 0 481.9 129.86"><title>Big Title</title><g id="Layer_2" data-name="Layer 2"><g id="Layer_1-2" data-name="Layer 1"><g style="opacity:0.2"><path d="M38,53.69l-2.81-7.32h-14l-2.81,7.32H.82L20.43,8.83H36.21L55.82,53.69ZM30.19,33.31l-2-5.17-2,5.17Z" style="fill:#301b5e"/><path d="M71.58,54.29a16.86,16.86,0,0,1-7.69-1.75A12.83,12.83,0,0,1,58.32,47a20.09,20.09,0,0,1-2-9.4V18H72.77V35.22c0,2.58.51,3.58.81,4a2.42,2.42,0,0,0,2,.86,3,3,0,0,0,1.52-.42,3.2,3.2,0,0,0,1.14-1.47,8.3,8.3,0,0,0,.53-3.28V18H95.21V53.69H79.45V52.13l-.23.14A15.24,15.24,0,0,1,71.58,54.29Z" style="fill:#301b5e"/><path d="M118.62,54.29c-4.85,0-8.72-1.22-11.49-3.62s-4.28-6.2-4.28-11.13v-7h-4.5V19.81h4.5V10.63h16.42v9.18H126V32.57h-6.72v6.85a1.87,1.87,0,0,0,.41,1.35,1.25,1.25,0,0,0,1,.4,3.88,3.88,0,0,0,2.26-.65l1.54-1.05,4.23,12.3-1,.58a13.35,13.35,0,0,1-4.19,1.49A25.61,25.61,0,0,1,118.62,54.29Z" style="fill:#301b5e"/><path d="M149.82,54.29a22.89,22.89,0,0,1-10.52-2.35,18.56,18.56,0,0,1-7.3-6.53,17.49,17.49,0,0,1-2.69-9.59A17.49,17.49,0,0,1,132,26.23a18.15,18.15,0,0,1,7.31-6.5,23.06,23.06,0,0,1,10.51-2.32,23.41,23.41,0,0,1,10.54,2.31,18,18,0,0,1,7.32,6.52,17.6,17.6,0,0,1,2.65,9.58,17.6,17.6,0,0,1-2.65,9.58,18.34,18.34,0,0,1-7.31,6.54A23.07,23.07,0,0,1,149.82,54.29Zm0-23.46a3.81,3.81,0,0,0-2,.51,3.72,3.72,0,0,0-1.38,1.56,6.51,6.51,0,0,0-.56,2.92,6.73,6.73,0,0,0,.57,2.94,3.57,3.57,0,0,0,1.37,1.59,3.72,3.72,0,0,0,2,.52,3.81,3.81,0,0,0,2-.51,3.65,3.65,0,0,0,1.37-1.6,6.73,6.73,0,0,0,.57-2.94,6.51,6.51,0,0,0-.56-2.92,3.72,3.72,0,0,0-1.38-1.56A3.81,3.81,0,0,0,149.82,30.83Z" style="fill:#301b5e"/><polygon points="236.24 53.69 230.49 34.62 224.42 53.69 207.16 53.69 192.8 8.83 210.4 8.83 216.69 29.38 223.36 8.83 238.48 8.83 244.78 29.64 251.44 8.83 267.87 8.83 253.52 53.69 236.24 53.69" style="fill:#301b5e"/><path d="M287.34,54.29a24.83,24.83,0,0,1-11.11-2.37,18.43,18.43,0,0,1-7.5-6.6,17.42,17.42,0,0,1-2.68-9.5,17.6,17.6,0,0,1,2.65-9.58,18.2,18.2,0,0,1,7.22-6.51,22.08,22.08,0,0,1,10.16-2.32,22.31,22.31,0,0,1,9.57,2.06,17.15,17.15,0,0,1,7.19,6.2,18.13,18.13,0,0,1,2.73,10.15c0,.51,0,1.07-.07,1.69s-.08,1.12-.12,1.61l-.11,1.31H296.6l7.06,7.12-.94,1a17,17,0,0,1-6.44,4.29A25,25,0,0,1,287.34,54.29ZM284,40.43a4,4,0,0,0,.64.37,7.21,7.21,0,0,0,3.16.61,8.66,8.66,0,0,0,3.21-.49c.33-.14.67-.3,1-.49Zm5.41-9.4a3.8,3.8,0,0,0-1.05-1,3.88,3.88,0,0,0-2.12-.53,4,4,0,0,0-2.17.54,3.25,3.25,0,0,0-1,1Z" style="fill:#301b5e"/><path d="M333.3,54.29a15,15,0,0,1-7.57-1.75v1.15H310V6.31h16.42V18.94a14.59,14.59,0,0,1,6.91-1.53,17.25,17.25,0,0,1,8.62,2.23,16.54,16.54,0,0,1,6.3,6.39,19.57,19.57,0,0,1,2.35,9.79,19.57,19.57,0,0,1-2.35,9.79A16.87,16.87,0,0,1,341.93,52,17.08,17.08,0,0,1,333.3,54.29Zm-3.24-23.46a3.81,3.81,0,0,0-2,.51,3.72,3.72,0,0,0-1.38,1.56,6.38,6.38,0,0,0-.56,2.92,6.73,6.73,0,0,0,.57,2.94,3.57,3.57,0,0,0,1.37,1.59,3.72,3.72,0,0,0,2,.52,3.77,3.77,0,0,0,2-.51,3.61,3.61,0,0,0,1.38-1.6,6.73,6.73,0,0,0,.57-2.94,6.51,6.51,0,0,0-.56-2.92,3.55,3.55,0,0,0-3.35-2.07Z" style="fill:#301b5e"/><path d="M369.24,54.29a39.94,39.94,0,0,1-8.59-.94,24.88,24.88,0,0,1-7-2.49l-1.09-.63,4.83-11.61,1.41.83a19.37,19.37,0,0,0,5.06,2,23.67,23.67,0,0,0,5.68.73c.76,0,1.31,0,1.72-.07-.41-.08-.88-.15-1.39-.2-1.14-.12-2.38-.27-3.73-.46a33.65,33.65,0,0,1-4.23-.84,14.4,14.4,0,0,1-4.12-1.8,9.43,9.43,0,0,1-3.18-3.42,10.93,10.93,0,0,1-1.2-5.34,10.59,10.59,0,0,1,2.18-6.5,14.35,14.35,0,0,1,6.24-4.51,26,26,0,0,1,9.81-1.64,40.93,40.93,0,0,1,7.46.69,22.68,22.68,0,0,1,6.59,2.18l1.14.61-4.75,11.42a12.71,12.71,0,0,1,1.19.69,9.46,9.46,0,0,1,3.17,3.41,10.91,10.91,0,0,1,1.21,5.35,10.55,10.55,0,0,1-2.14,6.33,14,14,0,0,1-6.26,4.56A26.74,26.74,0,0,1,369.24,54.29Zm.55-24.67c.42.09.91.16,1.46.22,1.13.12,2.38.27,3.73.46a28.8,28.8,0,0,1,4.22.88c.31.08.61.18.92.29A16,16,0,0,0,376.06,30a20.79,20.79,0,0,0-4.24-.48A15.21,15.21,0,0,0,369.79,29.62Z" style="fill:#301b5e"/><path d="M391.87,53.69V18h5.79a9,9,0,0,1-4.47-2.13,7.7,7.7,0,0,1-2.7-6,7.74,7.74,0,0,1,2.7-6,10,10,0,0,1,6.89-2.34,10.32,10.32,0,0,1,6.85,2.2,7.34,7.34,0,0,1,2.74,5.89,8,8,0,0,1-2.7,6.19A9,9,0,0,1,402.48,18h5.8V53.69Z" style="fill:#301b5e"/><path d="M431.7,54.29c-4.86,0-8.72-1.22-11.5-3.62s-4.27-6.2-4.27-11.13v-7h-4.5V19.81h4.5V10.63h16.41v9.18h6.72V32.57h-6.72v6.85a1.91,1.91,0,0,0,.41,1.35,1.28,1.28,0,0,0,1,.4,3.85,3.85,0,0,0,2.25-.65l1.55-1.05,4.23,12.3-1,.58a13.41,13.41,0,0,1-4.2,1.49A25.43,25.43,0,0,1,431.7,54.29Z" style="fill:#301b5e"/><path d="M463.68,54.29a24.8,24.8,0,0,1-11.11-2.37,18.43,18.43,0,0,1-7.5-6.6,17.42,17.42,0,0,1-2.68-9.5A17.6,17.6,0,0,1,445,26.24a18.13,18.13,0,0,1,7.22-6.51,22.06,22.06,0,0,1,10.16-2.32A22.35,22.35,0,0,1,472,19.47a17.15,17.15,0,0,1,7.19,6.2,18.13,18.13,0,0,1,2.72,10.15c0,.51,0,1.07-.06,1.69s-.08,1.12-.12,1.61l-.11,1.31h-8.68L480,47.55l-.94,1a17,17,0,0,1-6.44,4.29A25,25,0,0,1,463.68,54.29ZM460.3,40.43a4.34,4.34,0,0,0,.63.37,7.29,7.29,0,0,0,3.17.61,8.7,8.7,0,0,0,3.21-.49c.33-.14.67-.3,1-.49Zm5.41-9.4a3.8,3.8,0,0,0-1-1,3.88,3.88,0,0,0-2.12-.53,4,4,0,0,0-2.17.54,3.39,3.39,0,0,0-1.05,1Z" style="fill:#301b5e"/></g><path d="M0,49.26l18.36-42H32.28l18.36,42H36L22.44,14H28L14.4,49.26Zm10.92-7.32,3.6-10.2H33.84l3.6,10.2Z" style="fill:#fff"/><path d="M68.58,49.86a15.42,15.42,0,0,1-7-1.59,11.34,11.34,0,0,1-5-5,18.56,18.56,0,0,1-1.8-8.73V16.44H68.34V32.22q0,3.48,1.14,4.86a3.83,3.83,0,0,0,3.12,1.38,4.3,4.3,0,0,0,2.25-.63,4.48,4.48,0,0,0,1.71-2.1,9.55,9.55,0,0,0,.66-3.87V16.44H90.78V49.26H77.88V39.78l2.58,2.58A12,12,0,0,1,75.51,48,13.76,13.76,0,0,1,68.58,49.86Z" style="fill:#fff"/><path d="M96.78,28.14v-9.9h24.78v9.9Zm18.84,21.72q-6.78,0-10.56-3.27t-3.78-10.05V9.06h13.56V36.42a3.23,3.23,0,0,0,.81,2.34,2.68,2.68,0,0,0,2,.84,5.3,5.3,0,0,0,3.06-.9L124,48.12a12,12,0,0,1-3.75,1.32A24.33,24.33,0,0,1,115.62,49.86Z" style="fill:#fff"/><path d="M146.82,49.86A21.41,21.41,0,0,1,137,47.67a17,17,0,0,1-6.75-6,16,16,0,0,1-2.46-8.82A16,16,0,0,1,130.2,24,16.81,16.81,0,0,1,137,18a23.7,23.7,0,0,1,19.77,0,16.55,16.55,0,0,1,6.75,6,16.14,16.14,0,0,1,2.43,8.82,16.14,16.14,0,0,1-2.43,8.82,16.76,16.76,0,0,1-6.75,6A21.6,21.6,0,0,1,146.82,49.86Zm0-10.56a5.15,5.15,0,0,0,2.7-.72,5.06,5.06,0,0,0,1.92-2.19,8.06,8.06,0,0,0,.72-3.57,7.82,7.82,0,0,0-.72-3.57,5.13,5.13,0,0,0-9.24,0,7.82,7.82,0,0,0-.72,3.57,8.06,8.06,0,0,0,.72,3.57,5.06,5.06,0,0,0,1.92,2.19A5.15,5.15,0,0,0,146.82,39.3Z" style="fill:#fff"/><path d="M205.2,49.26l-13.44-42h14.58L217.2,42.72h-7.32L221.4,7.26h13l10.74,35.46h-7L249.48,7.26h13.44l-13.44,42H234.3l-8.76-29h4.08l-9.24,29Z" style="fill:#fff"/><path d="M284.34,49.86a23.27,23.27,0,0,1-10.47-2.22,16.9,16.9,0,0,1-6.93-6.09,15.93,15.93,0,0,1-2.46-8.73A16.14,16.14,0,0,1,266.91,24a16.68,16.68,0,0,1,6.66-6,20.61,20.61,0,0,1,9.51-2.16,20.93,20.93,0,0,1,9,1.92,15.72,15.72,0,0,1,6.6,5.7,16.66,16.66,0,0,1,2.49,9.36q0,.72-.06,1.59T301,36H275.7V29.46h18.06l-5.1,1.74a7.12,7.12,0,0,0-.69-3.27,5.21,5.21,0,0,0-1.89-2.1,5.32,5.32,0,0,0-2.88-.75,5.48,5.48,0,0,0-2.91.75,4.94,4.94,0,0,0-1.89,2.1,7.39,7.39,0,0,0-.66,3.27v2a7.26,7.26,0,0,0,.84,3.6,5.34,5.34,0,0,0,2.4,2.25,8.67,8.67,0,0,0,3.78.75,10,10,0,0,0,3.75-.6,14.44,14.44,0,0,0,3.09-1.8l7.08,7.14a15.57,15.57,0,0,1-5.91,3.93A23.51,23.51,0,0,1,284.34,49.86Z" style="fill:#fff"/><path d="M308.4,49.26V4.74H322V20.82l-.6,12-.06,12v4.44Zm21.9.6a13.1,13.1,0,0,1-7.26-1.8,10.09,10.09,0,0,1-4-5.58,31.8,31.8,0,0,1-1.23-9.66,29.27,29.27,0,0,1,1.32-9.57,10.61,10.61,0,0,1,4.11-5.58,12.61,12.61,0,0,1,7.05-1.83,15.79,15.79,0,0,1,7.92,2A15.14,15.14,0,0,1,344,23.73a18.14,18.14,0,0,1,2.16,9.09A18.14,18.14,0,0,1,344,41.91a15.36,15.36,0,0,1-5.76,5.88A15.61,15.61,0,0,1,330.3,49.86ZM327.06,39.3a5.15,5.15,0,0,0,2.7-.72,5.06,5.06,0,0,0,1.92-2.19,8.06,8.06,0,0,0,.72-3.57,7.82,7.82,0,0,0-.72-3.57,5.13,5.13,0,0,0-9.24,0,7.82,7.82,0,0,0-.72,3.57,8.06,8.06,0,0,0,.72,3.57,5.06,5.06,0,0,0,1.92,2.19A5.15,5.15,0,0,0,327.06,39.3Z" style="fill:#fff"/><path d="M366.24,49.86A38.32,38.32,0,0,1,358,49a23.73,23.73,0,0,1-6.6-2.34l3.72-8.94a20.53,20.53,0,0,0,5.43,2.16,24.59,24.59,0,0,0,6,.78,8.76,8.76,0,0,0,3.33-.42,1.28,1.28,0,0,0,.87-1.14q0-.72-1-1.05a13.84,13.84,0,0,0-2.7-.51q-1.68-.18-3.69-.45a33,33,0,0,1-4.05-.81,13,13,0,0,1-3.72-1.62,8.05,8.05,0,0,1-2.7-2.91,9.47,9.47,0,0,1-1-4.65,9.17,9.17,0,0,1,1.89-5.64,12.94,12.94,0,0,1,5.64-4.05,24.62,24.62,0,0,1,9.27-1.53,39.85,39.85,0,0,1,7.2.66,21.16,21.16,0,0,1,6.18,2l-3.72,8.94a18.05,18.05,0,0,0-4.95-1.89,22.13,22.13,0,0,0-4.53-.51,8.63,8.63,0,0,0-3.51.48q-.93.48-.93,1.08t1,1.08a12.28,12.28,0,0,0,2.7.54q1.68.18,3.69.45a28.75,28.75,0,0,1,4,.84,13.68,13.68,0,0,1,3.69,1.65,8.05,8.05,0,0,1,2.7,2.91,9.47,9.47,0,0,1,1,4.65,9.14,9.14,0,0,1-1.86,5.49,12.6,12.6,0,0,1-5.64,4.08A25.43,25.43,0,0,1,366.24,49.86Z" style="fill:#fff"/><path d="M397.08,13.8a8.59,8.59,0,0,1-5.94-2,6.33,6.33,0,0,1-2.22-4.92A6.33,6.33,0,0,1,391.14,2a8.59,8.59,0,0,1,5.94-2A9,9,0,0,1,403,1.86a6,6,0,0,1,2.22,4.8A6.61,6.61,0,0,1,403,11.79,8.51,8.51,0,0,1,397.08,13.8ZM390.3,49.26V16.44h13.56V49.26Z" style="fill:#fff"/><path d="M409.86,28.14v-9.9h24.78v9.9ZM428.7,49.86q-6.78,0-10.56-3.27t-3.78-10.05V9.06h13.56V36.42a3.23,3.23,0,0,0,.81,2.34,2.68,2.68,0,0,0,2,.84,5.3,5.3,0,0,0,3.06-.9L437,48.12a12,12,0,0,1-3.75,1.32A24.33,24.33,0,0,1,428.7,49.86Z" style="fill:#fff"/><path d="M460.68,49.86a23.27,23.27,0,0,1-10.47-2.22,16.9,16.9,0,0,1-6.93-6.09,15.93,15.93,0,0,1-2.46-8.73A16.14,16.14,0,0,1,443.25,24a16.68,16.68,0,0,1,6.66-6,20.61,20.61,0,0,1,9.51-2.16,20.93,20.93,0,0,1,9,1.92,15.72,15.72,0,0,1,6.6,5.7,16.66,16.66,0,0,1,2.49,9.36q0,.72-.06,1.59T477.3,36H452V29.46H470.1L465,31.2a7.12,7.12,0,0,0-.69-3.27,5.21,5.21,0,0,0-1.89-2.1,5.32,5.32,0,0,0-2.88-.75,5.48,5.48,0,0,0-2.91.75,4.94,4.94,0,0,0-1.89,2.1,7.39,7.39,0,0,0-.66,3.27v2a7.26,7.26,0,0,0,.84,3.6,5.34,5.34,0,0,0,2.4,2.25,8.67,8.67,0,0,0,3.78.75,10,10,0,0,0,3.75-.6,14.44,14.44,0,0,0,3.09-1.8L475,44.58a15.57,15.57,0,0,1-5.91,3.93A23.51,23.51,0,0,1,460.68,49.86Z" style="fill:#fff"/><path d="M36.49,48.55l-2.81-7.32h-17l-2.81,7.32H1.09L18.83,8h13L49.55,48.55ZM20.1,32.45H30.3L25.2,19.17Z" style="fill:none;stroke:#3a3a3a"/><path d="M68.58,49.15a14.74,14.74,0,0,1-6.73-1.52A10.65,10.65,0,0,1,57.21,43a17.89,17.89,0,0,1-1.72-8.39V17.15H67.63V32.22c0,2.51.42,4.25,1.3,5.31a4.52,4.52,0,0,0,3.67,1.64,5,5,0,0,0,2.62-.73,5.2,5.2,0,0,0,2-2.42,10.29,10.29,0,0,0,.72-4.16V17.15H90.07v31.4H78.59V44.47l-1.22,1.24a10.41,10.41,0,0,1-2.21,1.7A13.16,13.16,0,0,1,68.58,49.15Z" style="fill:none;stroke:#3a3a3a"/><path d="M115.62,49.15c-4.32,0-7.72-1-10.09-3.1S102,40.82,102,36.54V27.43h-4.5V19H102V9.77h12.14V19h6.72v8.48h-6.72v9a3.94,3.94,0,0,0,1,2.84,3.36,3.36,0,0,0,2.52,1.05,6.21,6.21,0,0,0,2.67-.57l2.76,8a12.37,12.37,0,0,1-3,1A23.94,23.94,0,0,1,115.62,49.15Z" style="fill:none;stroke:#3a3a3a"/><path d="M146.82,49.15A20.73,20.73,0,0,1,137.27,47a16.35,16.35,0,0,1-6.47-5.78,15.31,15.31,0,0,1-2.35-8.43,15.29,15.29,0,0,1,2.35-8.43,16.06,16.06,0,0,1,6.47-5.75,22.93,22.93,0,0,1,19.13,0,15.85,15.85,0,0,1,6.47,5.74,15.5,15.5,0,0,1,2.32,8.44,15.5,15.5,0,0,1-2.32,8.44A16.06,16.06,0,0,1,156.4,47,20.91,20.91,0,0,1,146.82,49.15Zm0-23.46a5.66,5.66,0,0,0-5.25,3.24,8.5,8.5,0,0,0-.8,3.89,8.72,8.72,0,0,0,.79,3.88,5.77,5.77,0,0,0,2.19,2.49,6.16,6.16,0,0,0,6.14,0,5.77,5.77,0,0,0,2.19-2.49,8.72,8.72,0,0,0,.79-3.88,8.5,8.5,0,0,0-.79-3.89,5.69,5.69,0,0,0-5.26-3.24Z" style="fill:none;stroke:#3a3a3a"/><polygon points="234.83 48.55 227.54 24.39 219.86 48.55 205.72 48.55 192.74 7.97 205.81 7.97 213.63 33.49 221.92 7.97 233.89 7.97 241.73 33.84 250 7.97 261.94 7.97 248.96 48.55 234.83 48.55" style="fill:none;stroke:#3a3a3a"/><path d="M284.34,49.15A22.69,22.69,0,0,1,274.19,47a16.27,16.27,0,0,1-6.65-5.83,15.28,15.28,0,0,1-2.35-8.35,15.5,15.5,0,0,1,2.32-8.44,16,16,0,0,1,6.38-5.74,19.92,19.92,0,0,1,9.19-2.09,20.32,20.32,0,0,1,8.67,1.86,15.1,15.1,0,0,1,6.3,5.44,16,16,0,0,1,2.37,9c0,.47,0,1-.05,1.54,0,.33-.05.63-.07.93H277.16l.36,1a6.2,6.2,0,0,0,.44.94,6,6,0,0,0,2.71,2.54,9.33,9.33,0,0,0,4.09.82,10.84,10.84,0,0,0,4-.65,14.12,14.12,0,0,0,2.74-1.53l6.16,6.21a15,15,0,0,1-5.17,3.26A22.79,22.79,0,0,1,284.34,49.15ZM283.2,24.37a6.17,6.17,0,0,0-3.28.85,5.59,5.59,0,0,0-2.16,2.4,6.79,6.79,0,0,0-.56,1.7l-.17.85h12.34l-.18-.85a6.17,6.17,0,0,0-.59-1.71,5.92,5.92,0,0,0-2.14-2.39A6.07,6.07,0,0,0,283.2,24.37Z" style="fill:none;stroke:#3a3a3a"/><path d="M330.3,49.15a12.43,12.43,0,0,1-6.87-1.69,7.74,7.74,0,0,1-1.6-1.37l-1.25-1.4v3.86H309.11V5.45h12.14v14.9l1.2-1.14a8.19,8.19,0,0,1,1.19-.94,11.93,11.93,0,0,1,6.66-1.72,15.21,15.21,0,0,1,7.57,1.95,14.58,14.58,0,0,1,5.49,5.58,17.55,17.55,0,0,1,2.06,8.74,17.55,17.55,0,0,1-2.06,8.74,14.75,14.75,0,0,1-5.5,5.61A15,15,0,0,1,330.3,49.15Zm-3.24-23.46a5.69,5.69,0,0,0-5.26,3.24,8.5,8.5,0,0,0-.8,3.89,8.72,8.72,0,0,0,.8,3.88A5.77,5.77,0,0,0,324,39.19a6.16,6.16,0,0,0,6.14,0,5.77,5.77,0,0,0,2.19-2.49,8.72,8.72,0,0,0,.79-3.88,8.5,8.5,0,0,0-.8-3.89,5.79,5.79,0,0,0-2.18-2.42A5.86,5.86,0,0,0,327.06,25.69Z" style="fill:none;stroke:#3a3a3a"/><path d="M366.24,49.15a37.57,37.57,0,0,1-8.13-.89,24.35,24.35,0,0,1-5.85-2l3.17-7.61a22,22,0,0,0,4.9,1.84,25.57,25.57,0,0,0,6.21.8,9,9,0,0,0,3.64-.49,1.94,1.94,0,0,0,1.27-1.78c0-.46-.2-1.3-1.51-1.73a14.78,14.78,0,0,0-2.85-.54c-1.11-.12-2.33-.27-3.67-.45a31.17,31.17,0,0,1-4-.79A12.18,12.18,0,0,1,356,34a7.36,7.36,0,0,1-2.47-2.66,8.87,8.87,0,0,1-.93-4.3,8.5,8.5,0,0,1,1.75-5.21A12.28,12.28,0,0,1,359.64,18a24,24,0,0,1,9-1.48,39.24,39.24,0,0,1,7.07.65,21.56,21.56,0,0,1,5.4,1.68l-3.17,7.6a18.71,18.71,0,0,0-4.44-1.59,22.94,22.94,0,0,0-4.68-.52,9.06,9.06,0,0,0-3.84.56,2,2,0,0,0-1.31,1.71c0,.46.19,1.29,1.49,1.75A13,13,0,0,0,368,29c1.12.12,2.34.27,3.67.45a27.35,27.35,0,0,1,3.92.82,12.59,12.59,0,0,1,3.5,1.56,7.36,7.36,0,0,1,2.47,2.66,8.9,8.9,0,0,1,.92,4.3,8.43,8.43,0,0,1-1.72,5.07,12,12,0,0,1-5.33,3.84A24.84,24.84,0,0,1,366.24,49.15Z" style="fill:none;stroke:#3a3a3a"/><path d="M391,48.55V17.15h12.13v31.4Zm6.07-35.46a8,8,0,0,1-5.47-1.8,5.61,5.61,0,0,1-2-4.39,5.61,5.61,0,0,1,2-4.39,8,8,0,0,1,5.47-1.8,8.28,8.28,0,0,1,5.48,1.7,5.25,5.25,0,0,1,2,4.25,5.85,5.85,0,0,1-2,4.6A7.88,7.88,0,0,1,397.08,13.09Z" style="fill:none;stroke:#3a3a3a"/><path d="M428.7,49.15c-4.33,0-7.72-1-10.1-3.1s-3.53-5.23-3.53-9.51V27.43h-4.5V19h4.5V9.77H427.2V19h6.72v8.48H427.2v9a3.94,3.94,0,0,0,1,2.84,3.4,3.4,0,0,0,2.53,1.05,6.16,6.16,0,0,0,2.66-.57l2.76,8a12.09,12.09,0,0,1-3,1A23.75,23.75,0,0,1,428.7,49.15Z" style="fill:none;stroke:#3a3a3a"/><path d="M460.68,49.15A22.74,22.74,0,0,1,450.52,47a16.3,16.3,0,0,1-6.64-5.83,15.28,15.28,0,0,1-2.35-8.35,15.5,15.5,0,0,1,2.32-8.44,16,16,0,0,1,6.38-5.74,19.92,19.92,0,0,1,9.19-2.09,20.27,20.27,0,0,1,8.66,1.86,15.07,15.07,0,0,1,6.31,5.44,16.08,16.08,0,0,1,2.37,9c0,.47,0,1-.05,1.54,0,.33,0,.63-.07.93H453.5l.36,1a7.3,7.3,0,0,0,.43.94A6.08,6.08,0,0,0,457,39.73a9.33,9.33,0,0,0,4.09.82,10.88,10.88,0,0,0,4-.65,14.73,14.73,0,0,0,2.74-1.53L474,44.58a15.13,15.13,0,0,1-5.17,3.26A22.79,22.79,0,0,1,460.68,49.15Zm-1.14-24.78a6.17,6.17,0,0,0-3.28.85,5.59,5.59,0,0,0-2.16,2.4,6.8,6.8,0,0,0-.57,1.7l-.16.85h12.34l-.18-.85a6.51,6.51,0,0,0-.59-1.71,5.92,5.92,0,0,0-2.14-2.39A6.07,6.07,0,0,0,459.54,24.37Z" style="fill:none;stroke:#3a3a3a"/><g style="opacity:0.2"><polygon points="123.31 129.26 104.35 84.41 122.7 84.41 131.75 106.61 141.07 84.41 158.09 84.41 139.13 129.26 123.31 129.26" style="fill:#301b5e"/><path d="M159.67,129.26V93.59h5.79A9.11,9.11,0,0,1,161,91.46a8,8,0,0,1,0-12,10,10,0,0,1,6.89-2.34,10.41,10.41,0,0,1,6.86,2.19,7.39,7.39,0,0,1,2.73,5.9,8,8,0,0,1-2.69,6.18,9,9,0,0,1-4.5,2.17h5.81v35.67Z" style="fill:#301b5e"/><path d="M201.78,129.86a24.82,24.82,0,0,1-11.11-2.36,18.45,18.45,0,0,1-7.5-6.61,17.38,17.38,0,0,1-2.68-9.49,17.63,17.63,0,0,1,2.65-9.59,18.18,18.18,0,0,1,7.22-6.5A22.08,22.08,0,0,1,200.52,93,22.49,22.49,0,0,1,210.09,95a17.25,17.25,0,0,1,7.19,6.21A18.13,18.13,0,0,1,220,111.4c0,.51,0,1.07-.07,1.69s-.08,1.12-.12,1.6l-.11,1.31H211l7.06,7.13-.94,1a17.15,17.15,0,0,1-6.44,4.29A25,25,0,0,1,201.78,129.86ZM198.4,116a3.38,3.38,0,0,0,.64.38,7.21,7.21,0,0,0,3.16.61,8.84,8.84,0,0,0,3.21-.49,10.68,10.68,0,0,0,1-.5Zm5.41-9.39a3.66,3.66,0,0,0-1.05-1,3.88,3.88,0,0,0-2.12-.54,4,4,0,0,0-2.17.55,3.36,3.36,0,0,0-1,1Z" style="fill:#301b5e"/><path d="M241.68,129.86c-4.85,0-8.72-1.21-11.49-3.61s-4.28-6.2-4.28-11.13v-7h-4.5V95.39h4.5V86.21h16.42v9.18h6.72v12.75h-6.72V115a1.87,1.87,0,0,0,.41,1.35,1.24,1.24,0,0,0,1,.4,3.9,3.9,0,0,0,2.26-.65l1.54-1,4.23,12.3-1,.58a13.35,13.35,0,0,1-4.19,1.49A26.46,26.46,0,0,1,241.68,129.86Z" style="fill:#301b5e"/><path d="M277.69,129.26v-17.8c0-2.21-.47-3.1-.75-3.44a2.22,2.22,0,0,0-1.84-.78,3.88,3.88,0,0,0-1.88.46,3,3,0,0,0-1.24,1.43,7.81,7.81,0,0,0-.55,3.29v16.84H255V81.89h16.42v13A16,16,0,0,1,279.24,93a16.64,16.64,0,0,1,7.48,1.68,12.61,12.61,0,0,1,5.44,5.36,19,19,0,0,1,1.95,9.09v20.14Z" style="fill:#301b5e"/><path d="M312.12,129.86a16.11,16.11,0,0,1-7.37-1.53,11,11,0,0,1-6.24-10.09,10.32,10.32,0,0,1,1.9-6.24,10.61,10.61,0,0,1,4.54-3.45l-5.29-10.94,1.08-.68A24.38,24.38,0,0,1,308.07,94a35.47,35.47,0,0,1,8.19-1c5.95,0,10.66,1.38,14,4.1s5.18,7.2,5.18,13.11v19.06H320V127.6l-.26.2A12.88,12.88,0,0,1,312.12,129.86Zm5-13.56a4.27,4.27,0,0,0-2.34.44,1,1,0,0,0-.38.9,1,1,0,0,0,.38.81,2.21,2.21,0,0,0,1.44.4,3.22,3.22,0,0,0,1.78-.52,2.83,2.83,0,0,0,1-1.42v-.61Zm-2.88-10.38a14.43,14.43,0,0,0-4.09.63,12.35,12.35,0,0,0-2.7,1.17,30.67,30.67,0,0,1,7.51-.81h3.2l-.08-.07A6.14,6.14,0,0,0,314.22,105.92Z" style="fill:#301b5e"/><path d="M355.74,129.86a39.93,39.93,0,0,1-8.59-.93,25.52,25.52,0,0,1-7-2.49l-1.09-.63,4.83-11.62,1.41.84a19,19,0,0,0,5.06,2,23.14,23.14,0,0,0,5.68.74c.76,0,1.31,0,1.72-.07-.41-.08-.88-.15-1.39-.2-1.14-.12-2.38-.28-3.73-.46a35.54,35.54,0,0,1-4.23-.84,14.56,14.56,0,0,1-4.12-1.8,9.51,9.51,0,0,1-3.18-3.42,10.82,10.82,0,0,1-1.2-5.34,10.59,10.59,0,0,1,2.18-6.5,14.35,14.35,0,0,1,6.24-4.51A26,26,0,0,1,358.14,93a41.71,41.71,0,0,1,7.45.68,22.64,22.64,0,0,1,6.6,2.19l1.14.61-4.75,11.42a12.71,12.71,0,0,1,1.19.69,9.46,9.46,0,0,1,3.17,3.41,10.88,10.88,0,0,1,1.2,5.35,10.54,10.54,0,0,1-2.13,6.33,14.05,14.05,0,0,1-6.26,4.56A27,27,0,0,1,355.74,129.86Zm.55-24.66c.42.09.91.16,1.46.22,1.13.12,2.37.27,3.73.45a32,32,0,0,1,4.22.88l.91.29a16.54,16.54,0,0,0-4.06-1.48,21.34,21.34,0,0,0-4.23-.48A14.8,14.8,0,0,0,356.29,105.2Z" style="fill:#301b5e"/></g><path d="M121.26,124.84l-17.76-42h15.24L133.2,118.3h-9.06L139,82.84h13.92l-17.76,42Z" style="fill:#fff"/><path d="M164.88,89.38a8.59,8.59,0,0,1-5.94-2,6.56,6.56,0,0,1,0-9.84,8.59,8.59,0,0,1,5.94-2,9,9,0,0,1,5.94,1.86,6,6,0,0,1,2.22,4.8,6.61,6.61,0,0,1-2.22,5.13A8.51,8.51,0,0,1,164.88,89.38Zm-6.78,35.46V92h13.56v32.82Z" style="fill:#fff"/><path d="M198.78,125.44a23.27,23.27,0,0,1-10.47-2.22,16.9,16.9,0,0,1-6.93-6.09,15.93,15.93,0,0,1-2.46-8.73,16.14,16.14,0,0,1,2.43-8.82,16.68,16.68,0,0,1,6.66-6,20.61,20.61,0,0,1,9.51-2.16,20.93,20.93,0,0,1,9,1.92,15.72,15.72,0,0,1,6.6,5.7,16.66,16.66,0,0,1,2.49,9.36q0,.72-.06,1.59t-.12,1.59H190.14V105H208.2l-5.1,1.74a7.12,7.12,0,0,0-.69-3.27,5.21,5.21,0,0,0-1.89-2.1,5.32,5.32,0,0,0-2.88-.75,5.48,5.48,0,0,0-2.91.75,4.94,4.94,0,0,0-1.89,2.1,7.39,7.39,0,0,0-.66,3.27v2a7.26,7.26,0,0,0,.84,3.6,5.34,5.34,0,0,0,2.4,2.25,8.67,8.67,0,0,0,3.78.75,10,10,0,0,0,3.75-.6A14.44,14.44,0,0,0,206,113l7.08,7.14a15.57,15.57,0,0,1-5.91,3.93A23.51,23.51,0,0,1,198.78,125.44Z" style="fill:#fff"/><path d="M219.84,103.72v-9.9h24.78v9.9Zm18.84,21.72q-6.78,0-10.56-3.27t-3.78-10V84.64H237.9V112a3.23,3.23,0,0,0,.81,2.34,2.68,2.68,0,0,0,2,.84,5.3,5.3,0,0,0,3.06-.9L247,123.7a12,12,0,0,1-3.75,1.32A24.33,24.33,0,0,1,238.68,125.44Z" style="fill:#fff"/><path d="M276.24,91.42A15.08,15.08,0,0,1,283.08,93a11.11,11.11,0,0,1,4.83,4.77,17.45,17.45,0,0,1,1.77,8.4v18.72H276.12V108.46q0-3.06-1.08-4.35a3.63,3.63,0,0,0-2.94-1.29,5.29,5.29,0,0,0-2.55.63,4.41,4.41,0,0,0-1.86,2.07,9.15,9.15,0,0,0-.69,3.9v15.42H253.44V80.32H267v21.3l-3.24-2.76A13.15,13.15,0,0,1,269,93.28,14.48,14.48,0,0,1,276.24,91.42Z" style="fill:#fff"/><path d="M309.12,125.44a14.67,14.67,0,0,1-6.72-1.38,9.57,9.57,0,0,1-5.46-8.82,8.91,8.91,0,0,1,1.62-5.4,9.84,9.84,0,0,1,4.95-3.36,26.41,26.41,0,0,1,8.43-1.14h6.84v6.54H314.1a5.61,5.61,0,0,0-3.15.69,2.36,2.36,0,0,0-1,2.07,2.39,2.39,0,0,0,.87,1.89,3.51,3.51,0,0,0,2.37.75,4.63,4.63,0,0,0,2.55-.75,4.3,4.3,0,0,0,1.71-2.37l1.74,4a8.59,8.59,0,0,1-3.3,5.46A11.45,11.45,0,0,1,309.12,125.44Zm9.3-.6V119l-1-1.56v-11a4.56,4.56,0,0,0-1.47-3.66q-1.47-1.26-4.77-1.26a15.48,15.48,0,0,0-4.5.69,12.65,12.65,0,0,0-3.9,1.89l-4.32-8.94a23,23,0,0,1,6.9-2.76,33.78,33.78,0,0,1,7.86-1q8.46,0,13.11,3.78t4.65,12v17.64Z" style="fill:#fff"/><path d="M352.74,125.44a38.32,38.32,0,0,1-8.28-.9,23.73,23.73,0,0,1-6.6-2.34l3.72-8.94a20.53,20.53,0,0,0,5.43,2.16,24.59,24.59,0,0,0,6,.78,8.76,8.76,0,0,0,3.33-.42,1.28,1.28,0,0,0,.87-1.14q0-.72-1-1a13.84,13.84,0,0,0-2.7-.51q-1.68-.18-3.69-.45a33,33,0,0,1-4.05-.81,13,13,0,0,1-3.72-1.62,8.05,8.05,0,0,1-2.7-2.91,9.47,9.47,0,0,1-1-4.65A9.17,9.17,0,0,1,340.23,97a12.94,12.94,0,0,1,5.64-4,24.62,24.62,0,0,1,9.27-1.53,39.85,39.85,0,0,1,7.2.66,21.16,21.16,0,0,1,6.18,2l-3.72,8.94a18.05,18.05,0,0,0-4.95-1.89,22.13,22.13,0,0,0-4.53-.51,8.63,8.63,0,0,0-3.51.48q-.93.48-.93,1.08t1,1.08a12.28,12.28,0,0,0,2.7.54q1.68.18,3.69.45a28.75,28.75,0,0,1,4,.84,13.68,13.68,0,0,1,3.69,1.65,8.05,8.05,0,0,1,2.7,2.91,9.47,9.47,0,0,1,1,4.65,9.14,9.14,0,0,1-1.86,5.49,12.6,12.6,0,0,1-5.64,4.08A25.43,25.43,0,0,1,352.74,125.44Z" style="fill:#fff"/><polygon points="121.73 124.12 104.58 83.55 118.26 83.55 128.73 109.21 139.5 83.55 151.86 83.55 134.71 124.12 121.73 124.12" style="fill:none;stroke:#3a3a3a"/><path d="M158.81,124.12V92.73H171v31.39Zm6.07-35.46a8,8,0,0,1-5.47-1.79,5.86,5.86,0,0,1,0-8.78,8,8,0,0,1,5.47-1.8A8.31,8.31,0,0,1,170.36,78a5.27,5.27,0,0,1,2,4.26,5.88,5.88,0,0,1-2,4.6A7.86,7.86,0,0,1,164.88,88.66Z" style="fill:none;stroke:#3a3a3a"/><path d="M198.78,124.72a22.69,22.69,0,0,1-10.15-2.14,16.29,16.29,0,0,1-6.65-5.84,15.25,15.25,0,0,1-2.35-8.34A15.5,15.5,0,0,1,182,100a16.15,16.15,0,0,1,6.38-5.75,20,20,0,0,1,9.19-2.08A20.34,20.34,0,0,1,206.19,94a15.06,15.06,0,0,1,6.3,5.45,16,16,0,0,1,2.38,9c0,.46,0,1-.06,1.54,0,.32-.05.63-.07.92H191.6l.36,1a6.69,6.69,0,0,0,.44.94,6.06,6.06,0,0,0,2.71,2.54,9.47,9.47,0,0,0,4.09.82,10.81,10.81,0,0,0,4-.65A14.73,14.73,0,0,0,206,114l6.16,6.21a15,15,0,0,1-5.17,3.26A22.73,22.73,0,0,1,198.78,124.72Zm-1.14-24.78a6.17,6.17,0,0,0-3.28.86,5.68,5.68,0,0,0-2.16,2.39,7,7,0,0,0-.56,1.71l-.17.85h12.34l-.18-.86a6.28,6.28,0,0,0-.59-1.71,6,6,0,0,0-2.14-2.38A6.07,6.07,0,0,0,197.64,99.94Z" style="fill:none;stroke:#3a3a3a"/><path d="M238.68,124.72c-4.32,0-7.72-1-10.09-3.09s-3.54-5.23-3.54-9.51V103h-4.5V94.53h4.5V85.35h12.14v9.18h6.72V103h-6.72v9a3.92,3.92,0,0,0,1,2.83,3.37,3.37,0,0,0,2.52,1.06,6.13,6.13,0,0,0,2.66-.57l2.77,8a11.9,11.9,0,0,1-3,1A23.76,23.76,0,0,1,238.68,124.72Z" style="fill:none;stroke:#3a3a3a"/><path d="M276.83,124.12V108.46c0-2.23-.41-3.81-1.24-4.81a4.34,4.34,0,0,0-3.49-1.55,6,6,0,0,0-2.89.72,5.14,5.14,0,0,0-2.17,2.39,9.77,9.77,0,0,0-.75,4.21v14.7H254.15V81h12.14V96.21l1.18-1a11.17,11.17,0,0,1,1.83-1.29,13.88,13.88,0,0,1,6.94-1.77,14.37,14.37,0,0,1,6.52,1.46,10.37,10.37,0,0,1,4.52,4.47,16.81,16.81,0,0,1,1.68,8.06v18Z" style="fill:none;stroke:#3a3a3a"/><path d="M309.12,124.72a14,14,0,0,1-6.4-1.3,8.86,8.86,0,0,1-5.07-8.18,8.28,8.28,0,0,1,1.48-5,9.25,9.25,0,0,1,4.61-3.11,25.93,25.93,0,0,1,8.2-1.1h6.27l-.13-.83a4.85,4.85,0,0,0-1.63-3c-1.12-1-2.83-1.44-5.23-1.44a16.58,16.58,0,0,0-4.71.72A14.38,14.38,0,0,0,303.1,103l-3.68-7.61a23.45,23.45,0,0,1,6.14-2.34,33.55,33.55,0,0,1,7.7-.94c5.44,0,9.7,1.22,12.66,3.62s4.38,6.22,4.38,11.45v16.92H319.13v-3.56l-1.36-.31a7,7,0,0,1-2.29,2.81A10.84,10.84,0,0,1,309.12,124.72Zm5-13.56a6.22,6.22,0,0,0-3.56.82,3.29,3.29,0,0,0-.18,5.09,4.23,4.23,0,0,0,2.84.92,5.36,5.36,0,0,0,2.93-.86,5,5,0,0,0,2-2.75l0-.11v-3.11Z" style="fill:none;stroke:#3a3a3a"/><path d="M352.74,124.72a37.56,37.56,0,0,1-8.13-.88,25.27,25.27,0,0,1-5.85-2l3.17-7.61a22,22,0,0,0,4.9,1.84,25.57,25.57,0,0,0,6.21.8,9.19,9.19,0,0,0,3.64-.49,1.94,1.94,0,0,0,1.27-1.78c0-.47-.2-1.31-1.51-1.73a14.05,14.05,0,0,0-2.85-.54c-1.11-.12-2.34-.27-3.67-.45a33.41,33.41,0,0,1-4-.79,12.52,12.52,0,0,1-3.52-1.53,7.5,7.5,0,0,1-2.46-2.66,8.78,8.78,0,0,1-.93-4.3,8.48,8.48,0,0,1,1.75-5.21,12.2,12.2,0,0,1,5.34-3.82,24,24,0,0,1,9-1.48,39.4,39.4,0,0,1,7.07.65,21.77,21.77,0,0,1,5.39,1.67l-3.16,7.61a18.2,18.2,0,0,0-4.45-1.59,22.82,22.82,0,0,0-4.67-.53,9.22,9.22,0,0,0-3.84.56c-.87.46-1.32,1-1.32,1.72,0,.46.2,1.29,1.5,1.75a13,13,0,0,0,2.86.58c1.11.12,2.34.27,3.67.44a28.78,28.78,0,0,1,3.92.82,12.91,12.91,0,0,1,3.5,1.57,7.25,7.25,0,0,1,2.46,2.66,8.76,8.76,0,0,1,.93,4.3,8.52,8.52,0,0,1-1.72,5.07,12,12,0,0,1-5.33,3.84A24.85,24.85,0,0,1,352.74,124.72Z" style="fill:none;stroke:#3a3a3a"/></g></g></svg>