<svg id="Block_theme" xmlns="http://www.w3.org/2000/svg" width="22.4" height="22.4" viewBox="0 0 22.4 22.4">
  <path id="Path_143294" data-name="Path 143294" d="M10.2,6.2A2.1,2.1,0,1,0,8.1,4.1,2.1,2.1,0,0,0,10.2,6.2Zm5.6,4.2a2.1,2.1,0,1,0-2.1-2.1A2.1,2.1,0,0,0,15.8,10.4ZM6.7,9A2.1,2.1,0,1,1,4.6,6.9,2.1,2.1,0,0,1,6.7,9Zm.7,8.4a2.1,2.1,0,1,0-2.1-2.1A2.1,2.1,0,0,0,7.4,17.4Z" transform="translate(1 0.8)" fill="#373737"/>
  <path id="Path_143295" data-name="Path 143295" d="M22.4,11.2c0,4.41-2.612,3.619-4.994,2.9-1.418-.43-2.755-.836-3.406-.1-.844.956-.665,2.547-.491,4.088.248,2.2.486,4.312-2.309,4.312A11.2,11.2,0,1,1,22.4,11.2ZM11.2,21c.855,0,.916-.239.917-.246a3.24,3.24,0,0,0,.1-1.567c-.02-.235-.052-.518-.085-.827-.073-.65-.157-1.407-.165-2.047a4.661,4.661,0,0,1,.986-3.24,2.648,2.648,0,0,1,1.781-.865,5.279,5.279,0,0,1,1.624.146c.48.108.983.26,1.435.4l.039.011c.484.147.921.279,1.334.372.914.207,1.266.116,1.387.034.053-.036.449-.343.449-1.968A9.8,9.8,0,1,0,11.2,21Z" fill="#373737"/>
</svg>
