<svg version="1.0"
  xmlns="http://www.w3.org/2000/svg" width="512.000000pt" height="512.000000pt" viewBox="0 0 512.000000 512.000000" preserveAspectRatio="xMidYMid meet">
  <style type="text/css">
	.st0{fill:#FFFFFF;}
  </style>
  <g transform="translate(0.000000,512.000000) scale(0.100000,-0.100000)" fill="#000000" stroke="none">
    <path class="st0" d="M245 5111 c-90 -22 -172 -90 -215 -176 l-25 -50 0 -2325 0 -2325 27
-51 c40 -76 70 -107 140 -145 l63 -34 2325 0 2325 0 63 34 c70 38 100 69 140
145 l27 51 0 2325 0 2325 -34 63 c-38 70 -69 100 -145 140 l-51 27 -2305 2
c-1268 0 -2318 -2 -2335 -6z m3063 -898 l2 -693 -1550 0 -1550 0 0 646 c0 566
2 650 16 679 33 69 -83 65 1579 62 l1500 -2 3 -692z m1537 681 c67 -31 65 -11
65 -728 l0 -646 -695 0 -695 0 0 695 0 695 646 0 c568 0 650 -2 679 -16z
m-1540 -2334 l0 -745 -1545 0 -1545 0 -3 735 c-1 404 0 741 3 748 3 10 318 12
1547 10 l1543 -3 0 -745z m1600 0 l0 -745 -692 -3 -693 -2 0 750 0 750 693 -2
692 -3 0 -745z m5 -1606 c0 -717 2 -697 -65 -728 -30 -14 -255 -16 -2285 -16
-2030 0 -2255 2 -2285 16 -67 31 -65 11 -65 728 l0 646 2350 0 2350 0 0 -646z"/>
  </g>
</svg>
