<svg xmlns="http://www.w3.org/2000/svg" width="22.399" height="22.402" viewBox="0 0 22.399 22.402">
  <path id="Block" d="M2.8,1.4A1.4,1.4,0,1,0,4.2,2.8,1.4,1.4,0,0,0,2.8,1.4ZM0,2.8a2.8,2.8,0,0,1,5.512-.7H16.888A2.8,2.8,0,1,1,20.3,5.513V16.889A2.8,2.8,0,1,1,16.888,20.3H5.512A2.8,2.8,0,1,1,2.1,16.889V5.513A2.8,2.8,0,0,1,0,2.8ZM3.5,5.513V16.889A2.8,2.8,0,0,1,5.512,18.9H16.888A2.806,2.806,0,0,1,18.9,16.889V5.513A2.806,2.806,0,0,1,16.888,3.5H5.512A2.806,2.806,0,0,1,3.5,5.513ZM19.6,1.4A1.4,1.4,0,1,0,21,2.8,1.4,1.4,0,0,0,19.6,1.4ZM2.8,18.2a1.4,1.4,0,1,0,1.4,1.4A1.4,1.4,0,0,0,2.8,18.2Zm16.8,0A1.4,1.4,0,1,0,21,19.6,1.4,1.4,0,0,0,19.6,18.2Z" transform="translate(0 0.002)" fill="#373737"/>
</svg>
