<svg xmlns="http://www.w3.org/2000/svg" enable-background="new 0 0 64 64" viewBox="0 0 64 64"><rect width="20" height="4" x="2" y="46" fill="#404c59"/><rect width="20" height="4" x="42" y="46" fill="#404c59"/><rect width="16" height="12" x="4" y="50" fill="#405d80"/><polyline fill="#e6e6e6" points="10 62 10 58 14 58 14 62"/><rect width="16" height="12" x="44" y="50" fill="#405d80"/><polyline fill="#e6e6e6" points="50 62 50 58 54 58 54 62"/><polygon fill="#cc6c66" points="34 39 34 32 30 32 30 39 27 39 32 45 37 39"/><rect width="8" height="15" x="40" y="12" fill="#405d80"/><rect width="8" height="15" x="16" y="12" fill="#405d80"/><path fill="#404c59" d="M24,2v25h16c0-1,0-25,0-25H24z"/><rect width="6" height="5" x="29" y="22" fill="#e6e6e6"/><rect width="2" height="2" x="27" y="9" fill="#e6e6e6"/><rect width="2" height="2" x="35" y="9" fill="#e6e6e6"/><rect width="2" height="2" x="31" y="9" fill="#e6e6e6"/><rect width="2" height="2" x="27" y="5" fill="#e6e6e6"/><rect width="2" height="2" x="35" y="5" fill="#e6e6e6"/><rect width="2" height="2" x="31" y="5" fill="#e6e6e6"/><rect width="2" height="2" x="31" y="13" fill="#e6e6e6"/><rect width="2" height="2" x="31" y="17" fill="#e6e6e6"/><rect width="2" height="2" x="27" y="13" fill="#e6e6e6"/><rect width="2" height="2" x="35" y="13" fill="#e6e6e6"/><rect width="2" height="2" x="27" y="17" fill="#e6e6e6"/><rect width="2" height="2" x="35" y="17" fill="#e6e6e6"/><rect width="2" height="2" x="43" y="15" fill="#e6e6e6"/><rect width="2" height="2" x="43" y="19" fill="#e6e6e6"/><rect width="2" height="2" x="19" y="15" fill="#e6e6e6"/><rect width="2" height="2" x="19" y="19" fill="#e6e6e6"/><rect width="2" height="2" x="15" y="52" fill="#e6e6e6"/><rect width="2" height="2" x="11" y="52" fill="#e6e6e6"/><rect width="2" height="2" x="7" y="52" fill="#e6e6e6"/><rect width="2" height="2" x="55" y="52" fill="#e6e6e6"/><rect width="2" height="2" x="51" y="52" fill="#e6e6e6"/><rect width="2" height="2" x="47" y="52" fill="#e6e6e6"/><rect width="38" height="2" x="13" y="27" fill="#667280"/></svg>
