
<svg version="1.1" id="Layer_1" xmlns="http://www.w3.org/2000/svg" xmlns:xlink="http://www.w3.org/1999/xlink" x="0px" y="0px"
	 viewBox="0 0 512 512" style="enable-background:new 0 0 512 512;" xml:space="preserve">
<style type="text/css">
	.st0{fill:#00A859;}
</style>
<g transform="translate(0.000000,512.000000) scale(0.100000,-0.100000)">
	<path class="st0" d="M380,4906c-116-32-211-109-262-214l-33-67l-3-1829L80,966l26-53c14-29,43-68,66-87c70-61,102-66,379-66h247
		l55-78c313-447,908-605,1404-372c172,80,336,219,447,377l57,83l988,2l987,3l76,38c87,43,142,98,185,186l28,56l5,1315
		c3,723,3,1527,0,1785l-5,470l-31,65c-34,70-95,138-159,175c-98,58,31,55-2285,54C893,4919,415,4916,380,4906z M4736,4741
		c22-10,57-35,77-56c65-67,67-81,67-532v-403l-2322,3l-2323,2v415c0,406,0,416,22,455c12,22,36,54,55,72c70,67-116,62,2243,62
		C4617,4760,4696,4759,4736,4741z M1211,3508c39-93,103-195,130-212c12-6,40-4,93,8c206,49,326-23,326-194c0-35-7-90-16-122
		c-13-46-14-64-6-83c23-51,188-137,380-199c160-52,180-49,221,33c50,97,144,170,220,171c75,0,173-76,222-171c42-83,62-85,233-29
		c142,48,331,143,360,182c20,28,20,29,2,98c-38,145-7,262,81,306c47,24,160,26,252,4l64-15l33,39c30,35,92,150,128,239l15,37h465
		h466V2368c0-819-4-1246-10-1270c-16-56-69-119-125-147l-49-26l-933-3c-513-1-933-1-933,1s9,29,19,60c59,169,66,432,18,619
		c-53,201-151,374-296,519s-312,241-520,297c-87,23-113,26-276,26c-163-1-190-3-280-27c-135-36-318-128-422-211
		c-238-192-382-461-415-772c-14-135-2-266,37-413c14-51,25-94,25-97c0-2-93-4-208-4c-227,0-237,2-267,60c-13,25-15,195-15,1325v1295
		l471-2l472-3L1211,3508z M1917,3492c78-77,130-119,186-151c379-213,840-138,1135,185l68,74l237-2l237-3l-31-65c-17-36-32-66-33-68
		c-2-1-36,2-75,8c-184,26-334-48-404-199c-26-55-31-78-31-146c-1-44,1-98,4-120l5-40l-71-35c-39-20-109-49-154-64l-83-29l-21,29
		c-47,66-110,123-169,155c-52,27-75,34-142,37c-115,6-178-20-265-107c-37-36-73-77-81-90l-15-24l-70,23c-38,12-108,41-156,63l-88,40
		l8,41c4,23,7,77,6,121c-1,144-73,257-201,318c-54,25-78,30-146,31c-45,0-100-3-122-7c-44-9-45-8-91,101l-14,32h234h235L1917,3492z
		 M3069,3574c-37-39-151-112-219-140c-140-57-328-72-467-39c-97,24-239,96-304,155l-54,49l534,1h534L3069,3574z M1700,2082v-199
		l-97-6c-54-4-120-9-147-13l-49-7l7,29c13,54,93,208,138,270c35,47,125,124,145,124C1699,2280,1700,2191,1700,2082z M1890,2263
		c95-63,170-173,240-352l21-53l-68,7c-37,4-104,10-148,14l-80,6l-3,198c-1,108,1,197,6,197C1862,2280,1877,2273,1890,2263z
		 M1381,2181c-32-45-95-185-122-271c-12-41-28-80-33-86c-6-6-45-22-86-35s-118-45-170-71c-52-25-96-45-98-43c-6,5,66,144,103,199
		c52,79,127,158,207,219c73,56,206,132,215,123C1400,2213,1392,2197,1381,2181z M2213,2194c139-70,280-194,366-322
		c44-65,107-190,99-197c-2-2-42,16-89,40s-125,57-174,74l-90,30l-36,103c-41,117-65,171-109,246c-17,28-28,52-25,52
		S2184,2208,2213,2194z M1700,1565v-165h-186h-187l7,91c6,85,22,188,29,196c10,9,218,37,310,42l27,1V1565z M2094,1705
		c48-8,91-16,94-20c10-10,31-158,31-223l1-62l-182,2l-183,3l-3,150c-1,82,0,155,3,163C1860,1733,1936,1729,2094,1705z M1186,1568
		c-4-40-9-94-12-120l-6-48H999c-115,0-169,3-169,11c0,24,112,118,189,158c75,39,144,69,165,70C1188,1640,1189,1607,1186,1568z
		 M2508,1583c91-44,212-142,212-171c0-9-42-12-169-12h-169l-6,78c-4,42-10,97-13,121l-6,44l29-7C2402,1632,2457,1608,2508,1583z
		 M1173,1208c4-24,9-78,13-121l6-78l-67,26c-93,35-171,81-228,134c-89,83-92,81,102,81h169L1173,1208z M1700,1089V927l-97,6
		c-54,3-130,11-170,18l-71,12l-11,61c-6,33-13,98-17,144l-7,82h187h186V1089z M2219,1188c0-61-21-213-30-222s-218-36-278-36h-61v160
		v160h185h185L2219,1188z M2720,1239c0-30-113-119-212-167c-56-28-114-54-127-57c-23-7-23-6-18,36c4,24,10,79,13,122l7,77h168
		C2666,1250,2720,1247,2720,1239z M1139,865l96-32l64-119c35-66,92-163,128-217c74-114,75-113-82-37c-182,90-335,237-424,410
		c-64,125-65,124,35,73C1003,918,1086,883,1139,865z M2675,954c-8-19-24-47-35-61s-20-32-20-40c0-25-82-137-154-209
		c-78-77-156-134-255-184l-65-32l19,28c42,63,96,182,126,279l33,102l77,23c43,12,124,46,181,75s104,53,106,54
		C2689,990,2684,974,2675,954z M2145,778c-21-70-74-180-118-245c-44-66-134-153-158-153c-5,0-9,84-9,193v194l132,12
		c73,7,134,14,137,17C2141,808,2151,797,2145,778z M1618,774l82-7V587V406l-31,30c-17,16-51,56-75,90c-50,69-154,243-154,257
		c0,6,21,7,48,4C1514,783,1572,777,1618,774z"/>
	<path class="st0" d="M3133,4539c-74-29-144-95-177-168c-72-161-4-351,152-428l57-28h585h585l57,28c150,73,219,245,164,406
		c-26,76-110,161-189,190c-56,21-71,21-620,20C3210,4559,3183,4558,3133,4539z M4296,4399c54-14,110-72,120-124
		c19-102-38-187-137-206c-57-10-1001-10-1058,0c-77,15-130,70-138,144c-10,85,33,154,113,182C3246,4413,4227,4416,4296,4399z"/>
	<path class="st0" d="M802,4540c-67-14-131-50-178-103c-109-122-104-315,12-430c154-153,399-117,503,73c32,59,36,72,36,145
		c0,104-27,167-101,234C999,4528,895,4558,802,4540z M948,4363c95-70,96-206,2-270c-42-29-120-31-170-4c-112,59-102,233,15,287
		C835,4395,914,4388,948,4363z"/>
	<path class="st0" d="M1574,4540c-68-14-111-36-163-85c-69-65-96-129-96-230c0-73,4-86,36-145c128-233,455-222,567,20
		c63,136,10,314-117,394C1735,4536,1644,4554,1574,4540z M1718,4363c45-34,65-69,69-125c7-99-59-168-162-168c-172,0-215,242-55,309
		C1607,4395,1687,4386,1718,4363z"/>
	<path class="st0" d="M2289,4537c-88-33-156-95-193-176c-30-68-28-189,4-256c73-152,248-223,403-165c76,29,130,79,169,157
		c27,56,32,77,32,137c0,120-61,224-166,281c-43,24-67,29-133,32C2355,4549,2312,4545,2289,4537z M2460,4378c65-34,85-67,85-142
		c0-53-4-68-27-98c-93-122-288-58-288,95c0,58,19,98,62,130C2348,4405,2397,4410,2460,4378z"/>
	<path class="st0" d="M3807,2568c-19-18-54-114-156-435c-72-227-131-419-131-428s11-27,25-40c29-30,74-33,103-7
		c23,19,282,811,282,862c0,33-40,70-76,70C3842,2590,3820,2580,3807,2568z"/>
	<path class="st0" d="M4029,2421c-16-13-23-29-23-55c0-33,10-47,109-146l109-110l-29-32c-16-18-64-69-106-113s-80-90-83-102
		c-16-52,41-103,97-89c13,3,88,73,165,155c125,131,142,153,142,183s-16,49-148,181c-127,127-152,147-179,147
		C4066,2440,4042,2432,4029,2421z"/>
	<path class="st0" d="M3335,2420c-11-4-80-68-152-142c-176-178-176-158,5-340c151-152,176-166,225-128c21,16,27,30,27,58
		c0,33-10,47-102,139l-103,103l103,103c92,92,102,106,102,139C3440,2409,3389,2443,3335,2420z"/>
</g>
</svg>
