<svg xmlns="http://www.w3.org/2000/svg" width="22.842" height="20" viewBox="0 0 22.842 20">
  <path id="Path_115709" data-name="Path 115709" d="M4.269,22.571A1.429,1.429,0,1,0,5.7,21.143,1.429,1.429,0,0,0,4.269,22.571Zm12.857,0a1.429,1.429,0,1,0,1.429-1.429A1.429,1.429,0,0,0,17.126,22.571ZM-.058,4.714a.714.714,0,0,0,.714.714H2.141l.887,3.794,1.241,6.206a1.255,1.255,0,0,0,.03.146l-.727,3.271a.712.712,0,0,0,.7.869H20.475a.714.714,0,1,0,0-1.429H5.161l.327-1.471a1.3,1.3,0,0,0,.21.043H18.719a1.479,1.479,0,0,0,1.644-1.071l2.32-7.117a1.269,1.269,0,0,0-1.271-1.811H4.269a1.351,1.351,0,0,0-.313.063L3.4,4.551A.714.714,0,0,0,2.706,4H.656a.714.714,0,0,0-.714.714ZM4.3,8.286H21.3l-2.28,7a1.5,1.5,0,0,1-.067.136c-.047,0-.121.009-.239.009H5.7v-.141l-.027-.139Z" transform="translate(0.059 -4)"/>
</svg>
