<svg xmlns="http://www.w3.org/2000/svg" data-name="Layer 3" viewBox="0 0 64 64" id="sending-letter"><path fill="#f2b0ae" d="M58.079,17.844A2.985,2.985,0,0,0,56,17H14a2.985,2.985,0,0,0-2.079.844L35,39Z"></path><polygon fill="#f2b0ae" points="40 52 52 52 52 56 62 49 52 42 52 46 40 46 40 52"></polygon><path fill="#f2b0ae" d="M44,17V14a6,6,0,0,0-6-6H32a6,6,0,0,0-6,6v3h4V14a2,2,0,0,1,2-2h6a2,2,0,0,1,2,2v3Z"></path><rect width="4" height="6" x="32" y="46" fill="#f2b0ae"></rect><rect width="3" height="6" x="25" y="46" fill="#f2b0ae"></rect><path fill="#b1404a" d="M62.573,48.181l-2.6-1.819c.011-.121.025-.241.025-.362V20a4,4,0,0,0-4-4H45V14a7.009,7.009,0,0,0-7-7H32a7.009,7.009,0,0,0-7,7v2H14a4,4,0,0,0-4,4v8H7v2h3v2H3v2h7v8H6v2h4v2a4,4,0,0,0,4,4H24v2a1,1,0,0,0,1,1h3a1,1,0,0,0,1-1V50h2v2a1,1,0,0,0,1,1h4a1,1,0,0,0,1-1V50h2v2a1,1,0,0,0,1,1H51v3a1,1,0,0,0,1.573.819l10-7a1,1,0,0,0,0-1.638ZM27,14a5.006,5.006,0,0,1,5-5h6a5.006,5.006,0,0,1,5,5v2H41V14a3,3,0,0,0-3-3H32a3,3,0,0,0-3,3v2H27Zm12,2H31V14a1,1,0,0,1,1-1h6a1,1,0,0,1,1,1Zm17,2a1.984,1.984,0,0,1,.387.039L35,37.644l-21.387-19.6A1.984,1.984,0,0,1,14,18ZM12,32V30h3V28H12V20a1.963,1.963,0,0,1,.11-.625L25.034,31.221,12.028,46.28A2,2,0,0,1,12,46V34h2V32ZM27,51H26V47h1Zm8,0H33V47h2Zm4-5v2H37V46a1,1,0,0,0-1-1H32a1,1,0,0,0-1,1v2H29V46a1,1,0,0,0-1-1H25a1,1,0,0,0-1,1v2H14a1.988,1.988,0,0,1-.7-.133L26.508,32.573l7.816,7.164a1,1,0,0,0,1.352,0l7.816-7.164,6.979,8.08,1.513-1.306-7.018-8.126L57.89,19.375A1.963,1.963,0,0,1,58,20V44.979l-5.427-3.8A1,1,0,0,0,51,42v3H40A1,1,0,0,0,39,46Zm14,8.079V52a1,1,0,0,0-1-1H41V47H52a1,1,0,0,0,1-1V43.921L60.256,49Z"></path><rect width="19" height="2" x="1" y="52" fill="#b1404a"></rect><rect width="2" height="2" x="2" y="42" fill="#b1404a"></rect><rect width="19" height="2" x="1" y="12" fill="#b1404a"></rect><rect width="5" height="2" x="3" y="16" fill="#b1404a"></rect></svg>
