<svg style="width: 24px;" version="1.1" id="Layer_1" xmlns="http://www.w3.org/2000/svg" xmlns:xlink="http://www.w3.org/1999/xlink" x="0px" y="0px" width="24px" height="16px" viewBox="0 0 24 16" enable-background="new 0 0 24 16" xml:space="preserve">
  <path fill="#4399FA" d="M20,16H4c-2.2,0-4-1.8-4-4V4c0-2.2,1.8-4,4-4h16c2.2,0,4,1.8,4,4v8C24,14.2,22.2,16,20,16z"></path>
  <g>
    <path fill="#FFFFFF" d="M4.5,10.7h3.2V12H3V4.4h1.5V10.7z"></path>
    <path fill="#FFFFFF" d="M8.5,4.9c0-0.2,0.1-0.4,0.2-0.6C8.8,4.2,9,4.1,9.3,4.1c0.2,0,0.4,0.1,0.6,0.2c0.1,0.1,0.2,0.3,0.2,0.6
		c0,0.2-0.1,0.4-0.2,0.6C9.7,5.6,9.5,5.7,9.3,5.7S8.8,5.6,8.7,5.5C8.5,5.3,8.5,5.1,8.5,4.9z M10,12H8.6V6.4H10V12z"></path>
    <path fill="#FFFFFF" d="M12.5,6.4l0,0.7c0.4-0.5,0.9-0.8,1.6-0.8c0.6,0,1,0.2,1.3,0.5c0.3,0.4,0.4,0.9,0.4,1.6V12h-1.5V8.4
		c0-0.3-0.1-0.6-0.2-0.7s-0.4-0.2-0.7-0.2c-0.4,0-0.7,0.2-0.9,0.5v4h-1.5V6.4H12.5z"></path>
    <path fill="#FFFFFF" d="M18.9,9.7l-0.5,0.5V12H17V4h1.5v4.4l0.3-0.4l1.4-1.7h1.7l-2,2.3L22,12h-1.7L18.9,9.7z"></path>
  </g>
</svg>
