<svg xmlns="http://www.w3.org/2000/svg" width="22.283" height="22.821" viewBox="0 0 22.283 22.821">
  <g id="view-details" transform="translate(-6.139 511.916)">
    <path id="Path_115808" data-name="Path 115808" d="M7.706-511.852A2.061,2.061,0,0,0,6.23-510.5c-.067.192-.076.918-.089,9.281-.009,5.884,0,9.174.031,9.362A2.087,2.087,0,0,0,7.6-490.218c.187.067.878.076,7.4.089,4.44.009,7.369,0,7.636-.031a1.237,1.237,0,0,0,1.043-.517c.254-.366.25-.383-.147-.785-.267-.272-.374-.352-.441-.33-.049.013-3.459.022-7.574.022-8.305,0-7.645.027-7.739-.3-.036-.12-.045-2.759-.036-9.072l.013-8.907.125-.12.12-.125,7.146-.013c5.024-.009,7.191,0,7.306.036a.425.425,0,0,1,.223.147c.045.076.062,1.1.08,4.681l.022,4.587.423.143a4.562,4.562,0,0,1,.776.352c.192.116.357.21.366.21s.018-2.265.018-5.033c0-5.653.022-5.283-.334-5.818a2.057,2.057,0,0,0-1.311-.874c-.156-.027-2.728-.045-7.489-.04C9.3-511.915,7.933-511.9,7.706-511.852Z"/>
    <path id="Path_115809" data-name="Path 115809" d="M75.009-398.189l.013.816H85.186l.013-.816.009-.811H75Z" transform="translate(-65.792 -107.882)"/>
    <path id="Path_115810" data-name="Path 115810" d="M75-294.175v.825H85.209V-295H75Z" transform="translate(-65.792 -207.245)"/>
    <path id="Path_115811" data-name="Path 115811" d="M268.015-241.316a3.6,3.6,0,0,0-3.089,2.693,4.138,4.138,0,0,0-.022,1.672,3.706,3.706,0,0,0,1.908,2.425,3.122,3.122,0,0,0,1.591.352,3.492,3.492,0,0,0,1.525-.308l.267-.12,2.01,2.01,2.015,2.015.682-.678.678-.682-2.01-2.01-2.015-2.015.138-.325a3.111,3.111,0,0,0,.29-1.467,3.07,3.07,0,0,0-.094-.9A3.622,3.622,0,0,0,268.015-241.316Zm1.025,1.534a1.907,1.907,0,0,1,.825.486,2.127,2.127,0,0,1,.058,3.049,2.235,2.235,0,0,1-2.6.33,2.539,2.539,0,0,1-.793-.82,2.347,2.347,0,0,1-.156-1.632,2.182,2.182,0,0,1,1.765-1.493A2.723,2.723,0,0,1,269.04-239.783Z" transform="translate(-247.158 -258.517)"/>
  </g>
</svg>
