<svg xmlns="http://www.w3.org/2000/svg" fill="none" viewBox="-0.3 -0.3 24 24" id="Love--Streamline-Stickies" height="24" width="24"><desc>Love Streamline Icon: https://streamlinehq.com</desc><path fill="#ff52a1" stroke="#231f20" stroke-miterlimit="10" d="M16.262999999999998 1.5795c-1.638 -0.0699192 -3.2499089999999997 0.4281147 -4.563 1.40985 -1.313091 -0.9817353 -2.925 -1.4797692 -4.563 -1.40985C2.574 1.5795 0.2925 4.3172999999999995 0.2925 8.424c0 6.312149999999999 5.85 10.687949999999999 10.3077 13.1157 0.3372525 0.18433349999999998 0.715455 0.280917 1.0997999999999999 0.280917 0.384345 0 0.7625475 -0.09658349999999999 1.0997999999999999 -0.280917C17.286749999999998 19.11195 23.107499999999998 14.73615 23.107499999999998 8.424c0 -4.106699999999999 -2.2815 -6.844499999999999 -6.844499999999999 -6.844499999999999Z" stroke-width="0.6"></path><path stroke="#ffffff" stroke-linecap="round" stroke-miterlimit="10" d="M16.5906 3.9253558499999994c2.5622999999999996 -0.2691 3.45735 1.17 3.8259 2.19959415" stroke-width="0.6"></path></svg>