<svg version="1.1" id="Layer_1" xmlns="http://www.w3.org/2000/svg" xmlns:xlink="http://www.w3.org/1999/xlink" x="0px" y="0px"
	 viewBox="0 0 512 512" style="enable-background:new 0 0 512 512;" xml:space="preserve">
<style type="text/css">
	.st0{fill:#00A859;}
</style>
<g transform="translate(0.000000,512.000000) scale(0.100000,-0.100000)">
	<path class="st0" d="M1000,5109c-14-6-36-20-48-32c-55-51-52,28-52-1390V2373l23-33c38-57,71-75,137-75s99,18,138,75l22,33v1208
		v1209l1893,2l1892,3l37,23c41,25,78,91,78,138c0,53-40,117-90,142l-44,22l-1981-1C1714,5119,1016,5115,1000,5109z"/>
	<path class="st0" d="M4921,4570c-48-11-83-40-108-90l-23-44V2383V330l-1258-2l-1258-3l-37-25c-42-28-77-91-77-136
		c0-53,40-117,90-142l44-22h1346h1346l44,23c33,16,51,34,68,67l22,44v2153c0,1807-2,2159-14,2186c-16,39-62,82-96,92
		C4964,4577,4955,4578,4921,4570z"/>
	<path class="st0" d="M4380,4215c-20-9-132-113-262-242l-227-227l-80,77c-92,90-135,112-200,102c-59-9-125-71-135-127
		c-14-78,5-109,156-264c176-180,231-209,321-170c18,8,167,150,334,317c324,327,324,327,310,415C4581,4192,4468,4254,4380,4215z"/>
	<path class="st0" d="M1541,3910c-64-15-117-70-128-133c-8-53,20-121,65-155l35-27l859-3c849-2,859-2,898,18c46,24,76,66,85,122
		c5,30,1,49-17,85c-27,55-59,81-114,93C3176,3922,1589,3921,1541,3910z"/>
	<path class="st0" d="M4380,2984c-21-9-128-107-262-241l-227-227l-85,81c-92,89-136,111-202,98c-51-9-119-76-128-127
		c-14-78,5-109,156-264c176-180,231-209,321-170c18,8,167,150,334,317c263,265,302,309,308,342c16,84-18,156-89,188
		C4457,3003,4426,3004,4380,2984z"/>
	<path class="st0" d="M1526,2700c-60-18-116-95-116-158c0-49,41-113,90-139l43-23h840c830,0,841,0,883,21c70,33,105,111,85,186
		c-13,47-65,100-112,113C3196,2712,1567,2712,1526,2700z"/>
	<path class="st0" d="M285,2145c-22-8-41-15-41-15c-1,0-13-17-28-38c-21-31-45-118-122-448c-66-284-94-421-91-447c3-21,17-54,32-73
		c74-96,228-79,275,30c10,23,50,184,90,359l74,317h49c48,0,48-1,43-27c-17-90-67-589-62-618c19-100,140-154,235-105
		c73,37,79,56,117,387c47,407,35,363,94,363h49l3-334c3-320,4-336,24-362c34-46,70-67,123-72c41-4,58,0,94,21c80,47,82,55,85,425
		l3,322h47h47l38-325c21-188,43-337,51-353c61-117,208-124,283-13c30,45,30,79-7,386c-39,328-40,305,14,305c34,0,46-4,50-17
		c2-10,37-157,76-328c40-170,78-321,85-335c43-83,153-116,226-67c49,33,79,83,79,130c0,38-170,789-191,845c-15,39-38,62-84,83
		c-38,18-86,19-880,18C459,2159,319,2157,285,2145z"/>
	<path class="st0" d="M4390,1763c-16-3-112-91-262-241l-238-236l-83,81c-91,89-136,111-203,98c-51-9-119-76-128-127
		c-13-74,6-109,132-239c184-192,230-221,320-204c32,6,79,48,344,313c219,217,311,316,319,340c15,45,6,118-18,151
		C4535,1750,4462,1776,4390,1763z"/>
	<path class="st0" d="M2555,1484c-71-37-101-92-92-171c6-57,31-92,87-120c43-22,52-23,357-23c347,0,356,1,409,62
		c73,83,41,211-62,254C3202,1508,2597,1506,2555,1484z"/>
	<path class="st0" d="M347,1046c-51-19-85-52-98-95c-6-23-9-181-7-443c3-393,4-408,24-434c11-15,33-37,48-48c27-21,37-21,824-24
		l797-2l45,22c33,17,51,35,68,68c22,44,22,50,22,437c0,428-1,435-56,487c-60,55-150,56-212,2c-60-53-62-64-62-391V330h-590H560v309
		c0,303,0,309-23,341C495,1043,415,1071,347,1046z"/>
</g>
</svg>
