
<svg version="1.1" id="Layer_1" xmlns="http://www.w3.org/2000/svg" xmlns:xlink="http://www.w3.org/1999/xlink" x="0px" y="0px"
	 viewBox="0 0 512 512" style="enable-background:new 0 0 512 512;" xml:space="preserve">
<style type="text/css">
	.st0{fill:#00A859;}
</style>
<g transform="translate(0.000000,512.000000) scale(0.100000,-0.100000)">
	<path class="st0" d="M186,5104c-34-11-64-31-102-68c-92-93-84,150-84-2476C0-65-8,177,84,84C176-8,3,0,2015,0h1772l27,21
		c34,27,36,77,3,107l-23,22H2021c-1958,0-1810-5-1851,63c-20,31-20,65-20,1910v1877h274c261,0,274,1,300,21c36,28,36,80,0,108
		c-26,20-39,21-300,21H150v360c0,399,1,402,63,440c31,20,65,20,1960,20h1928l24,25c32,31,32,69,0,100l-24,25l-1933-1
		C480,5119,229,5117,186,5104z"/>
	<path class="st0" d="M4375,5095c-14-13-25-36-25-50s11-37,25-50l24-25h236c261,0,279-4,315-63c19-30,20-53,20-394v-363H2986
		c-1923,0-1984-1-2007-19c-32-26-32-86,0-112c23-18,84-19,2007-19h1984V2123c0-1845,0-1879-20-1910c-38-63-39-63-465-63
		c-228,0-394-4-404-10c-10-5-24-22-30-39c-10-24-10-34,3-59c8-16,23-32,31-36c9-3,191-6,404-6c457,0,463,1,547,84
		c92,93,84-149,84,2476s8,2383-84,2476c-79,78-107,84-398,84h-239L4375,5095z"/>
	<path class="st0" d="M487,4784c-110-34-183-158-157-271c55-249,408-248,460,2c24,117-47,235-161,269C566,4803,550,4803,487,4784z
		 M599,4635c63-32,57-130-9-153c-99-35-163,103-71,153C552,4653,565,4653,599,4635z"/>
	<path class="st0" d="M1155,4791c-51-13-92-39-127-81c-130-151-23-383,177-383c246,0,327,330,109,441C1268,4792,1197,4802,1155,4791
		z M1268,4618c53-50,11-142-65-142c-66,0-105,78-67,132C1168,4654,1224,4658,1268,4618z"/>
	<path class="st0" d="M1790,4787c-65-18-115-61-146-123c-77-157,36-338,210-338c98,1,173,50,215,144C2148,4645,1977,4839,1790,4787z
		 M1918,4614c38-43,26-101-29-129c-55-29-119,12-119,75C1770,4640,1864,4674,1918,4614z"/>
	<path class="st0" d="M476,3815c-76-27-126-81-147-157c-6-25-9-164-7-387l3-348l30-48c22-36,45-57,84-77l53-28h362
		c328,0,365,2,401,19c50,22,101,79,115,128c8,26,10,158,8,404l-3,365l-27,42c-15,22-49,54-75,69l-48,28l-355,2
		C582,3829,508,3827,476,3815z M1204,3659l26-20v-341c0-304-2-343-17-360s-39-18-359-18H511l-21,27c-20,26-21,34-18,361l3,334l24,19
		c22,18,43,19,351,19C1166,3680,1178,3679,1204,3659z"/>
	<path class="st0" d="M2650,3821c-69-22-112-58-146-121c-18-32-19-62-19-385c0-192,4-367,8-388c10-48,69-114,122-138
		c36-17,73-19,398-19c301,0,364,2,395,16c47,19,88,58,113,107c19,36,20,58,17,416l-3,379l-30,44c-17,23-51,54-75,68l-45,25l-355,2
		C2835,3828,2664,3825,2650,3821z M3376,3656c11-16,14-82,14-360c0-302-2-341-17-358s-39-18-358-18c-320,0-343,1-359,18
		c-15,17-16,54-14,368l3,348l25,13c19,10,102,13,358,11C3345,3675,3362,3674,3376,3656z"/>
	<path class="st0" d="M1580,3510c-27-27-26-81,1-106c20-18,41-19,356-19h335l19,24c25,30,24,76-1,101c-19,19-33,20-355,20
		S1599,3529,1580,3510z"/>
	<path class="st0" d="M3740,3510c-25-25-26-71-1-101l19-24h337h337l19,24c25,30,24,76-1,101c-19,19-33,20-355,20
		S3759,3529,3740,3510z"/>
	<path class="st0" d="M1582,3190c-32-30-30-82,4-109c25-19,40-21,201-21c171,0,174,0,198,25c14,13,25,36,25,50s-11,37-25,50
		c-24,25-26,25-203,25C1616,3210,1602,3209,1582,3190z"/>
	<path class="st0" d="M3742,3187c-31-33-29-80,4-106c25-19,40-21,201-21c171,0,174,0,198,25c14,13,25,36,25,50s-11,37-25,50
		c-24,25-26,25-203,25C3768,3210,3763,3209,3742,3187z"/>
	<path class="st0" d="M450,2594c-46-20-77-50-103-99c-21-39-22-50-22-410v-370l25-45c14-24,45-58,68-75l44-30l379-3
		c358-3,380-2,416,17c49,25,88,66,107,113c14,31,16,94,16,395c0,327-2,361-19,398c-22,47-74,99-114,114c-18,7-160,11-395,11
		C547,2609,479,2607,450,2594z M1212,2443c17-15,18-39,18-356c0-303-2-342-17-359s-39-18-358-18c-279,0-345,3-361,14
		c-18,14-19,29-19,361s1,347,19,361c16,11,82,14,360,14C1156,2460,1195,2458,1212,2443z"/>
	<path class="st0" d="M2599,2587c-62-33-97-87-110-170c-6-41-9-193-7-380c3-313,3-313,29-362c15-30,42-62,68-80l43-30h392h393l39,27
		c21,15,50,44,64,65l25,37v392v392l-30,43c-16,23-50,53-74,66c-44,23-46,23-416,23S2643,2610,2599,2587z M3372,2443
		c17-15,18-39,18-356c0-303-2-342-17-359s-39-18-356-18c-303,0-342,2-359,17s-18,39-18,359c0,298,2,345,16,358c13,14,60,16,356,16
		C3316,2460,3355,2458,3372,2443z"/>
	<path class="st0" d="M1580,2300c-30-30-27-83,6-109c26-20,38-21,351-21h324l24,25c32,31,33,74,2,103c-23,22-28,22-355,22
		C1613,2320,1599,2319,1580,2300z"/>
	<path class="st0" d="M3742,2297c-31-33-29-80,4-106c26-20,38-21,349-21s323,1,349,21c33,26,36,79,6,109c-19,19-33,20-353,20h-334
		L3742,2297z"/>
	<path class="st0" d="M1586,1979c-33-26-36-79-6-109c19-19,33-20,200-20c179,0,181,0,205,25c14,13,25,36,25,50s-11,37-25,50
		c-24,25-27,25-198,25C1626,2000,1611,1998,1586,1979z"/>
	<path class="st0" d="M3746,1979c-34-27-36-77-3-107c22-21,32-22,204-22h182l20,26c28,35,26,69-4,99c-24,25-27,25-198,25
		C3786,2000,3771,1998,3746,1979z"/>
	<path class="st0" d="M439,1377c-59-31-106-101-114-170c-3-28-5-198-3-377c3-310,4-327,25-365c24-46,54-75,103-101
		c32-18,63-19,406-19h371l48,30c36,22,57,45,77,84l28,53v362c0,399-2,407-66,468c-61,57-71,58-467,58C486,1400,483,1400,439,1377z
		 M1212,1233c17-15,18-39,18-359V531l-27-21c-26-20-34-21-359-18c-304,3-335,5-351,21s-18,47-21,351c-3,325-2,333,18,359l21,27h341
		C1156,1250,1195,1248,1212,1233z"/>
	<path class="st0" d="M2615,1381c-51-23-101-74-117-120c-19-53-18-721,0-774c18-50,56-93,106-120c40-22,49-22,411-22h370l48,28
		c26,15,60,47,75,69l27,42l3,377c3,358,2,380-17,416c-25,49-66,88-113,107c-31,14-94,16-395,16C2688,1400,2651,1398,2615,1381z
		 M3372,1233c17-15,18-39,18-359c0-370,1-366-53-379c-12-3-167-5-345-3c-307,3-324,4-338,22c-11,16-14,82-14,360c0,302,2,341,17,358
		s39,18,356,18C3316,1250,3355,1248,3372,1233z"/>
	<path class="st0" d="M1586,1089c-34-27-36-79-4-109c21-19,34-20,349-20s327,1,353,21c19,15,26,30,26,54s-7,39-26,54
		c-26,20-38,21-349,21S1612,1109,1586,1089z"/>
	<path class="st0" d="M3746,1089c-36-28-36-80,0-108c26-20,38-21,354-21h327l21,23c31,33,29,80-4,106c-26,20-38,21-349,21
		S3772,1109,3746,1089z"/>
	<path class="st0" d="M1610,783c-51-19-68-85-30-123c19-19,33-20,204-20h185l20,26c12,15,21,33,21,40c0,26-23,62-47,73
		S1639,794,1610,783z"/>
	<path class="st0" d="M3763,780c-44-18-57-86-23-120c19-19,33-20,203-20c179,0,184,1,205,23c36,38,28,88-19,112c-21,11-66,15-186,14
		C3856,789,3775,785,3763,780z"/>
</g>
</svg>
