<svg xmlns="http://www.w3.org/2000/svg" fill="none" viewBox="-1.315 -1.315 42 42" id="File-Check-Alternate--Streamline-Plump-Neon" height="42" width="42"><desc>File Check Alternate Streamline Icon: https://streamlinehq.com</desc><g id="file-check-alternate--file-common-check"><path id="Subtract" stroke="#c71dff" stroke-linecap="round" stroke-linejoin="round" d="M26.248307083333334 1.9720268958333333c1.2927303541666666 0.5749742437500001 3.9263372916666666 1.9557621645833332 6.559944229166666 4.5893609 2.6336069375 2.6336397458333334 4.014427666666666 5.267246683333334 4.589475729166667 6.560059058333333 -1.9966331458333333 -0.020095104166666666 -4.48916425 -0.21350022916666664 -6.525659520833333 -0.40723343749999996 -2.241219270833333 -0.21325416666666666 -4.003272833333333 -1.975225708333333 -4.216526999999999 -4.216444979166666 -0.19381522916666666 -2.0365772916666667 -0.38722035416666667 -4.5291248 -0.40723343749999996 -6.525741541666666Z" stroke-width="2.63"></path><path id="Vector 7 (Stroke)" fill-rule="evenodd" stroke="#000cfe" stroke-linecap="round" stroke-linejoin="round" d="M18.095108166666666 25.001590416666666c0.5779187916666667 0.6585452708333333 0.4554616875 1.6268012083333334 -0.05413375 2.3394802291666665 -3.0544558333333334 4.271645 -5.067247083333333 6.857515812499999 -6.322329874999999 8.380970770833333 -0.9933543125000001 1.20570625 -2.6725668333333332 1.3300498333333333 -3.8420444812500003 0.2941267083333333 -1.2959701770833332 -1.1478815624999998 -3.104029225 -2.8680224791666666 -5.137407704166667 -5.1459050625 -0.6717096145833333 -0.752459125 -0.8041732604166667 -1.868188520833333 -0.1259347875 -2.6148241666666667 0.4382045041666666 -0.4823645208333333 0.9176818916666667 -0.9001786458333333 1.3553040479166667 -1.2392527708333332 0.8366781166666667 -0.6482926666666666 1.9948368895833335 -0.4966361458333334 2.7530374729166667 0.2418794375 2.0699679729166665 2.0162361250000003 2.83997955625 2.9611981458333334 2.83997955625 2.9611981458333334s0.7936335833333333 -1.5926805416666665 4.157636041666667 -6.003104791666667c0.5828400416666667 -0.7641060833333333 1.5757022291666667 -1.1189282083333334 2.4323278125 -0.6833155624999999 0.6271312916666666 0.3188149791666667 1.3498988749999998 0.7921572083333334 1.9435656666666667 1.4687470624999999Z" clip-rule="evenodd" stroke-width="2.63"></path><path id="Subtract_2" stroke="#c71dff" stroke-linecap="round" stroke-linejoin="round" d="M6.577217816666667 22.555729166666666C6.567145658333333 21.647266416666664 6.5616666666666665 20.690821479166665 6.5616666666666665 19.685c0 -6.538208708333333 0.23163503541666666 -10.991611875 0.448719575 -13.729664141666666 0.1661906125 -2.0962064375 1.7653508 -3.7083095125 3.8604089458333335 -3.8877464895833334C13.329533708333333 1.8570090812499997 17.0878103125 1.6404166666666666 22.145625 1.6404166666666666c0.8917305 0 1.74310675 0.0067339104166666665 2.5540467291666666 0.018979620833333332 0.5435520625 0.008210285416666666 1.0838232916666666 0.10488824166666666 1.5800493333333332 0.32688582916666664C27.5833601875 2.5694912520833335 30.195805749999998 3.949163689583333 32.80833333333333 6.5616666666666665c2.538216708333333 2.538216708333333 3.9128038541666665 5.0765154375 4.5237770416666665 6.41435725 0.23195491666666665 0.507873 0.33513712500000004 1.0607754374999998 0.3467840833333333 1.6190912499999999C37.7108005625 16.1281665625 37.72958333333333 17.821978791666666 37.72958333333333 19.685c0 6.538208708333333 -0.2316268333333333 10.991693895833333 -0.4487359791666667 13.729631333333334 -0.16617420833333332 2.0962064375 -1.7653343958333332 3.708325916666667 -3.8603925416666667 3.8877875C30.96171629166667 37.5129663125 27.203439687499998 37.72958333333333 22.145625 37.72958333333333c-2.5063106041666665 0 -4.693560166666667 -0.05347758333333333 -6.5616666666666665 -0.13303779166666668" stroke-width="2.63"></path></g></svg>