<svg xmlns="http://www.w3.org/2000/svg" width="669" height="128" viewBox="0 0 669 128">
  <g id="Group_62739" data-name="Group 62739" transform="translate(23403.145 -13736)">
    <line id="Line_467" data-name="Line 467" x2="429" transform="translate(-23282.5 13799.502)" fill="none" stroke="#373737" stroke-linecap="round" stroke-width="22"/>
    <path id="Subtraction_6" data-name="Subtraction 6" d="M64,128A64.017,64.017,0,0,1,39.088,5.03,64.016,64.016,0,0,1,88.912,122.97,63.6,63.6,0,0,1,64,128ZM64,20a44,44,0,1,0,44,44A44.05,44.05,0,0,0,64,20Z" transform="translate(-23403.145 13736)" fill="#373737"/>
    <path id="Subtraction_7" data-name="Subtraction 7" d="M64,128A64.017,64.017,0,0,1,39.088,5.03,64.016,64.016,0,0,1,88.912,122.97,63.6,63.6,0,0,1,64,128ZM64,20a44,44,0,1,0,44,44A44.05,44.05,0,0,0,64,20Z" transform="translate(-22862.145 13736)" fill="#373737"/>
  </g>
</svg>
