<svg id="Layer_1" data-name="Layer 1" xmlns="http://www.w3.org/2000/svg" viewBox="0 0 35 35"><defs><style>.cls-1{fill:#373737;}</style></defs><title>01 ICON</title><path class="cls-1" d="M32.24,9.06s0,0,0-.06l0-.06a17,17,0,0,0-6.11-6.11L26,2.78l-.06,0a16.89,16.89,0,0,0-16.88,0L9,2.78,9,2.83A16.91,16.91,0,0,0,2.83,8.94L2.78,9l0,.06a16.89,16.89,0,0,0,0,16.88s0,0,0,.06l.05.06A16.83,16.83,0,0,0,9,32.17l.05,0,.06,0a16.91,16.91,0,0,0,16.89,0l.05,0,.06,0a16.88,16.88,0,0,0,6.11-6.11l0-.06s0,0,0-.06a16.89,16.89,0,0,0,0-16.88Zm-4.31,9.6h4.19a14.46,14.46,0,0,1-1.42,5.23,1.16,1.16,0,0,0-1.15.56,1.14,1.14,0,0,0,.09,1.29,14.47,14.47,0,0,1-3.9,3.9,1.15,1.15,0,0,0-1.85,1.06,14.46,14.46,0,0,1-5.23,1.42V27.93a1.16,1.16,0,0,0-2.32,0v4.19a14.46,14.46,0,0,1-5.23-1.42,1.14,1.14,0,0,0-.56-1.15,1.16,1.16,0,0,0-1.3.09,14.73,14.73,0,0,1-3.89-3.9,1.14,1.14,0,0,0,.09-1.29,1.16,1.16,0,0,0-1.15-.56,14.46,14.46,0,0,1-1.42-5.23H7.07a1.16,1.16,0,1,0,0-2.32H2.88A14.46,14.46,0,0,1,4.3,11.11a1.14,1.14,0,0,0,1.15-.56,1.16,1.16,0,0,0-.09-1.3A15,15,0,0,1,9.25,5.36a1.16,1.16,0,0,0,1.3.09,1.14,1.14,0,0,0,.56-1.15,14.46,14.46,0,0,1,5.23-1.42V7.07a1.16,1.16,0,1,0,2.32,0V2.88A14.46,14.46,0,0,1,23.89,4.3a1.15,1.15,0,0,0,1.85,1.06,14.73,14.73,0,0,1,3.9,3.89,1.16,1.16,0,0,0-.09,1.3,1.14,1.14,0,0,0,1.15.56,14.46,14.46,0,0,1,1.42,5.23H27.93a1.16,1.16,0,0,0,0,2.32Z"/><path class="cls-1" d="M23.88,6.46a1.17,1.17,0,0,0-1.59.42l-4.16,7.21A3.2,3.2,0,0,0,17.5,14a3.6,3.6,0,0,0-.81.11l-3-3.54a1.54,1.54,0,0,0-2.37,2l3,3.54A3.43,3.43,0,0,0,14,17.5a3.48,3.48,0,1,0,6.12-2.24L24.3,8A1.16,1.16,0,0,0,23.88,6.46ZM17.5,18.66a1.16,1.16,0,1,1,1.16-1.16A1.16,1.16,0,0,1,17.5,18.66Z"/></svg>