<svg xmlns="http://www.w3.org/2000/svg" viewBox="0 0 64 64" id="full-screen">
  <path fill="#394a97" d="M28.8 38.97c-.01-.1-.01-.19-.03-.29-.04-.23-.11-.45-.19-.66-.02-.05-.03-.1-.05-.15-.21-.53-.53-1.02-.96-1.45-.21-.21-.44-.4-.68-.55-.06-.04-.13-.06-.19-.1-.19-.11-.37-.22-.57-.3-.1-.04-.21-.06-.31-.09-.17-.05-.34-.11-.51-.15-.11-.02-.22-.02-.32-.03-.18-.02-.36-.04-.53-.04h-.06l-16.8.46a4.322 4.322 0 0 0-4.2 4.44c.07 2.39 2.08 4.28 4.44 4.2l5.95-.17L1.27 56.62a4.327 4.327 0 0 0 0 6.12c.84.84 1.95 1.26 3.05 1.26s2.21-.42 3.06-1.27L19.9 50.22l-.17 5.95a4.317 4.317 0 0 0 4.2 4.44h.12c2.33 0 4.26-1.86 4.32-4.2l.47-16.81v-.06c.01-.19-.02-.38-.04-.57zm6.4-13.94c.01.1.01.19.03.29.04.23.11.45.19.67.02.05.03.1.04.15a4.268 4.268 0 0 0 1.63 1.99c.15.1.31.17.47.25.09.05.18.11.28.15.18.08.38.12.57.17.08.02.16.05.24.07.28.05.56.08.84.08h.12l16.81-.47a4.322 4.322 0 0 0 4.2-4.44 4.33 4.33 0 0 0-4.44-4.2l-5.95.17 12.5-12.53a4.327 4.327 0 1 0-6.12-6.12L44.1 13.78l.17-5.95a4.317 4.317 0 0 0-4.2-4.44 4.317 4.317 0 0 0-4.44 4.2l-.48 16.81v.06c0 .19.03.38.05.57zM23.94 3.39a4.322 4.322 0 0 0-4.2 4.44l.17 5.95L7.38 1.27a4.327 4.327 0 1 0-6.12 6.12L13.78 19.9l-5.95-.17c-2.38-.06-4.38 1.82-4.44 4.2a4.317 4.317 0 0 0 4.2 4.44l16.81.47h.12c.28 0 .56-.03.84-.08.08-.02.16-.05.24-.07.19-.05.38-.1.57-.17.1-.04.18-.1.28-.15.16-.08.32-.15.47-.25.24-.16.46-.34.67-.54.43-.43.74-.92.96-1.45.02-.05.03-.1.05-.15.08-.22.15-.44.19-.67.02-.09.02-.19.03-.29.02-.19.05-.38.04-.57v-.06L28.38 7.6a4.344 4.344 0 0 0-4.44-4.21zM50.22 44.1l5.95.17c2.41.08 4.38-1.82 4.44-4.2a4.317 4.317 0 0 0-4.2-4.44l-16.81-.48h-.06c-.13 0-.26.02-.4.03-1.03.07-1.99.5-2.72 1.23-.43.43-.74.92-.96 1.45-.02.05-.03.1-.05.15-.08.22-.15.44-.19.66-.02.09-.02.19-.03.29-.02.19-.04.38-.04.57v.06l.47 16.81c.07 2.35 1.99 4.2 4.32 4.2h.12a4.322 4.322 0 0 0 4.2-4.44l-.17-5.95 12.52 12.52a4.325 4.325 0 0 0 6.12 0 4.327 4.327 0 0 0 0-6.12L50.22 44.1z"></path>
</svg>
