<svg style="width: 24px;height: 16px;" version="1.1" id="Layer_1" xmlns="http://www.w3.org/2000/svg" xmlns:xlink="http://www.w3.org/1999/xlink" x="0px" y="0px" width="48px" height="32px" viewBox="0 0 48 32" enable-background="new 0 0 48 32" xml:space="preserve">
  <path fill="#4399FA" d="M12,17.9c0,3-0.5,5.2-1.6,6.8C9.4,26.2,7.9,27,6,27c-1.9,0-3.4-0.8-4.4-2.3C0.6,23.2,0,21,0,18.2v-4
	c0-3,0.5-5.2,1.5-6.8C2.6,5.8,4.1,5,6,5s3.4,0.8,4.4,2.3c1,1.5,1.6,3.8,1.6,6.6V17.9z M8,13.5c0-1.7-0.2-3-0.5-3.8
	C7.2,8.9,6.7,8.5,6,8.5C4.7,8.5,4,10,4,13.1v5.3c0,1.7,0.2,3,0.5,3.9c0.3,0.8,0.8,1.3,1.5,1.3c0.7,0,1.1-0.4,1.5-1.2
	c0.3-0.8,0.5-2,0.5-3.6V13.5z"></path>
  <path d="M14.6,11.7c0-0.6,0.2-1.2,0.6-1.6c0.4-0.4,1-0.6,1.6-0.6c0.6,0,1.2,0.2,1.6,0.6c0.4,0.4,0.6,0.9,0.6,1.6
	c0,0.7-0.2,1.2-0.6,1.6c-0.4,0.4-1,0.6-1.6,0.6c-0.6,0-1.2-0.2-1.6-0.6S14.6,12.3,14.6,11.7z M14.6,23.1c0-0.6,0.2-1.2,0.6-1.6
	c0.4-0.4,1-0.6,1.6-0.6c0.6,0,1.2,0.2,1.6,0.6c0.4,0.4,0.6,0.9,0.6,1.6c0,0.7-0.2,1.2-0.6,1.6c-0.4,0.4-1,0.6-1.6,0.6
	c-0.6,0-1.2-0.2-1.6-0.6C14.8,24.3,14.6,23.7,14.6,23.1z"></path>
  <path fill="#4399FA" d="M22.4,16l1-11h9.9v3.6h-6.7l-0.4,4.6c0.8-0.5,1.6-0.8,2.4-0.8c1.7,0,3,0.6,3.9,1.9c0.9,1.3,1.4,3.1,1.4,5.4
	c0,2.2-0.5,3.9-1.6,5.3c-1.1,1.3-2.5,2-4.4,2c-1.1,0-2.1-0.3-3-0.8c-0.9-0.5-1.6-1.3-2.2-2.3c-0.5-1-0.8-2.1-0.8-3.3h3.9
	c0.1,0.9,0.3,1.6,0.6,2.1c0.4,0.5,0.8,0.7,1.4,0.7c0.7,0,1.2-0.3,1.5-1c0.4-0.7,0.5-1.7,0.5-3c0-1.3-0.2-2.2-0.6-2.8
	c-0.4-0.6-1-1-1.8-1c-0.8,0-1.3,0.3-1.7,0.8l-0.3,0.4L22.4,16z"></path>
  <path fill="#4399FA" d="M43.9,18.5c-0.9,0.9-1.8,1.4-2.8,1.4c-1.6,0-2.8-0.7-3.7-2c-0.9-1.3-1.4-3.1-1.4-5.3c0-1.4,0.3-2.7,0.8-3.9
	C37.3,7.5,38,6.6,38.9,6c0.9-0.6,1.9-1,3.1-1c1.2,0,2.2,0.4,3.1,1.1c0.9,0.7,1.6,1.7,2.1,3.1c0.5,1.3,0.8,2.9,0.8,4.6v1.5
	c0,3.7-0.8,6.5-2.3,8.6S41.9,27,39.1,27h-0.4v-3.6h0.3c1.6,0,2.8-0.4,3.6-1.3C43.3,21.3,43.7,20.1,43.9,18.5z M42.1,16.6
	c0.8,0,1.4-0.6,1.8-1.7V13c0-1.4-0.2-2.5-0.6-3.3C43,8.9,42.6,8.5,42,8.5c-0.6,0-1,0.4-1.4,1.2c-0.4,0.8-0.5,1.8-0.5,2.9
	c0,1.2,0.2,2.2,0.6,2.9C41,16.2,41.5,16.6,42.1,16.6z"></path>
</svg>
