<svg xmlns="http://www.w3.org/2000/svg" width="32.057" height="32" viewBox="0 0 32.057 32">
  <path id="Path_115846" data-name="Path 115846" d="M19.041.014a1,1,0,0,0-.986,1.016V4.015h-3a1,1,0,0,0-1,1v3.6a4.493,4.493,0,0,1,2,.765V6.017h2.765a1,1,0,0,0,.467,0h7.533a1,1,0,0,0,.465,0h2.771v10H22.662a3.792,3.792,0,0,1,.747,2h7.645a1,1,0,0,0,1-1v-12a1,1,0,0,0-1-1h-3V1.032a1,1,0,1,0-2,0V4.015H20.059V1.032A1,1,0,0,0,19.041.016Zm-.986,8v2h2v-2Zm4,0v2h2v-2Zm4,0v2h2v-2ZM11,10A11.005,11.005,0,1,0,22.011,21.011,11.019,11.019,0,0,0,11,10Zm0,2a8.99,8.99,0,1,1-6.372,2.634A8.994,8.994,0,0,1,11,12Zm11.051.012v2h2v-2Zm4,0v2h2v-2ZM10.991,13.333a1,1,0,0,0-.986,1.018v6.66a1,1,0,0,0,1,1h6.035a1,1,0,1,0,0-2H12.009V14.351a1,1,0,0,0-1.018-1.018Z" transform="translate(0 -0.014)" fill-rule="evenodd"/>
</svg>
