<svg xmlns="http://www.w3.org/2000/svg" fill-rule="evenodd" clip-rule="evenodd" image-rendering="optimizeQuality" shape-rendering="geometricPrecision" text-rendering="geometricPrecision" viewBox="0 0 512 512"><path fill="#29486d" d="M486.07 510.13l-460.14 0c-14.3,0 -25.93,-11.63 -25.93,-25.93l0 -415.16c0,-14.29 11.63,-25.92 25.93,-25.92l30.24 0c3.31,0 6,2.68 6,6l0 17.09c0,10.01 8.14,18.15 18.15,18.15 10.01,0 18.15,-8.14 18.15,-18.15l0 -17.09c0,-3.32 2.68,-6 6,-6l68.82 0c3.31,0 6,2.68 6,6l0 17.09c0,10.01 8.14,18.15 18.15,18.15 10.01,0 18.15,-8.14 18.15,-18.15l0 -17.09c0,-3.32 2.69,-6 6,-6l68.82 0c3.31,0 6,2.68 6,6l0 17.09c0,10.01 8.14,18.15 18.15,18.15 10.01,0 18.15,-8.14 18.15,-18.15l0 -17.09c0,-3.32 2.69,-6 6,-6l68.82 0c3.32,0 6,2.68 6,6l0 17.09c0,10.01 8.14,18.15 18.15,18.15 10.01,0 18.15,-8.14 18.15,-18.15l0 -17.09c0,-3.32 2.69,-6 6,-6l30.24 0c14.3,0 25.93,11.63 25.93,25.92l0 415.16c0,14.3 -11.63,25.93 -25.93,25.93z"/><path fill="#e1efff" d="M50.17 55.12l-24.24 0c-7.67,0 -13.93,6.25 -13.93,13.92l0 415.16c0,7.67 6.26,13.93 13.93,13.93l460.14 0c7.67,0 13.93,-6.26 13.93,-13.93l0 -415.16c0,-7.67 -6.26,-13.92 -13.93,-13.92l-24.24 0 0 11.09c0,16.63 -13.52,30.15 -30.15,30.15 -16.63,0 -30.15,-13.52 -30.15,-30.15l0 -11.09 -56.82 0 0 11.09c0,16.63 -13.52,30.15 -30.15,30.15 -16.63,0 -30.15,-13.52 -30.15,-30.15l0 -11.09 -56.82 0 0 11.09c0,16.63 -13.52,30.15 -30.15,30.15 -16.63,0 -30.15,-13.52 -30.15,-30.15l0 -11.09 -56.82 0 0 11.09c0,16.63 -13.52,30.15 -30.15,30.15 -16.63,0 -30.15,-13.52 -30.15,-30.15l0 -11.09z"/><polygon fill="#29486d" points="0 153.03 0 141.03 512 141.03 512 153.03"/><path fill="#29486d" d="M452.71 364.63l-393.42 0c-4.91 0-8.9-3.99-8.9-8.89l0-60.32c0-4.9 3.99-8.89 8.9-8.89l393.42 0c4.91 0 8.9 3.99 8.9 8.89l0 60.32c0 4.9-3.99 8.89-8.9 8.89zM369.51 264.62l-227.02 0c-5.24 0-9.5-4.26-9.5-9.49l0-72.91c0-5.24 4.26-9.5 9.5-9.5l227.02 0c5.24 0 9.5 4.26 9.5 9.5l0 72.91c0 5.23-4.26 9.49-9.5 9.49zM452.71 471.54l-393.42 0c-4.91 0-8.9-3.99-8.9-8.89l0-60.32c0-4.9 3.99-8.9 8.9-8.9l393.42 0c4.91 0 8.9 3.99 8.9 8.9l0 60.31c0 4.91-3.99 8.9-8.9 8.9z"/><path fill="#e1efff" d="M197.8 246.8c-.09 0-.18 0-.26-.01-.85-.03-1.65-.24-2.37-.59-.71-.35-1.37-.85-1.92-1.48-.07-.09-.14-.17-.21-.26l-24.1-30.6 0 26.94c0 3.31-2.68 6-6 6-3.31 0-6-2.69-6-6l0-44.2c0-.1.01-.21.01-.31.03-.85.24-1.65.59-2.37.35-.72.85-1.37 1.49-1.93.56-.48 1.21-.86 1.93-1.11l0 0c0 0 0 0 .01 0 0 0 0 0 0 0 .72-.25 1.48-.36 2.23-.33.84.04 1.64.25 2.36.6.72.35 1.38.84 1.93 1.48.07.08.14.17.2.25l24.1 30.6 0-26.93c0-3.32 2.69-6 6-6 3.32 0 6 2.68 6 6l0 44.19c0 .11 0 .22 0 .33-.04.84-.25 1.63-.6 2.35-.35.72-.85 1.38-1.49 1.93-.56.48-1.21.86-1.92 1.11-.01 0-.01.01-.01.01-.64.22-1.31.33-1.97.33zM245.61 246.8l-24.23 0c-3.31 0-6-2.69-6-6l0-44.25c0-3.32 2.69-6 6-6l24.23 0c3.31 0 6 2.68 6 6 0 3.31-2.69 6-6 6l-18.23 0 0 10.12 11.9 0c3.31 0 6 2.69 6 6 0 3.32-2.69 6-6 6l-11.9 0 0 10.13 18.23 0c3.31 0 6 2.69 6 6 0 3.31-2.68 6-6 6zM269.71 246.8c-.68 0-1.36-.11-2.01-.35-2.4-.85-3.99-3.11-3.99-5.65l0-44.25c0-3.32 2.68-6 6-6 3.31 0 6 2.68 6 6l0 27.37 6.63-8.15c1.13-1.39 2.83-2.21 4.63-2.21.01 0 .02 0 .02 0 1.79 0 3.49.8 4.63 2.17l6.94 8.4 0-27.58c0-3.32 2.68-6 6-6 3.31 0 6 2.68 6 6l0 44.25c0 2.53-1.59 4.79-3.97 5.64-2.38.86-5.04.13-6.66-1.82l-12.9-15.6-12.67 15.57c-1.16 1.42-2.88 2.21-4.65 2.21zM338.04 246.71c-9.39 0-17.02-7.63-17.02-17.02 0-3.31 2.68-6 6-6 3.31 0 6 2.69 6 6 0 2.77 2.25 5.02 5.02 5.02 2.76 0 5.02-2.25 5.02-5.02 0-2.77-2.26-5.02-5.02-5.02-.01 0-.01 0-.01 0-9.38 0-17.01-7.63-17.01-17.02 0-9.38 7.63-17.02 17.02-17.02 9.38 0 17.02 7.64 17.02 17.02 0 3.32-2.69 6-6 6-3.32 0-6-2.68-6-6 0-2.76-2.26-5.02-5.02-5.02-2.77 0-5.02 2.26-5.02 5.02 0 2.77 2.25 5.02 5.02 5.02 0 0 0 0 0 0 9.38 0 17.02 7.64 17.02 17.02 0 9.39-7.64 17.02-17.02 17.02z"/><path fill="#29486d" d="M314.56 86.36c-16.62,0 -30.15,-13.53 -30.15,-30.15l0 -11.1 -56.82 0 0 11.1c0,16.62 -13.53,30.15 -30.15,30.15 -16.63,0 -30.15,-13.53 -30.15,-30.15l0 -11.1 -56.82 0 0 11.1c0,16.62 -13.53,30.15 -30.15,30.15 -16.63,0 -30.15,-13.53 -30.15,-30.15l0 -11.1 -34.01 4.14c-7.67,0 -9.94,4.78 -9.94,12.45l-3.28 84.02 506.12 -1.56 -2.89 -83.24c0,-7.68 -3.91,-12.68 -11.58,-12.68l-32.76 -3.13 0 11.1c0,16.62 -13.52,30.15 -30.15,30.15 -16.62,0 -30.15,-13.53 -30.15,-30.15l0 -11.1 -56.82 0 0 11.1c0,16.62 -13.53,30.15 -30.15,30.15z"/><path fill="#bbc7d3" d="M80.32 96.36c-16.63,0 -30.15,-13.53 -30.15,-30.15l0 -34.19c0,-16.62 13.52,-30.15 30.15,-30.15 16.62,0 30.15,13.53 30.15,30.15l0 34.19c0,16.62 -13.53,30.15 -30.15,30.15zm351.36 0c-16.62,0 -30.15,-13.53 -30.15,-30.15l0 -34.19c0,-16.62 13.53,-30.15 30.15,-30.15 16.63,0 30.15,13.53 30.15,30.15l0 34.19c0,16.62 -13.52,30.15 -30.15,30.15zm-117.12 0c-16.62,0 -30.15,-13.53 -30.15,-30.15l0 -34.19c0,-16.62 13.53,-30.15 30.15,-30.15 16.62,0 30.15,13.53 30.15,30.15l0 34.19c0,16.62 -13.53,30.15 -30.15,30.15zm-117.12 0c-16.63,0 -30.15,-13.53 -30.15,-30.15l0 -34.19c0,-16.62 13.52,-30.15 30.15,-30.15 16.62,0 30.15,13.53 30.15,30.15l0 34.19c0,16.62 -13.53,30.15 -30.15,30.15z"/></svg>
