<svg xmlns="http://www.w3.org/2000/svg" width="17.863" height="18.902" viewBox="0 0 17.863 18.902">
  <path id="Path_141828" data-name="Path 141828" d="M18.662,7.107l-.644,12.006a.84.84,0,0,1-.831.789H6.677a.84.84,0,0,1-.831-.789L5.2,7.107a.832.832,0,1,1,1.662-.083l.6,11.217h8.952l.6-11.217a.822.822,0,1,1,1.641.083Zm2.2-2.783a.833.833,0,0,1-.831.831H3.831a.831.831,0,0,1,0-1.662H8.4V1.623A.6.6,0,0,1,9.065,1H14.8a.6.6,0,0,1,.665.623V3.493h4.57A.833.833,0,0,1,20.863,4.323ZM9.855,3.493h4.154V2.454H9.855Zm.353,13.5a.777.777,0,0,0,.727-.789l-.208-8.973A.74.74,0,0,0,9.979,6.5a.711.711,0,0,0-.706.748l.208,8.994a.754.754,0,0,0,.727.748Zm3.427,0a.736.736,0,0,0,.727-.727l.208-8.973a.727.727,0,0,0-1.454-.042l-.208,8.973a.732.732,0,0,0,.727.769Z" transform="translate(-3 -1)"/>
</svg>
