<svg id="Layer_1" data-name="Layer 1" xmlns="http://www.w3.org/2000/svg" viewBox="0 0 22 22"><defs><style>.cls-1{fill:#ed1c24;}</style></defs><title>01 ICON</title><path class="cls-1" d="M5.5,2.5h11c.28,0,.5-.34.5-.75S16.78,1,16.5,1H5.5c-.28,0-.5.34-.5.75S5.22,2.5,5.5,2.5Z"/><path class="cls-1" d="M7,18a.68.68,0,0,0,.75-.6V7.6A.68.68,0,0,0,7,7a.69.69,0,0,0-.75.6v9.8A.69.69,0,0,0,7,18Z"/><path class="cls-1" d="M11,18a.68.68,0,0,0,.75-.6V7.6A.68.68,0,0,0,11,7a.69.69,0,0,0-.75.6v9.8A.69.69,0,0,0,11,18Z"/><path class="cls-1" d="M15,18a.68.68,0,0,0,.75-.6V7.6a.77.77,0,0,0-1.5,0v9.8A.69.69,0,0,0,15,18Z"/><path class="cls-1" d="M20.25,4H1.75a.75.75,0,0,0,0,1.5H3V18.6A2.4,2.4,0,0,0,5.4,21H16.6A2.4,2.4,0,0,0,19,18.6V5.5h1.25a.75.75,0,0,0,0-1.5ZM17.5,18.6a.9.9,0,0,1-.9.9H5.4a.9.9,0,0,1-.9-.9V5.5h13Z"/></svg>