<svg xmlns="http://www.w3.org/2000/svg" viewBox="0 0 66 66">
  <g fill="#E6E6E6">
    <path d="M53.97 1.5H12.03a3.495 3.495 0 0 0-3.495 3.495v56.009A3.496 3.496 0 0 0 12.03 64.5h41.94a3.496 3.496 0 0 0 3.495-3.496V4.995A3.495 3.495 0 0 0 53.97 1.5z"/>
    <path d="M53.97 65.187H12.03a4.187 4.187 0 0 1-4.183-4.183V4.995A4.187 4.187 0 0 1 12.03.813h41.94a4.187 4.187 0 0 1 4.183 4.182v56.009a4.188 4.188 0 0 1-4.183 4.183zm-41.94-63a2.812 2.812 0 0 0-2.808 2.808v56.009a2.812 2.812 0 0 0 2.808 2.808h41.94a2.812 2.812 0 0 0 2.808-2.808V4.995a2.812 2.812 0 0 0-2.808-2.808H12.03z"/>
  </g>
  <path fill="#92D3FF" d="M15.555 7.968h14.096v17.13H15.555z"/>
  <path fill="#54BBFF" d="M29.65 25.786H15.555a.688.688 0 0 1-.688-.687V7.968c0-.38.308-.687.688-.687H29.65c.38 0 .688.308.688.687v17.13c0 .38-.308.688-.688.688zm-13.408-1.375h12.721V8.656H16.242v15.755z"/>
  <path fill="#CCC" d="M50.445 12.201H35.59a.688.688 0 1 1 0-1.374h14.855a.688.688 0 1 1 0 1.374zM50.445 17.221H35.59a.688.688 0 1 1 0-1.374h14.855a.688.688 0 1 1 0 1.374zM50.445 22.241H35.59a.688.688 0 1 1 0-1.374h14.855a.688.688 0 1 1 0 1.374z"/>
  <path fill="#92D3FF" d="M41.509 33.391h8.936"/>
  <path fill="#CCC" d="M50.445 34.078H41.51a.688.688 0 1 1 0-1.374h8.936a.688.688 0 1 1-.001 1.374z"/>
  <path fill="#92D3FF" d="M14.592 33.391h21.64"/>
  <path fill="#CCC" d="M36.232 34.078h-21.64a.688.688 0 1 1 0-1.374h21.641a.688.688 0 1 1-.001 1.374z"/>
  <path fill="#92D3FF" d="M28.625 38.328h21.82"/>
  <path fill="#CCC" d="M50.445 39.016h-21.82a.688.688 0 1 1 0-1.374h21.82a.688.688 0 1 1 0 1.374z"/>
  <path fill="#92D3FF" d="M14.592 38.328h9.001"/>
  <path fill="#CCC" d="M23.593 39.016h-9.001a.688.688 0 1 1 0-1.374h9.001a.688.688 0 1 1 0 1.374z"/>
  <path fill="#92D3FF" d="M23.527 55.402h-8.935"/>
  <path fill="#CCC" d="M23.527 56.09h-8.936a.688.688 0 1 1 0-1.374h8.936a.688.688 0 1 1 0 1.374z"/>
  <path fill="#92D3FF" d="M50.445 55.402h-21.64"/>
  <path fill="#CCC" d="M50.445 56.09h-21.64a.688.688 0 1 1 0-1.374h21.641a.688.688 0 1 1-.001 1.374z"/>
  <g fill="#ED7161">
    <path d="M14.929 43.035h7.661v7.661h-7.661z"/>
    <path d="M22.59 51.383h-7.66a.688.688 0 0 1-.688-.687v-7.661c0-.38.308-.687.688-.687h7.66c.38 0 .688.308.688.687v7.661a.688.688 0 0 1-.688.687zm-6.973-1.374h6.285v-6.286h-6.285v6.286z"/>
  </g>
  <g fill="#88C057">
    <path d="M28.688 43.035h7.661v7.661h-7.661z"/>
    <path d="M36.349 51.383h-7.661a.688.688 0 0 1-.688-.687v-7.661c0-.38.308-.687.688-.687h7.661c.38 0 .688.308.688.687v7.661a.688.688 0 0 1-.688.687zm-6.974-1.374h6.286v-6.286h-6.286v6.286z"/>
  </g>
  <g fill="#9A7BAA">
    <path d="M42.447 43.035h7.661v7.661h-7.661z"/>
    <path d="M50.107 51.383h-7.661a.688.688 0 0 1-.688-.687v-7.661c0-.38.308-.687.688-.687h7.661c.38 0 .688.308.688.687v7.661a.688.688 0 0 1-.688.687zm-6.973-1.374h6.286v-6.286h-6.286v6.286z"/>
  </g>
</svg>
