<?xml version="1.0" encoding="utf-8"?>
<!-- Generator: Adobe Illustrator 23.0.1, SVG Export Plug-In . SVG Version: 6.00 Build 0)  -->
<svg version="1.1" id="Group_60636" xmlns="http://www.w3.org/2000/svg" xmlns:xlink="http://www.w3.org/1999/xlink" x="0px"
	 y="0px" viewBox="0 0 400 400" style="enable-background:new 0 0 400 400;" xml:space="preserve">
<style type="text/css">
	.st0{fill:#EBEBEB;}
	.st1{fill:#F5F5F5;}
	.st2{fill:#E0E0E0;}
	.st3{fill:#00A859;}
	.st4{opacity:0.3;}
	.st5{fill:#263238;}
	.st6{fill:#FF725E;}
	.st7{fill:#FFFFFF;}
	.st8{fill:#455A64;}
	.st9{opacity:0.2;}
	.st10{fill:#FFC45E;}
	.st11{fill:#F5F5F5;stroke:#263238;stroke-width:5.000000e-02;stroke-miterlimit:10;}
	.st12{fill:none;stroke:#263238;stroke-linecap:round;stroke-linejoin:round;}
	.st13{fill:#FFBE9D;}
	.st14{fill:#EB996E;}
	.st15{fill:#A80049;}
</style>
<g>
	<g id="Background_Complete" transform="translate(0 206.856)">
		<g id="Group_57514" transform="translate(310.52 58.071)">
			<g id="Group_57481" transform="translate(21.546 64.452)">
				<path id="Path_141921" class="st0" d="M15.7,26L2.8,63.6h36.1L24.4,25.8l3.7-18.9H10.7L15.7,26z"/>
			</g>
			<g id="Group_57498" transform="translate(36.763 24.125)">
				<g id="Group_57483" transform="translate(0 15.284)">
					<g id="Group_57482">
						<path id="Path_141922" class="st0" d="M28.1,6.8c0,0,0,0-0.1,0.1l-0.3,0.4l-1.4,1.4l-1,1c-0.4,0.4-0.7,0.8-1.1,1.2
							c-0.8,0.9-1.7,1.9-2.6,3.1L20,15.8c-0.5,0.6-1,1.3-1.5,2.1c-1.1,1.4-2.1,3-3.1,4.7c-2.2,3.7-4.2,7.5-5.9,11.4
							c-1.6,4-3,8-4,12.2C5,48,4.6,49.9,4.3,51.6c-0.1,0.9-0.3,1.7-0.4,2.5l-0.3,2.3c-0.2,1.5-0.3,2.8-0.4,4c0,0.6-0.1,1.1-0.1,1.7
							s0,1,0,1.4c0,0.8-0.1,1.5-0.1,1.9c0,0.2,0,0.4,0,0.5c0,0.1,0,0.1,0,0.2c0-0.1,0-0.1,0-0.2c0-0.1,0-0.3,0-0.5
							c0-0.5,0-1.1,0-1.9c0-0.4,0-0.9,0-1.4c0-0.5,0.1-1.1,0.1-1.7c0.1-1.2,0.1-2.5,0.3-4c0.1-0.7,0.2-1.5,0.3-2.3
							c0.1-0.8,0.3-1.6,0.4-2.5C4.3,49.8,4.7,48,5.1,46c1-4.2,2.4-8.3,4-12.3c1.7-4,3.7-7.8,5.9-11.4c1.1-1.7,2.1-3.3,3.2-4.7
							c0.5-0.7,1-1.4,1.5-2s1-1.2,1.5-1.8c0.9-1.2,1.9-2.1,2.7-3c0.4-0.4,0.8-0.8,1.1-1.2l1-1l1.4-1.3l0.4-0.3
							C28,6.9,28,6.9,28.1,6.8z"/>
					</g>
				</g>
				<g id="Group_57485" transform="translate(7.782 31.741)">
					<g id="Group_57484">
						<path id="Path_141923" class="st0" d="M30.8,8.2c-0.4,0-0.8-0.1-1.2-0.2c-0.4-0.1-0.8-0.2-1.3-0.3s-1.1-0.2-1.8-0.3
							c-0.7-0.1-1.4-0.2-2.2-0.2c-0.8-0.1-1.6,0-2.5,0c-3.9,0.1-7.7,1-11.2,2.5c-0.8,0.4-1.6,0.7-2.3,1.1c-0.7,0.4-1.3,0.8-1.9,1.1
							c-0.6,0.3-1.1,0.7-1.5,1c-0.4,0.3-0.7,0.5-1.1,0.8c-0.3,0.3-0.6,0.5-0.9,0.7c0.3-0.3,0.5-0.6,0.8-0.8c0.3-0.3,0.7-0.6,1.1-0.9
							c0.4-0.3,0.9-0.7,1.5-1.1c0.6-0.4,1.2-0.8,1.9-1.2c0.7-0.4,1.5-0.8,2.3-1.2c3.6-1.6,7.4-2.5,11.4-2.6c0.9,0,1.8,0,2.6,0.1
							c0.7,0,1.5,0.1,2.2,0.2c0.7,0.1,1.3,0.2,1.8,0.3c0.5,0.1,0.9,0.2,1.3,0.3C30.1,7.9,30.4,8,30.8,8.2z"/>
					</g>
				</g>
				<g id="Group_57487" transform="translate(11.276 4.338)">
					<g id="Group_57486">
						<path id="Path_141924" class="st0" d="M9.1,6.8C9,7.2,8.9,7.6,8.7,7.9c-0.3,0.7-0.7,1.7-1.2,3c-2.5,6.5-3.9,13.4-4.4,20.4
							C3.1,32.6,3,33.6,3,34.4c0,0.4,0,0.8-0.1,1.2c-0.1-0.4-0.1-0.8-0.1-1.2c0-0.8,0-1.8,0-3.2c0.3-7,1.8-13.9,4.4-20.4
							c0.5-1.2,0.9-2.2,1.3-2.9C8.7,7.5,8.9,7.2,9.1,6.8z"/>
					</g>
				</g>
				<g id="Group_57489" transform="translate(16.759)">
					<g id="Group_57488">
						<path id="Path_141925" class="st0" d="M14.9,6.8c-0.2,0.3-0.4,0.6-0.6,0.9c-0.4,0.6-1,1.4-1.8,2.4C8.8,15.5,5.9,21.4,4,27.7
							c-0.4,1.2-0.6,2.2-0.8,2.9c-0.1,0.4-0.2,0.7-0.3,1c0-0.4,0.1-0.7,0.2-1.1c0.1-0.7,0.4-1.7,0.7-2.9c1.8-6.4,4.7-12.3,8.6-17.6
							c0.8-1,1.4-1.8,1.9-2.3C14.4,7.3,14.7,7.1,14.9,6.8z"/>
					</g>
				</g>
				<g id="Group_57491" transform="translate(22.809 3.255)">
					<g id="Group_57490">
						<path id="Path_141926" class="st0" d="M23.8,6.8c-0.3,0.2-0.6,0.3-0.9,0.5c-0.6,0.3-1.4,0.7-2.5,1.2
							c-5.4,2.7-10.4,6.1-14.9,10.2c-0.9,0.8-1.5,1.4-2,1.9c-0.2,0.2-0.5,0.5-0.8,0.7c0.2-0.3,0.4-0.5,0.7-0.8
							c0.4-0.5,1.1-1.2,1.9-2c4.4-4.2,9.4-7.6,14.9-10.2c1.1-0.5,1.9-0.9,2.5-1.1C23.2,7,23.5,6.9,23.8,6.8z"/>
					</g>
				</g>
				<g id="Group_57493" transform="translate(20.476 11.393)">
					<g id="Group_57492">
						<path id="Path_141927" class="st0" d="M29.1,6.8c-0.3,0.2-0.6,0.4-0.9,0.6c-0.6,0.4-1.5,0.9-2.6,1.5
							c-5.8,3.2-12.1,5.3-18.7,6.3c-1.3,0.2-2.3,0.3-3,0.4c-0.4,0-0.7,0.1-1.1,0c0.4-0.1,0.7-0.2,1.1-0.2c0.7-0.1,1.7-0.3,3-0.5
							c6.5-1.1,12.8-3.3,18.6-6.3c1.1-0.6,2-1.1,2.6-1.4C28.4,7.1,28.8,7,29.1,6.8z"/>
					</g>
				</g>
				<g id="Group_57495" transform="translate(14.456 20.583)">
					<g id="Group_57494">
						<path id="Path_141928" class="st0" d="M35.4,6.8C35.3,6.9,35.2,7,35.1,7l-0.9,0.4c-0.8,0.4-1.9,0.9-3.3,1.4
							c-7.4,3-15.2,4.8-23.2,5.4c-1.5,0.1-2.8,0.2-3.6,0.2h-1c-0.1,0-0.2,0-0.3,0c0.1,0,0.2,0,0.3,0l1-0.1c0.9,0,2.1-0.1,3.6-0.3
							c7.9-0.7,15.7-2.5,23.1-5.3c1.4-0.5,2.6-1,3.4-1.3l0.9-0.4C35.2,6.9,35.3,6.8,35.4,6.8z"/>
					</g>
				</g>
				<g id="Group_57497" transform="translate(5.601 12.804)">
					<g id="Group_57496">
						<path id="Path_141929" class="st0" d="M5.7,6.8c-0.1,0.3-0.2,0.7-0.3,1C5.3,8.2,5.1,8.6,5,9s-0.3,1-0.5,1.6
							c-0.4,1.4-0.7,2.8-0.9,4.2c-0.5,3.5-0.6,7-0.1,10.4C3.7,26.6,4,28,4.3,29.4C4.5,30,4.6,30.5,4.8,31s0.3,0.9,0.4,1.2
							c0.1,0.3,0.2,0.7,0.3,1c-0.2-0.3-0.3-0.6-0.4-1c-0.1-0.3-0.3-0.7-0.4-1.2s-0.3-1-0.5-1.6c-0.4-1.4-0.7-2.8-0.9-4.2
							c-0.5-3.5-0.5-7,0.1-10.5c0.2-1.4,0.6-2.8,1-4.2C4.4,9.9,4.6,9.4,4.8,9s0.3-0.9,0.5-1.2C5.4,7.5,5.5,7.1,5.7,6.8z"/>
					</g>
				</g>
			</g>
			<g id="Group_57513">
				<g id="Group_57500" transform="translate(13.675 8.529)">
					<g id="Group_57499">
						<path id="Path_141930" class="st0" d="M2.8,6.8C2.9,6.9,3,6.9,3,6.9l0.5,0.4c0.4,0.4,1.1,0.9,1.8,1.6c2.2,2,4.2,4.3,6,6.6
							c2.7,3.5,5,7.4,6.8,11.4c2.3,4.9,4.1,10.1,5.3,15.4c1.2,5.3,2.1,10.7,2.6,16.1c0.5,5,0.7,9.5,0.8,13.3s0.2,6.8,0.2,9
							c0,1,0,1.9,0,2.4c0,0.3,0,0.5,0,0.6c0,0.1,0,0.1,0,0.2c0-0.1,0-0.1,0-0.2c0-0.2,0-0.4,0-0.6c0-0.6,0-1.4-0.1-2.4
							c-0.1-2.1-0.1-5.2-0.3-8.9s-0.4-8.3-0.9-13.2c-0.5-5.4-1.4-10.7-2.6-16c-1.2-5.3-3-10.4-5.3-15.3c-1.8-4-4.1-7.8-6.7-11.4
							c-1.8-2.4-3.8-4.6-5.9-6.7C4.5,8.3,3.9,7.8,3.4,7.4L3,7C2.9,6.9,2.9,6.9,2.8,6.8z"/>
					</g>
				</g>
				<g id="Group_57502" transform="translate(13.289 48.466)">
					<g id="Group_57501">
						<path id="Path_141931" class="st0" d="M2.8,7.5c0.1,0,0.2-0.1,0.3-0.1c0.2,0,0.5-0.1,0.8-0.2C5,7,6.1,6.9,7.1,6.8
							c7.3-0.2,14,3.7,17.4,10.1c0.5,0.9,0.9,1.9,1.3,2.9c0.1,0.4,0.2,0.6,0.2,0.8c0,0.1,0.1,0.2,0.1,0.3c-0.2-0.4-0.3-0.7-0.4-1.1
							c-0.4-1-0.8-1.9-1.3-2.9C20.9,10.8,14.3,7,7.1,7.1C6.1,7.1,5,7.2,4,7.4C3.6,7.4,3.2,7.5,2.8,7.5z"/>
					</g>
				</g>
				<g id="Group_57504" transform="translate(7.736 36.223)">
					<g id="Group_57503">
						<path id="Path_141932" class="st0" d="M2.8,7.4c0.1,0,0.2-0.1,0.3-0.1c0.2,0,0.5-0.1,0.9-0.2c1.2-0.2,2.3-0.3,3.5-0.3
							c7.9-0.1,15.4,3.6,20.2,10c0.7,0.9,1.3,1.9,1.9,3c0.2,0.4,0.3,0.7,0.4,0.9c0.1,0.1,0.1,0.2,0.1,0.3c-0.2-0.4-0.5-0.7-0.7-1.1
							c-0.6-1-1.3-2-2-2.9c-4.8-6.2-12.2-9.8-20-9.9c-1.2,0-2.3,0-3.5,0.2C3.7,7.3,3.3,7.4,2.8,7.4z"/>
					</g>
				</g>
				<g id="Group_57506" transform="translate(0 23.03)">
					<g id="Group_57505">
						<path id="Path_141933" class="st0" d="M2.8,8.1C2.9,8.1,3.1,8,3.2,8c0.2-0.1,0.6-0.2,1-0.3C5.5,7.4,6.8,7.1,8.1,7
							c8.8-0.9,17.6,2.4,23.5,9c0.9,1,1.7,2,2.4,3.1c0.3,0.4,0.4,0.7,0.6,0.9c0.1,0.1,0.1,0.2,0.2,0.3c-0.3-0.4-0.6-0.8-0.8-1.2
							c-0.8-1.1-1.6-2.1-2.5-3C25.4,9.8,16.8,6.5,8.1,7.2C6.8,7.4,5.5,7.5,4.3,7.8C3.8,7.9,3.3,8,2.8,8.1z"/>
					</g>
				</g>
				<g id="Group_57508" transform="translate(36.139 26.523)">
					<g id="Group_57507">
						<path id="Path_141934" class="st0" d="M13.1,6.8C13,6.9,13,7,12.9,7.1l-0.6,0.8c-0.3,0.3-0.6,0.7-1,1.2s-0.8,1-1.2,1.6
							c-0.4,0.6-0.9,1.3-1.4,2.1c-0.5,0.8-0.9,1.6-1.4,2.5c-2,3.9-3.3,8.1-3.8,12.5c-0.1,1-0.2,2-0.2,2.9c-0.1,0.9,0,1.7,0,2.5
							c0,0.8,0.1,1.5,0.1,2.1s0.1,1.1,0.1,1.6l0.1,1c0,0.1,0,0.2,0,0.3c0-0.1-0.1-0.2-0.1-0.3c0-0.3-0.1-0.6-0.2-1
							c-0.1-0.5-0.2-1-0.2-1.6c-0.1-0.6-0.2-1.3-0.2-2.1c0-0.8-0.1-1.6,0-2.5c0-0.9,0.1-1.9,0.2-2.9c0.5-4.4,1.8-8.7,3.9-12.6
							c0.5-0.9,0.9-1.7,1.5-2.5c0.5-0.8,1-1.5,1.4-2.1c0.4-0.6,0.9-1.2,1.3-1.6c0.3-0.4,0.7-0.8,1-1.2l0.7-0.7
							C13,6.9,13.1,6.8,13.1,6.8z"/>
					</g>
				</g>
				<g id="Group_57510" transform="translate(31.836 14.045)">
					<g id="Group_57509">
						<path id="Path_141935" class="st0" d="M11.2,6.8c0.1,0-0.9,1.1-2.1,2.8c-0.7,1-1.4,2.1-2,3.3c-1.5,2.7-2.6,5.7-3.3,8.7
							c-0.3,1.2-0.5,2.5-0.6,3.8C3,27.6,3,29,2.9,29c-0.1-0.3-0.1-0.6-0.1-1c0-0.9,0-1.7,0.1-2.6c0.1-1.3,0.3-2.6,0.6-3.8
							c0.7-3.1,1.8-6.1,3.3-8.8c0.6-1.1,1.3-2.2,2.1-3.2c0.5-0.7,1.1-1.4,1.7-2C10.8,7.3,11,7,11.2,6.8z"/>
					</g>
				</g>
				<g id="Group_57512" transform="translate(25.383)">
					<g id="Group_57511">
						<path id="Path_141936" class="st0" d="M4.8,6.8c0,0.3-0.1,0.7-0.2,1c-0.1,0.6-0.3,1.5-0.5,2.6c-1,5.8-1.2,11.7-0.4,17.5
							c0.1,1.1,0.3,2,0.4,2.6c0.1,0.3,0.1,0.6,0.1,1c-0.1-0.3-0.2-0.6-0.3-0.9c-0.1-0.6-0.3-1.5-0.5-2.6c-0.9-5.8-0.8-11.8,0.4-17.6
							c0.2-1.1,0.5-2,0.6-2.6C4.6,7.4,4.7,7.1,4.8,6.8z"/>
					</g>
				</g>
			</g>
		</g>
		<g id="Group_57646" transform="translate(0 0)">
			<g id="Group_57584" transform="translate(0 40.078)">
				<g id="Group_57583">
					<g id="Group_57519">
						<g id="Group_57518">
							<g id="Group_57517">
								<g id="Group_57516">
									<g id="Group_57515">
										<rect id="Rectangle_13760" x="2.8" y="6.8" class="st1" width="183.8" height="84.8"/>
									</g>
								</g>
							</g>
						</g>
					</g>
					<g id="Group_57524" transform="translate(4.207 4.46)">
						<g id="Group_57523">
							<g id="Group_57522">
								<g id="Group_57521">
									<g id="Group_57520">
										<path id="Path_141937" class="st2" d="M178,83.1H2.8V6.8H178V83.1z M4,82h172.9V8H4V82z"/>
									</g>
								</g>
							</g>
						</g>
					</g>
					<g id="Group_57529" transform="translate(183.786)">
						<g id="Group_57528">
							<g id="Group_57527">
								<g id="Group_57526">
									<g id="Group_57525">
										<rect id="Rectangle_13761" x="2.8" y="6.8" class="st2" width="44.9" height="84.8"/>
									</g>
								</g>
							</g>
						</g>
					</g>
					<g id="Group_57535" transform="translate(4.555 27.613)">
						<g id="Group_57534">
							<g id="Group_57533">
								<g id="Group_57532">
									<g id="Group_57531">
										<g id="Group_57530">
											<path id="Path_141938" class="st2" d="M3.1,7.3h174.1c0.1,0,0.2-0.1,0.2-0.2c0-0.1-0.1-0.2-0.2-0.2H3.1
												c-0.1,0-0.2,0.1-0.2,0.2C2.8,7.2,2.9,7.3,3.1,7.3z"/>
										</g>
									</g>
								</g>
							</g>
						</g>
					</g>
					<g id="Group_57541" transform="translate(91.65 4.594)">
						<g id="Group_57540">
							<g id="Group_57539">
								<g id="Group_57538">
									<g id="Group_57537">
										<g id="Group_57536">
											<path id="Path_141939" class="st2" d="M3.6,30.1C4,22.4,4.1,14.7,3.6,7c0-0.1-0.1-0.2-0.2-0.2C3.3,6.8,3.2,6.9,3.2,7
												c-0.4,7.7-0.4,15.4,0.1,23c0,0.1,0.1,0.2,0.2,0.2C3.5,30.2,3.6,30.2,3.6,30.1L3.6,30.1z"/>
										</g>
									</g>
								</g>
							</g>
						</g>
					</g>
					<g id="Group_57546" transform="translate(134.487 13.961)">
						<g id="Group_57545">
							<g id="Group_57544">
								<g id="Group_57543">
									<g id="Group_57542">
										<path id="Path_141940" class="st2" d="M7.6,9.2c0,1.3-1.1,2.4-2.4,2.4s-2.4-1.1-2.4-2.4c0-1.3,1.1-2.4,2.4-2.4
											C6.5,6.8,7.6,7.9,7.6,9.2z"/>
									</g>
								</g>
							</g>
						</g>
					</g>
					<g id="Group_57551" transform="translate(43.138 13.961)">
						<g id="Group_57550">
							<g id="Group_57549">
								<g id="Group_57548">
									<g id="Group_57547">
										<path id="Path_141941" class="st2" d="M7.6,9.2c0,1.3-1.1,2.4-2.4,2.4s-2.4-1.1-2.4-2.4c0-1.3,1.1-2.4,2.4-2.4
											S7.6,7.9,7.6,9.2L7.6,9.2z"/>
									</g>
								</g>
							</g>
						</g>
					</g>
					<g id="Group_57556" transform="translate(89.438 40.242)">
						<g id="Group_57555">
							<g id="Group_57554">
								<g id="Group_57553">
									<g id="Group_57552">
										<path id="Path_141942" class="st2" d="M7.6,9.2c0,1.3-1.1,2.4-2.4,2.4s-2.4-1.1-2.4-2.4c0-1.3,1.1-2.4,2.4-2.4
											S7.6,7.9,7.6,9.2L7.6,9.2z"/>
									</g>
								</g>
							</g>
						</g>
					</g>
					<g id="Group_57561" transform="translate(12.511 84.76)">
						<g id="Group_57560">
							<g id="Group_57559">
								<g id="Group_57558">
									<g id="Group_57557">
										<path id="Path_141943" class="st2" d="M12.3,6.8L2.8,60h5.3L25.6,6.8H12.3z"/>
									</g>
								</g>
							</g>
						</g>
					</g>
					<g id="Group_57566" transform="translate(157.477 84.76)">
						<g id="Group_57565">
							<g id="Group_57564">
								<g id="Group_57563">
									<g id="Group_57562">
										<path id="Path_141944" class="st2" d="M16.1,6.8l7.9,53.3h-5.3L2.8,6.8H16.1z"/>
									</g>
								</g>
							</g>
						</g>
					</g>
					<g id="Group_57571" transform="translate(193.006 84.76)">
						<g id="Group_57570">
							<g id="Group_57569">
								<g id="Group_57568">
									<g id="Group_57567">
										<path id="Path_141945" class="st2" d="M16.1,6.8l9,53.3h-5.3L2.8,6.8H16.1z"/>
									</g>
								</g>
							</g>
						</g>
					</g>
					<g id="Group_57576" transform="translate(89.279 64.229)">
						<g id="Group_57575">
							<g id="Group_57574">
								<g id="Group_57573">
									<g id="Group_57572">
										<path id="Path_141946" class="st2" d="M7.6,9.2c0,1.3-1.1,2.4-2.4,2.4s-2.4-1.1-2.4-2.4c0-1.3,1.1-2.4,2.4-2.4
											C6.5,6.8,7.6,7.9,7.6,9.2C7.6,9.2,7.6,9.2,7.6,9.2z"/>
									</g>
								</g>
							</g>
						</g>
					</g>
					<g id="Group_57582" transform="translate(4.555 53.86)">
						<g id="Group_57581">
							<g id="Group_57580">
								<g id="Group_57579">
									<g id="Group_57578">
										<g id="Group_57577">
											<path id="Path_141947" class="st2" d="M3.1,7.3h174.1c0.1,0,0.2-0.1,0.2-0.2c0-0.1-0.1-0.2-0.2-0.2H3.1
												c-0.1,0-0.2,0.1-0.2,0.2C2.9,7.2,2.9,7.3,3.1,7.3z"/>
										</g>
									</g>
								</g>
							</g>
						</g>
					</g>
				</g>
			</g>
			<g id="Group_57645" transform="translate(72.69 0)">
				<g id="Group_57590" transform="translate(0)">
					<g id="Group_57589">
						<g id="Group_57588">
							<g id="Group_57587">
								<g id="Group_57586">
									<g id="Group_57585">
										
											<rect id="Rectangle_13762" x="2.9" y="7" transform="matrix(1 -4.999937e-03 4.999937e-03 1 -6.271064e-02 0.1534)" class="st2" width="55.6" height="11.3"/>
									</g>
								</g>
							</g>
						</g>
					</g>
				</g>
				<g id="Group_57627" transform="translate(0.276 22.143)">
					<g id="Group_57596" transform="translate(0 0.123)">
						<g id="Group_57595" transform="translate(0 0)">
							<g id="Group_57594" transform="translate(0 0)">
								<g id="Group_57593" transform="translate(0 0)">
									<g id="Group_57592" transform="translate(0 0)">
										<g id="Group_57591">
											
												<rect id="Rectangle_13763" x="2.9" y="7" transform="matrix(1 -4.999937e-03 4.999937e-03 1 -7.841253e-02 0.1694)" class="st1" width="61.9" height="17.6"/>
										</g>
									</g>
								</g>
							</g>
						</g>
					</g>
					<g id="Group_57602" transform="translate(49.794)">
						<g id="Group_57601">
							<g id="Group_57600">
								<g id="Group_57599">
									<g id="Group_57598">
										<g id="Group_57597">
											<path id="Path_141948" class="st2" d="M3.1,24.4c-0.2,0-0.3-3.9-0.3-8.8S3,6.8,3.1,6.8s0.3,3.9,0.3,8.8
												S3.3,24.4,3.1,24.4z"/>
										</g>
									</g>
								</g>
							</g>
						</g>
					</g>
					<g id="Group_57608" transform="translate(52.396)">
						<g id="Group_57607">
							<g id="Group_57606">
								<g id="Group_57605">
									<g id="Group_57604">
										<g id="Group_57603">
											<path id="Path_141949" class="st2" d="M3.1,24.4c-0.2,0-0.3-3.9-0.3-8.8S3,6.8,3.1,6.8s0.3,3.9,0.3,8.8
												S3.3,24.4,3.1,24.4z"/>
										</g>
									</g>
								</g>
							</g>
						</g>
					</g>
					<g id="Group_57614" transform="translate(9.111)">
						<g id="Group_57613">
							<g id="Group_57612">
								<g id="Group_57611">
									<g id="Group_57610">
										<g id="Group_57609">
											<path id="Path_141950" class="st2" d="M3.1,24.4c-0.2,0-0.3-3.9-0.3-8.8S3,6.8,3.1,6.8s0.3,3.9,0.3,8.8
												S3.3,24.4,3.1,24.4z"/>
										</g>
									</g>
								</g>
							</g>
						</g>
					</g>
					<g id="Group_57620" transform="translate(11.712)">
						<g id="Group_57619">
							<g id="Group_57618">
								<g id="Group_57617">
									<g id="Group_57616">
										<g id="Group_57615">
											<path id="Path_141951" class="st2" d="M3.1,24.4c-0.2,0-0.3-3.9-0.3-8.8S3,6.8,3.1,6.8s0.3,3.9,0.3,8.8
												S3.3,24.4,3.1,24.4z"/>
										</g>
									</g>
								</g>
							</g>
						</g>
					</g>
					<g id="Group_57626" transform="translate(17.69 8.767)">
						<g id="Group_57625">
							<g id="Group_57624">
								<g id="Group_57623">
									<g id="Group_57622">
										<g id="Group_57621">
											<path id="Path_141952" class="st2" d="M2.8,7.1c0-0.2,6.2-0.3,14-0.3s14,0.1,14,0.3s-6.2,0.3-14,0.3S2.8,7.3,2.8,7.1z"/>
										</g>
									</g>
								</g>
							</g>
						</g>
					</g>
				</g>
				<g id="Group_57644" transform="translate(9.076 10.853)">
					<g id="Group_57633" transform="translate(0 0)">
						<g id="Group_57632">
							<g id="Group_57631">
								<g id="Group_57630">
									<g id="Group_57629">
										<g id="Group_57628">
											
												<rect id="Rectangle_13764" x="2.9" y="7" transform="matrix(1 -5.270904e-03 5.270904e-03 1 -6.627139e-02 0.2167)" class="st0" width="76.4" height="11.3"/>
										</g>
									</g>
								</g>
							</g>
						</g>
					</g>
					<g id="Group_57638" transform="translate(61.932 2.592)">
						<g id="Group_57637">
							<g id="Group_57636">
								<g id="Group_57635">
									<g id="Group_57634">
										<path id="Path_141953" class="st2" d="M6.4,14.1c-2,0-3.7-1.6-3.7-3.6c0-2,1.6-3.7,3.6-3.7c2,0,3.7,1.6,3.7,3.6
											c0,0,0,0,0,0C10.1,12.5,8.5,14.1,6.4,14.1C6.4,14.1,6.4,14.1,6.4,14.1z"/>
									</g>
								</g>
							</g>
						</g>
					</g>
					<g id="Group_57643" transform="translate(4.451 5.119)">
						<g id="Group_57642" transform="translate(0 0)">
							<g id="Group_57641">
								<g id="Group_57640">
									<g id="Group_57639">
										<rect id="Rectangle_13765" x="2.8" y="6.8" class="st2" width="51.2" height="2.3"/>
									</g>
								</g>
							</g>
						</g>
					</g>
				</g>
			</g>
		</g>
	</g>
	<g id="Plant" transform="translate(28.837 208.789)">
		<g id="Group_57652">
			<path id="Path_141954" class="st3" d="M89.2,10.9c-9,4.7-15.9,12.7-20.9,21.5S60.1,51,57,60.7l-2.8,49.7
				C64.7,92.5,73.1,71.6,75.3,51l-7-0.6c4.7-0.7,8.6-4.1,11.1-8.1s3.8-8.6,5-13.2L76,30.3C82.7,25.8,87.4,18.8,89.2,10.9z"/>
			<g id="Group_57647" transform="translate(51.348 4.112)" class="st4">
				<path id="Path_141955" d="M37.8,6.8c-9,4.7-15.9,12.7-20.9,21.5S8.8,46.9,5.6,56.5l-2.8,49.7C13.3,88.4,21.7,67.4,24,46.9
					l-7-0.6c4.7-0.7,8.6-4.1,11.1-8.1s3.8-8.6,5-13.2l-8.5,1.3C31.4,21.7,36.1,14.7,37.8,6.8z"/>
			</g>
			<path id="Path_141956" class="st3" d="M52.6,122c0,0-22.7-27.2-22.5-53.2h9.2c0,0-10-6.6-9.2-10.2s1.1-17.6,1.1-17.6l8.4,2.1
				c0,0-6.3-3.1-7.1-8.1s1.8-28.1,1.8-28.1s10.2,10.8,13.4,21.8s11.4,23.9,9,57.5S52.6,122,52.6,122z"/>
			<path id="Path_141957" class="st3" d="M64.2,124.5c0,0,24.6-16.4,30.1-37.4l-7.4-2c0,0,9.5-3.1,9.6-6.2s3-14.4,3-14.4l-7.2-0.1
				c0,0,5.8-1.2,7.5-5s4.7-23,4.7-23S93.9,42.9,88.9,51S74.5,67.8,69.1,95.3S64.2,124.5,64.2,124.5z"/>
			<g id="Group_57648" transform="translate(37.726 23.733)">
				<path id="Path_141958" class="st5" d="M2.8,6.8c0,0.1,0.1,0.2,0.1,0.3C3,7.3,3,7.6,3.1,7.9c0.2,0.8,0.4,1.9,0.7,3.2
					c0.3,1.4,0.7,3.1,1.1,5.1s0.9,4.3,1.3,6.8c1,5,2,11.1,3.1,17.8c1,6.7,2.1,14.1,3,21.9c0.9,7.8,1.6,15.2,2.1,22
					c0.5,6.8,0.9,12.9,1.1,18c0.1,2.6,0.2,4.9,0.2,6.9s0.1,3.8,0.1,5.2c0,1.4,0,2.5,0,3.3c0,0.4,0,0.6,0,0.9c0,0.1,0,0.2,0,0.3
					c0-0.1,0-0.2,0-0.3l0-0.9c0-0.8-0.1-1.9-0.1-3.3c0-1.4-0.1-3.2-0.2-5.2s-0.2-4.4-0.3-6.9c-0.2-5.1-0.7-11.2-1.2-18
					c-0.6-6.8-1.3-14.2-2.2-22C10.9,55.1,9.9,47.7,8.9,41c-1-6.7-2-12.7-3-17.8c-0.4-2.5-0.9-4.8-1.3-6.8s-0.7-3.7-1-5.1
					C3.4,9.8,3.2,8.7,3,8C3,7.6,2.9,7.3,2.9,7.1C2.9,7,2.8,6.9,2.8,6.8z"/>
			</g>
			<path id="Path_141959" class="st3" d="M49.5,138.6c0,0-20.8-23.6-27.3-37.9l4.9-2.1c-3.5,0.6-7.2-0.9-9.9-3.2s-4.8-5.3-6.7-8.3
				l6.4-1.1c-5.9-1.7-10.9-5.6-14-10.9c7.6,1.2,14.4,5.4,20.1,10.6c4.5,4.3,8.6,9,12.2,14.1c1.8,2.4,3.4,5,4.7,7.8
				C43.3,114.9,49.5,130,49.5,138.6z"/>
			<g id="Group_57649" transform="translate(55.804 43.382)">
				<path id="Path_141960" class="st5" d="M38.8,6.8c0,0.1-0.1,0.2-0.1,0.2l-0.3,0.7l-1.3,2.6c-1.1,2.3-2.7,5.6-4.6,9.7
					s-4.1,9-6.5,14.5c-2.4,5.5-4.9,11.6-7.4,18S14,65.1,12,70.7c-1.9,5.7-3.6,10.8-4.9,15.1S4.7,93.6,4,96.1l-0.8,2.8
					c-0.1,0.3-0.2,0.5-0.2,0.7c0,0.1-0.1,0.2-0.1,0.2c0-0.1,0-0.2,0-0.3c0-0.2,0.1-0.4,0.2-0.7c0.2-0.7,0.4-1.6,0.7-2.8
					c0.6-2.4,1.7-6,3-10.3s2.9-9.5,4.8-15.1c1.9-5.7,4.2-11.8,6.6-18.3s5-12.5,7.4-18c2.4-5.5,4.6-10.4,6.6-14.4s3.6-7.4,4.7-9.6
					l1.3-2.6L38.7,7C38.7,7,38.7,6.9,38.8,6.8z"/>
			</g>
			<g id="Group_57650" transform="translate(33.165 101.574)">
				<path id="Path_141961" class="st5" d="M18.1,47.2C18,47.1,18,46.9,18,46.8l-0.2-1.3c-0.2-1.1-0.4-2.7-0.8-4.6s-0.9-4.2-1.6-6.7
					c-0.7-2.5-1.6-5.2-2.6-8c-1.1-2.8-2.2-5.4-3.3-7.8C8.3,16,7.1,14,6.2,12.3s-1.8-3.1-2.4-4C3.5,7.9,3.2,7.5,3.1,7.2
					C3,7.1,2.9,7,2.8,6.8C3,6.9,3,7,3.1,7.2l0.7,1c0.6,0.9,1.5,2.2,2.6,3.9s2.2,3.7,3.3,6.1c1.2,2.3,2.3,5,3.4,7.8
					c1.1,2.8,1.9,5.6,2.6,8.1c0.7,2.5,1.2,4.8,1.5,6.8s0.6,3.5,0.7,4.6c0,0.5,0.1,0.9,0.1,1.3C18.1,46.9,18.1,47,18.1,47.2z"/>
			</g>
			<rect id="Rectangle_13766" x="33.2" y="143.2" class="st6" width="45.6" height="9.3"/>
			<path id="Path_141962" class="st6" d="M37.5,152.5l4.9,31.3h27.5l4.6-31.3H37.5z"/>
			<g id="Group_57651" transform="translate(34.586 145.453)">
				<path id="Path_141963" class="st5" d="M41.3,7c0,0.1-8.6,0.2-19.2,0.2S2.8,7.2,2.8,7s8.6-0.2,19.2-0.2S41.3,6.9,41.3,7z"/>
			</g>
		</g>
	</g>
	<g id="Screens" transform="translate(12.819 0)">
		<g id="Group_57828" transform="translate(155.339 45.399)">
			<rect id="Rectangle_13767" x="3.1" y="7.1" class="st7" width="197.6" height="150.5"/>
			<rect id="Rectangle_13768" x="3.1" y="34.1" class="st1" width="62" height="123.5"/>
			<g id="Group_57655" transform="translate(18.195 76.38)">
				<g id="Group_57653" transform="translate(0.153)">
					<path id="Path_141964" class="st2" d="M3,25L2.9,9.2C2.7,8.5,2.9,7.7,3.5,7.1C3.7,6.9,4,6.8,4.4,6.8l8.9,0.1
						c0.6,0,1.1,0.3,1.3,0.8l1,2.1L27.1,10c1.1-0.2,2.2,0.7,2.4,1.8c0,0.1,0,0.3,0,0.4l-0.3,13.4c-0.2,1.5-1.4,2.7-2.9,2.7L5.8,28.2
						C4.4,28.2,3.2,26.9,3,25z"/>
				</g>
				<g id="Group_57654" transform="translate(0 2.925)">
					<path id="Path_141965" class="st0" d="M2.8,21.9l0-13.2c0-0.9,0.7-1.7,1.6-1.8l23.3,0.2c1,0,1.7,1.1,1.6,2.4l0,12.2
						c0,3.1-1.7,3.9-3.1,3.9L6,25.4C3.9,25.4,2.7,24.5,2.8,21.9z"/>
				</g>
			</g>
			<g id="Group_57658" transform="translate(18.271 116.13)">
				<g id="Group_57656" transform="translate(0.153)">
					<path id="Path_141966" class="st2" d="M3,25L2.9,9.2C2.7,8.5,2.9,7.7,3.5,7.1C3.7,6.9,4,6.8,4.4,6.8l8.9,0.1
						c0.6,0,1.1,0.3,1.3,0.8l1,2.1L27.1,10c1.1-0.2,2.2,0.7,2.4,1.8c0,0.1,0,0.3,0,0.4l-0.3,13.4c-0.2,1.5-1.4,2.7-2.9,2.7L5.8,28.2
						C4.4,28.2,3.2,26.9,3,25z"/>
				</g>
				<g id="Group_57657" transform="translate(0 2.926)">
					<path id="Path_141967" class="st0" d="M2.8,21.9l0-13.2c0-0.9,0.7-1.7,1.6-1.8l23.3,0.2c1,0,1.7,1.1,1.6,2.4l0,12.2
						c0,3.1-1.7,3.9-3.1,3.9L6,25.4C3.9,25.4,2.7,24.5,2.8,21.9z"/>
				</g>
			</g>
			<rect id="Rectangle_13769" x="3.1" y="21.6" class="st0" width="197.6" height="14.5"/>
			<rect id="Rectangle_13770" x="3.1" y="7.1" class="st2" width="197.6" height="14.5"/>
			<path id="Path_141968" class="st8" d="M12.3,12.6c0,0.9-0.7,1.7-1.7,1.7c-0.9,0-1.7-0.7-1.7-1.7c0-0.9,0.7-1.7,1.7-1.7
				c0,0,0,0,0,0C11.5,11,12.3,11.7,12.3,12.6z"/>
			<path id="Path_141969" class="st8" d="M18.5,12.6c0,0.9-0.7,1.7-1.7,1.7c-0.9,0-1.7-0.7-1.7-1.7c0-0.9,0.7-1.7,1.7-1.7
				c0,0,0,0,0,0C17.8,11,18.5,11.7,18.5,12.6z"/>
			<path id="Path_141970" class="st8" d="M25.1,12.6c0,0.9-0.7,1.7-1.7,1.7c-0.9,0-1.7-0.7-1.7-1.7c0-0.9,0.7-1.7,1.7-1.7
				c0,0,0,0,0,0C24.4,11,25.1,11.7,25.1,12.6z"/>
			<path id="Path_141971" class="st5" d="M200.7,157.3c0,0,0-0.9,0-2.7s0-4.5,0-7.9c0-7,0-17.2,0-30.3c0-26.1-0.1-63.7-0.1-109.3
				l0.2,0.2L3.1,7.3h0l0.2-0.3c0,53.8,0,104.8,0,150.2l-0.2-0.2l142.5,0.1l40.6,0.1l10.8,0l2.8,0
				C200.3,157.3,200.7,157.3,200.7,157.3c0,0-0.3,0-0.9,0l-2.8,0l-10.7,0l-40.5,0.1L3.1,157.5H2.9v-0.2c0-45.4,0-96.4,0-150.2V6.8
				h0.3l197.6,0h0.2v0.2c0,45.6-0.1,83.2-0.1,109.4c0,13.1,0,23.3,0,30.2c0,3.5,0,6.1,0,7.9S200.7,157.3,200.7,157.3z"/>
			<g id="Group_57662" transform="translate(18.349 40.721)">
				<g id="Group_57659" transform="translate(0)">
					<path id="Path_141972" class="st6" d="M3.2,24.6L2.9,9.2c-0.2-0.7,0-1.5,0.6-2.1C3.7,6.9,4,6.8,4.3,6.8H13c0.5,0,1,0.3,1.3,0.8
						l1,2.1l11.3,0c1.1-0.2,2.2,0.6,2.3,1.7c0,0.1,0,0.3,0,0.4l-0.1,13.1c-0.1,1.5-1.3,2.6-2.8,2.7h-20C4.5,27.7,3.4,26.4,3.2,24.6z
						"/>
				</g>
				<g id="Group_57660" transform="translate(0)" class="st4">
					<path id="Path_141973" d="M3.2,24.6L2.9,9.2c-0.2-0.7,0-1.5,0.6-2.1C3.7,6.9,4,6.8,4.3,6.8H13c0.5,0,1,0.3,1.3,0.8l1,2.1
						l11.3,0c1.1-0.2,2.2,0.6,2.3,1.7c0,0.1,0,0.3,0,0.4l-0.1,13.1c-0.1,1.5-1.3,2.6-2.8,2.7h-20C4.5,27.7,3.4,26.4,3.2,24.6z"/>
				</g>
				<g id="Group_57661" transform="translate(0 2.857)">
					<path id="Path_141974" class="st3" d="M2.9,21.5L2.8,8.6c0-0.9,0.7-1.7,1.6-1.8h22.7c1,0,1.7,1.1,1.6,2.3l0.2,11.9
						c0,3-1.6,3.9-2.9,3.9H6.1C4,25,2.8,24.1,2.9,21.5z"/>
				</g>
			</g>
			<g id="Group_57663" transform="translate(0.556 68.767)">
				<path id="Path_141975" class="st2" d="M64.9,7c0,0.1-13.9,0.2-31,0.2S2.8,7.2,2.8,7s13.9-0.2,31-0.2S64.9,6.9,64.9,7z"/>
			</g>
			<g id="Group_57664" transform="translate(0.2 107.787)">
				<path id="Path_141976" class="st2" d="M64.9,7c0,0.1-13.9,0.2-31,0.2S2.8,7.2,2.8,7s13.9-0.2,31-0.2S64.9,6.9,64.9,7z"/>
			</g>
			<g id="Group_57665" transform="translate(61.503 29.565)">
				<path id="Path_141977" class="st2" d="M3.1,6.8c0.1,0,0.2,27.1,0.2,60.6S3.2,128,3.1,128s-0.2-27.1-0.2-60.6S2.9,6.8,3.1,6.8z"
					/>
			</g>
			<g id="Group_57683" transform="translate(75.016 40.319)">
				<g id="Group_57680">
					<g id="Group_57669" transform="translate(0)">
						<g id="Group_57668">
							<g id="Group_57667">
								<g id="Group_57666">
									<path id="Path_141978" class="st3" d="M2.8,26.9L29.7,27V6.9L2.9,6.8L2.8,26.9z"/>
								</g>
							</g>
						</g>
					</g>
					<g id="Group_57675" transform="translate(13.423 4.022)" class="st9">
						<g id="Group_57674">
							<g id="Group_57673">
								<g id="Group_57672">
									<g id="Group_57671">
										<g id="Group_57670">
											<path id="Path_141979" d="M7.1,8.9C7,10.1,6.1,11,4.9,11c-1.2,0-2.1-0.9-2.1-2.1c0-1.2,0.9-2.1,2.1-2.1c0,0,0,0,0,0
												C6.1,6.8,7.1,7.8,7.1,8.9z"/>
										</g>
									</g>
								</g>
							</g>
						</g>
					</g>
					<g id="Group_57679" transform="translate(0 7.64)" class="st9">
						<g id="Group_57678">
							<g id="Group_57677">
								<g id="Group_57676">
									<path id="Path_141980" d="M2.8,19.3l9.4-12.5l5.8,7.8l3.9-4.2l7.7,8.9L2.8,19.3z"/>
								</g>
							</g>
						</g>
					</g>
				</g>
				<g id="Group_57681" transform="translate(0.887 26.189)">
					<path id="Path_141981" class="st5" d="M29.6,7c0,0.1-6,0.2-13.4,0.2S2.8,7.2,2.8,7s6-0.2,13.4-0.2S29.6,6.9,29.6,7z"/>
				</g>
				<g id="Group_57682" transform="translate(5.904 29.218)">
					<path id="Path_141982" class="st2" d="M19.6,7c-2.8,0.2-5.6,0.3-8.4,0.2C8.4,7.3,5.6,7.3,2.8,7c2.8-0.2,5.6-0.3,8.4-0.2
						C14,6.7,16.8,6.8,19.6,7z"/>
				</g>
			</g>
			<g id="Group_57701" transform="translate(118.402 40.319)">
				<g id="Group_57698">
					<g id="Group_57687" transform="translate(0)">
						<g id="Group_57686">
							<g id="Group_57685">
								<g id="Group_57684">
									<path id="Path_141983" class="st3" d="M2.8,26.9L29.7,27V6.9L2.9,6.8L2.8,26.9z"/>
								</g>
							</g>
						</g>
					</g>
					<g id="Group_57693" transform="translate(13.423 4.022)" class="st9">
						<g id="Group_57692">
							<g id="Group_57691">
								<g id="Group_57690">
									<g id="Group_57689">
										<g id="Group_57688">
											<path id="Path_141984" d="M7.1,8.9C7,10.1,6.1,11,4.9,11s-2.1-0.9-2.1-2.1c0-1.2,0.9-2.1,2.1-2.1
												C6.1,6.8,7.1,7.8,7.1,8.9z"/>
										</g>
									</g>
								</g>
							</g>
						</g>
					</g>
					<g id="Group_57697" transform="translate(0 7.64)" class="st9">
						<g id="Group_57696">
							<g id="Group_57695">
								<g id="Group_57694">
									<path id="Path_141985" d="M2.8,19.3l9.4-12.5l5.8,7.8l3.9-4.2l7.7,8.9L2.8,19.3z"/>
								</g>
							</g>
						</g>
					</g>
				</g>
				<g id="Group_57699" transform="translate(0.887 26.189)">
					<path id="Path_141986" class="st5" d="M29.6,7c0,0.1-6,0.2-13.4,0.2S2.8,7.2,2.8,7s6-0.2,13.4-0.2S29.6,6.9,29.6,7z"/>
				</g>
				<g id="Group_57700" transform="translate(5.904 29.218)">
					<path id="Path_141987" class="st2" d="M19.6,7c-2.8,0.2-5.6,0.3-8.4,0.2C8.4,7.3,5.6,7.3,2.8,7c2.8-0.2,5.6-0.3,8.4-0.2
						C14,6.7,16.8,6.8,19.6,7z"/>
				</g>
			</g>
			<g id="Group_57719" transform="translate(159.337 39.519)">
				<g id="Group_57716">
					<g id="Group_57705" transform="translate(0)">
						<g id="Group_57704">
							<g id="Group_57703">
								<g id="Group_57702">
									<path id="Path_141988" class="st3" d="M2.8,26.9L29.7,27V6.9L2.9,6.8L2.8,26.9z"/>
								</g>
							</g>
						</g>
					</g>
					<g id="Group_57711" transform="translate(13.423 4.022)" class="st9">
						<g id="Group_57710">
							<g id="Group_57709">
								<g id="Group_57708">
									<g id="Group_57707">
										<g id="Group_57706">
											<path id="Path_141989" d="M7.1,8.9C7,10.1,6.1,11,4.9,11c-1.2,0-2.1-0.9-2.1-2.1c0-1.2,0.9-2.1,2.1-2.1c0,0,0,0,0,0
												C6.1,6.8,7.1,7.8,7.1,8.9C7.1,8.9,7.1,8.9,7.1,8.9z"/>
										</g>
									</g>
								</g>
							</g>
						</g>
					</g>
					<g id="Group_57715" transform="translate(0 7.64)" class="st9">
						<g id="Group_57714">
							<g id="Group_57713">
								<g id="Group_57712">
									<path id="Path_141990" d="M2.8,19.3l9.4-12.5l5.8,7.8l3.9-4.2l7.7,8.9L2.8,19.3z"/>
								</g>
							</g>
						</g>
					</g>
				</g>
				<g id="Group_57717" transform="translate(0.887 26.189)">
					<path id="Path_141991" class="st5" d="M29.6,7c0,0.1-6,0.2-13.4,0.2S2.8,7.2,2.8,7s6-0.2,13.4-0.2S29.6,6.9,29.6,7z"/>
				</g>
				<g id="Group_57718" transform="translate(5.904 29.219)">
					<path id="Path_141992" class="st2" d="M19.6,7C14,7.3,8.4,7.3,2.8,7C8.4,6.7,14,6.7,19.6,7z"/>
				</g>
			</g>
			<g id="Group_57737" transform="translate(75.016 76.421)">
				<g id="Group_57734">
					<g id="Group_57723" transform="translate(0)">
						<g id="Group_57722">
							<g id="Group_57721">
								<g id="Group_57720">
									<path id="Path_141993" class="st3" d="M2.8,26.9L29.7,27V6.9L2.9,6.8L2.8,26.9z"/>
								</g>
							</g>
						</g>
					</g>
					<g id="Group_57729" transform="translate(13.423 4.021)" class="st9">
						<g id="Group_57728">
							<g id="Group_57727">
								<g id="Group_57726">
									<g id="Group_57725">
										<g id="Group_57724">
											<path id="Path_141994" d="M7.1,8.9c0,1.2-1,2.1-2.1,2.1c-1.2,0-2.1-1-2.1-2.1c0-1.2,1-2.1,2.1-2.1
												C6.1,6.8,7.1,7.8,7.1,8.9C7.1,8.9,7.1,8.9,7.1,8.9z"/>
										</g>
									</g>
								</g>
							</g>
						</g>
					</g>
					<g id="Group_57733" transform="translate(0 7.64)" class="st9">
						<g id="Group_57732">
							<g id="Group_57731">
								<g id="Group_57730">
									<path id="Path_141995" d="M2.8,19.3l9.4-12.5l5.8,7.8l3.9-4.2l7.7,8.9L2.8,19.3z"/>
								</g>
							</g>
						</g>
					</g>
				</g>
				<g id="Group_57735" transform="translate(0.887 26.189)">
					<path id="Path_141996" class="st5" d="M29.6,7.1c0,0.1-6,0.2-13.4,0.2S2.8,7.2,2.8,7.1s6-0.2,13.4-0.2S29.6,6.9,29.6,7.1z"/>
				</g>
				<g id="Group_57736" transform="translate(5.904 29.218)">
					<path id="Path_141997" class="st2" d="M19.6,7c-2.8,0.2-5.6,0.3-8.4,0.2C8.4,7.4,5.6,7.3,2.8,7c2.8-0.2,5.6-0.3,8.4-0.2
						C14,6.7,16.8,6.8,19.6,7z"/>
				</g>
			</g>
			<g id="Group_57755" transform="translate(118.402 76.421)">
				<g id="Group_57752">
					<g id="Group_57741" transform="translate(0)">
						<g id="Group_57740">
							<g id="Group_57739">
								<g id="Group_57738">
									<path id="Path_141998" class="st6" d="M2.8,26.9L29.7,27V6.9L2.9,6.8L2.8,26.9z"/>
								</g>
							</g>
						</g>
					</g>
					<g id="Group_57747" transform="translate(13.423 4.021)" class="st9">
						<g id="Group_57746">
							<g id="Group_57745">
								<g id="Group_57744">
									<g id="Group_57743">
										<g id="Group_57742">
											<path id="Path_141999" d="M7.1,8.9c0,1.2-1,2.1-2.1,2.1c-1.2,0-2.1-1-2.1-2.1c0-1.2,0.9-2.1,2.1-2.1
												C6.1,6.8,7.1,7.8,7.1,8.9C7.1,8.9,7.1,8.9,7.1,8.9z"/>
										</g>
									</g>
								</g>
							</g>
						</g>
					</g>
					<g id="Group_57751" transform="translate(0 7.64)" class="st9">
						<g id="Group_57750">
							<g id="Group_57749">
								<g id="Group_57748">
									<path id="Path_142000" d="M2.8,19.3l9.4-12.5l5.8,7.8l3.9-4.2l7.7,8.9L2.8,19.3z"/>
								</g>
							</g>
						</g>
					</g>
				</g>
				<g id="Group_57753" transform="translate(0.887 26.189)">
					<path id="Path_142001" class="st5" d="M29.6,7.1c0,0.1-6,0.2-13.4,0.2S2.8,7.2,2.8,7.1s6-0.2,13.4-0.2S29.6,6.9,29.6,7.1z"/>
				</g>
				<g id="Group_57754" transform="translate(5.904 29.218)">
					<path id="Path_142002" class="st2" d="M19.6,7c-2.8,0.2-5.6,0.3-8.4,0.2C8.4,7.4,5.6,7.3,2.8,7c2.8-0.2,5.6-0.3,8.4-0.2
						C14,6.7,16.8,6.8,19.6,7z"/>
				</g>
			</g>
			<g id="Group_57773" transform="translate(159.337 75.622)">
				<g id="Group_57770">
					<g id="Group_57759" transform="translate(0)">
						<g id="Group_57758">
							<g id="Group_57757">
								<g id="Group_57756">
									<path id="Path_142003" class="st3" d="M2.8,26.9L29.7,27V6.9L2.9,6.8L2.8,26.9z"/>
								</g>
							</g>
						</g>
					</g>
					<g id="Group_57765" transform="translate(13.423 4.021)" class="st9">
						<g id="Group_57764">
							<g id="Group_57763">
								<g id="Group_57762">
									<g id="Group_57761">
										<g id="Group_57760">
											<path id="Path_142004" d="M7.1,8.9c0,1.2-1,2.1-2.1,2.1c-1.2,0-2.1-1-2.1-2.1c0-1.2,1-2.1,2.1-2.1
												C6.1,6.8,7.1,7.8,7.1,8.9C7.1,8.9,7.1,8.9,7.1,8.9z"/>
										</g>
									</g>
								</g>
							</g>
						</g>
					</g>
					<g id="Group_57769" transform="translate(0 7.64)" class="st9">
						<g id="Group_57768">
							<g id="Group_57767">
								<g id="Group_57766">
									<path id="Path_142005" d="M2.8,19.3l9.4-12.5l5.8,7.8l3.9-4.2l7.7,8.9L2.8,19.3z"/>
								</g>
							</g>
						</g>
					</g>
				</g>
				<g id="Group_57771" transform="translate(0.887 26.188)">
					<path id="Path_142006" class="st5" d="M29.6,7c0,0.1-6,0.2-13.4,0.2S2.8,7.2,2.8,7s6-0.2,13.4-0.2S29.6,6.9,29.6,7z"/>
				</g>
				<g id="Group_57772" transform="translate(5.904 29.218)">
					<path id="Path_142007" class="st2" d="M19.6,7C14,7.4,8.4,7.4,2.8,7C8.4,6.7,14,6.7,19.6,7z"/>
				</g>
			</g>
			<g id="Group_57791" transform="translate(75.016 113.081)">
				<g id="Group_57788">
					<g id="Group_57777" transform="translate(0)">
						<g id="Group_57776">
							<g id="Group_57775">
								<g id="Group_57774">
									<path id="Path_142008" class="st3" d="M2.8,26.9L29.7,27V6.9L2.9,6.8L2.8,26.9z"/>
								</g>
							</g>
						</g>
					</g>
					<g id="Group_57783" transform="translate(13.423 4.021)" class="st9">
						<g id="Group_57782">
							<g id="Group_57781">
								<g id="Group_57780">
									<g id="Group_57779">
										<g id="Group_57778">
											<path id="Path_142009" d="M7.1,8.9c0,1.2-1,2.1-2.1,2.1c-1.2,0-2.1-1-2.1-2.1c0-1.2,1-2.1,2.1-2.1
												C6.1,6.8,7.1,7.8,7.1,8.9C7.1,8.9,7.1,8.9,7.1,8.9z"/>
										</g>
									</g>
								</g>
							</g>
						</g>
					</g>
					<g id="Group_57787" transform="translate(0 7.64)" class="st9">
						<g id="Group_57786">
							<g id="Group_57785">
								<g id="Group_57784">
									<path id="Path_142010" d="M2.8,19.3l9.4-12.5l5.8,7.8l3.9-4.2l7.7,8.9L2.8,19.3z"/>
								</g>
							</g>
						</g>
					</g>
				</g>
				<g id="Group_57789" transform="translate(0.887 26.188)">
					<path id="Path_142011" class="st5" d="M29.6,7c0,0.1-6,0.2-13.4,0.2S2.8,7.2,2.8,7s6-0.2,13.4-0.2S29.6,6.9,29.6,7z"/>
				</g>
				<g id="Group_57790" transform="translate(5.904 29.218)">
					<path id="Path_142012" class="st2" d="M19.6,7c-2.8,0.2-5.6,0.3-8.4,0.2C8.4,7.3,5.6,7.3,2.8,7c2.8-0.2,5.6-0.3,8.4-0.2
						C14,6.7,16.8,6.8,19.6,7z"/>
				</g>
			</g>
			<g id="Group_57809" transform="translate(118.402 113.081)">
				<g id="Group_57806">
					<g id="Group_57795" transform="translate(0)">
						<g id="Group_57794">
							<g id="Group_57793">
								<g id="Group_57792">
									<path id="Path_142013" class="st3" d="M2.8,26.9L29.7,27V6.9L2.9,6.8L2.8,26.9z"/>
								</g>
							</g>
						</g>
					</g>
					<g id="Group_57801" transform="translate(13.423 4.021)" class="st9">
						<g id="Group_57800">
							<g id="Group_57799">
								<g id="Group_57798">
									<g id="Group_57797">
										<g id="Group_57796">
											<path id="Path_142014" d="M7.1,8.9c0,1.2-1,2.1-2.1,2.1c-1.2,0-2.1-1-2.1-2.1c0-1.2,0.9-2.1,2.1-2.1
												C6.1,6.8,7.1,7.8,7.1,8.9C7.1,8.9,7.1,8.9,7.1,8.9z"/>
										</g>
									</g>
								</g>
							</g>
						</g>
					</g>
					<g id="Group_57805" transform="translate(0 7.64)" class="st9">
						<g id="Group_57804">
							<g id="Group_57803">
								<g id="Group_57802">
									<path id="Path_142015" d="M2.8,19.3l9.4-12.5l5.8,7.8l3.9-4.2l7.7,8.9L2.8,19.3z"/>
								</g>
							</g>
						</g>
					</g>
				</g>
				<g id="Group_57807" transform="translate(0.887 26.188)">
					<path id="Path_142016" class="st5" d="M29.6,7c0,0.1-6,0.2-13.4,0.2S2.8,7.2,2.8,7s6-0.2,13.4-0.2S29.6,6.9,29.6,7z"/>
				</g>
				<g id="Group_57808" transform="translate(5.904 29.218)">
					<path id="Path_142017" class="st2" d="M19.6,7c-2.8,0.2-5.6,0.3-8.4,0.2C8.4,7.3,5.6,7.3,2.8,7c2.8-0.2,5.6-0.3,8.4-0.2
						C14,6.7,16.8,6.8,19.6,7z"/>
				</g>
			</g>
			<g id="Group_57827" transform="translate(159.337 112.281)">
				<g id="Group_57824">
					<g id="Group_57813" transform="translate(0)">
						<g id="Group_57812">
							<g id="Group_57811">
								<g id="Group_57810">
									<path id="Path_142018" class="st3" d="M2.8,26.9L29.7,27V6.9L2.9,6.8L2.8,26.9z"/>
								</g>
							</g>
						</g>
					</g>
					<g id="Group_57819" transform="translate(13.423 4.022)" class="st9">
						<g id="Group_57818">
							<g id="Group_57817">
								<g id="Group_57816">
									<g id="Group_57815">
										<g id="Group_57814">
											<path id="Path_142019" d="M7.1,8.9c0,1.2-1,2.1-2.1,2.1c-1.2,0-2.1-1-2.1-2.1c0-1.2,1-2.1,2.1-2.1
												C6.1,6.8,7.1,7.8,7.1,8.9C7.1,8.9,7.1,8.9,7.1,8.9z"/>
										</g>
									</g>
								</g>
							</g>
						</g>
					</g>
					<g id="Group_57823" transform="translate(0 7.64)" class="st9">
						<g id="Group_57822">
							<g id="Group_57821">
								<g id="Group_57820">
									<path id="Path_142020" d="M2.8,19.3l9.4-12.5l5.8,7.8l3.9-4.2l7.7,8.9L2.8,19.3z"/>
								</g>
							</g>
						</g>
					</g>
				</g>
				<g id="Group_57825" transform="translate(0.887 26.188)">
					<path id="Path_142021" class="st5" d="M29.6,7c0,0.1-6,0.2-13.4,0.2S2.8,7.2,2.8,7s6-0.2,13.4-0.2S29.6,6.9,29.6,7z"/>
				</g>
				<g id="Group_57826" transform="translate(5.904 29.218)">
					<path id="Path_142022" class="st2" d="M19.6,7C14,7.4,8.4,7.4,2.8,7C8.4,6.7,14,6.7,19.6,7z"/>
				</g>
			</g>
		</g>
		<g id="Group_57852" transform="translate(0)">
			<rect id="Rectangle_13771" x="17.6" y="7" class="st7" width="176.3" height="162"/>
			<g id="Group_57843" transform="translate(14.578 24.275)">
				<g id="Group_57832" transform="translate(0.001)">
					<g id="Group_57831">
						<g id="Group_57830">
							<g id="Group_57829">
								<path id="Path_142023" class="st10" d="M2.8,139.2l176.6,0.6V7.4L3.3,6.8L2.8,139.2z"/>
							</g>
						</g>
					</g>
				</g>
				<g id="Group_57838" transform="translate(88.361 26.474)" class="st9">
					<g id="Group_57837">
						<g id="Group_57836">
							<g id="Group_57835">
								<g id="Group_57834">
									<g id="Group_57833">
										<path id="Path_142024" d="M30.6,20.7c0,7.7-6.3,13.8-13.9,13.8C9,34.5,2.8,28.3,2.8,20.6S9.1,6.8,16.7,6.8c0,0,0,0,0,0
											C24.4,6.8,30.6,13.1,30.6,20.7z"/>
									</g>
								</g>
							</g>
						</g>
					</g>
				</g>
				<g id="Group_57842" transform="translate(0 50.293)" class="st9">
					<g id="Group_57841">
						<g id="Group_57840">
							<g id="Group_57839">
								<path id="Path_142025" d="M2.8,88.9L64.6,6.8l37.9,51.6L128.5,31l50.9,58.5L2.8,88.9z"/>
							</g>
						</g>
					</g>
				</g>
			</g>
			<path id="Path_142026" class="st2" d="M24.7,13.5c0,1-0.8,1.7-1.7,1.7s-1.7-0.8-1.7-1.7s0.8-1.7,1.7-1.7S24.7,12.5,24.7,13.5
				L24.7,13.5z"/>
			<path id="Path_142027" class="st2" d="M30.2,13.6c0,1-0.8,1.7-1.7,1.7s-1.7-0.8-1.7-1.7s0.8-1.7,1.7-1.7c0,0,0,0,0,0
				C29.4,11.8,30.2,12.6,30.2,13.6z"/>
			<path id="Path_142028" class="st2" d="M35.7,13.6c0,1-0.8,1.7-1.7,1.7s-1.7-0.8-1.7-1.7s0.8-1.7,1.7-1.7S35.7,12.7,35.7,13.6
				L35.7,13.6z"/>
			<rect id="Rectangle_13772" x="17.6" y="19.8" class="st1" width="176.3" height="11.9"/>
			<g id="Group_57844" transform="translate(76.376 6.642)">
				<path id="Path_142029" class="st5" d="M63.1,7c0,0.1-13.5,0.2-30.2,0.2S2.8,7.2,2.8,7S16.3,6.8,33,6.8S63.1,6.9,63.1,7z"/>
			</g>
			<g id="Group_57845" transform="translate(14.564)">
				<path id="Path_142030" class="st5" d="M179.4,169c0-1.6-0.1-64.6-0.2-162l0.2,0.2L3.1,7.3h0l0.2-0.2c0,59,0,114.5,0,162
					l-0.2-0.2L179.4,169L3.1,169.3H2.9v-0.2c0-47.5,0-103,0-162V6.8h0.2l176.3,0h0.2v0.2C179.5,104.4,179.4,167.4,179.4,169z"/>
			</g>
			<g id="Group_57848" transform="translate(180.569 67.829)">
				<ellipse id="Ellipse_2706" class="st11" cx="13.4" cy="17.3" rx="10.3" ry="10.3"/>
				<g id="Group_57847">
					<ellipse id="Ellipse_2707" class="st1" cx="13.4" cy="17.3" rx="10.3" ry="10.3"/>
					<g id="Group_57846">
						<path id="Path_142031" class="st5" d="M23.7,17.3c-0.1-0.8-0.2-1.7-0.4-2.5c-0.6-2.2-1.9-4.2-3.8-5.6
							c-2.8-2.1-6.4-2.6-9.6-1.4c-1.9,0.7-3.5,1.9-4.7,3.5c-2.6,3.6-2.6,8.4,0,12c1.2,1.6,2.8,2.8,4.7,3.5
							c5.3,1.9,11.2-0.8,13.1-6.1c0.1-0.3,0.2-0.6,0.3-0.9C23.5,19,23.7,18.2,23.7,17.3c0,0.2,0,0.4,0,0.7c0,0.3,0,0.5-0.1,0.8
							c0,0.4-0.1,0.7-0.2,1.1c-1,4-4.1,7-8.2,7.8c-1.9,0.4-3.8,0.2-5.5-0.4c-2-0.7-3.7-2-4.9-3.7c-2.7-3.7-2.7-8.8,0-12.5
							c1.2-1.7,2.9-3,4.9-3.7c1.8-0.6,3.7-0.8,5.5-0.4c4,0.8,7.2,3.8,8.2,7.8c0.1,0.4,0.2,0.7,0.2,1.1c0,0.3,0.1,0.5,0.1,0.8
							C23.8,16.9,23.8,17.1,23.7,17.3z"/>
					</g>
				</g>
				<path id="Path_142032" class="st12" d="M12.6,14.5l2.9,2.9l-2.9,2.9"/>
			</g>
			<g id="Group_57851" transform="translate(0 67.664)">
				<g id="Group_57850" transform="translate(0 0)">
					<ellipse id="Ellipse_2708" class="st1" cx="16.4" cy="20.4" rx="10.3" ry="10.3"/>
					<g id="Group_57849" transform="translate(3.205 3.038)">
						<path id="Path_142033" class="st5" d="M2.9,17.3c0.1,0.8,0.2,1.7,0.4,2.5c0.6,2.2,1.9,4.2,3.8,5.6c2.8,2.1,6.4,2.6,9.6,1.4
							c1.9-0.7,3.5-1.9,4.7-3.5c2.6-3.6,2.6-8.4,0-12c-1.2-1.6-2.8-2.8-4.7-3.5C13.4,6.6,9.8,7.2,7,9.3c-1.8,1.4-3.2,3.4-3.8,5.6
							C3.1,15.7,2.9,16.5,2.9,17.3c0-0.2,0-0.4,0-0.7c0-0.3,0-0.5,0.1-0.8c0-0.4,0.1-0.7,0.2-1.1c1-4,4.1-7,8.2-7.8
							c1.9-0.4,3.8-0.2,5.5,0.4c2,0.7,3.7,2,4.9,3.7c2.7,3.7,2.7,8.8,0,12.5c-1.2,1.7-2.9,3-4.9,3.7c-1.8,0.6-3.7,0.8-5.5,0.4
							c-4-0.8-7.2-3.8-8.2-7.8c-0.1-0.4-0.2-0.7-0.2-1.1c0-0.3-0.1-0.5-0.1-0.8C2.8,17.8,2.8,17.6,2.9,17.3z"/>
					</g>
				</g>
				<path id="Path_142034" class="st12" d="M17.2,23.3l-2.9-2.9l2.9-2.9"/>
			</g>
		</g>
	</g>
	<g id="Character" transform="translate(153.088 107.647)">
		<g id="Group_58101">
			<g id="Group_57863" transform="translate(36.355 55.543)">
				<g id="Group_57853" transform="translate(51.598 132.195)">
					<path id="Path_142035" class="st5" d="M89,97.6l-7.9,0.1L2.8,11.2l4.8-4.4L89,97.6z"/>
				</g>
				<g id="Group_57854" transform="translate(42.643 132.645)">
					<path id="Path_142036" class="st5" d="M12.1,97.1l-9.3-0.3L87.5,6.8l4.7,4.5L12.1,97.1z"/>
				</g>
				<g id="Group_57859">
					<g id="Group_57855" transform="translate(67.269 0)">
						<path id="Path_142037" class="st8" d="M110.7,6.8L59.5,8.1L2.8,139l63,0.1L110.7,6.8z"/>
					</g>
					<g id="Group_57856" transform="translate(0 0)">
						<path id="Path_142038" class="st8" d="M184.9,12.4l-47.6,136.3H2.8v-9.6h130.2L178,6.8L184.9,12.4z"/>
					</g>
					<g id="Group_57858">
						<g id="Group_57857">
							<path id="Path_142039" class="st5" d="M178,6.8c0,0-0.1,0.2-0.2,0.7s-0.4,1.1-0.6,1.9l-2.5,7.5c-2.2,6.5-5.3,15.9-9.2,27.4
								l-30.6,90.4c-0.5,1.6-1.1,3.1-1.5,4.5l-0.1,0.2h-0.2l-92.3-0.1L13,139.3l-7.5,0l-2,0c-0.4,0-0.7,0-0.7,0s0.2,0,0.7,0l2,0
								l7.5,0l27.8-0.1l92.3-0.1l-0.2,0.2c0.5-1.4,1-3,1.5-4.5c12-35.3,22.9-67.2,30.8-90.4c4-11.5,7.2-20.9,9.4-27.4l2.6-7.4
								l0.7-1.9C177.9,7,178,6.8,178,6.8z"/>
						</g>
					</g>
				</g>
				<g id="Group_57860" transform="translate(23.542 132.195)">
					<path id="Path_142040" class="st8" d="M91.3,97.7H81.1L2.8,11.2l4.8-4.4L91.3,97.7z"/>
				</g>
				<g id="Group_57861" transform="translate(14.274 132.645)">
					<path id="Path_142041" class="st8" d="M12.3,97.1H2.8l85-90.3l4.7,4.5L12.3,97.1z"/>
				</g>
				<g id="Group_57862" transform="translate(62.486 171.691)">
					<rect id="Rectangle_13773" x="2.8" y="6.8" class="st8" width="30.4" height="7"/>
				</g>
			</g>
			<g id="Group_58100">
				<g id="Group_58046" transform="translate(117.01)">
					<g id="Group_58043">
						<g id="Group_57864" transform="translate(6.118)">
							<path id="Path_142042" class="st5" d="M21.2,6.9c5.3-0.5,9.8,1.8,14,5C44,19,47.4,30.7,43.9,41.4c-1.9,5.4-5.9,9.7-11,12
								c-7,3-15.7,1.2-21.5-3.8S2.6,36.8,2.8,29.2c0.1-5.3,1.8-10.5,5-14.7C11,10.2,15.9,7.5,21.2,6.9"/>
						</g>
						<g id="Group_58038" transform="translate(2.241 0.079)">
							<g id="Group_57866" transform="translate(0.611)">
								<g id="Group_57865">
									<path id="Path_142043" class="st5" d="M38.2,25.6c-0.6-2.1-0.2-4.3-0.4-6.4c-0.4-4.7-3.9-8.7-8.1-10.8
										c-3.9-2-8.9-1.9-13.9-0.7c-3.5,0.8-6.6,2.6-9.1,5.1c-3.2,3.5-4.5,8.3-3.6,13l24.1-1.9c2,2.1,4.4,3.9,6.9,5.2
										c0.8,0.4,1.6,0.6,2.5,0.6c0.9,0,1.6-0.6,2-1.4C38.8,27.4,38.6,26.4,38.2,25.6z"/>
								</g>
							</g>
							<g id="Group_57868" transform="translate(0 7.391)">
								<g id="Group_57867">
									<path id="Path_142044" class="st13" d="M15.5,6.9l20.6,5.8c2,0.3,3.5,2,3.4,4.1l-3.2,45.2c-0.2,3.1-1.4,6-3.5,8.3l-2.2,2.4
										c-3.8,4.3-10.3,4.7-14.6,1c-1.1-0.9-1.9-2.1-2.5-3.4c-0.2-0.4-0.3-0.8-0.4-1.2c-0.1-0.3-0.1-0.7-0.1-1
										c-0.2-2.3-0.2-4.6,0.1-6.9c0.1-4,0.1-5.7,0.1-5.7c0,0-8.5-1.6-9.9-12.8c-0.7-5.5-0.2-14.6,0.5-22C4.2,14.1,8.9,6,15.5,6.9z
										"/>
								</g>
							</g>
							<g id="Group_57996" transform="translate(2.624 24.62)">
								<g id="Group_57995">
									<g id="Group_57900">
										<g id="Group_57883" transform="translate(0.8 4.098)">
											<g id="Group_57882">
												<g id="Group_57881">
													<g id="Group_57880">
														<g id="Group_57879">
															<g id="Group_57878">
																<g id="Group_57877">
																	<g id="Group_57876">
																		<g id="Group_57875">
																			<g id="Group_57874">
																				<g id="Group_57873">
																					<g id="Group_57872">
																						<g id="Group_57871">
																							<g id="Group_57870">
																								<g id="Group_57869">
																									<path id="Path_142045" class="st5" d="M2.8,8.1c0,0.8,0.6,1.4,1.3,1.5c0.7,0.1,1.4-0.5,1.5-1.2
																										c0,0,0,0,0,0c0-0.8-0.6-1.4-1.3-1.5C3.6,6.8,2.9,7.3,2.8,8.1C2.8,8.1,2.8,8.1,2.8,8.1z"/>
																								</g>
																							</g>
																						</g>
																					</g>
																				</g>
																			</g>
																		</g>
																	</g>
																</g>
															</g>
														</g>
													</g>
												</g>
											</g>
										</g>
										<g id="Group_57899">
											<g id="Group_57898">
												<g id="Group_57897">
													<g id="Group_57896">
														<g id="Group_57895">
															<g id="Group_57894">
																<g id="Group_57893">
																	<g id="Group_57892">
																		<g id="Group_57891">
																			<g id="Group_57890">
																				<g id="Group_57889">
																					<g id="Group_57888">
																						<g id="Group_57887">
																							<g id="Group_57886">
																								<g id="Group_57885">
																									<g id="Group_57884">
																										<path id="Path_142046" class="st5" d="M2.9,8.2C3,8.4,4.1,7.7,5.7,7.7c1.5,0,2.6,0.8,2.8,0.7
																											C8.5,8.3,8.4,8,7.9,7.6C7.2,7.1,6.5,6.8,5.7,6.8C4.9,6.8,4.1,7,3.4,7.5C2.9,7.8,2.8,8.2,2.9,8.2z"/>
																									</g>
																								</g>
																							</g>
																						</g>
																					</g>
																				</g>
																			</g>
																		</g>
																	</g>
																</g>
															</g>
														</g>
													</g>
												</g>
											</g>
										</g>
									</g>
									<g id="Group_57932" transform="translate(14.521 0.578)">
										<g id="Group_57915" transform="translate(0 4.074)">
											<g id="Group_57914">
												<g id="Group_57913">
													<g id="Group_57912">
														<g id="Group_57911">
															<g id="Group_57910">
																<g id="Group_57909">
																	<g id="Group_57908">
																		<g id="Group_57907">
																			<g id="Group_57906">
																				<g id="Group_57905">
																					<g id="Group_57904">
																						<g id="Group_57903">
																							<g id="Group_57902">
																								<g id="Group_57901">
																									<path id="Path_142047" class="st5" d="M2.8,8.1c0,0.8,0.6,1.4,1.3,1.5c0.7,0.1,1.4-0.5,1.5-1.2
																										c0,0,0,0,0,0c0-0.8-0.6-1.4-1.3-1.5C3.6,6.7,2.9,7.3,2.8,8.1C2.8,8.1,2.8,8.1,2.8,8.1z"/>
																								</g>
																							</g>
																						</g>
																					</g>
																				</g>
																			</g>
																		</g>
																	</g>
																</g>
															</g>
														</g>
													</g>
												</g>
											</g>
										</g>
										<g id="Group_57931" transform="translate(0.016)">
											<g id="Group_57930">
												<g id="Group_57929">
													<g id="Group_57928">
														<g id="Group_57927">
															<g id="Group_57926">
																<g id="Group_57925">
																	<g id="Group_57924">
																		<g id="Group_57923">
																			<g id="Group_57922">
																				<g id="Group_57921">
																					<g id="Group_57920">
																						<g id="Group_57919">
																							<g id="Group_57918">
																								<g id="Group_57917">
																									<g id="Group_57916">
																										<path id="Path_142048" class="st5" d="M2.9,8.2C3,8.4,4.1,7.7,5.7,7.7c1.5,0,2.6,0.8,2.8,0.7
																											C8.5,8.3,8.4,8,7.9,7.6C7.2,7.1,6.5,6.8,5.7,6.8C4.9,6.8,4.1,7,3.4,7.5C2.9,7.8,2.8,8.2,2.9,8.2z"/>
																									</g>
																								</g>
																							</g>
																						</g>
																					</g>
																				</g>
																			</g>
																		</g>
																	</g>
																</g>
															</g>
														</g>
													</g>
												</g>
											</g>
										</g>
									</g>
									<g id="Group_57948" transform="translate(5.337 0.577)">
										<g id="Group_57947">
											<g id="Group_57946">
												<g id="Group_57945">
													<g id="Group_57944">
														<g id="Group_57943">
															<g id="Group_57942">
																<g id="Group_57941">
																	<g id="Group_57940">
																		<g id="Group_57939">
																			<g id="Group_57938">
																				<g id="Group_57937">
																					<g id="Group_57936">
																						<g id="Group_57935">
																							<g id="Group_57934">
																								<g id="Group_57933">
																									<path id="Path_142049" class="st5" d="M6.7,19.6c-0.8-0.3-1.6-0.4-2.5-0.5c-0.4-0.1-0.8-0.1-0.8-0.4
																										c0-0.4,0.1-0.8,0.3-1.2c0.4-0.9,0.8-1.9,1.2-2.9c1.7-4.2,3-7.7,2.8-7.7s-1.7,3.3-3.4,7.5
																										c-0.4,1-0.8,2-1.2,3c-0.3,0.5-0.3,1-0.2,1.5c0.1,0.3,0.3,0.5,0.6,0.6c0.2,0.1,0.4,0.1,0.7,0.1
																										C5,19.6,5.9,19.7,6.7,19.6z"/>
																								</g>
																							</g>
																						</g>
																					</g>
																				</g>
																			</g>
																		</g>
																	</g>
																</g>
															</g>
														</g>
													</g>
												</g>
											</g>
										</g>
									</g>
									<g id="Group_57963" transform="translate(7.618 27.858)">
										<g id="Group_57962">
											<g id="Group_57961">
												<g id="Group_57960">
													<g id="Group_57959">
														<g id="Group_57958">
															<g id="Group_57957">
																<g id="Group_57956">
																	<g id="Group_57955">
																		<g id="Group_57954">
																			<g id="Group_57953">
																				<g id="Group_57952">
																					<g id="Group_57951">
																						<g id="Group_57950">
																							<g id="Group_57949">
																								<path id="Path_142050" class="st14" d="M2.9,10.4c5.2,0.2,10.4-1,15-3.6c0,0-3.9,7.6-15,6.3L2.9,10.4z"/>
																							</g>
																						</g>
																					</g>
																				</g>
																			</g>
																		</g>
																	</g>
																</g>
															</g>
														</g>
													</g>
												</g>
											</g>
										</g>
									</g>
									<g id="Group_57978" transform="translate(9.6 16.051)">
										<g id="Group_57977">
											<g id="Group_57976">
												<g id="Group_57975">
													<g id="Group_57974">
														<g id="Group_57973">
															<g id="Group_57972">
																<g id="Group_57971">
																	<g id="Group_57970">
																		<g id="Group_57969">
																			<g id="Group_57968">
																				<g id="Group_57967">
																					<g id="Group_57966">
																						<g id="Group_57965">
																							<g id="Group_57964">
																								<path id="Path_142051" class="st14" d="M3,7.8c0.6-0.7,1.6-1.1,2.5-1c0.7,0.1,1.3,0.4,1.7,1
																									c0.4,0.5,0.4,1.3,0.1,1.8c-0.5,0.5-1.3,0.7-2,0.5C4.5,9.8,3.9,9.4,3.3,8.9C3.2,8.8,3,8.6,2.9,8.4
																									C2.8,8.2,2.8,8,3,7.8"/>
																							</g>
																						</g>
																					</g>
																				</g>
																			</g>
																		</g>
																	</g>
																</g>
															</g>
														</g>
													</g>
												</g>
											</g>
										</g>
									</g>
									<g id="Group_57994" transform="translate(8.701 14.505)">
										<g id="Group_57993">
											<g id="Group_57992">
												<g id="Group_57991">
													<g id="Group_57990">
														<g id="Group_57989">
															<g id="Group_57988">
																<g id="Group_57987">
																	<g id="Group_57986">
																		<g id="Group_57985">
																			<g id="Group_57984">
																				<g id="Group_57983">
																					<g id="Group_57982">
																						<g id="Group_57981">
																							<g id="Group_57980">
																								<g id="Group_57979">
																									<path id="Path_142052" class="st5" d="M7.8,6.8c-0.2,0-0.3,1.6-1.8,2.8s-3.2,0.9-3.2,1.1
																										c0,0.1,0.4,0.3,1.1,0.4c1,0,1.9-0.3,2.7-0.9C7.4,9.7,7.9,8.9,8,7.9C8.1,7.2,7.9,6.8,7.8,6.8z"/>
																								</g>
																							</g>
																						</g>
																					</g>
																				</g>
																			</g>
																		</g>
																	</g>
																</g>
															</g>
														</g>
													</g>
												</g>
											</g>
										</g>
									</g>
								</g>
							</g>
							<g id="Group_58010" transform="translate(17.558 21.018)">
								<g id="Group_58009">
									<g id="Group_58008">
										<g id="Group_58007">
											<g id="Group_58006">
												<g id="Group_58005">
													<g id="Group_58004">
														<g id="Group_58003">
															<g id="Group_58002">
																<g id="Group_58001">
																	<g id="Group_58000">
																		<g id="Group_57999">
																			<g id="Group_57998">
																				<g id="Group_57997">
																					<path id="Path_142053" class="st5" d="M2.8,7.9C3,8.3,4.5,8.2,6.3,8.4c1.8,0.2,3.2,0.8,3.5,0.4
																						c0.1-0.2-0.1-0.6-0.7-1c-1.6-1-3.5-1.3-5.3-0.7C3.1,7.4,2.8,7.7,2.8,7.9z"/>
																				</g>
																			</g>
																		</g>
																	</g>
																</g>
															</g>
														</g>
													</g>
												</g>
											</g>
										</g>
									</g>
								</g>
							</g>
							<g id="Group_58024" transform="translate(3.231 17.838)">
								<g id="Group_58023">
									<g id="Group_58022">
										<g id="Group_58021">
											<g id="Group_58020">
												<g id="Group_58019">
													<g id="Group_58018">
														<g id="Group_58017">
															<g id="Group_58016">
																<g id="Group_58015">
																	<g id="Group_58014">
																		<g id="Group_58013">
																			<g id="Group_58012">
																				<g id="Group_58011">
																					<path id="Path_142054" class="st5" d="M2.9,8.3c0.3,0.4,1.3,0,2.6,0c1.3,0,2.3,0.3,2.6-0.1
																						c0.1-0.2,0-0.5-0.5-0.9c-1.3-0.8-2.9-0.8-4.2,0C2.9,7.8,2.8,8.2,2.9,8.3z"/>
																				</g>
																			</g>
																		</g>
																	</g>
																</g>
															</g>
														</g>
													</g>
												</g>
											</g>
										</g>
									</g>
								</g>
							</g>
							<g id="Group_58026" transform="translate(11.641 0.184)">
								<g id="Group_58025">
									<path id="Path_142055" class="st5" d="M31.2,22.4C29.4,15.9,20.6,6.7,13.8,6.8l-11,5.9c0.5,3.8,3.1,6.9,6.6,8.2
										c1.9,0.7,4.1,0.9,5.2,2.6c1.1,1.7,0.3,4.1,1.3,5.9c1.4,2.4,5.4,2.5,6.4,5.1c0.4,1.1,0.1,2.5,0.6,3.6
										c0.6,1.5,4.3,3.6,5.9,3.1s1.7-3.1,2.3-4.4c0.7-1.5,0.9-3.3,0.4-4.9C31,28.8,32,25.5,31.2,22.4z"/>
								</g>
							</g>
							<g id="Group_58031" transform="translate(32.964 32.886)">
								<g id="Group_58030">
									<g id="Group_58029">
										<g id="Group_58028">
											<g id="Group_58027">
												<path id="Path_142056" class="st13" d="M2.9,9.8c0-0.8,1-2.8,1.9-2.9c2.2-0.3,6.1,0,6,5.5C10.6,20,3,18.3,3,18.1
													C3,17.9,2.8,12.6,2.9,9.8z"/>
											</g>
										</g>
									</g>
								</g>
							</g>
							<g id="Group_58037" transform="translate(35.472 35.352)">
								<g id="Group_58036">
									<g id="Group_58035">
										<g id="Group_58034">
											<g id="Group_58033">
												<g id="Group_58032">
													<path id="Path_142057" class="st14" d="M2.8,12.8c0,0,0.1,0.1,0.4,0.2c0.3,0.1,0.7,0.2,1,0c1-0.6,1.6-1.7,1.6-2.9
														c0-0.7-0.1-1.3-0.3-1.9c-0.1-0.5-0.5-0.9-1-1C4.1,7.1,3.8,7.3,3.7,7.5C3.6,7.7,3.6,7.9,3.6,7.9c0,0-0.2-0.1-0.1-0.4
														c0-0.2,0.2-0.4,0.3-0.5C4,6.9,4.3,6.8,4.5,6.8C5.1,7,5.7,7.4,5.9,8c0.3,0.7,0.5,1.4,0.4,2.1c-0.1,1.5-0.9,2.9-2,3.2
														c-0.4,0.1-0.9,0-1.2-0.2C2.9,13,2.8,12.8,2.8,12.8z"/>
												</g>
											</g>
										</g>
									</g>
								</g>
							</g>
						</g>
						<g id="Group_58039" transform="translate(42.902 9.834)">
							<path id="Path_142058" class="st5" d="M3.9,11L3.9,11C4,8.7,7.1,7.3,9.4,6.9c2.4-0.3,4.8,0.4,6.7,1.7
								c1.3,0.6,2.2,1.8,2.5,3.1c0.2,1.4-1.2,2.9-2.5,2.3c2.3,1,3.4,3.6,2.4,5.9c-1,2.3-3.6,3.4-5.9,2.4c-0.5-0.2-1-0.5-1.4-0.9
								c0.5,2.2,1.8,4.2,3.6,5.6C8.7,27.6,3.3,22.9,2.8,16.8C2.7,14.8,3.1,12.8,3.9,11L3.9,11z"/>
						</g>
						<g id="Group_58041" transform="translate(44.575 11.85)">
							<g id="Group_58040">
								<path id="Path_142059" class="st6" d="M6.7,21.3c0.3-0.7,0.4-1.5,0.4-2.2c0.3-3.7-0.7-7.4-2.8-10.5C3.9,7.9,3.4,7.3,2.8,6.8
									C5.9,11,7.3,16.2,6.7,21.3L6.7,21.3z"/>
							</g>
						</g>
						<g id="Group_58042" transform="translate(0 3.819)">
							<path id="Path_142060" class="st5" d="M19.1,7.1c-0.9,3-5.8,6.7-8,8.9c-4.2,4.3-5.1,5.8-5.7,16c-1.6-3.6-2.8-7.2-2.4-11.2
								c0.4-4,2.2-7.8,5.1-10.5C11,7.5,15.1,6.3,19.1,7.1"/>
						</g>
					</g>
					<g id="Group_58044" transform="translate(15.032 6.286)">
						<path id="Path_142061" class="st8" d="M33.9,16.6c-0.4,0.1-0.9,0.2-1.3,0.2c-0.5,0.1-1,0.1-1.5,0.2c-0.6,0-1.3,0.1-2.1,0.1
							c-1.8,0-3.6-0.1-5.4-0.3c-4.4-0.6-8.6-1.9-12.5-3.9C9.6,12,8,11.1,6.6,10C5.9,9.6,5.4,9.2,4.9,8.8c-0.4-0.3-0.8-0.7-1.2-1
							C3.4,7.5,3.1,7.2,2.8,6.8c0.4,0.2,0.7,0.5,1,0.8c0.3,0.3,0.7,0.6,1.2,1s1,0.8,1.7,1.2c1.5,1,3,1.9,4.6,2.7
							c3.9,2,8.1,3.3,12.4,3.9c1.8,0.2,3.5,0.4,5.3,0.4c0.8,0,1.4,0,2,0s1.1,0,1.5-0.1C33,16.6,33.5,16.6,33.9,16.6z"/>
					</g>
					<g id="Group_58045" transform="translate(24.892 15.766)">
						<path id="Path_142062" class="st8" d="M24.5,12.6c-0.3,0.1-0.6,0.1-0.9,0.2c-0.8,0.1-1.6,0.1-2.5,0.1
							c-5.5,0.1-10.8-1.4-15.5-4.1C4.9,8.3,4.2,7.9,3.5,7.4C3.3,7.2,3,7.1,2.8,6.8c0-0.1,1.1,0.7,2.9,1.6c4.7,2.6,10,3.9,15.4,4.1
							C23.2,12.6,24.5,12.5,24.5,12.6z"/>
					</g>
				</g>
				<path id="Path_142063" class="st15" d="M154.2,148l-48.6,7.1c-18.3,5.2-37.5,6.7-57.6,4.9l73.1,34.1l29.4,0.5
					c0,0,8.9,0,10.5-7.8c1.6-7.9,3.3-31.5,3.3-31.5S158.5,150.2,154.2,148z"/>
				<g id="Group_58048" transform="translate(150.156 152.123)" class="st4">
					<g id="Group_58047">
						<path id="Path_142064" d="M3.9,16.3c0.8,4.9,1.1,9.8,0.9,14.7c3-3.3,4.4-7.8,3.6-12.3c-0.4-2.4-1.4-5-0.2-7.1
							c0.8-1.4,3.1-3,2.7-4.6c0,0-2,0-3.7-0.1C5.8,6.9,2.8,6.8,2.8,6.8c1.3,3.1,1.6,6.4,0.8,9.7"/>
					</g>
				</g>
				<g id="Group_58065" transform="translate(71.307 62.31)">
					<g id="Group_58049" transform="translate(53.157)">
						<path id="Path_142065" class="st13" d="M7.1,8.9l24.3-2l3.5,0.4L19.4,19.9l-7.9,2.8l-7-3.3l-1.7-4.7L7.1,8.9z"/>
					</g>
					<g id="Group_58064" transform="translate(0 0.354)">
						<path id="Path_142066" class="st13" d="M31.6,35.9l-9.1,29L2.8,92.5l12.4,8.9L36.6,75l7.2-32.7L31.6,35.9z"/>
						<g id="Group_58050" transform="translate(24.752)">
							<path id="Path_142067" class="st5" d="M2.8,30.7c0,0,8.9-13.4,11.6-15.8c3.2-2.9,9.1-5.1,9.1-5.1l11.9-1.3
								c0,0-7.4,8.5,1.1,9.6S63.3,6.8,63.3,6.8S76,9.2,79.2,11.1s11.2,6.7,10.8,19.6l0,10.3c0,0-24.1-0.8-24.3,0s-5.1,38.8-5.1,38.8
								l-12.2,7.4c0,0-33,6.3-35.1,6.7s-0.5-53.5-0.5-53.5S4.3,36.4,2.8,30.7z"/>
						</g>
						<g id="Group_58063" transform="translate(7.618 34.232)">
							<g id="Group_58051" transform="translate(27.594)">
								<path id="Path_142068" class="st13" d="M5.5,49.1l45-6.8l4.6-35.5h22.6c0,0-5.4,25-6.5,31.4c-1.7,9.2-8,21.5-11.4,23.8
									c-3.4,2.3-57-2.3-57-2.3L5.5,49.1z"/>
							</g>
							<g id="Group_58052" transform="translate(0.231 31.211)">
								<path id="Path_142069" class="st13" d="M7.3,22c0.3,0.6,0.9,1.1,1.6,1.1c0.1,0,0.3,0,0.4-0.1c1-0.3,1-2.3,1-2.3l4.8-0.5
									c0,0,5.9,4.3,7.9,7.1s7.7,1,7.7,1l2.6-9.9l-8.2-8.4c0,0,0.5,0.5,0-1S21.9,8,21.9,8c-0.4-0.8-2.1-1.1-2.1-1.1l-7.7,0.4
									c-1.6,0.1-3,0.9-4,2.1l-3.5,4.9c0,0-1.9,3.6-1.7,4.4c0.2,0.8,0.9,1.2,1.7,1.1c0,0,0.2,2.4,0.8,2.6C6.1,22.3,6.7,22.2,7.3,22
									L7.3,22z"/>
							</g>
							<g id="Group_58054" transform="translate(6.443 39.725)">
								<g id="Group_58053">
									<path id="Path_142070" class="st14" d="M17.7,7.3c0,0.1-1-0.1-2.6-0.1C13,7.2,10.9,7.4,8.8,8C7.7,8.3,6.6,8.7,5.5,9.1
										c-1,0.5-1.9,0.8-2.3,1.5c-0.2,0.3-0.1,0.6,0,0.9c0.1,0.2,0.3,0.4,0.5,0.5c0.2,0.1,0.4,0.1,0.7,0.1c0,0-0.2,0.2-0.7,0
										c-0.3-0.1-0.5-0.3-0.7-0.6c-0.2-0.4-0.3-0.8-0.1-1.2c0.2-0.4,0.6-0.8,1-1c0.4-0.2,0.9-0.5,1.4-0.7c3-1.4,6.4-2.1,9.8-1.8
										C16,6.9,16.9,7,17.7,7.3z"/>
								</g>
							</g>
							<g id="Group_58056" transform="translate(7.73 44.407)">
								<g id="Group_58055">
									<path id="Path_142071" class="st14" d="M16.7,7.5c0,0.1-3.1-0.2-6.9-0.2S2.9,7.5,2.8,7.4c0.7-0.2,1.3-0.3,2-0.4
										c3.3-0.3,6.6-0.3,9.8,0.1C15.4,7.2,16,7.3,16.7,7.5z"/>
								</g>
							</g>
							<g id="Group_58058" transform="translate(4.72 35.39)">
								<g id="Group_58057">
									<path id="Path_142072" class="st14" d="M2.9,17.6c0-0.3-0.1-0.5,0-0.8c0-0.7,0-1.5,0.1-2.2c0.1-0.5,0.2-1,0.3-1.5
										c0.2-0.6,0.5-1.1,0.9-1.6c0.8-1.1,1.9-2,3-2.7C8.4,8,9.6,7.5,10.9,7.1c1.1-0.2,2.2-0.3,3.3-0.3c0.9,0,1.7,0.1,2.2,0.2
										c0.3,0,0.5,0,0.8,0.1c-1,0.1-2,0.1-3,0.1c-1.1,0-2.2,0.1-3.2,0.4C9.8,7.9,8.6,8.4,7.4,9.1c-1.1,0.7-2.1,1.5-2.9,2.6
										c-0.7,0.8-1.1,1.8-1.2,2.9C3,16.5,3,17.6,2.9,17.6z"/>
								</g>
							</g>
							<g id="Group_58060" transform="translate(2.185 32.893)">
								<g id="Group_58059">
									<path id="Path_142073" class="st14" d="M17.3,7c0,0.1-1.1,0-3,0.1C12.6,7.3,9.7,7.3,8,9.6c-1.7,1.7-3.1,3.6-4.2,5.7
										c-0.4,0.9-0.7,1.8-0.9,2.8c0-0.3,0-0.5,0-0.8c0.1-0.7,0.3-1.5,0.6-2.1C4.5,13,5.9,11,7.6,9.2c0.5-0.5,1-1,1.6-1.4
										c0.6-0.4,1.2-0.6,1.8-0.7c1.1-0.2,2.2-0.3,3.3-0.3C15.3,6.8,16.3,6.8,17.3,7z"/>
								</g>
							</g>
							<g id="Group_58062" transform="translate(0 30.995)">
								<g id="Group_58061">
									<path id="Path_142074" class="st14" d="M21.7,25.9c-0.2-0.1-0.3-0.2-0.4-0.4L20,24.4c-1.5-1.3-3.1-2.6-4.8-3.8l0.1,0
										l-4.8,0.5l0.2-0.2c0,0.4-0.1,0.8-0.2,1.1c-0.1,0.4-0.3,0.8-0.6,1.1c-0.2,0.1-0.4,0.2-0.6,0.2c-0.2,0-0.4,0-0.7,0
										c-0.5-0.1-0.9-0.4-1.1-0.7c-0.1-0.1-0.1-0.2-0.2-0.3l0-0.1l0,0l0,0l0,0c-0.1,0,0.5,0.2,0.3,0.1h0h0l-0.2,0.1
										c-0.2,0.1-0.4,0.1-0.6,0.2c-0.2,0.1-0.4,0.1-0.7,0.1c-0.1,0-0.2,0-0.4,0c-0.2,0-0.3,0-0.4-0.1C5.2,22.5,5,22.3,5,22
										c-0.1-0.2-0.1-0.4-0.2-0.7c-0.1-0.4-0.2-0.9-0.2-1.4l0.3,0.2c-0.7,0.1-1.3-0.2-1.7-0.7c-0.2-0.3-0.3-0.6-0.3-1
										c0-0.3,0.1-0.6,0.2-0.9c0.4-1.1,0.9-2.2,1.5-3.3l0,0l0,0l1.9-2.6l1.2-1.6C8.1,9.5,8.5,8.9,9,8.5c0.5-0.5,1.1-0.8,1.8-1
										c0.6-0.2,1.3-0.3,2-0.3L20,6.8h0l0,0c0.4,0.1,0.8,0.2,1.2,0.4c0.4,0.2,0.8,0.5,1,0.8L22,8c0.8-0.3,1.7-0.2,2.4,0.3
										c0.6,0.5,1,1.2,1.1,2l-0.1-0.1l5.6,5.8l1.5,1.6c0.2,0.2,0.4,0.4,0.5,0.6c-0.2-0.1-0.4-0.3-0.6-0.5L31,16.1l-5.7-5.6l0,0
										l0-0.1c-0.1-0.7-0.4-1.3-1-1.7c-0.6-0.4-1.4-0.5-2.1-0.2L22,8.4l-0.1-0.2c-0.2-0.3-0.5-0.5-0.8-0.6
										c-0.4-0.2-0.8-0.3-1.2-0.4H20l-7.2,0.4c-0.6,0-1.2,0.1-1.8,0.3c-0.6,0.2-1.1,0.5-1.6,0.9c-0.5,0.5-0.9,1-1.2,1.5
										c-0.4,0.5-0.8,1.1-1.2,1.6L5,14.6l0,0c-0.6,1-1.1,2.1-1.5,3.2c-0.1,0.3-0.2,0.5-0.2,0.8c0,0.2,0,0.5,0.2,0.7
										c0.3,0.4,0.8,0.6,1.3,0.5l0.2,0L5,20c0,0.4,0.1,0.9,0.2,1.3c0.1,0.4,0.2,0.7,0.4,1c0.1,0,0.1,0,0.2,0c0.1,0,0.2,0,0.3,0
										c0.2,0,0.4-0.1,0.6-0.1c0.2,0,0.4-0.1,0.6-0.2l0.1,0h0l0,0c-0.2-0.1,0.3,0.1,0.3,0.1l0,0l0,0l0,0l0,0.1
										c0,0.1,0.1,0.2,0.1,0.2c0.2,0.3,0.5,0.5,0.9,0.6c0.2,0,0.3,0,0.5,0c0.2,0,0.3-0.1,0.4-0.2c0.4-0.5,0.7-1.2,0.6-1.9l0-0.2
										l0.2,0l4.8-0.4l0.1,0l0,0c1.7,1.2,3.2,2.5,4.7,3.9c0.5,0.5,0.9,0.9,1.2,1.2C21.4,25.6,21.6,25.7,21.7,25.9z"/>
								</g>
							</g>
						</g>
					</g>
				</g>
				<g id="Group_58093" transform="translate(0 137.203)">
					<g id="Group_58080" transform="translate(0 0.227)">
						<g id="Group_58066" transform="translate(0 3.966)">
							<path id="Path_142075" class="st15" d="M75.3,21.8c0,0-30.8-9.7-40.5-12.8c-16.6-5.4-27.5,0.1-31,6
								c-4.5,7.7,6.2,22.8,10.4,26.3C26.5,51.6,47.4,53,47.4,53l0,0l75.2-0.1l-22-29.8L75.3,21.8z"/>
						</g>
						<g id="Group_58076" transform="translate(20.964 23.125)">
							<g id="Group_58067">
								<path id="Path_142076" class="st2" d="M57.6,14.7c-12.5,1.5-25.2-0.3-36.9-5c-2-0.9-4.1-1.7-6.2-2.3
									c-2.1-0.5-4.2-0.7-6.4-0.4C6.5,7,4.8,7.7,3.7,9c-1.5,2-0.7,4.8,0.1,7.1c1,2.7,2,5.6,3.9,7.8c2.2,2.6,5.5,4,8.7,5.1
									c6.4,2,13.1,2.6,19.7,2.8L59,30.5L57.6,14.7z"/>
							</g>
							<g id="Group_58069" transform="translate(47.044 8.617)">
								<g id="Group_58068">
									<path id="Path_142077" class="st5" d="M7.2,21.8C6.6,21.3,6,20.7,5.6,20C3.3,16.9,2.4,12.9,3,9.1c0.1-0.8,0.3-1.6,0.7-2.3
										c0.1,0-0.2,0.9-0.4,2.3c-0.4,3.7,0.4,7.5,2.5,10.7C6.6,21,7.3,21.7,7.2,21.8z"/>
								</g>
							</g>
							<g id="Group_58071" transform="translate(5.668 0.561)">
								<g id="Group_58070">
									<path id="Path_142078" class="st5" d="M7.8,6.8c0,0,0.2,0.2,0.4,0.6C8.4,8,8.6,8.6,8.8,9.3c1,4.3-0.4,8.7-3.7,11.6
										c-0.5,0.4-1,0.8-1.6,1.1c-0.4,0.2-0.6,0.3-0.6,0.3c0-0.1,0.8-0.6,2-1.7c3-2.9,4.4-7.1,3.6-11.3C8.2,7.8,7.7,6.9,7.8,6.8z"
										/>
								</g>
							</g>
							<g id="Group_58073" transform="translate(47.538 11.502)">
								<g id="Group_58072">
									<path id="Path_142079" class="st5" d="M6.5,7c0,0.1-0.8,0.3-1.8,0.3s-1.8,0-1.8-0.2s0.8-0.3,1.8-0.3S6.5,6.9,6.5,7z"/>
								</g>
							</g>
							<g id="Group_58075" transform="translate(48.398 17.84)">
								<g id="Group_58074">
									<path id="Path_142080" class="st5" d="M4.9,6.9C5,7,4.5,7.3,3.9,7.3S2.8,7,2.8,6.9s0.5-0.1,1-0.1S4.9,6.8,4.9,6.9z"/>
								</g>
							</g>
						</g>
						<g id="Group_58077" transform="translate(71.849)">
							<path id="Path_142081" class="st15" d="M82.1,23.9C80.3,18.9,80,11.4,69,7.8s-19.4,3.3-25,5.7S7.3,32.9,7.3,32.9
								s-5.8,10.4-4.2,15s9.2,9.1,9.2,9.1H47c8.9,0,25.6-0.3,25.6-0.3c2.2-3.6,4.2-7.4,6-11.3l0.3-1.5C78.8,42.7,83.9,29,82.1,23.9z
								"/>
						</g>
						<g id="Group_58079" transform="translate(81.352 43.405)">
							<g id="Group_58078">
								<path id="Path_142082" class="st5" d="M53.4,6.8c0,0.2-0.1,0.3-0.3,0.5c-0.3,0.4-0.7,0.7-1.1,1c-1.5,1.1-3.2,2-4.9,2.7
									c-1.2,0.5-2.4,1-3.6,1.4c-1.4,0.4-2.9,0.7-4.4,0.9c-3.4,0.3-6.8,0.5-10.2,0.4c-7.2,0.1-13.7,0.4-18.5,0.3
									c-2.4,0-4.3-0.1-5.6-0.3c-0.7-0.1-1.2-0.1-1.5-0.2c-0.2,0-0.4-0.1-0.5-0.1c0,0,0.7,0.1,2,0.1s3.2,0.1,5.6,0.1
									c4.7,0,11.2-0.4,18.5-0.5c3.4,0.1,6.8,0,10.1-0.4c1.5-0.2,2.9-0.5,4.3-0.9c1.2-0.4,2.4-0.8,3.6-1.4c1.7-0.7,3.4-1.6,4.9-2.6
									c0.4-0.3,0.8-0.6,1.2-0.9C53.3,7,53.3,6.8,53.4,6.8z"/>
							</g>
						</g>
					</g>
					<g id="Group_58082" transform="translate(71.795)">
						<g id="Group_58081">
							<path id="Path_142083" class="st5" d="M12.4,57.2c-0.2-0.1-0.3-0.2-0.5-0.2c-0.3-0.2-0.7-0.4-1.3-0.8
								c-1.6-1.1-3.2-2.3-4.6-3.6c-1-1-1.9-2.1-2.6-3.3c-0.7-1.5-0.9-3.3-0.5-4.9c0.8-4,2.2-7.8,4.2-11.3l0,0l0.1,0
								c5.7-3.1,12.2-6.7,19.3-10.5c3.6-1.9,7.3-3.9,11.1-5.9c1.9-1,3.9-2,5.9-2.9c2-0.9,4-2,6-3c2.8-1.5,5.8-2.7,9-3.4
								c1.5-0.3,3.1-0.5,4.7-0.4c1.5,0.1,3.1,0.3,4.5,0.7c2.9,0.7,5.6,2,7.9,3.8c1.1,0.9,2.1,2,2.9,3.1c0.8,1.1,1.4,2.4,1.9,3.7
								c0.5,1.3,0.8,2.5,1.2,3.8c0.4,1.2,0.7,2.4,1,3.7c0.2,2.4,0,4.8-0.6,7.1c-0.4,2.2-1,4.3-1.5,6.2c-0.3,1-0.5,1.9-0.8,2.8
								c-0.3,0.8-0.5,1.7-0.7,2.6v0l-0.3,1.5v0l0,0c-0.9,3-2.3,5.9-4,8.6c-0.6,1-1.3,1.8-2.1,2.7c0-0.1,0.1-0.1,0.1-0.2l0.4-0.5
								c0.5-0.7,1-1.3,1.4-2c1.6-2.7,2.9-5.6,3.8-8.6v0c0.1-0.5,0.2-0.9,0.3-1.5v0c0.2-0.9,0.4-1.8,0.7-2.6c0.3-0.9,0.5-1.8,0.8-2.8
								c0.5-1.9,1.1-4,1.5-6.2c0.5-2.3,0.7-4.6,0.6-7c-0.3-1.2-0.6-2.4-1-3.6c-0.4-1.2-0.7-2.5-1.2-3.7c-0.5-1.3-1.1-2.5-1.8-3.6
								c-0.8-1.1-1.7-2.1-2.8-3c-2.3-1.7-5-3-7.8-3.7c-1.5-0.4-2.9-0.6-4.4-0.6c-1.5,0-3.1,0.1-4.6,0.4c-3.1,0.7-6.1,1.8-8.8,3.3
								c-2,1-4,2.2-6,3c-2,0.9-4,1.9-5.9,2.9c-3.8,2-7.6,3.9-11.1,5.8L7.5,33.2l0.1-0.1c-1.9,3.5-3.4,7.3-4.2,11.2
								c-0.4,1.6-0.2,3.3,0.4,4.8c0.7,1.2,1.5,2.3,2.5,3.3c1.4,1.4,2.9,2.6,4.5,3.7l1.3,0.8C12.3,57.1,12.4,57.2,12.4,57.2z"/>
						</g>
					</g>
					<g id="Group_58084" transform="translate(114.787 35.082)">
						<path id="Path_142084" class="st2" d="M25.8,9.3c0,0,10.3,1.2,9.4,6.3s-4.3,6.7-4.3,6.7l-28,0.1C2.8,22.4,19.6,21.2,25.8,9.3z
							"/>
						<g id="Group_58083" transform="translate(17.996)">
							<path id="Path_142085" class="st5" d="M8.8,6.8c0,0.5-0.1,1-0.3,1.4c-0.4,1.1-1,2.2-1.7,3.1c-1,1.4-2.4,2.4-3.9,3
								c1.3-1,2.5-2.1,3.6-3.3C7.3,9.7,8.1,8.3,8.8,6.8z"/>
						</g>
					</g>
					<g id="Group_58086" transform="translate(131.883 37.066)">
						<g id="Group_58085">
							<path id="Path_142086" class="st5" d="M6.1,6.8c0,1.3-0.3,2.5-1,3.6c-0.5,1.2-1.3,2.2-2.3,3c-0.1-0.1,0.9-1.4,1.8-3.2
								C5.6,8.4,6,6.8,6.1,6.8z"/>
						</g>
					</g>
					<g id="Group_58088" transform="translate(148.294 24.202)">
						<g id="Group_58087">
							<path id="Path_142087" class="st5" d="M2.8,31.8c-0.1,0,0.6-1.3,1.4-3.5c2.1-5.7,2.8-11.8,2-17.8C6,8.2,5.6,6.8,5.7,6.8
								C5.8,7.1,6,7.5,6,7.8c0.2,0.9,0.4,1.8,0.6,2.7c1,6.1,0.3,12.3-2,17.9c-0.3,0.9-0.7,1.7-1.2,2.5C3.2,31.2,3.1,31.5,2.8,31.8z"
								/>
						</g>
					</g>
					<g id="Group_58090" transform="translate(115.568 33.175)" class="st4">
						<g id="Group_58089">
							<path id="Path_142088" d="M29.7,8.5c-0.1-0.7-0.3-1.5-1-1.6c-0.8-0.2-1.4,0.8-1.7,1.5C23.5,16.6,11.8,23,2.8,23.8
								c4.3,0,8.7-0.4,13-1.1c3.7-0.6,7.1-2.1,9.9-4.5C28.5,15.8,30,12.2,29.7,8.5z"/>
						</g>
					</g>
					<g id="Group_58092" transform="translate(64.404 19.396)">
						<g id="Group_58091">
							<path id="Path_142089" class="st5" d="M12.6,11.1C9.2,9.9,5.9,8.5,2.8,6.8C6.2,7.9,9.5,9.4,12.6,11.1z"/>
						</g>
					</g>
				</g>
				<g id="Group_58094" transform="translate(33.913 149.685)" class="st9">
					<path id="Path_142090" d="M53.1,13.6c-13.4-2.6-26.8-4.8-40.2-6.8L2.8,10c2.8,5.2,8.4,8.5,14.1,9.9c5.8,1.4,11.8,1,17.7,0.5
						c6.5-0.6,13.2-1.5,18.8-4.8c0.4-0.2,0.9-0.6,0.9-1.1C54.3,14,53.6,13.7,53.1,13.6z"/>
				</g>
				<g id="Group_58099" transform="translate(18.255 114.626)">
					<g id="Group_58095">
						<path id="Path_142091" class="st2" d="M3,8.9l16.8,37.2c0.7,1.5,2.2,2.5,3.9,2.6l49.1,0.6L79,46l-9.7-0.7L54.2,9.1
							c-0.5-1.2-1.6-1.9-2.9-1.9l-47-0.4c-0.8,0-1.5,0.6-1.5,1.5C2.8,8.5,2.9,8.7,3,8.9z"/>
					</g>
					<g id="Group_58097" transform="translate(47.757 0.35)">
						<g id="Group_58096">
							<path id="Path_142092" class="st5" d="M20.1,48.9c-0.1-0.1-0.2-0.3-0.2-0.4l-0.6-1.2l-2-4.5c-1.6-3.8-3.9-9-6.3-14.8
								S6.5,17,5.1,13.1c-0.7-1.9-1.3-3.5-1.7-4.6C3.2,8,3.1,7.6,3,7.3C2.9,7.1,2.9,7,2.8,6.8C2.9,7,3,7.1,3,7.2
								C3.2,7.6,3.4,8,3.6,8.5C4,9.6,4.6,11.1,5.4,13l6.1,14.9l6.1,14.9l1.8,4.5l0.5,1.2C20,48.6,20.1,48.8,20.1,48.9z"/>
						</g>
					</g>
					<g id="Group_58098" transform="translate(29.743 17.725)">
						<path id="Path_142093" class="st7" d="M7.7,9.2c0,1.3-1.1,2.4-2.4,2.4s-2.4-1.1-2.4-2.4s1.1-2.4,2.4-2.4S7.7,7.9,7.7,9.2
							L7.7,9.2z"/>
					</g>
				</g>
			</g>
		</g>
	</g>
	<g id="Floor" transform="translate(12.222 385.897)">
		<g id="Group_58102">
			<path id="Path_142094" class="st5" d="M362.2,7c0,0.1-80.4,0.2-179.7,0.2C83.3,7.3,2.8,7.2,2.8,7s80.4-0.2,179.7-0.2
				C281.7,6.8,362.2,6.9,362.2,7z"/>
		</g>
	</g>
</g>
</svg>
