<svg id="Details_page" data-name="Details page" xmlns="http://www.w3.org/2000/svg" width="16.8" height="22.4" viewBox="0 0 16.8 22.4">
  <path id="Path_143296" data-name="Path 143296" d="M18.8,6.3V19.6A2.8,2.8,0,0,1,16,22.4H4.8A2.8,2.8,0,0,1,2,19.6V2.8A2.8,2.8,0,0,1,4.8,0h7.7Zm-4.2,0a2.1,2.1,0,0,1-2.1-2.1V1.4H4.8A1.4,1.4,0,0,0,3.4,2.8V19.6A1.4,1.4,0,0,0,4.8,21H16a1.4,1.4,0,0,0,1.4-1.4V6.3Z" transform="translate(-2)" fill="#373737"/>
  <path id="Path_143297" data-name="Path 143297" d="M4.5,15.7a.7.7,0,0,1,.7-.7H9.4a.7.7,0,0,1,0,1.4H5.2A.7.7,0,0,1,4.5,15.7Zm0-2.8a.7.7,0,0,1,.7-.7h8.4a.7.7,0,1,1,0,1.4H5.2A.7.7,0,0,1,4.5,12.9ZM6.795,7.709l1.862,1.24,2.6-2.6a.35.35,0,0,1,.4-.066L14.3,7.65V10.1a.7.7,0,0,1-.7.7H5.2a.7.7,0,0,1-.7-.7V9.4A17.32,17.32,0,0,1,6.795,7.709ZM6.95,6.6A1.05,1.05,0,1,0,5.9,5.55,1.05,1.05,0,0,0,6.95,6.6Z" transform="translate(-1 1.8)" fill="#373737"/>
</svg>
