<svg xmlns="http://www.w3.org/2000/svg" fill="none" viewBox="-1.315 -1.315 42 42" id="Script-2--Streamline-Plump-Neon" height="42" width="42"><desc>Script 2 Streamline Icon: https://streamlinehq.com</desc><g id="script-2--language-programming-code"><path id="Vector" stroke="#c71dff" stroke-linecap="round" stroke-linejoin="round" d="M27.511591958333334 9.841433729166667c3.6083425208333333 -0.017962562499999998 6.067901249999999 -0.2517219375 7.562894979166667 -0.4618593125 1.0937478125 -0.15370704166666668 1.8347240208333333 -1.1012937291666667 1.8347240208333333 -2.2058190791666665v-0.5320691458333333c0 -3.2008138083333333 -2.4605429791666666 -5.001269525 -4.92125 -5.001269525h-0.8202083333333333c-3.6555865208333334 0.8200853020833333 -3.7485161249999996 5.690506991666666 -3.6561606666666666 8.2010170625Zm0 0 0.00008202083333333333 0.0010662708333333333" stroke-width="2.63"></path><path id="Vector_2" stroke="#c71dff" stroke-linecap="round" stroke-linejoin="round" d="M5.741458333333333 30.637159854166665c0.3032310208333333 5.056912458333334 -2.050520833333333 6.079220125 -3.2808333333333333 6.079220125C2.460625 36.71637997916666 7.791979166666667 37.72958333333333 15.583958333333333 37.72958333333333c3.6785523541666665 0 6.808631395833333 -0.22580335416666666 9.0883184375 -0.46423791666666664 2.3507991041666667 -0.2458164375 4.0413305 -2.2597559791666666 3.980471041666666 -4.622612145833333C28.4603269375 25.181216041666666 27.809409604166664 17.928031729166666 27.511756 9.8425c-0.09235545833333333 -2.51015738125 0 -7.381875 3.6561606666666666 -8.202083333333333L9.8425 1.6404166666666666C7.124567443749999 1.6404166666666666 4.9249409375 3.8391491458333333 4.956584575 6.556893054166666 5.0220372 12.1783713125 5.2087658291666665 21.753729458333336 5.741458333333333 30.637159854166665Z" stroke-width="2.63"></path><path id="Vector_3" stroke="#000cfe" stroke-linecap="round" stroke-linejoin="round" d="M13.943541666666667 10.662708333333333h8.202083333333333" stroke-width="2.63"></path><path id="Vector_4" stroke="#000cfe" stroke-linecap="round" stroke-linejoin="round" d="m10.662708333333333 16.404166666666665 11.482916666666666 0" stroke-width="2.63"></path><path id="Vector_5" stroke="#000cfe" stroke-linecap="round" stroke-linejoin="round" d="m11.0728125 22.145625 11.482916666666666 0" stroke-width="2.63"></path><path id="Vector_6" stroke="#000cfe" stroke-linecap="round" stroke-linejoin="round" d="m11.482916666666666 27.887083333333333 11.482916666666666 0" stroke-width="2.63"></path></g></svg>