<svg id="Layer_1" data-name="Layer 1" xmlns="http://www.w3.org/2000/svg" viewBox="0 0 13 13"><defs><style>.cls-1{fill:#8e8e93;}</style></defs><title>Icon</title><path class="cls-1" d="M12.75,3.63a.75.75,0,0,0-.22-.54L10,.48a.77.77,0,0,0-1.1,0L6.33,3.09A.78.78,0,0,0,7.44,4.18L8.65,2.92V12a.78.78,0,0,0,1.56,0v-9l1.21,1.26a.78.78,0,0,0,1.1,0A.82.82,0,0,0,12.75,3.63Z"/><path class="cls-1" d="M6.66,8.81a.78.78,0,0,0-1.1,0L4.35,10.08V1A.78.78,0,0,0,2.79,1v9.05L1.58,8.82a.78.78,0,0,0-1.1,0,.82.82,0,0,0-.23.56.75.75,0,0,0,.22.54L3,12.52a.77.77,0,0,0,1.1,0L6.67,9.91A.78.78,0,0,0,6.66,8.81Z"/></svg>