<svg id="Layer_1" data-name="Layer 1" xmlns="http://www.w3.org/2000/svg" viewBox="0 0 22 22"><defs><style>.cls-1{fill:#00a14b;}</style></defs><title>01 ICON</title><path class="cls-1" d="M18.76,9.69a.74.74,0,0,0-.75.75v8a1.1,1.1,0,0,1-1.09,1.09H3.58A1.08,1.08,0,0,1,2.5,18.42V5.08A1.09,1.09,0,0,1,3.58,4h8.25a.75.75,0,1,0,0-1.49H3.58A2.59,2.59,0,0,0,1,5.08V18.42A2.59,2.59,0,0,0,3.58,21H16.92a2.58,2.58,0,0,0,2.58-2.58v-8A.74.74,0,0,0,18.76,9.69Z"/><path class="cls-1" d="M20.4,1.89l-.26-.26a2,2,0,0,0-2.92,0l-1,1L15.13,3.69,8.67,10.15,7.61,11.21l-1.3,1.3a.72.72,0,0,0-.18.33l-.49,2.49a.82.82,0,0,0,1,1l2.49-.5a.67.67,0,0,0,.33-.18l1.31-1.3,1.06-1.06,6.45-6.46,1.06-1.06,1-1A2,2,0,0,0,20.4,1.89ZM9,14.09l-.36.36-1.17.23-.12-.11.23-1.18.1-.1,1-1,1.06,1.06Zm8.28-8.28L10.8,12.27,9.73,11.21l6.46-6.46,1.06,1.06Zm2.08-2.08L19,4l-.7.71h0L17.25,3.69,18,3h0l.31-.31a.54.54,0,0,1,.81,0l.23.23A.54.54,0,0,1,19.33,3.73Z"/></svg>