<!-- Generator: Adobe Illustrator 23.0.1, SVG Export Plug-In . SVG Version: 6.00 Build 0)  -->
<svg version="1.1" id="Layer_1" xmlns="http://www.w3.org/2000/svg" xmlns:xlink="http://www.w3.org/1999/xlink" x="0px" y="0px"
	 viewBox="0 0 60 52" style="enable-background:new 0 0 60 52;" xml:space="preserve">
<style type="text/css">
	.st0{enable-background:new    ;}
	.st1{fill:#373737;}
</style>
<g id="Group_62687" transform="translate(19950 -7965)">
	<g class="st0">
		<path class="st1" d="M-19943.5,8010.7L-19943.5,8010.7l2.9-7.7h2.1v10h-1.7v-7.2l0,0l-2.7,7.2h-1.1l-2.8-7.3l0,0v7.3h-1.7v-10h2.2
			L-19943.5,8010.7z"/>
		<path class="st1" d="M-19931.9,8013c-0.1-0.2-0.1-0.4-0.1-0.5c0-0.2-0.1-0.4-0.1-0.5c-0.2,0.3-0.5,0.6-0.9,0.9
			c-0.4,0.2-0.8,0.4-1.3,0.4c-0.8,0-1.4-0.2-1.8-0.6c-0.4-0.4-0.6-0.9-0.6-1.6c0-0.7,0.3-1.3,0.8-1.7c0.6-0.4,1.4-0.6,2.4-0.6h1.3
			v-0.6c0-0.4-0.1-0.7-0.3-0.9c-0.2-0.2-0.6-0.3-1-0.3c-0.4,0-0.7,0.1-0.9,0.3c-0.2,0.2-0.3,0.4-0.3,0.7l-1.6,0l0,0
			c0-0.6,0.2-1.1,0.8-1.6c0.6-0.5,1.3-0.7,2.2-0.7c0.9,0,1.6,0.2,2.1,0.7c0.5,0.4,0.8,1.1,0.8,1.9v3.3c0,0.3,0,0.6,0.1,0.9
			c0,0.3,0.1,0.6,0.2,0.8H-19931.9z M-19931.3,8002.3L-19931.3,8002.3c0,0.6-0.2,1.1-0.5,1.4c-0.4,0.4-0.9,0.5-1.6,0.5
			c-0.7,0-1.2-0.2-1.6-0.5s-0.6-0.8-0.6-1.4l0,0h1.2c0,0.3,0.1,0.5,0.2,0.6c0.1,0.2,0.4,0.3,0.7,0.3c0.3,0,0.5-0.1,0.7-0.3
			c0.2-0.2,0.2-0.4,0.2-0.6H-19931.3z M-19933.9,8011.8c0.4,0,0.8-0.1,1.1-0.3c0.3-0.2,0.6-0.4,0.7-0.7v-1.1h-1.3
			c-0.5,0-0.9,0.1-1.1,0.4c-0.3,0.2-0.4,0.5-0.4,0.8c0,0.3,0.1,0.5,0.3,0.7C-19934.5,8011.7-19934.3,8011.8-19933.9,8011.8z
			 M-19932.9,8015.3h-1.8v-1.5h1.8V8015.3z"/>
		<path class="st1" d="M-19925.6,8011.8c0.4,0,0.7-0.1,1-0.4c0.3-0.2,0.4-0.5,0.4-0.9h1.5l0,0c0,0.7-0.3,1.3-0.8,1.8
			c-0.6,0.5-1.3,0.8-2,0.8c-1.1,0-1.9-0.4-2.5-1.1c-0.6-0.7-0.9-1.6-0.9-2.7v-0.2c0-1.1,0.3-2,0.9-2.7c0.6-0.7,1.4-1.1,2.5-1.1
			c0.9,0,1.6,0.3,2.1,0.8c0.5,0.5,0.8,1.2,0.8,2l0,0h-1.5c0-0.4-0.1-0.8-0.4-1c-0.3-0.3-0.6-0.4-1-0.4c-0.6,0-1,0.2-1.3,0.7
			c-0.3,0.5-0.4,1-0.4,1.7v0.2c0,0.7,0.1,1.3,0.4,1.7C-19926.6,8011.6-19926.2,8011.8-19925.6,8011.8z"/>
		<path class="st1" d="M-19910.2,8004.6h-1.2v8.4h-1.3l-0.2-0.9c-0.2,0.4-0.5,0.6-0.9,0.8c-0.3,0.2-0.7,0.3-1.2,0.3
			c-0.9,0-1.6-0.3-2.1-1s-0.8-1.5-0.8-2.6v-0.1c0-1.2,0.3-2.1,0.8-2.9c0.5-0.7,1.2-1.1,2.1-1.1c0.4,0,0.8,0.1,1.1,0.2
			c0.3,0.2,0.6,0.4,0.8,0.7v-1.8h-1.6v-1.2h1.6v-1.1h1.7v1.1h1.2V8004.6z M-19916.1,8009.5c0,0.7,0.1,1.2,0.4,1.6s0.7,0.6,1.2,0.6
			c0.4,0,0.6-0.1,0.9-0.2c0.2-0.2,0.4-0.4,0.6-0.6v-3.2c-0.2-0.3-0.4-0.5-0.6-0.6c-0.2-0.2-0.5-0.2-0.9-0.2c-0.6,0-1,0.2-1.3,0.7
			c-0.3,0.5-0.4,1.1-0.4,1.9V8009.5z"/>
		<path class="st1" d="M-19907.5,8015.3h-1.8v-1.5h1.8V8015.3z M-19907.6,8003.8h-1.7v-1.5h1.7V8003.8z M-19907.6,8013h-1.7v-7.4
			h1.7V8013z"/>
		<path class="st1" d="M-19904.1,8005.6l0.1,1.1c0.2-0.4,0.5-0.7,0.9-0.9c0.4-0.2,0.8-0.3,1.2-0.3c0.8,0,1.4,0.2,1.8,0.7
			c0.4,0.5,0.6,1.2,0.6,2.2v4.6h-1.7v-4.6c0-0.6-0.1-1-0.3-1.2c-0.2-0.2-0.6-0.4-1-0.4c-0.4,0-0.7,0.1-0.9,0.2
			c-0.3,0.1-0.5,0.3-0.6,0.6v5.4h-1.7v-7.4H-19904.1z"/>
		<path class="st1" d="M-19895.8,8006.6c0.2-0.3,0.5-0.6,0.9-0.8s0.7-0.3,1.2-0.3c0.8,0,1.4,0.2,1.8,0.7c0.4,0.5,0.7,1.3,0.7,2.3
			v4.5h-1.7v-4.5c0-0.6-0.1-1-0.3-1.3c-0.2-0.3-0.6-0.4-1-0.4c-0.4,0-0.7,0.1-0.9,0.2c-0.3,0.1-0.5,0.3-0.6,0.5v5.5h-1.7v-10.7h1.7
			V8006.6z"/>
	</g>
	<path id="Path_115787" class="st1" d="M-19906,7989.9v-21.8c0-1.7-1.4-3.1-3.1-3.1h-21.8c-1.7,0-3.1,1.4-3.1,3.1v21.8
		c0,1.7,1.4,3.1,3.1,3.1h21.8C-19907.4,7993-19906,7991.6-19906,7989.9z M-19925.4,7981.3l3.9,4.7l5.4-7l7,9.3h-21.8
		L-19925.4,7981.3z"/>
</g>
</svg>
