<!-- Generator: Adobe Illustrator 23.0.1, SVG Export Plug-In . SVG Version: 6.00 Build 0)  -->
<svg version="1.1" id="Layer_1" xmlns="http://www.w3.org/2000/svg" xmlns:xlink="http://www.w3.org/1999/xlink" x="0px" y="0px"
	 viewBox="0 0 76 62.4" style="enable-background:new 0 0 76 62.4;" xml:space="preserve">
<style type="text/css">
	.st0{fill:none;stroke:#000000;stroke-linecap:round;stroke-linejoin:round;}
	.st1{enable-background:new    ;}
	.st2{fill:#373737;}
</style>
<g id="Group_62685" transform="translate(19778 -7954.627)">
	<path id="Path_115785" class="st0" d="M-19734,7955.3l3.4,2.7l-3.4,2.7"/>
	<line id="Line_455" class="st0" x1="-19751" y1="7958" x2="-19731" y2="7958"/>
	<g class="st1">
		<path class="st2" d="M-19769.6,8009.7L-19769.6,8009.7c0,1-0.3,1.9-1,2.5c-0.7,0.6-1.6,0.9-2.7,0.9c-1.2,0-2.1-0.4-2.8-1.2
			c-0.7-0.8-1.1-1.8-1.1-3v-1.9c0-1.2,0.4-2.2,1.1-3c0.7-0.8,1.6-1.2,2.8-1.2c1.2,0,2.1,0.3,2.8,0.9c0.7,0.6,1,1.4,1,2.5l0,0h-1.6
			c0-0.7-0.2-1.2-0.5-1.5c-0.4-0.4-0.9-0.5-1.6-0.5c-0.7,0-1.2,0.3-1.6,0.8c-0.4,0.5-0.6,1.2-0.6,2v1.9c0,0.8,0.2,1.5,0.6,2
			c0.4,0.5,0.9,0.8,1.6,0.8c0.7,0,1.2-0.2,1.5-0.5s0.5-0.9,0.5-1.5H-19769.6z"/>
		<path class="st2" d="M-19766.4,8006.6c0.2-0.3,0.5-0.6,0.9-0.8s0.7-0.3,1.2-0.3c0.8,0,1.4,0.2,1.8,0.7c0.4,0.5,0.7,1.3,0.7,2.3
			v4.5h-1.7v-4.5c0-0.6-0.1-1-0.3-1.3c-0.2-0.3-0.6-0.4-1-0.4c-0.4,0-0.7,0.1-0.9,0.2c-0.3,0.1-0.5,0.3-0.6,0.5v5.5h-1.7v-10.7h1.7
			V8006.6z"/>
		<path class="st2" d="M-19755.3,8011.9c-0.2,0.4-0.5,0.7-0.9,0.9c-0.4,0.2-0.8,0.3-1.2,0.3c-0.8,0-1.4-0.3-1.9-0.8
			c-0.4-0.5-0.7-1.3-0.7-2.4v-4.3h1.7v4.3c0,0.7,0.1,1.2,0.3,1.5c0.2,0.3,0.5,0.4,1,0.4c0.4,0,0.7-0.1,1-0.2
			c0.3-0.1,0.5-0.4,0.6-0.6v-5.3h1.7v7.4h-1.4L-19755.3,8011.9z"/>
		<path class="st2" d="M-19749.3,8010l0.2,0.7h0l1.6-5.2h1.8l-3.1,8.5c-0.2,0.5-0.5,1-0.8,1.3s-0.9,0.5-1.5,0.5c-0.1,0-0.3,0-0.4,0
			s-0.3-0.1-0.5-0.1l0.2-1.3c0.1,0,0.1,0,0.3,0s0.2,0,0.2,0c0.3,0,0.5-0.1,0.7-0.3c0.2-0.2,0.3-0.4,0.4-0.7l0.3-0.7l-2.7-7.3h1.8
			L-19749.3,8010z"/>
		<path class="st2" d="M-19741.5,8013.1c-1.1,0-1.9-0.3-2.5-1c-0.6-0.7-0.9-1.6-0.9-2.6v-0.3c0-1.1,0.3-2,0.9-2.7
			c0.6-0.7,1.4-1.1,2.4-1c1,0,1.7,0.3,2.3,0.9c0.5,0.6,0.8,1.4,0.8,2.5v0.9h-4.6l0,0c0,0.6,0.2,1.1,0.5,1.5s0.8,0.6,1.4,0.6
			c0.5,0,0.8-0.1,1.2-0.2s0.6-0.3,0.9-0.5l0.5,1.1c-0.3,0.2-0.7,0.5-1.1,0.6S-19740.9,8013.1-19741.5,8013.1z M-19741.1,8002.8h-1.5
			l-1.9,1.8l0,0h1.4l1.2-1.1l1.2,1.1h1.4l0,0L-19741.1,8002.8z M-19741.7,8006.8c-0.4,0-0.8,0.2-1,0.5c-0.3,0.3-0.4,0.7-0.5,1.2l0,0
			h2.9v-0.1c0-0.5-0.1-0.9-0.3-1.2C-19740.8,8006.9-19741.2,8006.8-19741.7,8006.8z M-19739.5,8003.6l0-0.9c0.3,0,0.5-0.1,0.6-0.1
			c0.1-0.1,0.2-0.2,0.2-0.3c0-0.1-0.1-0.3-0.2-0.3s-0.4-0.1-0.6-0.1l0-0.7c0.6,0,1.1,0.1,1.5,0.3s0.5,0.5,0.5,0.8
			c0,0.3-0.1,0.5-0.3,0.6c-0.2,0.1-0.4,0.2-0.6,0.3l0,0.4H-19739.5z"/>
		<path class="st2" d="M-19735.6,8005.6l0.1,1.1c0.2-0.4,0.5-0.7,0.9-0.9c0.4-0.2,0.8-0.3,1.2-0.3c0.8,0,1.4,0.2,1.8,0.7
			s0.6,1.2,0.6,2.2v4.6h-1.7v-4.6c0-0.6-0.1-1-0.3-1.2c-0.2-0.2-0.6-0.4-1-0.4c-0.4,0-0.7,0.1-0.9,0.2c-0.3,0.1-0.5,0.3-0.6,0.6v5.4
			h-1.7v-7.4H-19735.6z"/>
		<path class="st2" d="M-19723.3,8003.8v1.8h1.3v1.2h-1.3v4.1c0,0.3,0.1,0.5,0.2,0.7c0.1,0.1,0.3,0.2,0.5,0.2c0.1,0,0.2,0,0.3,0
			c0.1,0,0.2,0,0.2-0.1l0.2,1.2c-0.1,0.1-0.3,0.1-0.5,0.2c-0.2,0-0.4,0.1-0.6,0.1c-0.6,0-1.1-0.2-1.4-0.5c-0.3-0.4-0.5-0.9-0.5-1.7
			v-4.1h-1.1v-1.2h1.1v-1.8H-19723.3z"/>
		<path class="st2" d="M-19718.6,8003.8h-1.7v-1.5h1.7V8003.8z M-19718.6,8013h-1.7v-7.4h1.7V8013z"/>
		<path class="st2" d="M-19713.5,8013.1c-1.1,0-1.9-0.3-2.5-1c-0.6-0.7-0.9-1.6-0.9-2.6v-0.3c0-1.1,0.3-2,0.9-2.7
			c0.6-0.7,1.4-1.1,2.4-1c1,0,1.7,0.3,2.3,0.9c0.5,0.6,0.8,1.4,0.8,2.5v0.9h-4.6l0,0c0,0.6,0.2,1.1,0.5,1.5s0.8,0.6,1.4,0.6
			c0.5,0,0.8-0.1,1.2-0.2c0.3-0.1,0.6-0.3,0.9-0.5l0.5,1.1c-0.3,0.2-0.7,0.5-1.1,0.6S-19712.9,8013.1-19713.5,8013.1z
			 M-19714.5,8002.5h1.4l2,1.8l0,0h-1.6l-1.1-1l-1.1,1h-1.6l0,0L-19714.5,8002.5z M-19713.7,8006.8c-0.4,0-0.8,0.2-1,0.5
			c-0.3,0.3-0.4,0.7-0.5,1.2l0,0h2.9v-0.1c0-0.5-0.1-0.9-0.3-1.2C-19712.8,8006.9-19713.2,8006.8-19713.7,8006.8z M-19710.7,8001.3
			h1.6l-1.4,1.8h-1.2L-19710.7,8001.3z"/>
		<path class="st2" d="M-19702.6,8009.5c0,1.1-0.3,1.9-0.8,2.6s-1.2,1-2.1,1c-0.4,0-0.8-0.1-1.1-0.2c-0.3-0.2-0.6-0.4-0.8-0.7v3.6
			h-1.7v-10.2h1.4l0.2,0.9c0.2-0.3,0.5-0.6,0.9-0.8c0.3-0.2,0.7-0.3,1.2-0.3c0.9,0,1.6,0.4,2.1,1.1c0.5,0.7,0.8,1.7,0.8,2.9V8009.5z
			 M-19704.3,8009.4c0-0.8-0.1-1.4-0.4-1.9c-0.3-0.5-0.7-0.7-1.3-0.7c-0.3,0-0.6,0.1-0.9,0.2c-0.2,0.1-0.4,0.4-0.6,0.6v3.3
			c0.1,0.3,0.3,0.5,0.6,0.6c0.2,0.1,0.5,0.2,0.9,0.2c0.6,0,1-0.2,1.3-0.6c0.3-0.4,0.4-1,0.4-1.6V8009.4z"/>
	</g>
	<path id="Subtraction_3" class="st2" d="M-19723,7993h-11.4c-1.7,0-3.1-1.4-3.1-3.1v-21.8c0-1.7,1.4-3.1,3.1-3.1h11.4v18.4
		l-2.1,2.6l-3.9-4.7l-5.4,7h11.4V7993z"/>
	<path id="Subtraction_2" class="st2" d="M-19745.6,7993h-11.4v-4.7h11.4l-7-9.3l-4.4,5.7V7965h11.4c1.7,0,3.1,1.4,3.1,3.1v21.8
		C-19742.5,7991.6-19743.9,7993-19745.6,7993z"/>
</g>
</svg>
