<!-- Generator: Adobe Illustrator 23.0.1, SVG Export Plug-In . SVG Version: 6.00 Build 0)  -->
<svg version="1.1" id="Layer_1" xmlns="http://www.w3.org/2000/svg" xmlns:xlink="http://www.w3.org/1999/xlink" x="0px" y="0px"
	 viewBox="0 0 50 52" style="enable-background:new 0 0 50 52;" xml:space="preserve">
<style type="text/css">
	.st0{enable-background:new    ;}
	.st1{fill:#373737;}
	.st2{opacity:0.5;}
</style>
<g id="Group_62686" transform="translate(19851 -7965)">
	<g class="st0">
		<path class="st1" d="M-19843.9,8010.7L-19843.9,8010.7l2.9-7.7h2.1v10h-1.7v-7.2l0,0l-2.7,7.2h-1.1l-2.8-7.3l0,0v7.3h-1.7v-10h2.2
			L-19843.9,8010.7z"/>
		<path class="st1" d="M-19837.1,8009.2c0-1.1,0.3-2,0.9-2.7c0.6-0.7,1.4-1.1,2.5-1.1c0.5,0,0.9,0.1,1.4,0.3c0.4,0.2,0.8,0.4,1,0.7
			c0.3-0.1,0.5-0.3,0.7-0.6c0.2-0.3,0.2-0.7,0.2-1.2h1.3c0,0.7-0.1,1.2-0.4,1.7c-0.3,0.4-0.7,0.8-1.3,1c0.1,0.3,0.2,0.6,0.3,0.9
			c0.1,0.3,0.1,0.7,0.1,1.1v0.1c0,1.1-0.3,2-0.9,2.7c-0.6,0.7-1.4,1-2.5,1c-1.1,0-1.9-0.4-2.5-1.1c-0.6-0.7-0.9-1.6-0.9-2.7V8009.2z
			 M-19833,8004.3h-1.4l-1.8-1.8l0,0h1.9L-19833,8004.3z M-19835.5,8009.4c0,0.7,0.1,1.3,0.4,1.8c0.3,0.5,0.7,0.7,1.3,0.7
			c0.6,0,1-0.2,1.3-0.7c0.3-0.5,0.4-1,0.4-1.8v-0.1c0-0.7-0.1-1.3-0.4-1.7c-0.3-0.5-0.7-0.7-1.3-0.7c-0.6,0-1,0.2-1.3,0.7
			c-0.3,0.5-0.4,1-0.4,1.7V8009.4z"/>
		<path class="st1" d="M-19825.2,8009.4c0-1.2,0.3-2.1,0.8-2.9c0.5-0.7,1.2-1.1,2.1-1.1c0.4,0,0.8,0.1,1.1,0.2
			c0.3,0.2,0.6,0.4,0.8,0.7v-4.1h1.7v10.7h-1.3l-0.2-0.9c-0.2,0.4-0.5,0.6-0.9,0.8c-0.3,0.2-0.7,0.3-1.2,0.3c-0.9,0-1.6-0.3-2.1-1
			s-0.8-1.5-0.8-2.6V8009.4z M-19823.6,8009.5c0,0.7,0.1,1.2,0.4,1.6c0.3,0.4,0.7,0.6,1.2,0.6c0.4,0,0.6-0.1,0.9-0.2
			s0.4-0.4,0.6-0.6v-3.2c-0.2-0.3-0.4-0.5-0.6-0.6c-0.2-0.2-0.5-0.2-0.9-0.2c-0.6,0-1,0.2-1.3,0.7c-0.3,0.5-0.4,1.1-0.4,1.9V8009.5z
			"/>
		<path class="st1" d="M-19816,8003.2h-1.2l-1.4-1.8h1.6L-19816,8003.2z M-19812.3,8013c-0.1-0.2-0.1-0.4-0.1-0.5s-0.1-0.4-0.1-0.5
			c-0.2,0.3-0.5,0.6-0.9,0.9c-0.4,0.2-0.8,0.4-1.3,0.4c-0.8,0-1.4-0.2-1.8-0.6c-0.4-0.4-0.6-0.9-0.6-1.6c0-0.7,0.3-1.3,0.8-1.7
			c0.6-0.4,1.4-0.6,2.4-0.6h1.3v-0.6c0-0.4-0.1-0.7-0.3-0.9c-0.2-0.2-0.6-0.3-1-0.3c-0.4,0-0.7,0.1-0.9,0.3
			c-0.2,0.2-0.3,0.4-0.3,0.7l-1.6,0l0,0c0-0.6,0.2-1.1,0.8-1.6s1.3-0.7,2.2-0.7c0.9,0,1.6,0.2,2.1,0.7s0.8,1.1,0.8,1.9v3.3
			c0,0.3,0,0.6,0.1,0.9c0,0.3,0.1,0.6,0.2,0.8H-19812.3z M-19811.2,8004.4L-19811.2,8004.4l-1.6,0l-1.1-1l-1.1,1h-1.6l0,0l2-1.8h1.3
			L-19811.2,8004.4z M-19814.4,8011.8c0.4,0,0.8-0.1,1.1-0.3c0.3-0.2,0.6-0.4,0.7-0.7v-1.1h-1.3c-0.5,0-0.9,0.1-1.1,0.4
			c-0.3,0.2-0.4,0.5-0.4,0.8c0,0.3,0.1,0.5,0.3,0.7C-19815,8011.7-19814.7,8011.8-19814.4,8011.8z"/>
		<path class="st1" d="M-19807.5,8005.6l0.1,1.1c0.2-0.4,0.5-0.7,0.9-0.9c0.4-0.2,0.8-0.3,1.2-0.3c0.8,0,1.4,0.2,1.8,0.7
			s0.6,1.2,0.6,2.2v4.6h-1.7v-4.6c0-0.6-0.1-1-0.3-1.2c-0.2-0.2-0.6-0.4-1-0.4c-0.4,0-0.7,0.1-0.9,0.2c-0.3,0.1-0.5,0.3-0.6,0.6v5.4
			h-1.7v-7.4H-19807.5z"/>
	</g>
	<g id="Group_62684">
		<path id="Path_115788" class="st1" d="M-19822.1,7989.9v-21.8c0-1.7-1.4-3.1-3.1-3.1h-21.8c-1.7,0-3.1,1.4-3.1,3.1v21.8
			c0,1.7,1.4,3.1,3.1,3.1h21.8C-19823.5,7993-19822.2,7991.6-19822.1,7989.9z M-19841.6,7981.3l3.9,4.7l5.4-7l7,9.3h-21.8
			L-19841.6,7981.3z"/>
		<path id="Path_115789" class="st2" d="M-19801.9,7991.3v-11.9c0-0.9-0.8-1.7-1.7-1.7l0,0h-11.9c-0.9,0-1.7,0.8-1.7,1.7v11.9
			c0,0.9,0.8,1.7,1.7,1.7l0,0h11.9C-19802.6,7993-19801.9,7992.2-19801.9,7991.3z M-19812.5,7986.6l2.1,2.6l3-3.8l3.8,5.1h-11.9
			L-19812.5,7986.6z"/>
	</g>
</g>
</svg>
