<svg xmlns="http://www.w3.org/2000/svg" viewBox="0 0 200 200">
  <path fill="#ffffff" d="M179.706 90.933H20.291V7.608h159.415v83.325zM27.52 83.704h144.958V14.837H27.52v68.867z"/>
  <path fill="#ffffff" d="M166.855 78.081H33.142V20.459h133.713v57.622zM40.371 70.852h119.255V27.688H40.371v43.164zM96.386 98.563h7.228v38.385h-7.228z"/>
  <path fill="#ffffff" d="M179.706 136.948h-7.228V121.37H27.52v15.578h-7.229v-22.807h159.415zM23.905 192.392C10.725 192.392 0 181.666 0 168.483c0-13.181 10.724-23.905 23.905-23.905 13.183 0 23.907 10.725 23.907 23.905 0 13.183-10.724 23.909-23.907 23.909zm0-40.584c-9.196 0-16.676 7.481-16.676 16.676 0 9.198 7.48 16.68 16.676 16.68s16.678-7.481 16.678-16.68c0-9.195-7.481-16.676-16.678-16.676zM100 192.392c-13.184 0-23.908-10.726-23.908-23.908 0-13.181 10.724-23.905 23.908-23.905 13.18 0 23.905 10.725 23.905 23.905 0 13.182-10.724 23.908-23.905 23.908zm0-40.584c-9.196 0-16.679 7.481-16.679 16.676 0 9.198 7.483 16.68 16.679 16.68s16.675-7.481 16.675-16.68c.001-9.195-7.479-16.676-16.675-16.676zm76.092 40.584c-13.181 0-23.905-10.726-23.905-23.908 0-13.181 10.725-23.905 23.905-23.905 13.185 0 23.908 10.725 23.908 23.905 0 13.182-10.724 23.908-23.908 23.908zm0-40.584c-9.196 0-16.676 7.481-16.676 16.676 0 9.198 7.479 16.68 16.676 16.68s16.68-7.481 16.68-16.68c-.001-9.195-7.484-16.676-16.68-16.676zM96.386 45.657h7.228v7.229h-7.228zM81.928 45.657h7.229v7.229h-7.229zM110.844 45.657h7.229v7.229h-7.229z"/>
</svg>
