<svg id="Layer_1" data-name="Layer 1" xmlns="http://www.w3.org/2000/svg" viewBox="0 0 31 31"><defs><style>.cls-1{fill:#ffc20e;}.cls-2{fill:#00a651;}.cls-3{fill:#bf2228;}.cls-4{fill:#ef4130;}.cls-5{fill:#547dbf;}</style></defs><title>icon</title><path class="cls-1" d="M25.22,5,23.65,6.17v8.94L30.5,10V7.63A3.3,3.3,0,0,0,25.22,5Z"/><path class="cls-2" d="M23.65,26.67H28.4a2.1,2.1,0,0,0,2.1-2.1V10l-6.85,5.13Z"/><path class="cls-3" d="M5.78,5,7.35,6.17v8.94L.5,10V7.63A3.3,3.3,0,0,1,5.78,5Z"/><polygon class="cls-4" points="15.5 12.28 7.35 6.17 7.35 15.11 15.5 21.22 23.65 15.11 23.65 6.17 15.5 12.28"/><path class="cls-5" d="M7.35,26.67H2.6a2.1,2.1,0,0,1-2.1-2.1V10l6.85,5.13Z"/></svg>