<svg id="Layer_1" data-name="Layer 1" xmlns="http://www.w3.org/2000/svg" viewBox="0 0 32 32"><defs><style>.cls-1{fill:#fff;}</style></defs><title>01 ICON</title><path class="cls-1" d="M1.8,8.12a.83.83,0,0,0,.58-.25c3.09-3.31,8.33-5.28,14-5.28A21.12,21.12,0,0,1,28,5.83l-2.49.1,1.68,1.55L31,7.32l-.16-3.81L29.15,2l.12,2.82A22.52,22.52,0,0,0,16.4,1C10.28,1,4.6,3.16,1.22,6.78A.8.8,0,0,0,1.8,8.12Z"/><path class="cls-1" d="M29.62,24.13c-3.09,3.31-8.33,5.28-14,5.28A21.12,21.12,0,0,1,4,26.17l2.49-.1L4.82,24.52,1,24.68l.16,3.81L2.85,30l-.12-2.82A22.52,22.52,0,0,0,15.6,31c6.12,0,11.8-2.16,15.19-5.78a.79.79,0,0,0,0-1.12A.8.8,0,0,0,29.62,24.13Z"/><path class="cls-1" d="M22,7H10a1.84,1.84,0,0,0-1.39.65l-2.2,2.57A1.86,1.86,0,0,0,6,11.38V23.19A1.83,1.83,0,0,0,7.83,25H24.17A1.83,1.83,0,0,0,26,23.19V11.38a1.86,1.86,0,0,0-.44-1.19l-2.2-2.57A1.82,1.82,0,0,0,22,7Zm2.44,6.29v9.39a.72.72,0,0,1-.65.78H8.24a.72.72,0,0,1-.65-.78V13.26A.42.42,0,0,1,8,12.81H24A.42.42,0,0,1,24.41,13.26Zm-.63-2H8.22A.28.28,0,0,1,8,10.77l1.68-2.1a.26.26,0,0,1,.22-.1H22.1a.26.26,0,0,1,.22.1L24,10.77A.28.28,0,0,1,23.78,11.22Z"/></svg>