<svg xmlns="http://www.w3.org/2000/svg" viewBox="0 0 32 32"><defs><style>.cls-1{fill:#fff;}</style></defs><title>01 ICON</title><g id="Layer_2" data-name="Layer 2"><path class="cls-1" d="M28.84,10.05l-3.2,0h-2c3-1.39,3.48-3.24,3.48-4.22,0-2.2-2.23-4.4-4.89-4.79A4.84,4.84,0,0,0,21.44,1c-2.52,0-4.11,1.9-5,3.79-.15.29-.28.58-.4.85C15.13,3.52,13.47,1,10.56,1a4.84,4.84,0,0,0-.75.06c-2.66.39-4.9,2.59-4.89,4.79A4.11,4.11,0,0,0,7,9.25a9.08,9.08,0,0,0,1.41.8H3.16A2.16,2.16,0,0,0,1,12.21v1.9a2.16,2.16,0,0,0,2.16,2.16l1.15,0V28.84A2.15,2.15,0,0,0,6.45,31H25.53a2.16,2.16,0,0,0,2.16-2.16l0-12.57h1.18A2.16,2.16,0,0,0,31,14.11v-1.9A2.16,2.16,0,0,0,28.84,10.05ZM11,29.53V16.27l4.23,0,0,13.25Zm-.49-27c3.12,0,4.46,4.65,4.6,5.18l0,2.37h-1c-4.89-.69-7.7-2.23-7.71-4.2,0-1.48,1.69-3,3.62-3.31A2.89,2.89,0,0,1,10.53,2.5ZM11,14.8V11.54l4.23,0,0,3.26Zm-1.47,0H3.16a.67.67,0,0,1-.66-.67v-1.9a.67.67,0,0,1,.66-.67l6.36,0ZM6.45,29.5a.64.64,0,0,1-.64-.66V16.27l3.71,0,0,13.25ZM16.87,7.68c.14-.53,1.48-5.18,4.6-5.18a2.89,2.89,0,0,1,.5,0c1.93.28,3.62,1.83,3.62,3.31,0,2-2.81,3.5-7.67,4.2l-1.05,0ZM21,14.78l-4.26,0V11.54l4.23,0ZM21,29.5l-4.26,0V16.27l4.23,0Zm1.47-13.23,3.71,0V28.84a.67.67,0,0,1-.66.66l-3.05,0Zm0-4.73h6.36a.67.67,0,0,1,.66.67v1.9a.67.67,0,0,1-.66.67l-6.36,0Z"/></g></svg>