<svg version="1.1" id="Layer_1" xmlns="http://www.w3.org/2000/svg" xmlns:xlink="http://www.w3.org/1999/xlink" x="0px" y="0px"
	 viewBox="0 0 512 512" style="enable-background:new 0 0 512 512;" xml:space="preserve">
  <style type="text/css">
	.st0{fill:#00A859;}
</style>
  <g transform="translate(0.000000,512.000000) scale(0.100000,-0.100000)">
    <path class="st0" d="M213,4936c-86-27-158-90-194-170C1,4727,0,4643,0,2549V374l26-51c30-61,88-117,153-147l46-21h2325h2325l57,28
		c65,32,121,89,152,156l21,46v2165v2165l-28,57c-32,65-89,121-156,152l-46,21l-2310,2C684,4948,247,4946,213,4936z M4875,4777
		c22-13,49-40,62-62c22-39,23-47,23-347v-307l-624-3c-597-3-625-4-645-22c-26-23-28-81-4-108c15-17,48-18,645-18h628V2172V434
		l-22-44c-17-33-35-51-68-68l-44-22H3293H1760v1805v1805h867c792,0,868,1,885,17c26,23,24,84-3,109c-21,19-65,19-1695,22l-1674,2
		v306c0,284,1,307,20,344c18,36,55,70,90,83c8,3,1043,6,2300,6l2285,1L4875,4777z M1605,2105V305l-665-3l-665-2l-45,22
		c-30,15-53,37-67,63l-23,40v1743v1742l733-2l732-3V2105z"/>
    <path class="st0" d="M591,4669c-113-33-190-147-178-264c14-133,116-225,252-225c78,0,130,24,183,85C1012,4451,830,4737,591,4669z
		 M703,4519c36-19,57-52,57-92c0-101-139-136-185-47c-24,46-19,78,19,116C630,4532,664,4539,703,4519z"/>
    <path class="st0" d="M1175,4664c-164-58-218-268-103-399c68-78,166-104,269-73c86,25,156,115,166,213
		C1526,4585,1346,4725,1175,4664z M1327,4495c32-32,35-39,30-78c-8-55-43-87-98-87c-105,0-137,137-44,188
		C1254,4540,1290,4532,1327,4495z"/>
    <path class="st0" d="M1790,4671c-74-24-139-82-166-147c-20-48-17-151,5-199c57-127,208-181,337-121c121,56,177,212,118,329
		c-23,46-72,95-118,119C1923,4674,1830,4684,1790,4671z M1926,4499c65-61,22-168-68-169c-55,0-98,40-98,92c0,49,13,73,48,93
		S1896,4527,1926,4499z"/>
    <path class="st0" d="M2631,4474c-12-15-21-33-21-40c0-26,23-62,47-73c17-8,291-11,943-11s926,3,943,11c24,11,47,47,47,73
		c0,7-9,25-21,40l-20,26h-949h-949L2631,4474z"/>
    <path class="st0" d="M2000,3668c-26-14-53-37-65-58c-19-34-20-52-20-465c0-416,1-431,21-465c11-19,38-45,60-57l39-23h555h555l39,23
		c22,12,49,38,60,57c20,34,21,49,21,465v430l-24,39c-15,24-40,45-65,57c-38,17-76,19-586,19h-546L2000,3668z M3110,3145v-395h-520
		h-520v395v395h520h520V3145z"/>
    <path class="st0" d="M3550,3668c-26-14-53-37-65-58c-19-34-20-52-20-465c0-416,1-431,21-465c11-19,38-45,60-57l39-23h555h555l39,23
		c22,12,49,38,60,57c20,34,21,49,21,465v430l-24,39c-15,24-40,45-65,57c-38,17-76,19-586,19h-546L3550,3668z M4660,3145v-395h-520
		h-520v395v395h520h520V3145z"/>
    <path class="st0" d="M2000,2413c-50-26-77-73-85-146c-4-34-5-249-3-477c3-398,4-416,24-450c11-19,38-45,60-57c37-22,50-23,255-23
		c204,0,218,1,243,21c33,26,36,79,6,109c-19,19-33,20-225,20h-205v435v435h1295h1295v-435v-435h-980c-967,0-980,0-1000-20
		c-30-30-27-83,6-109c27-21,30-21,1018-21h991l39,23c22,12,49,38,60,57c20,34,21,49,21,505c0,452-1,471-20,504c-11,19-33,43-48,55
		l-28,21l-1342,3C2115,2430,2033,2429,2000,2413z"/>
    <path class="st0" d="M1990,1027c-63-42-75-76-75-217s5-156,72-207l36-28h1341c1254,0,1343,1,1373,17c17,10,42,32,55,50
		c21,30,23,45,26,163c2,120,1,133-20,169c-13,21-39,47-58,57c-33,18-89,19-1376,19H2023L1990,1027z M4668,813l-3-88l-1297-3l-1298-2
		v90v90h1300h1301L4668,813z"/>
    <path class="st0" d="M354,3630c-26-10-54-48-54-71c0-9,9-28,21-43l20-26h530c516,0,530,1,549,20c25,25,26,71,1,101l-19,24l-514,2
		C606,3638,365,3635,354,3630z"/>
    <path class="st0" d="M329,3141c-34-35-37-59-8-95l20-26h530c516,0,530,1,549,20c25,25,26,71,1,101l-19,24l-522,3l-521,3L329,3141z"
		/>
    <path class="st0" d="M344,2688c-22-10-44-47-44-74c0-8,11-26,25-39l24-25h526c512,0,526,1,545,20c28,28,26,75-5,105l-24,25l-513-1
		C546,2699,357,2695,344,2688z"/>
    <path class="st0" d="M343,2218c-48-23-51-103-4-127c13-7,192-11,539-11h519l21,23c31,33,29,80-4,106c-26,21-35,21-538,20
		C540,2229,358,2225,343,2218z"/>
  </g>
</svg>
