<svg xmlns="http://www.w3.org/2000/svg" viewBox="0 0 59.84 77.03"><title>Hand_touch</title><g id="Layer_2" data-name="Layer 2"><g id="Layer_1-2" data-name="Layer 1"><g style="opacity:0.5"><path d="M18.4,40.85c-.22-.21,1.4-2.23,4.2-5.31l1.1-1.2a7.3,7.3,0,0,0,.51-.58.74.74,0,0,0,.17-.37,1.31,1.31,0,0,0-.46-.9,3,3,0,0,0-1.29-.73,5.13,5.13,0,0,0-3.48.38,24.1,24.1,0,0,0-3.76,2.27A20.31,20.31,0,0,0,9.31,40.2a13.74,13.74,0,0,0-1.43,3.34c-.17.58-.33,1.14-.48,1.67s-.23,1-.32,1.52c-.37,2-.67,3.69-1,4.83s-.57,1.77-.72,1.72-.15-.67-.14-1.83.08-2.84.25-4.93a17.07,17.07,0,0,1,.21-1.7c.11-.56.22-1.15.37-1.76a14.38,14.38,0,0,1,1.44-3.89,20.53,20.53,0,0,1,6.59-6.59,23.63,23.63,0,0,1,4.18-2.45,7,7,0,0,1,4.93-.32,5,5,0,0,1,2.1,1.33,3.1,3.1,0,0,1,.86,2.52,2.5,2.5,0,0,1-.61,1.23c-.26.29-.48.47-.68.66l-1.2,1.11C20.63,39.45,18.61,41.07,18.4,40.85Z" style="fill:#3d3c3c"/><path d="M19.19,74.34c-.05,0,0-.28.16-.76a5.58,5.58,0,0,1,1.3-1.86,12,12,0,0,1,3-2c1.25-.64,2.75-1.2,4.29-2a31.49,31.49,0,0,0,9.74-7.46,30,30,0,0,0,4.21-6.15c.6-1.15.69-2,0-2.83a2.38,2.38,0,0,0-2.67-.83A1,1,0,0,1,38,48.92l0,0a8,8,0,0,0,1.39-2.06,1.59,1.59,0,0,0-.06-1.68,2,2,0,0,0-1.77-.53,8.06,8.06,0,0,0-2.5.93,1.09,1.09,0,0,1-1.29-1.7h0c1.43-1.58,2.69-3.5,2.71-5.46a4.17,4.17,0,0,0,0-.71,2.64,2.64,0,0,0-.17-.61,1.54,1.54,0,0,0-.62-.77.47.47,0,0,0-.29,0,2.12,2.12,0,0,0-.55.17c-.5.23-1,.5-1.53.79a19.24,19.24,0,0,0-1.83,1.19,1.11,1.11,0,0,1-1.47-1.64c3-3.28,6.14-6.33,9.24-9.16.78-.7,1.55-1.4,2.33-2.08s1.57-1.34,2.27-2a8,8,0,0,0,1.66-2,4.16,4.16,0,0,0,.23-.54,3.07,3.07,0,0,0,.13-.5,3.14,3.14,0,0,0-.06-1.06c-.36-1.48-1.47-1.81-2.93-1-.7.37-1.47.9-2.19,1.37s-1.42.95-2.09,1.44a37.14,37.14,0,0,0-3.71,3,41.11,41.11,0,0,0-3,3.23c-1.83,2.17-3.39,4.26-4.88,6a35.83,35.83,0,0,1-4.09,4.28,21.23,21.23,0,0,1-1.7,1.34c-.53.35-1,.64-1.35.84-.77.39-1.18.56-1.21.5s1.47-1,3.68-3.3a43.42,43.42,0,0,0,3.72-4.41c1.37-1.81,2.84-4,4.64-6.25a40.93,40.93,0,0,1,3-3.46,38.63,38.63,0,0,1,3.81-3.28c.68-.52,1.39-1,2.12-1.54s1.44-1,2.32-1.51a5.74,5.74,0,0,1,1.51-.6,3.45,3.45,0,0,1,1.88,0A3.31,3.31,0,0,1,47,17.3,4.35,4.35,0,0,1,47.82,19a4.73,4.73,0,0,1,.11,1.8,4.61,4.61,0,0,1-.2.91,5.82,5.82,0,0,1-.35.81,9.54,9.54,0,0,1-2.06,2.59c-.78.73-1.53,1.36-2.29,2l-2.28,2.07c-3,2.82-6.08,5.85-9.08,9.08L30.2,36.61a21.35,21.35,0,0,1,2.05-1.34c.57-.33,1.13-.61,1.74-.89A4.36,4.36,0,0,1,35.2,34a2.72,2.72,0,0,1,1.48.26,3.63,3.63,0,0,1,1.7,1.92,4.87,4.87,0,0,1,.32,1.13,7.91,7.91,0,0,1,.06,1.08,8.47,8.47,0,0,1-1.11,3.88,15.53,15.53,0,0,1-2.22,3L34.15,43.6a10.12,10.12,0,0,1,3.21-1.11A4.1,4.1,0,0,1,41,43.81a3.36,3.36,0,0,1,.73,2,4.23,4.23,0,0,1-.39,1.84,9.55,9.55,0,0,1-1.79,2.61l-1.18-1.6a3.87,3.87,0,0,1,2.87-.1,4.6,4.6,0,0,1,2.19,1.55,3.87,3.87,0,0,1,.88,2.58A5.47,5.47,0,0,1,43.59,55,31.68,31.68,0,0,1,28.47,68.89c-1.67.71-3.17,1.17-4.42,1.7a13,13,0,0,0-3,1.63A12.78,12.78,0,0,0,19.19,74.34Z" style="fill:#3d3c3c"/><path d="M21.33,71.26c.11.11-.24.68-1,1.62-.36.47-.82,1-1.36,1.67l-.87,1-.49.56a3,3,0,0,1-.7.67,1.35,1.35,0,0,1-.86.22,1.61,1.61,0,0,1-.77-.29,8.15,8.15,0,0,1-.74-.64l-1.32-1.21c-.9-.86-1.87-1.76-2.88-2.72-2-1.91-4.23-4.07-6.5-6.3A21.85,21.85,0,0,0,.52,63.1h0A1.08,1.08,0,0,1,.17,61.6a1.09,1.09,0,0,1,.13-.17,21.41,21.41,0,0,0,3.91-5.84c.21-.5.42-1,.59-1.46.08-.24.17-.48.25-.71s.12-.42.17-.64a22.46,22.46,0,0,0,.31-2.62c.24-3.37.84-5.37,1.09-5.32s.18,2,.33,5.36a18.88,18.88,0,0,1-.07,2.86c0,.27-.09.55-.16.84s-.13.52-.21.79c-.15.53-.34,1.07-.55,1.63a21,21,0,0,1-4.07,6.6l-.22-1.67a22,22,0,0,1,3.74,3c2.32,2.27,4.45,4.44,6.4,6.45l2.74,2.86,1.23,1.31c.19.19.42.46.49.52s.05,0,0,.06a.67.67,0,0,0-.07.21s0,0,0,0l0-.11,0-.07h0a2,2,0,0,0,.43-.36l.54-.5,1-.9c.62-.56,1.17-1,1.63-1.41C20.66,71.52,21.22,71.16,21.33,71.26Z" style="fill:#3d3c3c"/><path d="M24.74,63.63c0-.31.83-.66,2.2-1.07a32,32,0,0,0,5-1.79,11.93,11.93,0,0,0,3.95-3.13c.82-1,1.19-1.84,1.51-1.78s.47,1.06-.16,2.56A9,9,0,0,1,33,62.76a13.82,13.82,0,0,1-5.77,1.35C25.69,64.13,24.77,63.93,24.74,63.63Z" style="fill:#3d3c3c"/><path d="M45.75,25.28c0-.16.45-.23,1.12-.5a7.21,7.21,0,0,0,2.44-1.69,6.61,6.61,0,0,0,2-3.64,5.78,5.78,0,0,0-1.61-4.55,9.36,9.36,0,0,0-3.83-2.35,6.68,6.68,0,0,0-1.89-.4,2.18,2.18,0,0,0-1.37.5,7.68,7.68,0,0,0-2,2.25,16.78,16.78,0,0,0-.82,1.72l-.06.13a.25.25,0,0,1-.48-.13c0-.37.1-.55.2-.56s.21.13.34.48h-.54a5,5,0,0,1,.25-2.12,7.3,7.3,0,0,1,1.94-3.11,4.84,4.84,0,0,1,1-.72,3.78,3.78,0,0,1,1.36-.38,7.49,7.49,0,0,1,2.62.34,10.49,10.49,0,0,1,4.84,2.83,7.48,7.48,0,0,1,2,6.4,6.34,6.34,0,0,1-1.25,2.75,9.29,9.29,0,0,1-1.76,1.74A6.07,6.07,0,0,1,47,25.63C46.17,25.66,45.73,25.42,45.75,25.28Z" style="fill:#3d3c3c"/><path d="M54.82,26.57c-.1-.13.32-.55.92-1.34a10.84,10.84,0,0,0,1.85-3.69,10,10,0,0,0-.13-5.88,12.08,12.08,0,0,0-4.27-5.81,15,15,0,0,0-6.86-2.67,13.32,13.32,0,0,0-6,.4,6.41,6.41,0,0,0-3.16,2.34c-.55.79-.71,1.36-.88,1.33s-.28-.65.11-1.73a6.41,6.41,0,0,1,3.31-3.39,13.42,13.42,0,0,1,6.86-1,15.75,15.75,0,0,1,8,2.91,13.25,13.25,0,0,1,4.9,7,11.09,11.09,0,0,1,.4,3.78,10.59,10.59,0,0,1-.73,3.2,9.11,9.11,0,0,1-2.72,3.78C55.49,26.51,54.9,26.69,54.82,26.57Z" style="fill:#3d3c3c"/><path d="M58.15,6.2c-.43.48-3.54-1.88-8-3.26s-8.32-1.34-8.4-2c0-.28.93-.71,2.6-.88A16.87,16.87,0,0,1,56.55,4C57.81,5.08,58.35,6,58.15,6.2Z" style="fill:#3d3c3c"/></g></g></g></svg>