<svg xmlns="http://www.w3.org/2000/svg" width="44.645" height="27.756" viewBox="0 0 44.645 27.756">
  <path id="Path_142267" data-name="Path 142267" d="M18.8.64V.649A2.951,2.951,0,0,0,15.857,3.59V18.707L12.148,15a2.945,2.945,0,0,0-4.165,4.165l.034.032.041.031c2.023,1.54,3.15,3.919,4.56,6.485a17.654,17.654,0,0,0,6.087,6.9v3.848h-.353a1.132,1.132,0,0,0-1.118,1.118v6.591a1.13,1.13,0,0,0,1.118,1.115h15.32a1.13,1.13,0,0,0,1.118-1.115V37.58a1.132,1.132,0,0,0-1.118-1.118H33.41V34.34c0-2.544,1.4-5.023,1.471-7.611V16.061A2.95,2.95,0,0,0,31.94,13.12a2.864,2.864,0,0,0-1.793.747A2.813,2.813,0,0,0,27.528,11.7a2.886,2.886,0,0,0-1.8.657,2.794,2.794,0,0,0-2.565-2.035,2.843,2.843,0,0,0-1.423.5V3.583A2.951,2.951,0,0,0,18.8.641Zm0,1.478a1.452,1.452,0,0,1,1.471,1.471V12.8l1.456.147a1.471,1.471,0,0,1,2.909.313v.965l1.456.149a1.5,1.5,0,0,1,1.44-1.2A1.451,1.451,0,0,1,29,14.645v1.422h1.471a1.471,1.471,0,1,1,2.941,0V26.69C33.359,28.7,31.94,31.3,31.94,34.34v2.122H20.176v-4.6l-.368-.212c-2.985-1.725-4.519-4.137-5.9-6.647-1.363-2.482-2.551-5.072-4.885-6.885a1.474,1.474,0,1,1,2.085-2.085l6.219,6.219V3.588A1.451,1.451,0,0,1,18.8,2.118Zm-.093,35.815H33.319v5.882H18.705Z" transform="translate(45.285 -7.125) rotate(90)"/>
</svg>
