<svg version="1.1" id="Layer_1" xmlns="http://www.w3.org/2000/svg" xmlns:xlink="http://www.w3.org/1999/xlink" x="0px" y="0px"
	 viewBox="0 0 512 512" style="enable-background:new 0 0 512 512;" xml:space="preserve">
<style type="text/css">
	.st0{fill:#00A859;}
</style>
<g transform="translate(0.000000,512.000000) scale(0.100000,-0.100000)">
	<path class="st0" d="M394,4526c-59-27-116-90-132-145c-9-28-12-498-12-1827V765l24-50c28-60,66-97,126-124c45-20,54-21,2160-21
		h2115l50,24c60,28,97,66,124,126c20,45,21,56,21,1840s-1,1795-21,1840c-27,60-64,98-124,126l-50,24H2560H445L394,4526z M4665,4396
		c59-25,65-50,65-276v-200H2560H390v200c0,224,6,251,63,275C502,4416,4614,4417,4665,4396z M4730,2285c0-1648,5-1531-65-1561
		c-51-21-4159-21-4210,0c-70,30-65-87-65,1561v1485h2170h2170V2285z"/>
	<path class="st0" d="M755,4251c-64-27-82-114-32-157c42-36,98-33,131,7c43,51,32,115-24,144C798,4262,785,4263,755,4251z"/>
	<path class="st0" d="M1144,4244c-59-29-71-98-25-145c22-21,39-29,66-29c45,0,95,45,95,85c0,41-26,82-61,94
		C1179,4263,1182,4263,1144,4244z"/>
	<path class="st0" d="M1545,4246c-59-26-72-101-26-147c36-35,86-39,124-9c55,43,40,136-24,159C1580,4262,1582,4262,1545,4246z"/>
	<path class="st0" d="M2540,4203c-25-32-20-69,12-95c19-17,79-18,943-18c882,0,924,1,946,18c28,23,30,73,4,102c-18,20-29,20-951,20
		h-933L2540,4203z"/>
	<path class="st0" d="M1465,3390c-12-4-26-14-32-21c-13-17-223-765-223-796c0-57,94-87,124-40c16,24,226,764,226,795
		C1560,3371,1505,3407,1465,3390z"/>
	<path class="st0" d="M1015,3260c-39-17-340-257-355-282c-11-21-12-32-3-51c12-26,324-270,366-286c30-12,67,5,84,38
		c21,43-4,74-132,172c-66,50-120,95-120,100c0,4,54,49,120,100s123,97,127,103c18,26,8,75-18,95C1055,3272,1045,3273,1015,3260z"/>
	<path class="st0" d="M1703,3260c-12-5-30-21-39-35c-27-41-4-72,131-175c66-50,120-95,120-100c0-4-57-51-127-105
		c-135-103-152-127-123-172c20-30,53-43,83-32c41,16,353,260,364,285c8,17,8,31,0,48c-14,31-363,299-384,295
		C1726,3269,1715,3265,1703,3260z"/>
	<path class="st0" d="M699,2179c-26-10-49-45-49-75c0-8,11-26,25-39l24-25h1861h1861l24,25c14,13,25,31,25,39c0,31-24,65-53,76
		C4377,2193,737,2193,699,2179z"/>
	<path class="st0" d="M675,1685c-26-25-29-35-19-73c15-55-91-52,1903-52c1327,0,1847,3,1864,11c25,11,47,47,47,75c0,8-11,26-25,39
		l-24,25H2560H699L675,1685z"/>
	<path class="st0" d="M671,1204c-12-15-21-34-21-44s9-29,21-44l20-26h1869h1869l20,26c26,34,26,54,0,88l-20,26H2560H691L671,1204z"
		/>
</g>
</svg>
