<svg style="width: 24px;" version="1.1" id="Layer_1" xmlns="http://www.w3.org/2000/svg" xmlns:xlink="http://www.w3.org/1999/xlink" x="0px" y="0px" width="24px" height="16px" viewBox="0 0 24 16" enable-background="new 0 0 24 16" xml:space="preserve">
  <path fill="#4399FA" d="M16.1,16c-0.2,0-0.4-0.1-0.6-0.2L12,13.9l-3.5,1.9c-0.4,0.2-1,0.2-1.4-0.1s-0.6-0.8-0.5-1.3l0.7-4.1L4.4,7.4
	C4,7,3.9,6.5,4.1,6s0.6-0.8,1-0.9l4-0.6l1.8-3.7C11.1,0.3,11.5,0,12,0s0.9,0.3,1.2,0.8L15,4.5l4,0.6c0.5,0.1,0.9,0.4,1,0.9
	c0.2,0.5,0,1-0.3,1.4l-2.9,2.9l0.7,4.1c0.1,0.5-0.1,1-0.5,1.3C16.7,15.9,16.4,16,16.1,16z M6,6.7l2.5,2.5C8.8,9.5,9,10,8.9,10.4
	L8.3,14l3.1-1.7c0.4-0.2,0.8-0.2,1.2,0l3.1,1.7l-0.6-3.6C15,10,15.2,9.5,15.5,9.2L18,6.7l-3.5-0.5c-0.4-0.1-0.8-0.3-1-0.7L12,2.1
	l-1.5,3.3c-0.2,0.4-0.6,0.7-1,0.7L6,6.7z M11.7,1.5L11.7,1.5L11.7,1.5z"></path>
</svg>
