<svg xmlns="http://www.w3.org/2000/svg" viewBox="0 0 36.44 36.44"><title>Icon_checked</title><g id="Layer_2" data-name="Layer 2"><g id="Layer_1-2" data-name="Layer 1"><g id="Group_60816" data-name="Group 60816"><circle id="Ellipse_2733" data-name="Ellipse 2733" cx="18.22" cy="18.22" r="18.22" style="fill:#50b748"/><path id="Path_143273" data-name="Path 143273" d="M22.06,36l1-.24a17.32,17.32,0,0,0,1.72-.57c.57-.23,1.13-.47,1.67-.75a15.41,15.41,0,0,0,1.58-.91c.51-.32,1-.68,1.49-1.06s.93-.78,1.36-1.2A17.41,17.41,0,0,0,32.16,30a15.77,15.77,0,0,0,1.1-1.45,15.39,15.39,0,0,0,1-1.55A17.71,17.71,0,0,0,35,25.31c.24-.56.44-1.13.63-1.71s.28-1,.39-1.54L25.21,11.24a9.88,9.88,0,0,0-14,14L22.05,36Z" style="fill:#10a711"/><path id="Path_143274" data-name="Path 143274" d="M18.22,8.35a9.87,9.87,0,1,1-7,2.89A9.88,9.88,0,0,1,18.22,8.35Zm4.49,6.83a.88.88,0,0,0-.39.15L16.77,19.5,14.2,16.93c-.55-.58-1.65.52-1.07,1.08l3,3a.79.79,0,0,0,1,.08l6.07-4.56a.81.81,0,0,0-.43-1.37h-.09Z" style="fill:#fff"/></g></g></g></svg>