<svg xmlns="http://www.w3.org/2000/svg" enable-background="new 0 0 64 64" viewBox="0 0 64 64">
  <path fill="#E6E9ED" d="M17,6v44c0,4.42-3.58,8-8,8h46c4.42,0,8-3.58,8-8V6H17z"/>
  <path fill="#656D78" d="M56,41c0,0.55-0.45,1-1,1H25c-0.55,0-1-0.45-1-1V20c0-0.55,0.45-1,1-1h30c0.55,0,1,0.45,1,1V41z"/>
  <path fill="#ED5565" d="M53,31v4c0-4.97-4.02-9-9-9c-2.21,0-4-1.79-4-4h4C48.98,22,53,26.03,53,31z"/>
  <path fill="#FFCE54" d="M53,35v4c0-4.98-4.02-9-9-9c-4.42,0-8-3.58-8-8h4c0,2.21,1.79,4,4,4C48.98,26,53,30.03,53,35z"/>
  <path fill="#545C66" d="M53,22v9v4v4l2.706,2.706C55.888,41.525,56,41.275,56,41V20c0-0.275-0.112-0.525-0.294-0.706L53,22z"/>
  <path fill="#ED5565" d="M44,30c4.98,0,9,4.02,9,9h-4c0-2.77-2.24-5-5-5c-3.56,0-6.75-1.54-8.95-4c-1.03-1.15-1.84-2.51-2.37-4    C32.24,24.75,32,23.4,32,22h4C36,26.42,39.58,30,44,30z"/>
  <path fill="#FFCE54" d="M53,22v9c0-4.97-4.02-9-9-9H53z"/>
  <path fill="#8CC152" d="M40,34c2.76,0,5,2.23,5,5h-4c0-2.77-2.24-5-5-5H40z"/>
  <path fill="#AC92EC" d="M35.05,30c2.2,2.46,5.391,4,8.95,4h-4h-4h-4h-4h-1v-4H35.05z"/>
  <path fill="#967ADC" d="M32.68,26c0.53,1.49,1.34,2.85,2.37,4H27v-4H32.68z"/>
  <path fill="#A0D468" d="M44 34c2.76 0 5 2.23 5 5h-4c0-2.77-2.24-5-5-5H44zM28 34c2.76 0 5 2.23 5 5h-6v-5H28z"/>
  <path fill="#545C66" d="M27,34v-4v-4v-4l-2.706-2.706C24.112,19.475,24,19.725,24,20v21c0,0.275,0.112,0.525,0.294,0.706L27,39V34z   "/>
  <path fill="#AC92EC" d="M32.68,26H27v-4h5C32,23.4,32.24,24.75,32.68,26z"/>
  <path fill="#A0D468" d="M36,34c2.76,0,5,2.23,5,5h-4c0-2.77-2.24-5-5-5H36z"/>
  <path fill="#8CC152" d="M32,34c2.76,0,5,2.23,5,5h-4c0-2.77-2.24-5-5-5H32z"/>
  <path fill="#CCD1D9" d="M17,6v44c0,4.42-3.58,8-8,8s-8-3.58-8-8V18h4v32c0,2.21,1.79,4,4,4s4-1.79,4-4V18V6H17z"/>
  <path fill="#AAB2BD" d="M13 18v32c0 2.21-1.79 4-4 4s-4-1.79-4-4V18H13zM55 11c.55 0 1 .45 1 1v2c0 .55-.45 1-1 1H25c-.55 0-1-.45-1-1v-2c0-.55.45-1 1-1H55z"/>
  <path fill="#CCD1D9" d="M54.999 46.998H25.001c-.553 0-1-.447-1-1s.447-1 1-1h29.998c.553 0 1 .447 1 1S55.552 46.998 54.999 46.998zM54.999 49.998H25.001c-.553 0-1-.447-1-1s.447-1 1-1h29.998c.553 0 1 .447 1 1S55.552 49.998 54.999 49.998zM40 52.998H25.001c-.553 0-1-.447-1-1s.447-1 1-1H40c.553 0 1 .447 1 1S40.553 52.998 40 52.998z"/>
</svg>
