<svg xmlns="http://www.w3.org/2000/svg" width="17.393" height="22" viewBox="0 0 17.393 22">
  <g id="Group_62562" data-name="Group 62562" transform="translate(19160.7 -8149.437)">
    <path id="Path_115743" data-name="Path 115743" d="M20.393,18.461V4.933A1.938,1.938,0,0,0,18.461,3H4.933A1.938,1.938,0,0,0,3,4.933V18.461a1.938,1.938,0,0,0,1.933,1.933H18.461A1.938,1.938,0,0,0,20.393,18.461ZM8.315,13.146l2.416,2.909L14.112,11.7l4.348,5.8H4.933Z" transform="translate(-19163.699 8146.437)" fill="#373737"/>
    <path id="Path_115744" data-name="Path 115744" d="M6.574,6.177V3.4a.4.4,0,0,0-.4-.4H3.4a.4.4,0,0,0-.4.4v2.78a.4.4,0,0,0,.4.4h2.78A.4.4,0,0,0,6.574,6.177ZM4.092,5.085l.5.6.695-.9.893,1.191H3.4Z" transform="translate(-19149.881 8164.863)" fill="#373737"/>
    <path id="Path_115745" data-name="Path 115745" d="M6.574,6.177V3.4a.4.4,0,0,0-.4-.4H3.4a.4.4,0,0,0-.4.4v2.78a.4.4,0,0,0,.4.4h2.78A.4.4,0,0,0,6.574,6.177ZM4.092,5.085l.5.6.695-.9.893,1.191H3.4Z" transform="translate(-19154.486 8164.863)" fill="#373737"/>
    <path id="Path_115746" data-name="Path 115746" d="M6.574,6.177V3.4a.4.4,0,0,0-.4-.4H3.4a.4.4,0,0,0-.4.4v2.78a.4.4,0,0,0,.4.4h2.78A.4.4,0,0,0,6.574,6.177ZM4.092,5.085l.5.6.695-.9.893,1.191H3.4Z" transform="translate(-19159.094 8164.863)" fill="#373737"/>
    <path id="Path_115747" data-name="Path 115747" d="M6.574,6.177V3.4a.4.4,0,0,0-.4-.4H3.4a.4.4,0,0,0-.4.4v2.78a.4.4,0,0,0,.4.4h2.78A.4.4,0,0,0,6.574,6.177ZM4.092,5.085l.5.6.695-.9.893,1.191H3.4Z" transform="translate(-19163.699 8164.863)" fill="#373737"/>
  </g>
</svg>
