<svg xmlns="http://www.w3.org/2000/svg" enable-background="new 0 0 24 24" viewBox="0 0 24 24">
  <path fill="#d8d8ff" d="M18.122 11.887a3.05 3.05 0 0 0-4.237-.006l-1.59 1.58a1 1 0 0 0-.004 1.414h.001l4.675 4.686.174.439H19a3.003 3.003 0 0 0 3-3v-.83a1 1 0 0 0-.294-.708l-3.584-3.575z"/>
  <path fill="#6563ff" d="M5 20h14c.355-.003.707-.07 1.038-.196l-9.916-9.917a3.05 3.05 0 0 0-4.238-.005l-3.59 3.58A1 1 0 0 0 2 14.17V17a3.003 3.003 0 0 0 3 3z"/>
  <path fill="#b2b1ff" d="M19 4H5a3.003 3.003 0 0 0-3 3v7.17a1 1 0 0 1 .294-.708l3.59-3.58a3.05 3.05 0 0 1 4.238.005l2.875 2.876.888-.882a3.05 3.05 0 0 1 4.237.006l3.584 3.575a1 1 0 0 1 .294.708V7a3.003 3.003 0 0 0-3-3z"/>
</svg>
