<svg xmlns="http://www.w3.org/2000/svg" width="41.811" height="41.811" viewBox="0 0 41.811 41.811">
  <g id="Icon_feather-image" data-name="Icon feather-image" transform="translate(-3.75 -3.75)">
    <path id="Path_7392" data-name="Path 7392" d="M8.944,4.5H40.056A4.444,4.444,0,0,1,44.5,8.944V40.056A4.444,4.444,0,0,1,40.056,44.5H8.944A4.444,4.444,0,0,1,4.5,40.056V8.944A4.444,4.444,0,0,1,8.944,4.5Z" fill="none" stroke="#8e8e93" stroke-linecap="round" stroke-linejoin="round" stroke-width="1.5"/>
    <path id="Path_7393" data-name="Path 7393" d="M17.164,13.832A3.332,3.332,0,1,1,13.832,10.5,3.332,3.332,0,0,1,17.164,13.832Z" transform="translate(2.89 2.89)" fill="none" stroke="#8e8e93" stroke-linecap="round" stroke-linejoin="round" stroke-width="1.5"/>
    <path id="Path_7394" data-name="Path 7394" d="M43.058,26.106,31.946,15,7.5,39.434" transform="translate(1.442 5.066)" fill="none" stroke="#8e8e93" stroke-linecap="round" stroke-linejoin="round" stroke-width="1.5"/>
  </g>
</svg>
