<svg xmlns="http://www.w3.org/2000/svg" viewBox="0 0 48 48">
  <path fill="#F5B64F" d="M42.97 42.97c-6.707 6.707-31.233 6.707-37.94 0-6.707-6.707-6.707-31.233 0-37.94 6.707-6.707 31.233-6.707 37.94 0 6.707 6.707 6.707 31.233 0 37.94z"/>
  <path fill="#FFF" d="M39.263 40.532H8.735v-1.18h1.593v-3.975H8.735V12.623h1.593V8.648H8.735v-1.18h30.528v1.18h-1.592v3.975h1.592v22.754h-1.592v3.975h1.592z"/>
  <path fill="#434A5C" d="M31.174 8.642h5.156v3.976h-5.156zM24.673 8.642h5.156v3.976h-5.156zM31.174 35.371h5.156v3.976h-5.156zM24.673 35.371h5.156v3.976h-5.156zM35.517 13.803h3.749v20.395h-3.749z"/>
  <path fill="#0BB6EA" d="M13.818 13.802v20.4l7.31-11.34 5.86 9.1 4.19-6.49 3 4.65v-16.32h-20.36zm12.85 7.84c-.94 0-1.7-.76-1.7-1.7s.76-1.7 1.7-1.7 1.7.76 1.7 1.7-.76 1.7-1.7 1.7z"/>
  <path fill="#434A5C" d="M11.67 35.381h5.156v3.976H11.67zM18.171 35.381h5.156v3.976h-5.156zM11.67 8.652h5.156v3.976H11.67zM18.171 8.652h5.156v3.976h-5.156zM8.734 13.802h3.749v20.395H8.734z"/>
</svg>
