<svg id="Layer_1" data-name="Layer 1" xmlns="http://www.w3.org/2000/svg" xmlns:xlink="http://www.w3.org/1999/xlink" viewBox="0 0 31 31"><defs><style>.cls-1{fill:url(#linear-gradient);}.cls-2{fill:url(#linear-gradient-2);}.cls-3{fill:url(#linear-gradient-3);}</style><linearGradient id="linear-gradient" x1="3.64" y1="27.66" x2="26.78" y2="3.93" gradientUnits="userSpaceOnUse"><stop offset="0" stop-color="#f8d709"/><stop offset="0.33" stop-color="#ec2027"/><stop offset="0.77" stop-color="#79459b"/></linearGradient><linearGradient id="linear-gradient-2" x1="3.97" y1="27.99" x2="27.11" y2="4.26" xlink:href="#linear-gradient"/><linearGradient id="linear-gradient-3" x1="3.64" y1="27.66" x2="26.78" y2="3.93" xlink:href="#linear-gradient"/></defs><title>icon</title><path class="cls-1" d="M20.76.5H10.24A9.75,9.75,0,0,0,.5,10.24V20.76a9.75,9.75,0,0,0,9.74,9.74H20.76a9.75,9.75,0,0,0,9.74-9.74V10.24A9.75,9.75,0,0,0,20.76.5Zm6.78,20.26a6.79,6.79,0,0,1-6.78,6.78H10.24a6.79,6.79,0,0,1-6.78-6.78V10.24a6.79,6.79,0,0,1,6.78-6.78H20.76a6.79,6.79,0,0,1,6.78,6.78Z"/><circle class="cls-2" cx="15.5" cy="16.17" r="4.63"/><path class="cls-3" d="M20.76,5.31H10.24a4.93,4.93,0,0,0-4.93,4.93V20.76a4.93,4.93,0,0,0,4.93,4.93H20.76a4.93,4.93,0,0,0,4.93-4.93V10.24A4.93,4.93,0,0,0,20.76,5.31ZM15.5,22.65A6.48,6.48,0,1,1,22,16.17,6.49,6.49,0,0,1,15.5,22.65ZM22.07,10a1.12,1.12,0,1,1,1.12-1.12A1.12,1.12,0,0,1,22.07,10Z"/></svg>