<svg xmlns="http://www.w3.org/2000/svg" viewBox="0 0 48 48">
  <path fill="#fff" d="M41.2 7.2V3.1c0-1.4-1.2-2.6-2.6-2.6H9.4C8 .5 6.8 1.7 6.8 3.1v4.1h2V3.1c0-.3.3-.6.6-.6h29.2c.3 0 .6.3.6.6v4.1h2zM.6 10.6c-.3.9-.1 1.9.6 2.4l5.9 6 1.4-1.4-5.9-6c-.1-.1-.1-.2-.1-.3 0-.1.1-.2.2-.2h42.5c.1 0 .2.1.2.2s0 .2-.1.3l-5.9 6c-.2.2-.3.4-.3.7v22.4h2v-22l5.5-5.6c.7-.6 1-1.6.6-2.5-.3-.9-1.2-1.5-2.1-1.5H2.8c-1 0-1.8.6-2.2 1.5zm40.6 32.1h-2v2.2c0 .3-.3.6-.6.6H9.4c-.3 0-.6-.3-.6-.6V20.6h-2v24.3c0 1.4 1.2 2.6 2.6 2.6h29.2c1.4 0 2.6-1.2 2.6-2.6v-2.2z"/>
  <path fill="#fff" d="m25 23.2 5 5 1.4-1.4-6.7-6.7c-.2-.2-.4-.3-.7-.3s-.5.1-.7.3l-6.7 6.7 1.4 1.4 5-5v12.3h2V23.2zM23 37.4h2v4.5h-2z"/>
</svg>
