<svg id="_11" data-name="11" xmlns="http://www.w3.org/2000/svg" width="18.889" height="18.902" viewBox="0 0 18.889 18.902">
  <path id="Path_141675" data-name="Path 141675" d="M1.172-510.824,0-509.653l.4.4.4.4.506-.506.51-.51v4.639H2.92v-4.639l.5.5.5.5.388-.388.388-.388-1.175-1.176L2.347-512Z" transform="translate(0 512)"/>
  <path id="Path_141676" data-name="Path 141676" d="M129.552-511.161c-1.479.939-4.2,2.68-5.175,3.308a4.9,4.9,0,0,0-.643.455,4.8,4.8,0,0,0,.573.4c1,.632,1.845,1.19,1.845,1.212s-.274.207-1.782,1.179c-.362.233-.658.433-.658.444s.3.211.658.444c1.36.88,1.782,1.161,1.782,1.187s-.4.281-.876.591-1.035.669-1.227.795l-.347.233.643.421c.355.229.906.591,1.224.8a3.177,3.177,0,0,1,.562.414c-.03.048-.639.455-1.549,1.031-.425.27-.8.51-.824.536-.044.037-.022.067.111.159.111.078,5.981,3.841,6.946,4.454a11,11,0,0,0,1.811-1.083c4.085-2.61,5.286-3.393,5.341-3.478.037-.059.044-.055-1.257-.883-.621-.4-1.131-.728-1.131-.739s.492-.34,1.874-1.242a3.8,3.8,0,0,0,.554-.4c0-.018-.551-.381-1.209-.806s-1.205-.787-1.212-.806a8.25,8.25,0,0,1,.795-.547c1.2-.773,1.638-1.061,1.638-1.083s-.17-.129-1.686-1.12c-.388-.251-.717-.473-.728-.492a11.456,11.456,0,0,1,1.109-.754c1.3-.832,1.29-.824,1.253-.883-.015-.022-.322-.24-.68-.481-.676-.447-6.387-4.107-6.41-4.107C130.871-512,130.272-511.623,129.552-511.161Zm3.641,1.974c2.369,1.508,2.695,1.719,2.706,1.759s-2.17,1.486-4.436,2.9l-.588.366-.244-.144c-.137-.081-.806-.5-1.486-.939-3.323-2.122-3.367-2.151-3.319-2.2s1.615-1.046,4.868-3.12l.163-.1.336.207C131.378-510.34,132.279-509.771,133.193-509.187ZM128.9-504.06c.876.558,1.667,1.065,1.767,1.124l.174.111.362-.214c.2-.115.9-.554,1.56-.976s1.323-.832,1.467-.92l.266-.159.14.085c.506.307,1.3.821,1.3.839s-.03.044-.063.067-.5.322-1.028.662c-1.024.662-3.4,2.166-3.778,2.4l-.229.141-1.131-.721c-2.177-1.39-3.9-2.517-3.889-2.547a12.522,12.522,0,0,1,1.449-.921C127.3-505.084,128.032-504.618,128.9-504.06Zm6.247,5.859c.588.377.758.5.758.547a14.1,14.1,0,0,1-1.767,1.168c-1.782,1.135-3.2,2.018-3.26,2.033a6.031,6.031,0,0,1-.928-.536c-2.61-1.66-4.085-2.61-4.129-2.65s.074-.126.606-.462c.362-.229.7-.432.754-.455.111-.041-.037-.129,2.166,1.272.795.506,1.471.92,1.5.92.063,0,.68-.377,2.381-1.456,1.09-.691,1.257-.787,1.323-.754C134.6-498.552,134.867-498.382,135.152-498.2Z" transform="translate(-119.127 512)"/>
</svg>
