<svg id="Layer_1" data-name="Layer 1" xmlns="http://www.w3.org/2000/svg" viewBox="0 0 30 30"><defs><style>.cls-1{fill:#fff;}</style></defs><title>01 ICON</title><path class="cls-1" d="M15,13a3,3,0,1,0-3-3A3,3,0,0,0,15,13Zm0-4.5A1.5,1.5,0,1,1,13.5,10,1.5,1.5,0,0,1,15,8.5Z"/><path class="cls-1" d="M15,21.47v0h0v0c6-7,6-10.81,6-11.39V10A6,6,0,0,0,9,10v.09C9,10.66,9,14.46,15,21.47Zm0-16A4.51,4.51,0,0,1,19.5,10v.2c0,.13.12,3.1-4.5,9-4.62-5.84-4.51-8.82-4.5-9V10A4.5,4.5,0,0,1,15,5.5Z"/><path class="cls-1" d="M19.84,17.46c-.27.43-.57.89-.89,1.36,3.51.59,5.55,1.89,5.55,2.68,0,1.06-3.61,3-9.5,3s-9.5-1.94-9.5-3c0-.79,2-2.09,5.55-2.68-.32-.47-.62-.93-.89-1.36C6.52,18.2,4,19.73,4,21.5,4,24,8.92,26,15,26s11-2,11-4.5C26,19.73,23.48,18.2,19.84,17.46Z"/></svg>