<svg xmlns="http://www.w3.org/2000/svg" width="150" height="48.487" viewBox="0 0 150 48.487">
  <g id="Group_7980" data-name="Group 7980" transform="translate(-436.765 -141.373)">
    <path id="Path_7025" data-name="Path 7025" d="M460.17,162.655l-9.162-15.743a3.165,3.165,0,0,0-2.557-1.507H446.11L458.153,166.1Z" fill="#f17423" fill-rule="evenodd"/>
    <path id="Path_7026" data-name="Path 7026" d="M454.358,149.438l6.756,11.607,1.839-3.14-4.153-7.13a3.179,3.179,0,0,0-2.45-1.337h-1.992Z" fill="#f17423" fill-rule="evenodd"/>
    <path id="Path_7027" data-name="Path 7027" d="M458.148,169.32l13.742-23.454a8.824,8.824,0,0,1,7.378-4.493H488.1c-3.535,6.07-5.983,10.272-8.089,13.885a4.42,4.42,0,0,0-8.8.62v14.448l-4.393,7.518a3.563,3.563,0,0,1-2.786,1.611h-3.256a3.606,3.606,0,0,1-2.769-1.61l-21.245-36.472H440.2a3.166,3.166,0,0,1,2.557,1.507Z" fill="#00a44f" fill-rule="evenodd"/>
    <path id="Path_7028" data-name="Path 7028" d="M505.36,187.295v2.479h-.631v-6.107h2.127a2.143,2.143,0,0,1,1.5.5,1.885,1.885,0,0,1,0,2.635,2.149,2.149,0,0,1-1.5.495Zm5.321,2.479h-.625V185.2h.625v4.574Zm0-5.705h-.625v-.827h.625v.827Zm1.148,3.352a2.464,2.464,0,0,1,.553-1.651,2,2,0,0,1,2.955,0,2.465,2.465,0,0,1,.552,1.651v.136a2.467,2.467,0,0,1-.551,1.654,2.007,2.007,0,0,1-2.956,0,2.467,2.467,0,0,1-.553-1.654v-.136Zm5.756-1.606a1.641,1.641,0,0,1,.486-.463,1.672,1.672,0,0,1,.892-.234,1.44,1.44,0,0,1,1.151.465,2.209,2.209,0,0,1,.395,1.42v2.771h-.632v-2.767a1.633,1.633,0,0,0-.266-1.031.972.972,0,0,0-.758-.293,1.257,1.257,0,0,0-.8.244,1.37,1.37,0,0,0-.439.649v3.2h-.631V185.2h.568l.037.615Zm4.652,1.737v.067a1.952,1.952,0,0,0,.369,1.215,1.2,1.2,0,0,0,1,.474,1.95,1.95,0,0,0,.721-.13,1.55,1.55,0,0,0,.541-.342l.062-.062.284.455-.037.039a1.89,1.89,0,0,1-.636.425,2.4,2.4,0,0,1-.935.167,1.847,1.847,0,0,1-1.449-.633,2.349,2.349,0,0,1-.555-1.608v-.226a2.4,2.4,0,0,1,.56-1.627,1.786,1.786,0,0,1,1.4-.648,1.622,1.622,0,0,1,1.3.543,2.169,2.169,0,0,1,.458,1.441v.45Zm4.524,0v.067a1.947,1.947,0,0,0,.37,1.215,1.193,1.193,0,0,0,1,.474,1.95,1.95,0,0,0,.721-.13,1.55,1.55,0,0,0,.541-.342l.062-.062.284.455-.037.039a1.886,1.886,0,0,1-.635.425,2.413,2.413,0,0,1-.936.167,1.847,1.847,0,0,1-1.449-.633,2.349,2.349,0,0,1-.555-1.608v-.226a2.4,2.4,0,0,1,.56-1.627,1.786,1.786,0,0,1,1.4-.648,1.622,1.622,0,0,1,1.3.543,2.169,2.169,0,0,1,.458,1.441v.45Zm4.775-.9v3.122h-.631V185.2h.564l.051.613a1.559,1.559,0,0,1,.423-.453,1.37,1.37,0,0,1,.809-.242,1.023,1.023,0,0,1,.184.016,1.131,1.131,0,0,1,.145.033l.055.018-.078.581-.409-.03a1.047,1.047,0,0,0-.713.243,1.367,1.367,0,0,0-.4.673Zm4.875.769a2.463,2.463,0,0,1,.552-1.651,2,2,0,0,1,2.955,0,2.465,2.465,0,0,1,.552,1.651v.136a2.471,2.471,0,0,1-.55,1.654,2.009,2.009,0,0,1-2.957,0,2.466,2.466,0,0,1-.552-1.654v-.136Zm5.486-1.68h-.733V185.2h.733v-.578a1.558,1.558,0,0,1,.354-1.08,1.288,1.288,0,0,1,.99-.387,1.912,1.912,0,0,1,.282.022c.1.015.2.034.293.058l.062.016-.088.543-.074-.018a1.581,1.581,0,0,0-.194-.038,1.632,1.632,0,0,0-.232-.014.7.7,0,0,0-.564.229,1.021,1.021,0,0,0-.2.669v.578h1v.541h-1v4.033H541.9v-4.033Zm8.756,2.513a.872.872,0,0,0-.34-.705A3.783,3.783,0,0,0,549.1,187a4.254,4.254,0,0,1-1.478-.667,1.35,1.35,0,0,1-.524-1.118,1.443,1.443,0,0,1,.584-1.179,2.3,2.3,0,0,1,1.464-.455,2.187,2.187,0,0,1,1.51.516,1.648,1.648,0,0,1,.56,1.317v.012l-.029.08h-.577v-.069a1.2,1.2,0,0,0-.405-.929,1.516,1.516,0,0,0-1.059-.37,1.61,1.61,0,0,0-1.048.312.951.951,0,0,0-.369.757.853.853,0,0,0,.332.7,3.882,3.882,0,0,0,1.24.534,4.194,4.194,0,0,1,1.463.688,1.374,1.374,0,0,1,.522,1.12,1.393,1.393,0,0,1-.609,1.177,2.491,2.491,0,0,1-1.5.438,2.727,2.727,0,0,1-1.577-.461,1.506,1.506,0,0,1-.665-1.368v-.01l.028-.083h.574v.069a1.077,1.077,0,0,0,.488.973,2.067,2.067,0,0,0,1.152.328,1.8,1.8,0,0,0,1.074-.3.892.892,0,0,0,.4-.754Zm2.379-2.472a1.579,1.579,0,0,1,.476-.44,1.676,1.676,0,0,1,.878-.224,1.5,1.5,0,0,1,.888.258,1.334,1.334,0,0,1,.459.618,1.719,1.719,0,0,1,.521-.6,1.592,1.592,0,0,1,.935-.275,1.409,1.409,0,0,1,1.149.5,2.4,2.4,0,0,1,.4,1.5v2.656h-.63v-2.663a1.83,1.83,0,0,0-.274-1.114.942.942,0,0,0-.752-.314,1.048,1.048,0,0,0-.817.32,1.585,1.585,0,0,0-.372.839c0,.03,0,.057,0,.086s0,.078,0,.117v2.729h-.635v-2.663a1.8,1.8,0,0,0-.276-1.1.937.937,0,0,0-.753-.323,1.17,1.17,0,0,0-.777.244,1.308,1.308,0,0,0-.4.66v3.187h-.631V185.2H553l.036.582Zm9.778,3.38a1.917,1.917,0,0,1-.547.453,1.968,1.968,0,0,1-.985.245,1.475,1.475,0,0,1-1.059-.366,1.325,1.325,0,0,1-.38-.99,1.2,1.2,0,0,1,.55-1.02,2.377,2.377,0,0,1,1.393-.382h1.02v-.479a.888.888,0,0,0-.277-.7,1.18,1.18,0,0,0-.805-.253,1.212,1.212,0,0,0-.769.231.691.691,0,0,0-.285.564v.069h-.573l-.028-.08v-.01a1.134,1.134,0,0,1,.453-.936,1.862,1.862,0,0,1,1.228-.4,1.838,1.838,0,0,1,1.217.39,1.4,1.4,0,0,1,.466,1.123v2.18a3.721,3.721,0,0,0,.026.447,2.949,2.949,0,0,0,.086.428l.025.088h-.66l-.011-.056c-.027-.134-.052-.27-.07-.406q-.009-.075-.015-.15Zm2.624-2.51v3.122H564.8V185.2h.564l.051.613a1.559,1.559,0,0,1,.423-.453,1.37,1.37,0,0,1,.809-.242,1.023,1.023,0,0,1,.184.016,1.131,1.131,0,0,1,.145.033l.055.018-.078.581-.409-.03a1.047,1.047,0,0,0-.713.243,1.367,1.367,0,0,0-.4.673Zm3.413-1.452h.975v.541h-.975v2.82a.933.933,0,0,0,.141.572.462.462,0,0,0,.368.158c.055,0,.111,0,.165-.009s.129-.021.193-.034l.068-.014.1.483-.048.024a1.075,1.075,0,0,1-.26.087,1.546,1.546,0,0,1-.3.032,1,1,0,0,1-.779-.318,1.493,1.493,0,0,1-.278-.981v-2.82h-.767V185.2h.767v-1.134h.635V185.2Zm5.457,4.021h3.082v.553h-3.713v-6.107h.631v5.554Zm4.769.553h-.625V185.2h.625v4.574Zm0-5.705h-.625v-.827h.625v.827Zm1.758,1.672H580.1V185.2h.733v-.578a1.553,1.553,0,0,1,.354-1.08,1.289,1.289,0,0,1,.99-.387,1.912,1.912,0,0,1,.282.022c.1.015.2.034.293.058l.062.016-.088.543-.074-.018a1.584,1.584,0,0,0-.194-.038,1.632,1.632,0,0,0-.232-.014.7.7,0,0,0-.564.229,1.022,1.022,0,0,0-.2.669v.578h1v.541h-1v4.033h-.631v-4.033Zm2.848,1.811v.067a1.952,1.952,0,0,0,.369,1.215,1.2,1.2,0,0,0,1,.474,1.95,1.95,0,0,0,.721-.13,1.55,1.55,0,0,0,.541-.342l.062-.062.284.455-.037.039a1.88,1.88,0,0,1-.636.425,2.4,2.4,0,0,1-.935.167,1.847,1.847,0,0,1-1.449-.633,2.349,2.349,0,0,1-.555-1.608v-.226a2.4,2.4,0,0,1,.56-1.627,1.786,1.786,0,0,1,1.4-.648,1.622,1.622,0,0,1,1.3.543,2.169,2.169,0,0,1,.457,1.441v.45Zm-78.319-.814h1.5a1.45,1.45,0,0,0,1.057-.354,1.229,1.229,0,0,0,.348-.9,1.246,1.246,0,0,0-.348-.9,1.438,1.438,0,0,0-1.057-.358h-1.5v2.514Zm7.1.819a2.058,2.058,0,0,0,.375,1.254,1.308,1.308,0,0,0,2.052,0,2.053,2.053,0,0,0,.378-1.254v-.136a2.037,2.037,0,0,0-.381-1.246,1.3,1.3,0,0,0-2.048,0,2.058,2.058,0,0,0-.376,1.246v.136Zm9.824-.562h2.409v-.033a1.442,1.442,0,0,0-.293-.93,1.014,1.014,0,0,0-.833-.357,1.126,1.126,0,0,0-.879.382,1.67,1.67,0,0,0-.4.938Zm4.524,0h2.41v-.033a1.443,1.443,0,0,0-.294-.93,1.014,1.014,0,0,0-.833-.357,1.126,1.126,0,0,0-.879.382,1.67,1.67,0,0,0-.4.938Zm10.233.562a2.052,2.052,0,0,0,.376,1.254,1.306,1.306,0,0,0,2.051,0,2.047,2.047,0,0,0,.378-1.254v-.136a2.037,2.037,0,0,0-.381-1.246,1.3,1.3,0,0,0-2.048,0,2.05,2.05,0,0,0-.376,1.246v.136Zm25.762.827v-.766h-1.024a1.573,1.573,0,0,0-.947.272.766.766,0,0,0-.36.629.721.721,0,0,0,.225.557.912.912,0,0,0,.635.211,1.7,1.7,0,0,0,.942-.258,1.266,1.266,0,0,0,.529-.645Zm20.924-1.389h2.409v-.033a1.443,1.443,0,0,0-.294-.93,1.014,1.014,0,0,0-.833-.357,1.126,1.126,0,0,0-.879.382A1.662,1.662,0,0,0,583.726,186.995Z" fill="#00a44f" fill-rule="evenodd"/>
    <path id="Path_7029" data-name="Path 7029" d="M541.719,179.455v-9.888a14.431,14.431,0,0,0-.466-3.815,7.456,7.456,0,0,0-1.443-2.831,6.267,6.267,0,0,0-2.5-1.783,10.154,10.154,0,0,0-3.783-.636,7.305,7.305,0,0,0-2.473.423,13.068,13.068,0,0,0-2.225,1.034l-.707.417.04-7.961h-5.742v25.04H528.2v-9.568a6.175,6.175,0,0,1,.258-1.8,4.457,4.457,0,0,1,.777-1.5,3.707,3.707,0,0,1,1.274-1.017,3.759,3.759,0,0,1,1.663-.366,5.5,5.5,0,0,1,1.451.178,2.733,2.733,0,0,1,1.236.731,3.379,3.379,0,0,1,.784,1.421,7.762,7.762,0,0,1,.258,2.168v9.75Zm33.788-5.328-5.771-.016a6.458,6.458,0,0,0,.409,1.791,5.454,5.454,0,0,0,1.364,2.008,7.3,7.3,0,0,0,2.5,1.491,11.062,11.062,0,0,0,3.826.584,15.911,15.911,0,0,0,3.62-.388,8.7,8.7,0,0,0,2.829-1.175,5.547,5.547,0,0,0,1.822-1.971,5.936,5.936,0,0,0,.656-2.882,4.88,4.88,0,0,0-.516-2.377,4.276,4.276,0,0,0-1.443-1.515,8.338,8.338,0,0,0-2.277-.976c-.969-.27-1.949-.487-2.929-.672-.476-.07-.948-.147-1.411-.239a7.564,7.564,0,0,1-1-.241,1.746,1.746,0,0,1-.7-.393,1.032,1.032,0,0,1-.307-.766,1.3,1.3,0,0,1,.632-1.125,2.65,2.65,0,0,1,1.518-.4,2.071,2.071,0,0,1,1.506.519,1.868,1.868,0,0,1,.473.766l5.926.017a6.047,6.047,0,0,0-.479-2.059,5.3,5.3,0,0,0-1.423-1.93,6.757,6.757,0,0,0-2.328-1.264,10.277,10.277,0,0,0-3.18-.453c-2.092,0-4.657.276-6.394,1.556a5.16,5.16,0,0,0-2.039,4.435,6.165,6.165,0,0,0,.248,1.822,4.348,4.348,0,0,0,.643,1.313,4.394,4.394,0,0,0,.928.929,5.938,5.938,0,0,0,1.11.645,8.021,8.021,0,0,0,1.148.415c.356.1.715.193,1.077.269l.018,0q1.011.258,2.032.464c.5.1,1.005.212,1.508.347a3.613,3.613,0,0,1,1.015.428,1.09,1.09,0,0,1,.511.94,1.354,1.354,0,0,1-.693,1.194,3.84,3.84,0,0,1-1.845.349,3.31,3.31,0,0,1-1.792-.449,1.9,1.9,0,0,1-.8-1ZM507.63,154.415v6.1h-2.9v4.667h2.9v7.071a11.537,11.537,0,0,0,.286,2.767,6.544,6.544,0,0,0,.786,1.917,4.476,4.476,0,0,0,1.174,1.248,5.713,5.713,0,0,0,1.539.8,8.669,8.669,0,0,0,1.867.374c.7.066,1.41.1,2.117.1h3.265l.047-4.443h-2.667a3.91,3.91,0,0,1-.988-.116,2.056,2.056,0,0,1-.887-.471,2.182,2.182,0,0,1-.577-.921,4.242,4.242,0,0,1-.18-1.325v-7H518.5v-4.667H513.43v-6.1Zm-5.514,19.576h-6.371a3.756,3.756,0,0,1-1.119,1.032,3.887,3.887,0,0,1-2.074.527,4.421,4.421,0,0,1-1.414-.237,4.655,4.655,0,0,1-1.28-.669,5.14,5.14,0,0,1-1.054-1.06,5,5,0,0,1-.726-1.4l-.207-.614h14.886c.022-.121.043-.243.063-.364a5.9,5.9,0,0,0,.057-.968,9.707,9.707,0,0,0-.741-3.777,9.417,9.417,0,0,0-2.1-3.1,9.871,9.871,0,0,0-3.267-2.1,11.292,11.292,0,0,0-4.247-.774,10.971,10.971,0,0,0-4.212.779,10.093,10.093,0,0,0-3.246,2.107,9.239,9.239,0,0,0-2.075,3.089,9.825,9.825,0,0,0-.735,3.779,9.64,9.64,0,0,0,.74,3.765,9.37,9.37,0,0,0,2.089,3.086,10.1,10.1,0,0,0,3.24,2.1,10.909,10.909,0,0,0,4.2.785,11.158,11.158,0,0,0,3.7-.581,10.551,10.551,0,0,0,2.892-1.523,9.068,9.068,0,0,0,3.006-3.884Zm-9.564-8.776a3.642,3.642,0,0,1,2.18.62,4.139,4.139,0,0,1,1.346,1.672h-7.3a4.2,4.2,0,0,1,1.459-1.672,4.12,4.12,0,0,1,2.317-.62Zm-19.837-4.726v18.966h5.838V160.489Zm88.322,18.966h4.993V160.5h-4.993v2.076l-.732-.508a9.7,9.7,0,0,0-2.216-1.11,8.369,8.369,0,0,0-2.859-.46,10.493,10.493,0,0,0-4.144.776,9.2,9.2,0,0,0-3.078,2.1,9.019,9.019,0,0,0-1.917,3.086,10.75,10.75,0,0,0-.666,3.782,10.563,10.563,0,0,0,.677,3.786,9.182,9.182,0,0,0,1.925,3.089,9.073,9.073,0,0,0,3.064,2.084,10.9,10.9,0,0,0,5.551.667,8.2,8.2,0,0,0,4.395-2.432v2.018Zm-9.345-9.224a5.286,5.286,0,0,1,.319-1.9,4.183,4.183,0,0,1,.883-1.434,3.9,3.9,0,0,1,1.321-.909,4.236,4.236,0,0,1,1.659-.319,4.186,4.186,0,0,1,1.641.319,3.91,3.91,0,0,1,1.334.915,4.371,4.371,0,0,1,.9,1.44,5.158,5.158,0,0,1,.331,1.885,5.369,5.369,0,0,1-.319,1.929,4.268,4.268,0,0,1-.889,1.446,3.912,3.912,0,0,1-1.321.915,4.157,4.157,0,0,1-1.635.319,4.2,4.2,0,0,1-1.64-.319,3.95,3.95,0,0,1-1.34-.927,4.313,4.313,0,0,1-.908-1.453A5.25,5.25,0,0,1,551.692,170.231Z" fill="#00a44f" fill-rule="evenodd"/>
    <path id="Path_7030" data-name="Path 7030" d="M475.634,152.8a3.08,3.08,0,1,0,3.08,3.08A3.08,3.08,0,0,0,475.634,152.8Z" fill="#f17423" fill-rule="evenodd"/>
  </g>
</svg>
