<svg id="Layer_1" data-name="Layer 1" xmlns="http://www.w3.org/2000/svg" viewBox="0 0 30 30"><defs><style>.cls-1{fill:#fff;}</style></defs><title>01 ICON</title><path class="cls-1" d="M22.5,10.14v-1A2.15,2.15,0,0,0,20.35,7H18.67L15,4,11.33,7H9.65A2.15,2.15,0,0,0,7.5,9.15v1L4,13H4V23.85A2.15,2.15,0,0,0,6.15,26h17.7A2.15,2.15,0,0,0,26,23.85V13h0Zm0,1.93,1.13.93-1.13.92ZM15,5.94,16.3,7H13.7ZM9,9.15a.65.65,0,0,1,.65-.65h10.7a.65.65,0,0,1,.65.65v6l-6,4.91L9,15.15ZM7.5,12.07v1.85L6.37,13ZM5.5,23.8V14.23L11.35,19ZM7,24.5,12.54,20,15,22l2.46-2L23,24.5Zm17.48-.7L18.65,19l5.85-4.78Z"/></svg>