<svg id="Layer_1" data-name="Layer 1" xmlns="http://www.w3.org/2000/svg" viewBox="0 0 22 22"><defs><style>.cls-1{fill:#373737;}</style></defs><title>01 ICON</title><path class="cls-1" d="M11,6.25A4.75,4.75,0,1,0,15.75,11,4.75,4.75,0,0,0,11,6.25Zm0,8A3.25,3.25,0,1,1,14.25,11,3.26,3.26,0,0,1,11,14.25Z"/><path class="cls-1" d="M21,9.16c-.82-.16-1.6-.37-1.6-.37a1.74,1.74,0,0,1-.57-.27,8.42,8.42,0,0,0-.55-1.31,1.87,1.87,0,0,1,.21-.61s.41-.71.87-1.4S19.54,4,19.54,4L19,3.41l-.19-.19L18.59,3,18,2.46a.67.67,0,0,0-.44-.14,1.37,1.37,0,0,0-.78.28c-.7.46-1.4.87-1.4.87a1.87,1.87,0,0,1-.61.21,7.56,7.56,0,0,0-1.31-.55,1.74,1.74,0,0,1-.27-.57S13,1.78,12.84,1s-.77-1-.77-1H9.93s-.58,0-.77,1-.37,1.6-.37,1.6a1.74,1.74,0,0,1-.27.57,7.56,7.56,0,0,0-1.31.55,1.87,1.87,0,0,1-.61-.21s-.7-.41-1.4-.87a1.37,1.37,0,0,0-.78-.28A.67.67,0,0,0,4,2.46L3.41,3l-.19.19L3,3.41,2.46,4s-.41.41.14,1.22.87,1.4.87,1.4a1.87,1.87,0,0,1,.21.61,8.42,8.42,0,0,0-.55,1.31,1.74,1.74,0,0,1-.57.27S1.78,9,1,9.16s-1,.77-1,.77v2.14s0,.58,1,.77,1.6.37,1.6.37a1.74,1.74,0,0,1,.57.27,8.42,8.42,0,0,0,.55,1.31,1.87,1.87,0,0,1-.21.61s-.41.7-.87,1.4S2.46,18,2.46,18l.57.57.19.19.19.19.57.57a.67.67,0,0,0,.44.14,1.37,1.37,0,0,0,.78-.28c.7-.46,1.4-.87,1.4-.87a1.87,1.87,0,0,1,.61-.21,8.42,8.42,0,0,0,1.31.55,1.74,1.74,0,0,1,.27.57s.21.78.37,1.6.77,1,.77,1h2.14s.58,0,.77-1,.37-1.6.37-1.6a1.74,1.74,0,0,1,.27-.57,8.42,8.42,0,0,0,1.31-.55,1.87,1.87,0,0,1,.61.21s.7.41,1.4.87a1.37,1.37,0,0,0,.78.28.67.67,0,0,0,.44-.14l.57-.57.19-.19.19-.19.57-.57s.41-.41-.14-1.22-.87-1.4-.87-1.4a1.87,1.87,0,0,1-.21-.61,8.42,8.42,0,0,0,.55-1.31,1.74,1.74,0,0,1,.57-.27s.78-.21,1.6-.37,1-.77,1-.77V9.93S22,9.35,21,9.16Zm-.54,1.57v.69c-.76.16-1.41.33-1.41.33a3.22,3.22,0,0,0-1.11.52l-.39.29-.15.47A6.44,6.44,0,0,1,17,14.1l-.22.42.07.48a3.5,3.5,0,0,0,.39,1.16s.36.61.79,1.26l-.11.11-.19.19-.19.19-.11.1c-.65-.42-1.23-.76-1.27-.79A3.39,3.39,0,0,0,15,16.84l-.48-.07L14.1,17a6.44,6.44,0,0,1-1.07.45l-.47.14-.29.4a3.19,3.19,0,0,0-.51,1.07s-.18.69-.34,1.45h-.84c-.16-.76-.33-1.41-.33-1.42A3.29,3.29,0,0,0,9.73,18l-.29-.4L9,17.44A6.44,6.44,0,0,1,7.9,17l-.42-.22L7,16.84a3.27,3.27,0,0,0-1.16.39s-.61.36-1.26.78l-.11-.1-.19-.19-.19-.19L4,17.42c.42-.65.76-1.23.79-1.27A3.63,3.63,0,0,0,5.16,15l.07-.48L5,14.1A6.44,6.44,0,0,1,4.56,13l-.15-.47L4,12.27A3.19,3.19,0,0,0,3,11.76s-.69-.18-1.45-.34v-.84c.76-.16,1.41-.33,1.41-.33A3.43,3.43,0,0,0,4,9.73l.39-.29L4.56,9A6.44,6.44,0,0,1,5,7.9l.22-.43L5.16,7a3.5,3.5,0,0,0-.39-1.16S4.41,5.22,4,4.58l.1-.11.19-.19.19-.19L4.58,4c.65.43,1.23.77,1.27.79A3.32,3.32,0,0,0,7,5.16l.48.07L7.9,5A6.44,6.44,0,0,1,9,4.56l.47-.15L9.73,4a3.12,3.12,0,0,0,.51-1.08s.18-.69.34-1.44h.84c.16.75.33,1.41.33,1.41A3.22,3.22,0,0,0,12.27,4l.29.39.47.15A6.44,6.44,0,0,1,14.1,5l.42.22L15,5.16a3.5,3.5,0,0,0,1.16-.39s.61-.36,1.26-.79l.11.11.19.19.19.19.11.11c-.43.64-.77,1.23-.8,1.27A3.63,3.63,0,0,0,16.84,7l-.07.47L17,7.9A6.44,6.44,0,0,1,17.44,9l.15.47.39.29a3.42,3.42,0,0,0,1.07.51s.69.18,1.45.34Z"/></svg>