<svg version="1.1" id="Layer_1" xmlns="http://www.w3.org/2000/svg" xmlns:xlink="http://www.w3.org/1999/xlink" x="0px" y="0px"
	 viewBox="0 0 512 512" style="enable-background:new 0 0 512 512;" xml:space="preserve">
  <style type="text/css">
    .st0{fill:#00A859;}
  </style>
  <g transform="translate(0.000000,512.000000) scale(0.100000,-0.100000)">
    <path class="st0" d="M3280,4455v-665l-72-36c-102-51-181-110-264-195c-97-101-182-238-214-346c-7-24-16-43-19-43s-21,28-38,63
		l-33,63v302v302H1620H600v-300v-300l-300-450L0,2400V1200V0h2468h2467l52,24c63,30,107,86,122,157c14,64,14,1007,1,1102
		c-6,37-23,95-38,130c-31,67-112,163-168,197c-28,18-34,28-34,56v34h75h75v160c0,184-10,243-51,300c-48,66-111,90-235,90h-102
		l-4,393c-5,382-6,395-31,488c-28,107-78,222-128,296c-92,136-236,263-369,326l-70,32v668v667h-375h-375V4455z M3880,4750v-220h-225
		h-225v220v220h225h225V4750z M3880,4030c0-325,1-351,18-357c233-80,392-214,492-416c79-159,82-182,87-619l5-387l-379-3
		c-413-3-404-2-467-65c-58-57-66-89-66-295v-188h75h75v-32c-1-28-8-38-55-70c-68-48-116-107-157-194l-33-69V743V150h-177h-178v1124
		v1124l-146,272l-146,271l7,61c34,292,235,544,523,654l72,28v348v348h225h225V4030z M2490,3550v-200h-870H750v200v200h870h870V3550z
		 M2423,3187c-4-8-104-176-222-375l-214-362h-883c-486,0-884,2-884,5s111,172,247,375l246,370h859C2286,3200,2430,3198,2423,3187z
		 M2768,2739l202-380V1254V150h-430h-430v1107v1106l223,378c122,208,224,378,227,378S2656,2948,2768,2739z M1960,1225V150h-905H150
		v1075v1075h905h905V1225z M4832,2086c28-21,38-62,38-152v-84h-575h-575v104c0,160-56,146,574,146C4706,2099,4819,2097,4832,2086z
		 M4720,1616v-83l49-21c68-28,125-83,161-154c54-109,126-98-640-98h-670l6,28c23,96,85,172,184,222l60,30v80v80h425h425V1616z
		 M4968,778l2-328h-675h-675v330v330l673-2l672-3L4968,778z M4968,277c7-34-8-87-30-107c-21-20-36-20-644-20c-613,0-622,0-648,21
		c-22,18-26,28-26,75v54l672-2C4937,295,4965,294,4968,277z"/>
    <path class="st0" d="M3859,3450c-13-38-21-71-18-72c2-2,31-16,64-33c58-29,155-115,187-165c17-28,29-25,108,25l41,26l-30,43
		c-50,72-164,170-244,210c-40,20-76,36-80,36C3884,3520,3871,3489,3859,3450z"/>
    <path class="st0" d="M4225,3051c-60-16-60-17-57-51c1-19,5-50,8-68l5-33l72,3c82,3,75-8,62,111C4308,3077,4310,3076,4225,3051z"/>
    <path class="st0" d="M687,2890c-59-88-107-163-107-167c0-5,15-17,33-29c17-11,44-28,59-38l27-18l87,131l87,130l151,3l151,3l3,73
		l3,72H987H793L687,2890z"/>
    <path class="st0" d="M1322,2978l3-73h75h75l3,73l3,72h-81h-81L1322,2978z"/>
    <path class="st0" d="M490,1435v-75h500h500v75v75H990H490V1435z"/>
    <path class="st0" d="M490,1055v-75h540h540v75v75h-540H490V1055z"/>
    <path class="st0" d="M490,675v-75h320h320v75v75H810H490V675z"/>
    <path class="st0" d="M3970,775v-75h75h75v75v75h-75h-75V775z"/>
    <path class="st0" d="M4270,775v-75h75h75v75v75h-75h-75V775z"/>
    <path class="st0" d="M4570,775v-75h75h75v75v75h-75h-75V775z"/>
  </g>
</svg>
