<svg xmlns="http://www.w3.org/2000/svg" fill-rule="evenodd" clip-rule="evenodd" image-rendering="optimizeQuality" shape-rendering="geometricPrecision" text-rendering="geometricPrecision" viewBox="0 0 4335 4335">
  <path fill="#008dd2" d="M897-7805h2015c121 0 220 99 220 220v2015c0 121-99 220-220 220H897c-121 0-220-99-220-220v-2015c0-121 99-220 220-220z"/>
  <path fill="#ebecec" d="M882-5349h2046l-6-5c8-29 37-187-193-345-134-92-321-119-440-192l-72-61c-54-67-65-166 2-329 191-466 191-583 64-816-115-210-333-231-375-233h-8c-42 2-260 23-375 233-128 233-128 349 64 816 67 163 56 262 2 329l-72 61c-119 73-306 101-440 192-230 158-201 315-193 345l-6 5z"/>
  <path fill="#197bac" d="M3133-5688v119c0 121-99 220-220 220H898c-121 0-220-99-220-220v-119c0 121 99 220 220 220h2015c121 0 220-99 220-220z"/>
  <path fill="#4db5e7" d="M3133-7522v-62c0-121-99-220-220-220H898c-121 0-220 99-220 220v62c0-121 99-220 220-220h2015c121 0 220 99 220 220z"/>
  <path fill="#d9dada" d="M2254-5922c-1 2-139 165-349 174-210-9-347-172-349-174h-1l-277 129s-170 60-238 123c-8 7-15 15-23 24-9 6-17 11-22 16-86 70-96 160-96 161h2015c0-1-11-91-96-161-6-5-13-10-22-16-8-9-15-17-23-24-68-64-238-123-238-123l-277-129h-1zM2368-6739s-124-59-158-178-127-119-229-93c-102 25-271 51-330 51s-34 126-110 229-169-71-70-251 164-311 430-348c266-36 503 277 466 590z"/>
  <path fill="#008dd2" d="M449 33h3417c205 0 373 168 373 373v3417c0 205-168 373-373 373H449c-205 0-373-168-373-373V406C76 201 244 33 449 33z"/>
  <path fill="#fefefe" d="M986 1230h2343v291H986v-291zm0 1479h2343v291H986v-291zm0-753h2343v291H986v-291z"/>
  <path fill="#197bac" d="M4240 3623v201c0 205-168 373-373 373H450c-205 0-373-168-373-373v-201c0 205 168 373 373 373h3417c205 0 373-168 373-373z"/>
  <path fill="#4db5e7" d="M4239 512V407c0-205-168-373-373-373H449C244 34 76 202 76 407v105c0-205 168-373 373-373h3417c205 0 373 168 373 373z"/>
  <path fill="#197bac" d="M986 1521h2344v117H986zM986 2256h2344v118H986zM986 3002h2344v118H986z"/>
</svg>
