
<svg version="1.1" id="Layer_1" xmlns="http://www.w3.org/2000/svg" xmlns:xlink="http://www.w3.org/1999/xlink" x="0px" y="0px"
	 viewBox="0 0 512 512" style="enable-background:new 0 0 512 512;" xml:space="preserve">
<style type="text/css">
	.st0{fill:#00A859;}
</style>
<g transform="translate(0.000000,512.000000) scale(0.100000,-0.100000)">
	<path class="st0" d="M1135,4380c-179-36-332-170-396-346c-32-86-32-244,0-334c126-359,566-477,847-226c116,103,174,232,174,385
		c-1,158-43,263-149,371C1485,4358,1307,4414,1135,4380z M1358,4096c157-80,188-289,60-416c-48-49-102-70-179-70
		c-145,0-258,108-259,249c0,79,18,128,70,183C1131,4131,1249,4151,1358,4096z"/>
	<path class="st0" d="M2155,3991c-61-8-89-25-111-67c-37-68,7-162,85-184c23-6,382-10,961-10c887,0,927,1,967,19c49,23,73,62,73,121
		c0,53-21,84-73,106c-39,16-110,18-947,20C2612,3997,2183,3995,2155,3991z"/>
	<path class="st0" d="M1166,3069c-160-17-326-138-400-292c-201-417,201-872,642-726c315,105,454,498,274,775
		C1564,3006,1383,3091,1166,3069z M1355,2782c93-47,140-125,140-232c0-65-4-82-30-128c-65-118-216-166-340-108
		c-92,42-144,128-145,237c0,113,63,204,173,246C1199,2815,1307,2807,1355,2782z"/>
	<path class="st0" d="M2110,2667c-65-23-100-113-67-177c7-13,28-35,46-47l34-23h954c1039,0,986-3,1032,56c26,33,28,109,5,143
		c-9,13-35,32-58,42c-39,18-84,19-976,18C2382,2679,2136,2676,2110,2667z"/>
	<path class="st0" d="M1135,1749c-90-18-194-76-266-148c-112-112-167-253-155-401c10-136,61-247,155-340c206-202,538-202,738,1
		c107,108,154,222,154,371c0,49-5,106-11,129c-45,166-182,314-341,368C1335,1754,1208,1764,1135,1749z M1352,1469
		c51-27,86-61,114-111c54-98,32-242-48-314c-67-62-166-85-253-59c-72,20-154,97-173,161c-47,161,43,315,201,343
		C1241,1497,1317,1487,1352,1469z"/>
	<path class="st0" d="M2105,1350c-67-27-99-137-55-192c46-59,35-58,1039-58c576,0,929,4,952,10c54,15,82,51,87,112c3,44,0,58-19,82
		c-46,58-5,56-1036,55C2552,1359,2116,1355,2105,1350z"/>
</g>
</svg>
