<svg id="Layer_1" data-name="Layer 1" xmlns="http://www.w3.org/2000/svg" viewBox="0 0 64 64">
  <defs>
    <style>.cls-1{fill:#fff;}</style>
  </defs>
  <title>Menu trang thiet ke</title>
  <path class="cls-1" d="M41.17,48.52H15.68a.22.22,0,0,1-.2-.2V22.83a1.12,1.12,0,1,0-2.24,0V48.32a2.44,2.44,0,0,0,2.44,2.44H41.17a1.12,1.12,0,1,0,0-2.24Z"/>
  <path class="cls-1" d="M48.32,13.24H22.83a2.45,2.45,0,0,0-2.45,2.44V41.17a2.45,2.45,0,0,0,2.45,2.45H48.32a2.45,2.45,0,0,0,2.44-2.45V15.68A2.44,2.44,0,0,0,48.32,13.24Zm.2,27.93a.21.21,0,0,1-.2.2H22.83a.2.2,0,0,1-.2-.2V15.68a.21.21,0,0,1,.2-.2H48.32a.22.22,0,0,1,.2.2Z"/>
</svg>
