<svg xmlns="http://www.w3.org/2000/svg" viewBox="0 0 57.82 57.2"><title>Mouse_click</title><g id="Layer_2" data-name="Layer 2"><g id="Layer_1-2" data-name="Layer 1"><g style="opacity:0.5"><path d="M39.37,44c.13,0,0,1-.33,2.65-.17.83-.41,1.84-.75,3a18.93,18.93,0,0,1-.64,1.87c-.27.66-.61,1.32-.92,2l0,0v0a3.46,3.46,0,0,1-2.18,1.54,3,3,0,0,1-1.52,0,2.79,2.79,0,0,1-.75-.38,1.81,1.81,0,0,1-.33-.29l-.14-.15-.1-.13A21.11,21.11,0,0,1,29,49.62c-.38-.81-.75-1.64-1.16-2.45s-.86-1.68-1.27-2.55c-.85-1.76-1.66-3.6-2.47-5.48-1.69-3.91-3.28-7.65-4.7-11.06q-1.05-2.56-2-4.85c-.3-.76-.6-1.49-.89-2.2L16.11,20a5,5,0,0,1-.35-1.2,2.67,2.67,0,0,1,.2-1.35,2.85,2.85,0,0,1,.74-1,3.73,3.73,0,0,1,1.88-.88,3.78,3.78,0,0,1,1,0,4.81,4.81,0,0,1,.81.18,5.92,5.92,0,0,1,1.26.61A7.84,7.84,0,0,1,23,17.55c.28.3.41.49.36.54s-.25,0-.6-.24A16.07,16.07,0,0,0,21.23,17a4.55,4.55,0,0,0-1.13-.38,2.76,2.76,0,0,0-1.31,0c-.88.19-1.88,1-1.67,1.95a11.19,11.19,0,0,0,.78,1.85c.31.69.65,1.41,1,2.15l2.16,4.78c1.51,3.37,3.15,7.09,4.84,11,.81,1.88,1.6,3.7,2.41,5.43.4.88.8,1.69,1.22,2.56s.77,1.71,1.13,2.52A20.68,20.68,0,0,0,33,53.15c.47.89,2,.5,2.54-.3l0,.06c.37-.68.73-1.29,1-1.87s.53-1.16.74-1.71c.43-1.11.77-2.09,1.06-2.88C38.87,44.86,39.23,44,39.37,44Z" style="fill:#3d3c3c"/><path d="M44.86,38.44c0-.13.76-.31,2.18-.5.71-.1,1.57-.19,2.54-.36s2.05-.46,3.37-.67c.64-.11,1.3-.19,1.92-.34a4.69,4.69,0,0,0,.87-.27c.26-.11.41-.25.43-.33a.32.32,0,0,0,0-.15.73.73,0,0,0-.07-.25,2.77,2.77,0,0,0-.53-.71,10.34,10.34,0,0,0-1.77-1.41A36.61,36.61,0,0,0,49.32,31l-.61-.28c-.25-.1-.43-.21-.65-.32l-1.27-.64-2.56-1.29c-3.46-1.74-6.78-3.36-9.81-4.81l-4.3-2-2-.94q-1-.47-1.8-.93c-2.24-1.23-4-2.2-5.29-2.81s-2-.93-1.95-1.07.84-.06,2.23.37A44.13,44.13,0,0,1,27,18.52c.58.26,1.18.53,1.8.79l2,.83q2.08.87,4.4,1.89c3.09,1.37,6.45,2.95,9.93,4.7L47.67,28l1.23.64c.2.1.42.23.6.3l.64.31A34.37,34.37,0,0,1,54.83,32a12.18,12.18,0,0,1,2,1.72,4.29,4.29,0,0,1,.8,1.23,2.12,2.12,0,0,1,0,1.79,2.34,2.34,0,0,1-1.27,1,6.3,6.3,0,0,1-1.17.3c-.74.12-1.41.16-2,.22-1.21.11-2.39.34-3.42.39a24.08,24.08,0,0,1-2.63,0C45.66,38.65,44.86,38.58,44.86,38.44Z" style="fill:#3d3c3c"/><path d="M45.19,39.29c-.08,0-.19-.19-.36-.64a.23.23,0,0,1,.14-.29.24.24,0,0,1,.26.08l.05.07a24.81,24.81,0,0,0,1.59,2.18,27.58,27.58,0,0,0,3.21,3.19c1.34,1.19,3,2.47,4.58,4.1A20.29,20.29,0,0,1,57,50.8a4.18,4.18,0,0,1,.49,1.06,3,3,0,0,1,.06,1.34,4.17,4.17,0,0,1-1.17,2.07,7.73,7.73,0,0,1-.92.82,7.11,7.11,0,0,1-1,.7,3.34,3.34,0,0,1-1.42.4A3.69,3.69,0,0,1,51.6,57a7,7,0,0,1-2-1.21c-.56-.47-1-.9-1.5-1.35a53.23,53.23,0,0,1-4.71-5c-2.48-3-3.66-5.13-3.46-5.28s1.79,1.64,4.48,4.36c1.34,1.36,3,2.94,4.89,4.59a10.51,10.51,0,0,0,2.93,2.08,1.49,1.49,0,0,0,1.29-.1,6.49,6.49,0,0,0,.76-.52,7.45,7.45,0,0,0,.71-.64,2.31,2.31,0,0,0,.67-1.09,1.34,1.34,0,0,0-.27-1,21,21,0,0,0-2-2.57c-1.48-1.57-3-2.94-4.31-4.25a21.44,21.44,0,0,1-3-3.68,9.57,9.57,0,0,1-1.16-2.61l.44-.14C45.31,39,45.27,39.27,45.19,39.29Z" style="fill:#3d3c3c"/><path d="M22.25,6.16c.5.2.4,1.52-.22,3s-1.53,2.43-2,2.2-.38-1.56.23-3S21.75,6,22.25,6.16Z" style="fill:#3d3c3c"/><path d="M13.66,0c.23-.12.71.25,1.23,1a9.76,9.76,0,0,1,1.35,3.29,9.92,9.92,0,0,1,.18,3.56c-.06.29-.11.57-.16.85s0,.36-.1.47-.3.13-.57-.12a2.21,2.21,0,0,1-.54-1.15c-.21-.84-.42-1.95-.7-3.18C13.82,2.29,13.18.29,13.66,0Z" style="fill:#3d3c3c"/><path d="M0,13.77c.1-.53,2.58-.52,5.57-.26S11,14.19,11,14.73s-2.51,1-5.6.71S-.09,14.29,0,13.77Z" style="fill:#3d3c3c"/><path d="M9.11,25.16c-.45-.32,0-1.74.34-3.46a4.75,4.75,0,0,1,1.12-2.58,1.49,1.49,0,0,1,.9-.46c.25,0,.4.07.45.19s-.14.58-.22,1-.17,1.18-.35,2.18a5.4,5.4,0,0,1-1.12,2.48C9.77,25.1,9.33,25.3,9.11,25.16Z" style="fill:#3d3c3c"/><path d="M10.46,8.55c-.1.23-.7.25-1.54-.1a8.39,8.39,0,0,1-2.77-2,15.2,15.2,0,0,1-2-2.61c-.42-.71-.61-1.24-.43-1.43s.74,0,1.44.51A18.7,18.7,0,0,1,7.55,5.1L9.68,7.31C10.22,7.88,10.58,8.3,10.46,8.55Z" style="fill:#3d3c3c"/></g></g></g></svg>