<svg version="1.1" id="Layer_1" xmlns="http://www.w3.org/2000/svg" xmlns:xlink="http://www.w3.org/1999/xlink" x="0px" y="0px"
	 viewBox="0 0 512 512" style="enable-background:new 0 0 512 512;" xml:space="preserve">
  <style type="text/css">
	.st0{fill:#00A859;}
</style>
  <g transform="translate(0.000000,512.000000) scale(0.100000,-0.100000)">
    <path class="st0" d="M585,5050c-223-26-414-191-470-406c-14-52-15-290-15-2093c0-2247-4-2088,63-2216c43-81,146-182,227-222
		c135-67-20-63,2175-63c2206,0,2040-5,2176,66c87,46,177,136,223,223c71,136,67-23,64,2238l-3,2038l-26,72c-63,171-198,297-376,350
		c-54,17-191,18-2018,19C1527,5057,618,5054,585,5050z M4661,4899c134-64,226-186,249-329c5-36,10-154,10-262v-198H2565H210v228
		c0,240,6,286,52,375c45,89,150,174,256,208c55,17,139,18,2062,16l2005-2L4661,4899z M4920,2293c0-1128-4-1720-11-1762
		c-5-35-21-88-35-118c-33-69-119-161-182-196c-110-60,4-57-2132-57c-1704,0-1963,2-2013,15c-158,41-271,146-317,294
		c-20,62-20,99-20,1792v1729h2355h2355V2293z"/>
    <path class="st0" d="M700,4745c-59-19-113-65-139-118c-27-55-28-146-2-202c38-84,140-143,230-132c168,20,259,186,185,335
		c-30,61-74,98-140,118C777,4763,758,4763,700,4745z M829,4625c37-19,65-77,57-120c-20-106-153-135-213-46
		C603,4563,717,4684,829,4625z"/>
    <path class="st0" d="M1362,4745c-63-19-111-61-138-119c-75-162,30-330,206-330c166,0,267,143,218,308c-18,59-84,121-149,140
		C1437,4763,1419,4763,1362,4745z M1497,4620c36-21,60-82,50-122c-24-93-149-124-207-51c-63,81-11,193,90,193
		C1449,4640,1479,4631,1497,4620z"/>
    <path class="st0" d="M2022,4745c-131-41-198-190-141-315c25-56,53-86,102-112c58-29,128-34,183-13c99,38,153,115,154,219
		c0,108-62,191-164,221C2097,4763,2078,4763,2022,4745z M2150,4625c59-31,77-108,37-166c-81-120-264-16-202,115
		C2014,4636,2087,4658,2150,4625z"/>
    <path class="st0" d="M3848,3631c-120-35-131-43-126-94l4-40l-386-256l-385-257l-235-63c-129-34-243-65-253-67c-45-13-43-32,44-358
		c45-171,90-319,98-330c13-15,25-17,66-12l50,6l99-373c54-204,105-382,113-394c19-31,42-29,200,14c103,28,138,42,149,59
		c14,20,6,55-86,396c-55,206-100,382-100,391c0,28,48,22,531-58c248-41,454-75,457-75c4,0,15-18,24-40c20-49,36-51,175-14
		c114,30,143,46,143,77c0,27-387,1472-401,1499C4015,3667,3966,3664,3848,3631z M3950,3524c0-4,79-301,176-661
		c96-360,173-661,171-667c-6-15-85-38-91-27c-13,20-357,1325-352,1336c5,13,29,21,74,24C3940,3529,3950,3527,3950,3524z M3915,2802
		c82-303,146-554,143-557s-200,27-439,67l-434,73l-67,250c-37,138-68,256-68,262c0,20,703,485,711,470
		C3764,3361,3834,3106,3915,2802z M2951,2818c6-24,35-133,65-242c29-110,52-201,51-202c-3-3-339-92-361-96c-16-3-26,27-82,236
		c-36,131-63,241-60,243c5,5,344,100,363,102C2934,2859,2944,2841,2951,2818z M3074,1898c49-183,91-340,93-349c4-13-10-20-67-34
		c-40-10-75-14-79-9c-6,7-179,641-185,678c-1,8,104,42,139,45C2981,2230,3025,2080,3074,1898z"/>
    <path class="st0" d="M710,3620c-19-19-20-33-20-540s1-521,20-540c20-20,33-20,623-20c529,0,605,2,625,16l22,15v529
		c0,467-2,530-16,544s-84,16-625,16C743,3640,730,3640,710,3620z M1870,3085v-445h-530H810v445v445h530h530V3085z"/>
    <path class="st0" d="M706,2108c-21-30-20-44,4-68c20-20,33-20,793-20c737,0,775,1,790,18c19,21,21,45,7,73c-10,19-30,19-795,19H721
		L706,2108z"/>
    <path class="st0" d="M703,1604c-15-24-15-29-2-53l15-26l964-3c886-2,965-1,982,14c22,21,23,57,2,78c-14,14-116,16-979,16H720
		L703,1604z"/>
    <path class="st0" d="M703,1104c-15-24-15-29-2-53l15-26l751-3c673-2,753,0,767,14c21,21,20,57-2,77c-17,16-84,17-765,17H720
		L703,1104z"/>
    <path class="st0" d="M2766,1108c-14-19-16-64-16-289c0-245,1-267,18-282c17-16,89-17,828-17c617,0,813,3,822,12s12,87,12,289
		c0,239-2,280-16,293c-14,14-102,16-824,16h-809L2766,1108z M4320,825V630h-730h-730v188c0,104,3,192,7,195c3,4,332,7,730,7h723V825
		z"/>
    <path class="st0" d="M710,610c-24-24-25-38-4-68l15-22h754c736,0,755,0,765,19c15,29,12,56-8,74c-17,16-84,17-760,17
		C743,630,730,630,710,610z"/>
  </g>
</svg>
