<svg version="1.1" id="Layer_1" xmlns="http://www.w3.org/2000/svg" xmlns:xlink="http://www.w3.org/1999/xlink" x="0px" y="0px"
	 viewBox="0 0 512 512" style="enable-background:new 0 0 512 512;" xml:space="preserve">
<style type="text/css">
	.st0{fill:#00A859;}
</style>
<g transform="translate(0.000000,512.000000) scale(0.100000,-0.100000)">
	<path class="st0" d="M681,4784c-169-45-301-180-346-351c-13-50-15-296-15-1873c0-1999-4-1868,61-1991c62-115,197-214,328-239
		c74-14,3628-14,3702,0c184,35,345,196,379,379c14,75,14,3629,0,3702c-25,131-124,266-239,328c-123,65,9,61-1996,60
		C999,4799,727,4797,681,4784z M4456,4608c76-40,107-70,145-140l34-63l3-402l3-403H2560H479l3,403l3,402l27,51c15,28,38,64,52,81
		c27,32,113,82,160,94c17,4,852,6,1856,6l1825-2L4456,4608z M4638,2078l-3-1363l-34-63c-38-70-69-100-145-140l-51-27H2560H715
		l-51,27c-76,40-107,70-145,140l-34,63l-3,1363l-2,1362h2080h2080L4638,2078z"/>
	<path class="st0" d="M2650,4330c-57-12-87-27-130-66c-65-59-85-105-85-199c0-96,21-142,89-202c104-91,264-86,358,11
		c58,59,73,100,73,191s-15,132-73,191C2824,4316,2729,4346,2650,4330z M2778,4135c29-34,30-102,1-139c-62-78-189-31-189,70
		S2711,4211,2778,4135z"/>
	<path class="st0" d="M3347,4329c-161-37-254-198-201-352c48-141,221-219,356-159c56,24,114,82,139,136c23,51,25,162,4,212
		C3596,4283,3463,4356,3347,4329z M3471,4144c71-64,22-186-75-186c-87,0-134,92-86,169C3342,4179,3423,4188,3471,4144z"/>
	<path class="st0" d="M4053,4329c-125-23-223-139-223-264c0-194,211-326,385-240c198,96,199,386,2,479
		C4156,4333,4110,4340,4053,4329z M4160,4151c94-66,37-204-80-192c-71,8-114,102-73,161C4047,4179,4104,4190,4160,4151z"/>
	<path class="st0" d="M895,3206c-51-22-97-68-121-121l-24-50v-619c0-441,3-630,12-657c15-51,69-114,122-142l41-22h820h820l41,22
		c52,28,111,95,124,142c6,22,10,277,10,656v620l-24,50c-25,54-71,100-123,122C2546,3226,940,3226,895,3206z M2558,3037l22-23l-2-541
		l-3-541l-144,245c-93,157-157,255-179,273c-78,64-202,58-269-12c-17-18-64-88-103-156c-40-68-75-120-78-117s-67,110-142,238
		c-160,270-178,289-283,295c-50,3-71-1-107-20c-53-27-71-52-239-338l-121-205v436c0,426,0,437,21,463l20,26h793h793L2558,3037z
		 M1622,2150c126-212,228-388,228-392c0-13-866-10-893,3c-14,6-30,22-36,35c-9,21,11,59,186,356c239,406,228,390,262,386
		C1392,2535,1422,2489,1622,2150z M2157,2318c19-22,333-552,333-563c0-3-100-5-223-5h-223l-73,124l-73,125l93,156
		C2109,2356,2116,2363,2157,2318z"/>
	<path class="st0" d="M3226,2939c-37-29-37-89,0-118c26-21,36-21,550-21c367,0,530,3,548,11c55,26,55,112,0,138c-18,8-181,11-548,11
		C3262,2960,3252,2960,3226,2939z"/>
	<path class="st0" d="M3356,2209c-35-27-36-86-3-117c23-22,26-22,429-22c451,0,441-2,454,67c5,27,1,37-24,63l-30,30h-400
		C3393,2230,3382,2229,3356,2209z"/>
	<path class="st0" d="M3356,1659c-37-29-37-89,0-118c26-20,37-21,428-21c390,0,403,1,424,20c40,38,37,93-7,127c-12,9-118,12-417,13
		C3393,1680,3382,1679,3356,1659z"/>
	<path class="st0" d="M815,1015c-16-15-25-36-25-55s9-40,25-55l24-25h856h856l24,25c16,15,25,36,25,55s-9,40-25,55l-24,25h-856H839
		L815,1015z"/>
	<path class="st0" d="M2919,1027c-44-34-47-89-7-127c21-20,32-20,740-20h719l24,25c33,32,33,78,0,110l-24,25h-718
		C3104,1039,2931,1036,2919,1027z"/>
</g>
</svg>
