<svg xmlns="http://www.w3.org/2000/svg" data-name="Layer 1" viewBox="0 0 512 512">
  <path fill="#63ea86" d="M187.773 504.499H7.41v-36.422a53.55 53.55 0 0 1 43.53-52.604l46.652-8.886 46.652 8.886a53.55 53.55 0 0 1 43.53 52.604Z"/>
  <path fill="#3ce568" d="m144.243 415.473-46.652-8.886-15 2.857 31.652 6.029a53.55 53.55 0 0 1 43.53 52.604V504.5h30v-36.422a53.55 53.55 0 0 0-43.53-52.604Z"/>
  <rect width="407" height="222.709" x="52.409" y="7.499" fill="#f2f2f2" rx="30"/>
  <path fill="#dedede" d="M414.409 185.208h-317a7.5 7.5 0 0 1 0-15h317a7.5 7.5 0 0 1 0 15Z"/>
  <circle cx="198.909" cy="177.708" r="22.5" fill="#676e87"/>
  <path fill="#ff8e66" d="M504.59 468.081v36.42H324.228v-36.42a53.552 53.552 0 0 1 43.53-52.61l46.65-8.88 46.65 8.88a53.545 53.545 0 0 1 43.53 52.61Z"/>
  <path fill="#ff7c4e" d="m461.06 415.473-46.651-8.886-15 2.857 31.651 6.029a53.55 53.55 0 0 1 43.531 52.604V504.5h30v-36.422a53.55 53.55 0 0 0-43.53-52.604zm-99.97 52.608v36.42h-36.861v-36.42a53.493 53.493 0 0 1 18.43-40.43 53.493 53.493 0 0 1 18.43 40.43z"/>
  <path fill="#f66" d="m239.071 53.011 37.014 24.786a3 3 0 0 1 0 4.986l-37.014 24.786a3 3 0 0 1-4.669-2.493V55.504a3 3 0 0 1 4.67-2.493Z"/>
  <path fill="#ff4e4e" d="m276.085 77.797-37.014-24.786a3 3 0 0 0-4.669 2.493v4.425l26.683 17.868a3 3 0 0 1 0 4.986l-26.683 17.868v4.425a3 3 0 0 0 4.669 2.493l37.014-24.786a3 3 0 0 0 0-4.986Z"/>
  <path fill="#66c1ff" d="M346.091 504.499H165.727v-36.422a53.55 53.55 0 0 1 43.53-52.604l46.652-8.886 46.651 8.886a53.55 53.55 0 0 1 43.531 52.604Z"/>
  <path fill="#4eb7ff" d="m302.56 415.473-46.651-8.886-15 2.857 31.651 6.029a53.55 53.55 0 0 1 43.531 52.604V504.5h30v-36.422a53.55 53.55 0 0 0-43.53-52.604Z"/>
  <path fill="#676e87" d="M50.353 350.787v-51.902a14.987 14.987 0 0 1 14.987-14.987h79.49v66.915Z"/>
  <path fill="#595f74" d="M114.829 283.898v66.907l30 .008v-66.915h-30z"/>
  <path fill="#ffcd85" d="M50.353 335.8h94.476v32.239a47.238 47.238 0 0 1-47.238 47.238 47.238 47.238 0 0 1-47.238-47.238V335.8Z"/>
  <path fill="#ffc166" d="M114.83 335.8v32.238a47.248 47.248 0 0 1-32.239 44.793 47.161 47.161 0 0 0 15 2.446 47.238 47.238 0 0 0 47.238-47.239V335.8Z"/>
  <path fill="#676e87" d="M208.67 350.787v-51.902a14.987 14.987 0 0 1 14.987-14.987h79.49v66.915Z"/>
  <path fill="#595f74" d="M273.147 283.898v66.907l30 .008v-66.915h-30z"/>
  <path fill="#ffcd85" d="M208.67 335.8h94.477v32.239a47.238 47.238 0 0 1-47.238 47.238 47.238 47.238 0 0 1-47.238-47.238V335.8Z"/>
  <path fill="#ffc166" d="M273.147 335.8v32.238a47.248 47.248 0 0 1-32.238 44.793 47.16 47.16 0 0 0 15 2.446 47.238 47.238 0 0 0 47.238-47.239V335.8Z"/>
  <path fill="#676e87" d="M367.17 350.787v-51.902a14.987 14.987 0 0 1 14.987-14.987h79.49v66.915Z"/>
  <path fill="#595f74" d="M431.647 283.898v66.907l30 .008v-66.915h-30z"/>
  <path fill="#ffcd85" d="M367.17 335.8h94.477v32.239a47.238 47.238 0 0 1-47.238 47.238 47.238 47.238 0 0 1-47.238-47.238V335.8Z"/>
  <path fill="#ffc166" d="M431.647 335.8v32.238a47.248 47.248 0 0 1-32.238 44.793 47.16 47.16 0 0 0 15 2.446 47.238 47.238 0 0 0 47.238-47.239V335.8Z"/>
</svg>
