<svg version="1.1" id="Layer_1" xmlns="http://www.w3.org/2000/svg" xmlns:xlink="http://www.w3.org/1999/xlink" x="0px" y="0px"
	 viewBox="0 0 512 512" style="enable-background:new 0 0 512 512;" xml:space="preserve">
<style type="text/css">
	.st0{fill:#00A859;}
</style>
<g transform="translate(0.000000,512.000000) scale(0.100000,-0.100000)">
	<path class="st0" d="M259,5111c-80-16-182-101-231-193l-23-43l-3-602l-4-602l33-61c39-73,97-129,178-169l60-31h499h499l71,36
		c108,53,171,138,193,260c6,34,9,263,7,597l-3,542l-24,60c-30,76-115,163-186,191c-46,17-86,19-540,20C516,5117,279,5115,259,5111z
		 M1276,4921c24-13,51-40,64-63c22-39,23-49,27-417c2-207,1-460-4-562c-8-184-9-187-37-224c-55-71-46-70-561-70c-456,1-460,1-502,23
		c-28,15-50,37-65,65l-23,42v555v555l23,36c52,85,68,87,642,85l395-1L1276,4921z"/>
	<path class="st0" d="M776,4597c-94-95-200-169-323-228c-99-47-119-78-110-161c17-137,102-229,193-208c67,16,71,14,106-52
		c30-58,37-65,85-82c81-29,87-23,79,84l-8,90h152h152l33,33c77,77,73,229-10,404c-38,81-113,169-162,189C892,4697,867,4687,776,4597
		z M961,4597c103-68,192-305,160-424c-21-79-70-95-131-45l-34,29l17,35c21,44,21,80,2,145c-20,66-68,131-111,149c-38,16-38,16-24,63
		C860,4621,901,4637,961,4597z M796,4331c19-68,46-121,90-183l34-48h-63c-72,0-203-15-297-34c-77-16-90-11-125,49
		c-27,45-43,141-28,160c4,6,37,24,73,40c60,28,204,118,260,164l25,20l7-57C776,4411,787,4361,796,4331z M893,4372
		c29-55,41-110,29-142c-7-19-12-13-41,50C822,4407,832,4486,893,4372z M740,3996c0-19,3-41,6-50c13-35-27-14-46,24
		c-27,52-25,60,10,60C737,4030,740,4027,740,3996z"/>
	<path class="st0" d="M2035,5106c-92-29-163-93-211-188l-34-68v-585v-586l30-60c43-84,91-134,168-171l67-33l465-3c325-3,483,0,525,8
		c117,23,197,85,255,199l30,60v586v586l-31,60c-39,78-94,138-161,175l-53,29l-505,2C2189,5119,2066,5116,2035,5106z M3066,4921
		c66-37,81-75,89-225c4-70,4-326,0-569l-8-441l-48-48l-48-48h-486h-486l-43,30c-24,16-47,37-51,47c-13,29-27,627-22,900
		c5,236,7,255,27,291c28,50,71,75,140,83c30,4,244,6,475,5l420-1L3066,4921z"/>
	<path class="st0" d="M2645,4667c-12-7-43-36-70-66c-71-77-189-162-308-221c-116-59-131-77-130-159c2-67,50-170,95-202
		c33-24,59-27,128-15l45,8l31-64c31-63,33-65,92-82c33-10,65-15,72-11c11,7,10,36-6,148l-6,37h155c176,0,191,5,222,82
		c61,149-40,438-184,530C2733,4682,2680,4688,2645,4667z M2779,4575c53-49,113-157,130-235c29-127,2-240-57-240c-22,0-102,42-102,54
		c0,2,7,17,15,32c19,37,19,108-1,166c-18,53-76,125-112,139c-22,8-24,14-19,45C2649,4633,2702,4647,2779,4575z M2570,4454
		c0-93,54-240,114-311c14-17,26-34,26-37s-30-6-67-6c-68,0-231-20-311-38c-36-9-46-7-68,11c-37,29-64,93-64,155v53l68,30
		c69,31,248,146,271,173C2561,4511,2570,4502,2570,4454z M2669,4404c32-40,53-106,49-155l-4-44l-36,75
		C2621,4396,2615,4472,2669,4404z M2530,4018c0-7,3-30,6-50c9-54-16-50-44,7c-12,25-22,48-22,50c0,3,14,5,30,5
		C2517,4030,2530,4025,2530,4018z"/>
	<path class="st0" d="M3850,5111c-86-18-179-88-223-169c-44-82-49-158-45-738c3-522,3-530,25-577c31-68,75-120,131-155
		c92-60,117-62,640-62h474l69,36c81,43,149,113,175,182c17,43,19,94,22,639l3,592l-26,52c-37,71-104,140-174,178l-59,31l-488-1
		C4105,5118,3869,5115,3850,5111z M4863,4922c20-13,46-40,59-60l23-37v-555v-555l-23-42c-15-28-37-50-65-65c-42-22-46-22-507-23
		c-520,0-500-3-557,72c-26,34-28,43-35,177c-9,185-10,673-1,854c5,123,9,148,27,174c31,46,71,71,124,79c26,4,243,7,483,5
		C4823,4944,4826,4944,4863,4922z"/>
	<path class="st0" d="M4441,4673c-8-3-49-41-90-83c-90-91-169-147-306-215c-96-49-101-52-114-95c-13-40-12-52,3-110
		c27-106,83-173,144-173c15,0,47,3,72,7l45,8l31-64c29-58,35-64,82-80c87-31,93-26,81,67c-15,117-31,105,145,105c149,0,154,1,180,25
		c39,36,56,85,56,163C4770,4475,4582,4729,4441,4673z M4529,4606c90-47,181-235,181-376c0-68-25-124-58-128c-29-4-75,14-97,38
		c-15,17-15,21-1,49c9,16,16,48,16,70c0,88-76,220-134,235c-23,6-23,8-14,48C4438,4616,4471,4635,4529,4606z M4386,4315
		c21-71,46-118,99-191c15-21,15-21-102-28c-65-3-161-15-213-25l-95-19l-23,21c-46,43-82,141-67,186c4,13,37,36,94,64
		c85,43,175,100,236,151l30,24l8-51C4358,4418,4372,4359,4386,4315z M4460,4401c40-57,66-170,41-185c-14-9-81,156-81,202
		C4420,4439,4438,4431,4460,4401z M4320,4011c0-10,3-33,6-50c10-51-23-40-46,15c-11,25-20,48-20,50s14,4,30,4
		C4313,4030,4320,4025,4320,4011z"/>
	<path class="st0" d="M337,3226c-119-43-192-187-157-311c15-55,83-134,137-161c35-18,67-19,443-19c368,0,409,2,452,18
		c88,34,148,133,148,244c0,93-40,158-130,211l-45,27l-405,2C459,3239,367,3237,337,3226z M1114,3061c56-9,76-30,76-76
		c0-77-38-84-481-85H402l-31,35c-36,41-36,46-16,85c16,31,31,37,100,43C538,3070,1067,3068,1114,3061z"/>
	<path class="st0" d="M2153,3231c-43-7-56-15-111-65c-100-92-106-242-12-348c75-85,59-83,530-83c409,0,416,0,456,22
		c79,42,144,145,144,228c0,60-31,127-84,181c-42,43-60,54-104,63C2914,3241,2226,3243,2153,3231z M2952,3043c34-33,38-83,8-113
		c-19-19-33-20-400-20s-381,1-400,20c-29,29-26,78,7,112l27,28h365h365L2952,3043z"/>
	<path class="st0" d="M3940,3231c-73-23-138-79-164-143c-40-94-7-233,70-297c73-60,100-63,532-59c437,3,426,2,501,83
		c40,43,71,120,71,174c0,81-55,176-128,218l-47,28l-405,2C4147,3238,3954,3235,3940,3231z M4752,3042c31-30,28-76-7-112l-29-30h-136
		c-75,0-246,3-379,7l-243,6l-15,33c-15,31-13,64,6,93c16,25,89,30,439,27C4723,3064,4731,3063,4752,3042z"/>
	<path class="st0" d="M233,2371c-82-28-161-100-209-191c-18-33-19-72-22-637l-4-602l33-61c39-74,97-129,180-171l63-31l505,4
		c499,4,507,5,552,27c66,31,119,80,157,144c47,77,51,145,52,756v504l-35,72c-40,83-87,131-174,175l-60,30H778
		C331,2389,280,2388,233,2371z M1267,2197c17-9,45-34,62-54l32-38l-3-570c-3-631,0-604-70-650l-40-26l-471-2l-472-2l-41,24
		c-24,13-52,41-65,65l-24,41v555v555l23,36c40,65,62,73,207,80c72,3,288,6,480,5C1192,2214,1239,2212,1267,2197z"/>
	<path class="st0" d="M857,2029c-10-6-52-45-95-88c-90-91-159-139-298-209c-86-43-103-56-113-83c-27-79,1-180,71-253
		c46-48,48-49,93-43c25,4,56,9,70,13c22,5,27,0,57-60c31-63,34-66,89-85c31-10,62-15,69-11c10,6,11,30,6,100l-8,92l150-3
		c169-4,186,2,217,68c74,153-43,477-198,552C920,2042,885,2045,857,2029z M951,1959c99-57,191-271,174-407c-7-56-38-102-68-102
		c-11,0-75,37-95,55c-2,2,4,25,14,53c15,43,16,57,6,103c-19,84-66,158-113,178c-21,9-39,21-39,26c0,31,24,86,43,100
		C901,1984,905,1984,951,1959z M791,1700c16-60,63-157,99-201l29-36l-102-7c-56-4-153-16-216-27l-114-19l-23,21
		c-34,32-66,114-62,161c3,41,3,41,93,87c95,48,177,100,235,149l35,30l7-57C776,1770,785,1725,791,1700z M916,1675c9-33,13-68,9-83
		c-6-26-7-26-21-8c-21,30-55,126-61,171l-5,40l31-32C886,1744,906,1706,916,1675z M734,1378c3-7,6-32,9-54c4-36,2-41-13-37
		c-24,6-55,84-37,95C711,1394,730,1392,734,1378z"/>
	<path class="st0" d="M2075,2381c-109-16-195-82-251-193l-34-68v-585V949l30-60c42-83,89-131,169-173l69-36h501h502l60,30
		c83,42,131,89,173,169l36,69v586v586l-34,69c-41,80-114,151-184,177c-42,16-93,18-517,20C2337,2387,2103,2385,2075,2381z
		 M3067,2192c29-15,50-36,65-65c22-42,22-44,22-592c1-599,3-578-56-631c-54-50-43-49-538-49c-420,0-468,2-496,17
		c-39,21-82,71-92,106c-4,15-7,270-7,567v540l23,42c27,51,67,75,142,84c30,4,244,6,475,5C3019,2215,3026,2214,3067,2192z"/>
	<path class="st0" d="M2660,2033c-8-3-51-41-95-85c-90-90-206-171-319-223c-90-42-109-66-108-138c1-94,50-190,114-223
		c25-13,40-14,91-5c33,6,62,10,63,8c1-1,16-30,33-64c29-59,34-63,85-79c75-24,90-16,82,41c-3,25-9,66-12,91l-7,46l156-4l156-3l30,29
		c40,39,55,86,53,171c-2,128-65,283-148,368C2769,2029,2711,2052,2660,2033z M2739,1966c97-51,187-246,179-392c-3-64-7-78-30-100
		c-31-32-57-28-107,14c-34,28-34,28-16,55c25,39,16,135-18,203c-27,53-77,104-103,104c-27,0-13,80,21,113
		C2685,1984,2703,1984,2739,1966z M2573,1782c7-83,45-187,96-262l39-56l-137-13c-75-6-167-18-205-26c-38-9-78-13-88-9
		c-10,3-32,29-48,57c-23,40-30,64-30,108v55l72,35c80,38,235,136,257,162C2555,1866,2567,1852,2573,1782z M2686,1734
		c27-46,46-164,27-164c-18,0-83,163-83,207C2630,1801,2661,1777,2686,1734z M2534,1353c3-21,6-46,6-56c0-31-35-3-52,42
		c-15,37-15,40,1,44C2523,1392,2528,1389,2534,1353z"/>
	<path class="st0" d="M3850,2381c-86-18-179-88-223-169c-44-82-49-158-45-738l3-529l27-57c33-70,106-145,173-178l50-24l506-4l505-4
		l63,31c83,42,141,97,180,171l33,61l-4,602l-3,602l-29,53c-36,64-106,132-174,166l-51,26l-488-1C4105,2388,3869,2385,3850,2381z
		 M4863,2191c20-12,46-39,59-59l23-37v-555V985l-24-41c-13-24-41-52-65-65l-41-24l-472,2l-471,2l-40,26c-21,14-45,38-52,53
		c-22,46-39,882-22,1089c10,115,55,170,150,184c26,4,243,7,483,5C4822,2214,4827,2213,4863,2191z"/>
	<path class="st0" d="M4450,2033c-8-3-55-45-105-92c-102-97-170-145-300-211c-71-36-94-53-108-80c-34-65,1-195,69-261
		c33-31,40-34,92-32c31,2,66,4,76,5c15,2,27-11,48-54c28-58,40-69,108-93c35-12,42-12,55,2c9,8,14,23,11,32c-2,9-7,47-11,84l-7,69
		l149-4c131-3,152-1,177,15c114,75,75,375-71,537C4570,2021,4501,2052,4450,2033z M4556,1945c132-101,203-419,108-482
		c-28-18-68-7-103,31c-20,21-20,25-6,52c44,85-22,263-111,300c-18,8-32,20-30,27c3,6,7,24,10,40C4440,1982,4491,1994,4556,1945z
		 M4360,1778c15-103,41-173,94-252l42-63l-136-11c-74-7-168-19-207-28c-83-17-100-12-131,38c-26,42-46,121-38,151c4,18,27,35,92,66
		c87,41,217,126,249,161c10,11,19,20,20,20C4347,1860,4353,1823,4360,1778z M4482,1717c22-44,35-131,21-140s-70,116-79,173l-7,45
		l23-20C4452,1764,4471,1738,4482,1717z M4320,1373c0-10,3-35,6-56c6-32,4-37-10-31c-14,5-56,71-56,88c0,5,26,13,48,15
		C4314,1389,4320,1382,4320,1373z"/>
	<path class="st0" d="M354,501c-99-24-184-136-184-242c0-54,31-131,71-174C316,4,305,5,742,2c326-3,396-1,440,12
		c110,32,178,125,178,244c0,102-37,165-130,220l-45,27l-400,2C565,508,371,505,354,501z M1164,309c30-35,32-58,12-98l-15-28l-242-6
		c-133-4-304-7-380-7H402l-31,35c-38,43-38,50-6,98l26,37h373h374L1164,309z"/>
	<path class="st0" d="M2150,501c-51-11-73-25-118-76c-93-106-93-234-2-338c75-84,60-82,530-82c386,0,418,1,453,19
		c77,38,147,148,147,231c0,80-60,178-138,227c-37,23-37,23-437,25C2365,508,2169,505,2150,501z M2952,313c19-18,28-37,28-58
		s-9-40-28-58l-28-27h-364h-364l-28,27c-37,35-37,77-1,115l27,28h365h365L2952,313z"/>
	<path class="st0" d="M3940,501c-73-23-138-79-164-143c-40-94-7-233,70-297c73-60,100-63,532-59c437,3,426,2,501,83
		c39,42,71,120,71,172c0,88-61,187-137,224c-48,24-49,24-448,26C4145,508,3954,505,3940,501z M4749,305c17-20,31-42,31-50
		s-14-30-31-50l-31-35h-137c-76,0-247,3-380,7l-242,6l-15,28c-20,40-18,63,12,98l26,31h368h368L4749,305z"/>
</g>
</svg>
