<svg version="1.1" id="Layer_1" xmlns="http://www.w3.org/2000/svg" xmlns:xlink="http://www.w3.org/1999/xlink" x="0px" y="0px"
	 viewBox="0 0 512 512" style="enable-background:new 0 0 512 512;" xml:space="preserve">
<style type="text/css">
	.st0{fill:#00A859;}
</style>
<g transform="translate(0.000000,512.000000) scale(0.100000,-0.100000)">
	<path class="st0" d="M471,5101c-11-11-23-35-26-53s-4-1004-3-2191l3-2159l24-19c20-17,40-19,162-19h139V521c0-191-6-185,179-189
		l141-4V189c0-135,1-141,25-164l24-25h1744c1728,0,1743,0,1765,20c11,11,24,35,27,52c3,18,5,214,3,435c-3,399-3,403-25,424
		c-27,27-75,29-103,4c-19-18-20-30-20-402V150H2885H1240v90v90l1536,2l1536,3l19,24c18,22,19,48,19,691v669l-26,20
		c-33,26-65,27-95,2l-24-19l-3-621l-2-621H2560H920v90v90h1534h1535l20,26c21,27,21,32,21,841v814l-25,24c-31,32-69,32-100,0l-25-24
		v-766V810H2235H590v2080v2080h1645h1645V3805V2639l25-24c31-32,69-32,100,0l25,24v1006v1005h85h85l2-1326l3-1326l24-19
		c30-25,62-24,95,2l26,20v1155v1154h90h90V2755c0-1542,0-1555,20-1575c25-25,71-26,101-1l24,19v1612v1612l-24,19
		c-20,17-40,19-162,19h-139v144c0,197,7,190-179,194l-141,4v134c0,130-1,136-25,159l-24,25H2235C520,5120,490,5120,471,5101z"/>
	<path class="st0" d="M873,4730c-12-5-26-18-32-29c-8-13-11-250-11-741v-721l25-24l24-25h521c562,0,570,1,584,52
		c12,45,7,1425-5,1452c-7,14-25,30-42,36C1900,4742,905,4743,873,4730z M1840,3965v-625h-430H980v625v625h430h430V3965z"/>
	<path class="st0" d="M2254,4730c-49-20-54-42-54-237c0-194,6-223,47-242c17-8,221-11,683-11h659l28,24l28,24v201
		c0,195-1,201-23,223l-23,23l-662,2C2573,4738,2265,4735,2254,4730z M3495,4490v-95l-572-3l-573-2v93c0,52,3,97,7,100
		c3,4,261,6,572,5l566-3V4490z"/>
	<path class="st0" d="M2231,4013c-11-10-24-32-27-50c-5-26-1-37,19-57l26-26h676c662,0,675,0,695,20c30,30,27,83-6,109
		c-26,21-34,21-694,21C2299,4030,2251,4029,2231,4013z"/>
	<path class="st0" d="M2254,3700c-26-10-54-48-54-71c0-9,9-28,21-43l20-26h683c649,0,684,1,699,18c24,27,22,85-4,108
		c-20,18-48,19-683,21C2573,3708,2265,3705,2254,3700z"/>
	<path class="st0" d="M2225,3315c-14-13-25-31-25-39c0-28,22-64,47-75c17-8,221-11,682-11c651,0,659,0,685,21c33,26,36,79,6,109
		c-20,20-33,20-695,20h-676L2225,3315z"/>
	<path class="st0" d="M855,2955c-32-31-33-74-2-103c23-21,31-22,253-22c228,0,231,0,252,23c31,33,29,80-4,106c-25,20-39,21-251,21
		H879L855,2955z"/>
	<path class="st0" d="M1626,2959c-33-26-36-79-6-109c20-20,33-20,1000-20s980,0,1000,20c30,30,27,83-6,109c-27,21-31,21-994,21
		S1653,2980,1626,2959z"/>
	<path class="st0" d="M850,2590c-38-38-22-100,31-119c42-15,406-15,448,0c53,19,69,81,31,119c-19,19-33,20-255,20S869,2609,850,2590
		z"/>
	<path class="st0" d="M1616,2588c-23-32-20-81,5-104c20-18,51-19,999-19s979,1,999,19c27,25,29,86,3,109c-17,16-101,17-1005,17h-986
		L1616,2588z"/>
	<path class="st0" d="M852,2227c-29-31-28-72,3-102l24-25h224c212,0,226,1,251,21c34,27,36,77,3,107c-23,21-31,22-253,22
		C876,2250,873,2250,852,2227z"/>
	<path class="st0" d="M1622,2230c-32-30-30-82,4-109c27-21,31-21,994-21s967,0,994,21c33,26,36,79,6,109c-20,20-33,20-998,20
		C1651,2250,1644,2250,1622,2230z"/>
	<path class="st0" d="M873,1880c-46-19-57-83-20-118c23-21,31-22,253-22c228,0,231,0,252,23c29,31,28,72-3,102l-24,25l-218-1
		C993,1889,885,1885,873,1880z"/>
	<path class="st0" d="M1626,1869c-33-26-36-79-6-109c20-20,33-20,1000-20s980,0,1000,20c30,30,27,83-6,109c-27,21-31,21-994,21
		S1653,1890,1626,1869z"/>
	<path class="st0" d="M850,1500c-25-25-26-71-1-101c19-24,19-24,256-24s237,0,256,24c25,30,24,76-1,101c-19,19-33,20-255,20
		S869,1519,850,1500z"/>
	<path class="st0" d="M1620,1500c-27-27-26-81,1-106c20-18,51-19,999-19s979,1,999,19c14,13,21,31,21,57c0,74,71,69-1022,69
		C1653,1520,1640,1520,1620,1500z"/>
</g>
</svg>
