<svg xmlns="http://www.w3.org/2000/svg" fill="none" viewBox="-0.855 -0.855 24 24" id="Receipt-Subtract--Streamline-Core" height="24" width="24"><desc>Receipt Subtract Streamline Icon: https://streamlinehq.com</desc><g id="receipt-subtract--shop-shopping-pay-payment-store-cash-bill-receipt-subtract-minus-remove"><path id="Vector" fill="#ffffff" d="M16.7175 3.184285714285714v5.5725h4.776428571428571V3.184285714285714a2.3882142857142856 2.3882142857142856 0 1 0 -4.776428571428571 0Z" stroke-width="1.71"></path><path id="Vector_2" fill="#d7e0ff" d="M3.9803571428571427 0.7960714285714285H19.105714285714285A2.3882142857142856 2.3882142857142856 0 0 0 16.7175 3.184285714285714v18.309642857142855L12.737142857142857 19.105714285714285l-3.9803571428571427 2.3882142857142856L4.776428571428571 19.105714285714285 0.7960714285714285 21.49392857142857v-17.513571428571428a3.184285714285714 3.184285714285714 0 0 1 3.184285714285714 -3.184285714285714Z" stroke-width="1.71"></path><path id="Vector_3" stroke="#4147d5" stroke-linecap="round" stroke-linejoin="round" d="M19.105714285714285 0.7960714285714285H3.9803571428571427a3.184285714285714 3.184285714285714 0 0 0 -3.184285714285714 3.184285714285714v17.513571428571428L4.776428571428571 19.105714285714285l3.9803571428571427 2.3882142857142856L12.737142857142857 19.105714285714285l3.9803571428571427 2.3882142857142856V3.184285714285714A2.3882142857142856 2.3882142857142856 0 0 1 19.105714285714285 0.7960714285714285Zm0 0A2.3882142857142856 2.3882142857142856 0 0 1 21.49392857142857 3.184285714285714v5.5725h-4.776428571428571" stroke-width="1.71"></path><path id="Vector_4" stroke="#4147d5" stroke-linecap="round" stroke-linejoin="round" d="M12.737142857142857 10.348928571428571H4.776428571428571" stroke-width="1.71"></path></g></svg>