<svg style="width: 24px;height: 16px;" version="1.1" id="Layer_1" xmlns="http://www.w3.org/2000/svg" xmlns:xlink="http://www.w3.org/1999/xlink" x="0px" y="0px" width="48px" height="32px" viewBox="0 0 48 32" enable-background="new 0 0 48 32" xml:space="preserve">
  <rect x="6" fill="#FFFFFF" width="36" height="32"></rect>
  <path fill="#777777" d="M41,1v30H7V1H41 M42,0H6v32h36V0L42,0z"></path>
  <path fill="#777777" d="M19.6,26.5h-4.1V10.3L11.5,12V8.8l7.7-3.2h0.5V26.5z"></path>
  <path fill="#777777" d="M36.5,26.5H22.1v-2.7l6.6-7.1c1-1.1,1.5-1.9,1.8-2.6c0.4-0.6,0.5-1.5,0.5-2.1c0-0.8-0.2-1.6-0.5-2.1
	c-0.4-0.5-1-0.6-1.7-0.6c-0.6,0-1.3,0.4-1.8,0.8c-0.4,0.4-0.6,1.3-0.6,2.4h-4.5c0-1.3,0.4-2.4,1-3.6c0.6-1,1.5-1.7,2.6-2.4
	c1-0.6,2.3-1,3.8-1c2.1,0,3.9,0.5,4.9,1.6c1.1,1,1.8,2.4,1.8,4.4c0,1.3-0.4,2.3-1,3.6c-0.6,1.3-1.8,2.6-3.8,4.4L28,23.3h8.5V26.5z"></path>
</svg>
