<svg version="1.1" id="Layer_1" xmlns="http://www.w3.org/2000/svg" xmlns:xlink="http://www.w3.org/1999/xlink" x="0px" y="0px"
	 viewBox="0 0 512 512" style="enable-background:new 0 0 512 512;" xml:space="preserve">
  <style type="text/css">
	.st0{fill:#FFF;}
</style>
  <g transform="translate(0.000000,512.000000) scale(0.100000,-0.100000)">
    <path class="st0" d="M1000,4357c-49-16-123-93-138-143c-17-59-17-929,0-988c17-57,90-128,148-144c34-10,219-12,785-10
		c814,3,763-1,829,65c66,65,66,58,66,583s0,518-66,583c-66,66-14,62-839,64C1254,4368,1025,4365,1000,4357z M2525,4205
		c25-24,25-25,25-226v-201l-57,50c-32,27-67,60-78,72c-39,44-117,100-140,100c-16,0-107-76-296-245l-274-244l-101,99
		c-56,55-109,100-120,100c-15,0-389-204-471-258l-23-14v367v367l29,29l29,29h727h726L2525,4205z M2420,3705l130-119v-163
		c0-161,0-164-25-188l-24-25h-726h-727l-30,31c-18,17-27,34-22,39s92,56,194,113c102,58,205,116,230,131l45,25l101-99
		c88-87,105-100,135-100c31,0,64,26,303,240c148,133,273,239,277,238C2286,3826,2348,3771,2420,3705z"/>
    <path class="st0" d="M2932,4347c-28-30-28-68,1-95l23-22h635h636l21,23c28,30,28,68-1,95l-23,22h-635h-636L2932,4347z"/>
    <path class="st0" d="M2932,3767c-28-30-28-68,1-95l23-22h635h636l21,23c28,30,28,68-1,95l-23,22h-635h-636L2932,3767z"/>
    <path class="st0" d="M2932,3187c-28-30-28-68,1-95l23-22h635h636l21,23c28,30,28,68-1,95l-23,22h-635h-636L2932,3187z"/>
    <path class="st0" d="M872,2607c-28-30-28-68,1-95l23-22h1665h1666l21,23c28,30,28,68-1,95l-23,22H2559H893L872,2607z"/>
    <path class="st0" d="M872,2027c-28-30-28-68,1-95l23-22h1665h1666l21,23c28,30,28,68-1,95l-23,22H2559H893L872,2027z"/>
    <path class="st0" d="M872,1447c-28-30-28-68,1-95l23-22h1665h1666l21,23c28,30,28,68-1,95l-23,22H2559H893L872,1447z"/>
    <path class="st0" d="M872,867c-28-30-28-68,1-95l23-22h1665h1666l21,23c28,30,28,68-1,95l-23,22H2559H893L872,867z"/>
  </g>
</svg>
