<svg xmlns="http://www.w3.org/2000/svg" width="22.4" height="22.4" viewBox="0 0 22.4 22.4">
  <path id="Object" d="M10.853.092a.7.7,0,0,1,.694,0l5.25,3a.7.7,0,0,1,.353.608V9.293l4.9,2.8a.7.7,0,0,1,.353.6v6a.7.7,0,0,1-.353.608l-5.25,3a.7.7,0,0,1-.694,0l-4.9-2.8-4.9,2.8a.7.7,0,0,1-.694,0l-5.25-3A.7.7,0,0,1,0,18.7v-6a.7.7,0,0,1,.353-.608l4.9-2.8V3.7A.7.7,0,0,1,5.6,3.093ZM5.95,10.506,2.111,12.7,5.95,14.893,9.789,12.7Zm4.55,3.4-3.85,2.2v4.388l3.85-2.2Zm1.4,4.388,3.85,2.2V16.106l-3.85-2.2Zm.711-5.594,3.839,2.194L20.289,12.7,16.45,10.506,12.611,12.7ZM15.75,9.293V4.906l-3.85,2.2v4.388l3.85-2.2Zm-5.25,2.2V7.106l-3.85-2.2V9.293ZM7.361,3.7,11.2,5.894,15.039,3.7,11.2,1.506ZM21,13.906l-3.85,2.2v4.388l3.85-2.2ZM5.25,20.493V16.106l-3.85-2.2v4.388Z" transform="translate(0 0)" fill="#373737"/>
</svg>
