<svg id="Layer_1" data-name="Layer 1" xmlns="http://www.w3.org/2000/svg" viewBox="0 0 32 32"><defs><style>.cls-1{fill:#fff;}</style></defs><title>01 ICON</title><path class="cls-1" d="M19.05,20.89a2.79,2.79,0,0,0-4,0l-1.33,1.33-4-4,1.33-1.33a2.79,2.79,0,0,0,0-4L8,9.82a2.81,2.81,0,0,0-4,0l-.85.85a7.45,7.45,0,0,0,0,10.51l7.65,7.64a7.42,7.42,0,0,0,10.51,0l.85-.85a2.79,2.79,0,0,0,0-3.95Zm-14-10a1.29,1.29,0,0,1,1.82,0L10,14a1.29,1.29,0,0,1,0,1.82l-.58.58L7.6,14.56,6.06,13,4.51,11.47Zm11,18.61a5.9,5.9,0,0,1-4.18-1.73L4.24,20.11a5.94,5.94,0,0,1-.72-7.5L5,14.09l3.38,3.39-.21.21a.75.75,0,0,0,0,1.06l5.07,5.07a.75.75,0,0,0,1.06,0l.21-.21,4.87,4.87A5.85,5.85,0,0,1,16.07,29.49Zm5-2.59-.58.59-5-4.95.59-.58A1.27,1.27,0,0,1,18,22l3.13,3.13a1.27,1.27,0,0,1,0,1.81Z"/><path class="cls-1" d="M16.46,6.26A9.63,9.63,0,0,0,12.33,7a.7.7,0,0,0-.36,1L12,8a.69.69,0,0,0,.89.33A8.23,8.23,0,0,1,23.64,19.1.69.69,0,0,0,24,20l.09,0a.7.7,0,0,0,1-.36,9.63,9.63,0,0,0,.72-4.13A9.84,9.84,0,0,0,16.46,6.26Z"/><path class="cls-1" d="M16.9,1A14.85,14.85,0,0,0,10,2.27a.71.71,0,0,0-.36,1l.05.09a.69.69,0,0,0,.9.33A13.49,13.49,0,0,1,28.35,21.44a.69.69,0,0,0,.33.9l.09.05a.71.71,0,0,0,1-.36A14.83,14.83,0,0,0,31,15.1,15.07,15.07,0,0,0,16.9,1Z"/></svg>