<svg id="Layer_1" data-name="Layer 1" xmlns="http://www.w3.org/2000/svg" viewBox="0 0 30 30"><defs><style>.cls-1{fill:#fff;}</style></defs><title>01 ICON</title><path class="cls-1" d="M13.82,23.82a7.42,7.42,0,0,0,10.51,0l.85-.85a2.79,2.79,0,0,0,0-3.95l-3.13-3.13a2.79,2.79,0,0,0-3.95,0l-1.33,1.33-4-4,1.32-1.33a2.79,2.79,0,0,0,0-3.95L11,4.82A2.79,2.79,0,0,0,7,4.82l-.86.85a7.45,7.45,0,0,0,0,10.51ZM8.09,5.88a1.29,1.29,0,0,1,1.82,0L13,9a1.28,1.28,0,0,1,0,1.81l-.58.59L10.6,9.56,9.07,8,7.51,6.47Zm-.85,9.23a5.94,5.94,0,0,1-.72-7.5L8,9.09l3.38,3.39-.21.21a.75.75,0,0,0,0,1.06l5.07,5.07a.77.77,0,0,0,1.07,0l.21-.21,4.86,4.87a5.84,5.84,0,0,1-3.3,1,5.91,5.91,0,0,1-4.19-1.73Zm16.29,7.38-5-4.95.59-.58a1.28,1.28,0,0,1,.91-.38A1.31,1.31,0,0,1,21,17l3.12,3.13a1.27,1.27,0,0,1,0,1.81Z"/></svg>