<svg version="1.1" id="Layer_1" xmlns="http://www.w3.org/2000/svg" xmlns:xlink="http://www.w3.org/1999/xlink" x="0px" y="0px"
	 viewBox="0 0 512 512" style="enable-background:new 0 0 512 512;" xml:space="preserve">
<style type="text/css">
	.st0{fill:#00A859;}
</style>
<g transform="translate(0.000000,512.000000) scale(0.100000,-0.100000)">
	<path class="st0" d="M4477,4969c-100-24-219-103-282-189l-37-50H2686c-1052,0-1482-3-1505-11c-65-23-61,47-61-1214V2360h85h85v820
		v820h1550c974,0,1558-4,1572-10c13-5,42-14,66-20l42-11V2690V1420H3365H2209l3-82l3-83h1213h1214l24,28l24,28v1324v1323l69,21
		c247,75,403,339,350,593c-38,184-182,337-368,392C4682,4981,4541,4984,4477,4969z M4755,4778c66-34,129-100,163-168
		c36-74,38-200,4-273c-48-106-128-174-241-202c-53-14-74-15-130-5c-118,21-200,81-258,192c-24,47-28,64-28,143c0,72,5,100,22,138
		c44,96,110,156,211,194C4559,4819,4694,4809,4755,4778z M4090,4477c0-89,17-162,56-239c13-26,24-50,24-53s-648-5-1440-5H1290v183
		c0,101,3,187,7,190c3,4,633,7,1400,7h1393V4477z"/>
	<path class="st0" d="M4435,4640l-59-60l54-55l54-55l-57-58l-57-58l60-59l60-59l58,57l57,57l55-55l55-55l60,60l59,60l-54,55l-54,55
		l54,55l54,55l-59,60l-60,60l-55-55l-55-55l-55,55l-56,55L4435,4640z"/>
	<path class="st0" d="M39,3627c-9-7-21-22-27-34c-9-16-12-446-12-1713V189l25-24l24-25h1771h1771l24,25l25,24v451v450h-85h-85V700
		V310H1820H170v1300v1300l393,2l392,3v85v85l-392,3l-393,2v190v190h390h390v85v85H503C166,3639,51,3636,39,3627z"/>
	<path class="st0" d="M1410,2180l-275-5l1-27c0-16,1-53,2-83l2-55l300-2l301-3l-492-505c-270-278-522-537-560-575l-70-71l65-57
		l64-56l558,573l559,574l6-86c4-48,7-185,8-304l1-218h85h85v183c0,101-3,294-7,428l-6,244l-28,27l-27,28l-149-2
		C1752,2187,1561,2183,1410,2180z"/>
</g>
</svg>
