<svg version="1.1" id="Layer_1" xmlns="http://www.w3.org/2000/svg" xmlns:xlink="http://www.w3.org/1999/xlink" x="0px" y="0px"
	 viewBox="0 0 512 512" style="enable-background:new 0 0 512 512;" xml:space="preserve">
<style type="text/css">
	.st0{fill:#00A859;}
</style>
<g transform="translate(0.000000,512.000000) scale(0.100000,-0.100000)">
	<path class="st0" d="M91,4493c-18-9-45-34-60-56l-26-41l-3-449l-3-450l22-24c30-31,78-31,107,0c20,21,22,34,22,140v117h2410h2410
		l-2-1482l-3-1483H2560H155l-5,1223l-5,1224l-24,19c-32,26-67,24-97-6l-24-24l2-1239L5,724l27-41c53-80-196-73,2528-73
		s2475-7,2528,73l27,41v1836v1836l-27,41c-53,80,196,73-2530,73C317,4510,122,4508,91,4493z M4968,4117l2-237l-697,2l-697,3l-51,92
		c-59,109-91,144-159,178c-49,25-54,25-285,25c-211,0-240-2-278-20c-42-19-44-19-85,0c-39,18-67,20-278,20s-239-2-277-20
		c-42-19-44-19-85,0c-39,18-68,20-279,20c-231,0-236,0-285-25c-68-34-100-69-159-178l-51-92l-577-3l-577-2v233c0,129,3,237,7,240
		c3,4,1087,6,2407,5l2401-3L4968,4117z M2012,4024c3-3-11-35-31-72l-36-67l-233-3c-127-1-232,0-232,4c0,3,12,29,27,57
		c46,84,56,87,294,87C1914,4030,2009,4028,2012,4024z M2652,4024c3-3-11-35-31-72l-36-67l-233-3c-127-1-232,0-232,4c0,3,12,29,27,57
		c46,84,56,87,294,87C2554,4030,2649,4028,2652,4024z M3310,4015c25-13,90-104,90-127c0-5-144-8-320-8s-320,3-320,6c0,4,12,29,27,57
		c46,84,56,87,291,87C3240,4030,3287,4027,3310,4015z"/>
	<path class="st0" d="M3847,4253c-8-10-17-29-19-43c-2-18-10-26-28-28c-39-6-60-31-60-72c0-38,23-70,51-70c20,0,39-20,39-40
		c0-46,90-68,123-32c10,10,17,25,17,33c0,20,20,39,40,39c27,0,50,34,50,72c0,39-22,64-60,70c-18,2-26,10-28,28c-6,39-31,60-72,60
		C3877,4270,3857,4263,3847,4253z"/>
	<path class="st0" d="M425,4175c-14-13-25-36-25-50c0-33,42-75,75-75s75,42,75,75s-42,75-75,75C461,4200,438,4189,425,4175z"/>
	<path class="st0" d="M656,4179c-34-27-36-77-3-107c62-58,152,11,113,87C742,4205,699,4213,656,4179z"/>
	<path class="st0" d="M879,4181c-51-41-17-131,50-131c65,0,95,89,45,129C941,4205,909,4206,879,4181z"/>
	<path class="st0" d="M4455,4175c-14-13-25-36-25-50s11-37,25-50c22-23,32-25,120-25s98,2,120,25c14,13,25,36,25,50s-11,37-25,50
		c-22,23-32,25-120,25S4477,4198,4455,4175z"/>
	<path class="st0" d="M1255,3456c-16-8-77-62-135-120l-105-106H817c-246,0-282-11-328-102c-19-37-19-69-17-941l3-903l27-41
		c14-22,43-48,65-59c37-18,90-19,1993-19s1956,1,1993,19c22,11,51,37,65,59l27,41l3,613l2,613l-24,25c-32,32-70,32-101,0l-25-24
		v-590c0-573-1-591-19-601c-31-16-3822-14-3844,3c-16,11-17,73-15,882l3,870l227,5l228,5l118,118c64,64,122,117,127,117
		s63-53,128-117l117-118l1463-5l1462-5l3-135c2-121,5-137,24-157c29-31,77-30,106,0c20,22,22,33,22,163c-1,183-20,230-113,269
		c-32,13-202,15-1469,15H1635l-105,106c-58,58-119,112-137,120C1353,3474,1294,3473,1255,3456z"/>
	<path class="st0" d="M899,2877c-51-35-77-79-84-150c-3-34-5-298-3-587c3-580,1-557,68-614c46-38,66-41,263-41c176,0,179,0,198,24
		c23,28,24,69,3,99c-15,21-21,22-179,22c-90,0-170,3-179,6c-14,6-16,64-16,560v554h695h695v-554c0-496-2-554-16-560
		c-9-3-180-6-380-6c-351,0-365-1-384-20c-43-43-14-113,52-125c19-4,195-5,393-3c389,3,390,3,441,60c50,54,49,40,52,598
		c2,289,0,553-3,587c-7,71-33,115-84,150l-34,23h-732H933L899,2877z"/>
	<path class="st0" d="M2697,2802c-24-27-22-85,4-108c19-17,38-19,204-19s185,2,204,19c27,25,29,86,3,109c-16,15-46,17-209,17
		C2732,2820,2711,2818,2697,2802z"/>
	<path class="st0" d="M2706,2609c-33-26-36-79-6-109c19-19,33-20,465-20s446,1,465,20c30,30,27,83-6,109c-26,21-37,21-459,21
		S2732,2630,2706,2609z"/>
	<path class="st0" d="M2700,2320c-30-30-27-83,6-109c27-21,33-21,819-21s792,0,819,21c33,26,36,79,6,109c-20,20-33,20-825,20
		S2720,2340,2700,2320z"/>
	<path class="st0" d="M2800,1987c-30-16-51-37-67-67c-21-39-23-57-23-172c0-109,3-135,20-168c40-78,120-106,281-97
		c99,5,126,14,167,51c40,36,54,74,59,170c9,162-19,246-97,286c-33,17-59,20-168,20C2857,2010,2839,2008,2800,1987z M3080,1751
		c0-127,5-121-110-121s-110-5-110,114c0,57,3,106,7,109c3,4,53,7,110,7h103V1751z"/>
	<path class="st0" d="M3450,1987c-30-16-51-37-67-67c-21-39-23-57-23-172c0-144,13-188,69-227c52-38,112-43,473-39
		c362,3,363,3,416,52c40,36,54,74,59,170c9,162-19,246-97,286c-37,19-60,20-413,20C3496,2010,3493,2010,3450,1987z M4220,1751
		c0-90-3-110-16-115c-9-3-161-6-339-6s-330,3-339,6c-13,5-16,24-16,108c0,57,3,106,7,109c3,4,163,7,355,7h348V1751z"/>
</g>
</svg>
