<svg version="1.1" id="Layer_1" xmlns="http://www.w3.org/2000/svg" xmlns:xlink="http://www.w3.org/1999/xlink" x="0px" y="0px"
	 viewBox="0 0 512 512" style="enable-background:new 0 0 512 512;" xml:space="preserve">
  <style type="text/css">
	.st0{fill:#00A859;}
</style>
  <g transform="translate(0.000000,512.000000) scale(0.100000,-0.100000)">
    <path class="st0" d="M207,4646c-58-21-114-62-147-108c-62-85-60-42-60-1165c0-735,3-1030,11-1046c32-63,111-77,160-28l29,29v661
		v661h1965h1965v-175v-175H2491H851l-28-24l-28-24l-5-1089l-5-1088l-292-3l-293-2v216v216l-29,29c-31,31-83,39-122,19
		c-45-25-49-53-49-339V940l29-32l29-33l366-3l366-3V694V518l29-29l29-29h2097c2280,0,2136-4,2163,55c9,20,12,348,12,1366
		c0,1457,3,1381-55,1407c-18,9-127,12-380,12h-355v558c0,627,1,614-72,697c-22,25-64,58-92,73l-51,27l-1935,2
		C570,4659,239,4657,207,4646z M4073,4449c56-29,57-32,57-321v-268H2165H199l3,271l3,271l33,29l32,29h1891
		C3533,4460,4057,4457,4073,4449z M4920,1880V660H2955H990v1220v1220h1965h1965V1880z"/>
    <path class="st0" d="M461,4247c-37-18-64-70-56-106c10-47,51-81,97-81c102,0,138,139,48,185C515,4263,493,4264,461,4247z"/>
    <path class="st0" d="M908,4245c-87-49-50-185,49-185c64,1,110,54,99,114C1044,4240,965,4277,908,4245z"/>
    <path class="st0" d="M1374,4250c-30-12-64-58-64-87c0-32,26-80,49-93c39-20,91-12,122,19C1557,4165,1474,4291,1374,4250z"/>
    <path class="st0" d="M2152,2889c-103-20-214-114-250-212c-11-29-23-87-27-129l-7-78h-140c-77,0-148-5-159-10c-49-27-49-21-49-742
		c0-462,4-686,11-713c15-52,82-119,134-134c27-7,212-11,570-11h530l52,24c36,17,60,38,80,67l28,43l3,708l2,709l-29,30l-29,29h-145
		h-144l-5,83C2563,2783,2373,2933,2152,2889z M2304,2672c52-30,71-66,71-135v-62l-147-3l-148-3v57c0,89,35,142,109,165
		C2221,2700,2266,2693,2304,2672z M1872,2165c3-86,7-109,24-132c27-36,80-51,120-32c47,22,64,70,64,177v92h150h150v-100
		c0-110,11-145,51-166c45-23,78-17,115,20l34,34v106v106h75h75v-605v-605l-502,2l-503,3l-3,603l-2,602h74h74L1872,2165z"/>
    <path class="st0" d="M4224,2881c-17-10-36-32-43-49c-19-45-1-88,64-152l54-54l-58-61c-35-36-61-73-65-92c-15-66,51-132,117-117
		c19,4,56,30,92,65l61,58l54-54c66-67,104-82,153-61c21,8,42,28,52,47c25,47,8,92-59,158l-55,54l58,63c32,34,61,74,65,88
		c16,64-56,138-119,122c-16-4-56-34-90-66l-61-60l-50,51C4315,2902,4279,2915,4224,2881z"/>
    <path class="st0" d="M3167,2415c-46-47-39-122,16-156c30-18,48-19,325-17l294,3l30,34c26,29,30,39,25,75c-4,27-15,49-32,63
		c-26,23-29,23-329,23h-303L3167,2415z"/>
    <path class="st0" d="M3181,1944c-13-9-29-32-37-50c-12-29-12-39,0-68c29-69-1-66,619-66h559l29,29c38,39,40,97,5,138l-24,28l-564,3
		C3258,1960,3203,1959,3181,1944z"/>
    <path class="st0" d="M3276,1465c-57-20-87-46-116-96c-24-42-25-52-25-194c0-141,1-153,25-195c14-24,45-58,68-75l44-30l461-3
		c492-3,513-2,575,45c62,46,72,83,72,256c0,142-2,157-23,198c-16,29-40,54-72,74l-48,30l-461,2C3398,1479,3308,1477,3276,1465z
		 M4180,1170v-100h-420h-420v100v100h420h420V1170z"/>
    <path class="st0" d="M59,2002c-96-48-60-188,48-185c28,1,44,9,65,32c38,42,38,90,1,130C137,2017,103,2024,59,2002z"/>
  </g>
</svg>
