<svg xmlns="http://www.w3.org/2000/svg" viewBox="0 0 64 64" id="shopping">
  <path fill="#bddbff" d="M59 3a2.006 2.006 0 0 1 2 2 2.015 2.015 0 0 1-2 2h-8a2.006 2.006 0 0 1-2-2 2.015 2.015 0 0 1 2-2ZM39 40h6v6h-6zM39 34h6v6h-6z"></path>
  <circle cx="38" cy="58" r="3" fill="#bddbff"></circle>
  <path fill="#bddbff" d="M33 40h6v6h-6zM39 17a14.14 14.14 0 0 1-.32 3h-4.14a10 10 0 1 0-19.08 0h-4.14A14 14 0 1 1 39 17zm-4.46 3h4.14a14.006 14.006 0 0 1-27.36 0h4.14a10 10 0 0 0 19.08 0zM27 40h6v6h-6zM21 40h6v6h-6zM15 40h6v6h-6zM15 40v6H8l-1.15-6H15zM15 34v6H6.85l-1.16-6H15z"></path>
  <circle cx="11" cy="58" r="3" fill="#bddbff"></circle>
  <path fill="#3d9ae2" d="M59 2h-8a3 3 0 0 0-2.816 2H46a1 1 0 0 0-.9.553l-1 2A1 1 0 0 0 44 7v12h-4.149a15 15 0 1 0-29.7 0H3a1 1 0 0 0-.982 1.189l5 26A1 1 0 0 0 8 47h36v2H7a3 3 0 0 0 0 6h1.382a4 4 0 1 0 5.236 0h21.764a4 4 0 1 0 5.236 0H45v-2H7a1 1 0 0 1 0-2h38a1 1 0 0 0 1-1V7.236L46.618 6h1.566A3 3 0 0 0 51 8h8a3 3 0 0 0 0-6ZM11 60a2 2 0 1 1 2-2 2 2 0 0 1-2 2Zm27 0a2 2 0 1 1 2-2 2 2 0 0 1-2 2ZM25 4a13 13 0 1 1-13 13A13.015 13.015 0 0 1 25 4ZM10.558 21a14.981 14.981 0 0 0 28.884 0H44v12h-4v-1h-2v1h-3v2h3v4h-4v-4h-2v4h-4v-3h-2v3h-4v-5h-2v5h-4v-5a1 1 0 0 0-1-1H6.519L4.211 21ZM44 35v4h-4v-4Zm-22 6h4v4h-4Zm-2 4h-4v-4h4Zm8-4h4v4h-4Zm6 0h4v4h-4ZM6.9 35H14v4H7.672Zm1.154 6H14v4H8.826ZM40 45v-4h4v4ZM59 6h-8a1 1 0 0 1 0-2h8a1 1 0 0 1 0 2Z"></path>
  <path fill="#3d9ae2" d="M25 28a11 11 0 1 0-11-11 11.013 11.013 0 0 0 11 11Zm0-20a9 9 0 1 1-9 9 9.01 9.01 0 0 1 9-9Z"></path>
  <path fill="#3d9ae2" d="M26 20h-2a1 1 0 0 1-1-1h-2a3 3 0 0 0 3 3v2h2v-2a3 3 0 0 0 0-6h-2a1 1 0 0 1 0-2h2a1 1 0 0 1 1 1h2a3 3 0 0 0-3-3v-2h-2v2a3 3 0 0 0 0 6h2a1 1 0 0 1 0 2Z"></path>
</svg>
