<svg xmlns="http://www.w3.org/2000/svg" viewBox="0 0 64 64">
  <g data-name="16-Discount">
    <path fill="#ffa930" d="M55.964,33H51V3a2,2,0,0,0-2-2H15a2,2,0,0,0-2,2V33H8.036A2.077,2.077,0,0,0,6.5,36.43L30.465,62.285a2.006,2.006,0,0,0,3.07,0L57.5,36.43A2.077,2.077,0,0,0,55.964,33Z"/>
    <path fill="#e68c15" d="M57.357,33.585l-23.822,25.7a2.006,2.006,0,0,1-3.07,0L6.643,33.585A2.085,2.085,0,0,0,6.5,36.43L30.465,62.285a2.006,2.006,0,0,0,3.07,0L57.5,36.43A2.085,2.085,0,0,0,57.357,33.585Z"/>
    <path fill="#ffc568" d="M15,4H49a2,2,0,0,1,2,2V3a2,2,0,0,0-2-2H15a2,2,0,0,0-2,2V6A2,2,0,0,1,15,4Z"/>
    <path fill="maroon" d="M26 25a1 1 0 0 0 .707-.293l12-12a1 1 0 0 0-1.414-1.414l-12 12A1 1 0 0 0 26 25zM35 20a3 3 0 1 0 3 3A3 3 0 0 0 35 20zm0 4a1 1 0 1 1 1-1A1 1 0 0 1 35 24zM29 16a3 3 0 1 0-3-3A3 3 0 0 0 29 16zm0-4a1 1 0 1 1-1 1A1 1 0 0 1 29 12z"/>
    <path fill="#a81e29" d="M27 31H23a2 2 0 0 0-2 2v8a2 2 0 0 0 2 2h4a2 2 0 0 0 2-2V33A2 2 0 0 0 27 31zM23 41V33h4l0 8zM36 31H32a1 1 0 0 0-1 1V42a1 1 0 0 0 2 0V37h2a1 1 0 0 0 0-2H33V33h3a1 1 0 0 0 0-2zM43 31H39a1 1 0 0 0-1 1V42a1 1 0 0 0 2 0V37h2a1 1 0 0 0 0-2H40V33h3a1 1 0 0 0 0-2z"/>
    <path fill="#e68c15" d="M25 26a1 1 0 0 0 .707-.293l1-1a1 1 0 0 1-1.414-1.414l-1 1A1 1 0 0 0 25 26zM35 22a1 1 0 0 0-1 1 1 1 0 0 1 1 1 1 1 0 0 0 0-2zM32 23a2.976 2.976 0 0 1 .446-1.554 2.992 2.992 0 1 0 4.108 4.108A2.984 2.984 0 0 1 32 23zM28 17a2.993 2.993 0 0 0 2.554-1.446 2.984 2.984 0 0 1-4.108-4.108A2.992 2.992 0 0 0 28 17zM29 14a1 1 0 1 0-1-1A1 1 0 0 1 29 14zM23 43a2 2 0 0 1-2-2V33a1.99 1.99 0 0 1 .18-.82A2 2 0 0 0 20 34v8a2 2 0 0 0 2 2h4a2 2 0 0 0 1.82-1.18A1.99 1.99 0 0 1 27 43z"/>
    <polygon fill="#e68c15" points="23 33 23 34 26 34 26.002 41 27.002 41 27 33 23 33"/>
    <path fill="#e68c15" d="M33 34h2a1 1 0 0 0 1-1H33zM33 38h1a1 1 0 0 0 1-1H33zM31 42V32a1 1 0 0 0-1 1V43a1 1 0 0 0 2 0A1 1 0 0 1 31 42zM40 38h1a1 1 0 0 0 1-1H40zM38 42V32a1 1 0 0 0-1 1V43a1 1 0 0 0 2 0A1 1 0 0 1 38 42zM40 34h2a1 1 0 0 0 1-1H40z"/>
  </g>
</svg>
