<svg xmlns="http://www.w3.org/2000/svg" enable-background="new 0 0 512 512" viewBox="0 0 512 512" id="coins">
  <path fill="#0635c9" d="M411.2,55.7h-59.6c0.7-1.9,1.2-4,1.2-6.1V16.8C352.7,7.5,345.2,0,336,0H78.5c-9.3,0-16.8,7.5-16.8,16.8v32.8c0,9.3,7.5,16.8,16.8,16.8h59.6c-0.7,1.9-1.2,4-1.2,6.1v32.8c0,2.2,0.4,4.2,1.2,6.1h-22c-9.3,0-16.8,7.5-16.8,16.8V161c0,2.2,0.4,4.2,1.2,6.1H73c-9.3,0-16.8,7.5-16.8,16.8v32.8c0,9.3,7.5,16.8,16.8,16.8h27.5c-0.7,1.9-1.2,4-1.2,6.1v32.8c0,2.2,0.4,4.2,1.2,6.1H65.9c-9.3,0-16.8,7.5-16.8,16.8v32.8c0,2.2,0.4,4.2,1.2,6.1H20.9c-9.3,0-16.8,7.5-16.8,16.8v32.8c0,9.3,7.5,16.8,16.8,16.8h29.4c-0.7,1.9-1.2,4-1.2,6.1v32.8c0,9.3,7.5,16.8,16.8,16.8h28.2c-0.7,1.9-1.2,4-1.2,6.1v32.8c0,9.3,7.5,16.8,16.8,16.8h257.5c4.9,0,9.2-2.1,12.3-5.4c-4.9,0.2-9-0.8-13.6-2.9c-0.1-0.1-0.2-0.2-0.4-0.2c-4.2-0.4-8.3-1.1-12.4-2.2H109.7c-3.4,0-6.1-2.7-6.1-6.1v-32.8c0-3.4,2.7-6.1,6.1-6.1h178c-1.5-1.7-3-3.4-4.2-5.4c-1.3-1.6-2.4-3.4-3.4-5.2H65.9c-3.4,0-6.1-2.7-6.1-6.1v-32.8c0-3.4,2.7-6.1,6.1-6.1h201.7c-0.3-2.9-0.4-5.8-0.5-8.7c0-0.7,0-1.3,0.1-2H20.9c-3.4,0-6.1-2.7-6.1-6.1V351c0-3.4,2.7-6.1,6.1-6.1h256.2c0.5-2.1,1.1-4.2,1.8-6c0.3-0.9,0.7-1.8,1-2.7c0,0,0-0.1,0-0.1c0,0,0,0,0,0c0.2-0.6,0.5-1.2,0.8-1.8H65.9c-3.4,0-6.1-2.7-6.1-6.1v-32.8c0-3.4,2.7-6.1,6.1-6.1h256.4c0.5-0.4,0.9-0.8,1.4-1.2c4.2-3.4,8.3-6.3,13.3-8.3c1.2-0.5,2.4-0.8,3.6-1.1H116.1c-3.4,0-6.1-2.7-6.1-6.1v-32.8c0-3.4,2.7-6.1,6.1-6.1h257.5c3.4,0,6.1,2.7,6.1,6.1V270c3.7-0.7,7.6,0.6,10.5,3.1c0,0,0.1,0,0.1,0.1c0-0.3,0.1-0.5,0.1-0.8v-32.8c0-9.3-7.5-16.8-16.8-16.8h-27.5c0.7-1.9,1.2-4,1.2-6.1v-32.8c0-2.2-0.4-4.2-1.2-6.1h27.5c9.3,0,16.8-7.5,16.8-16.8v-32.8c0-2.2-0.4-4.2-1.2-6.1h22c9.3,0,16.8-7.5,16.8-16.8V72.5C428,63.2,420.4,55.7,411.2,55.7z M78.5,55.7c-3.4,0-6.1-2.7-6.1-6.1V16.8c0-3.4,2.7-6.1,6.1-6.1H336c3.4,0,6.1,2.7,6.1,6.1v32.8c0,3.4-2.7,6.1-6.1,6.1H78.5z M336.6,216.7c0,3.4-2.7,6.1-6.1,6.1H73c-3.4,0-6.1-2.7-6.1-6.1v-32.8c0-3.4,2.7-6.1,6.1-6.1h257.5c3.4,0,6.1,2.7,6.1,6.1V216.7z M379.7,161c0,3.4-2.7,6.1-6.1,6.1H116.1c-3.4,0-6.1-2.7-6.1-6.1v-32.8c0-3.4,2.7-6.1,6.1-6.1h257.5c3.4,0,6.1,2.7,6.1,6.1V161z M417.3,105.3c0,3.4-2.7,6.1-6.1,6.1H153.7c-3.4,0-6.1-2.7-6.1-6.1V72.5c0-3.4,2.7-6.1,6.1-6.1h257.5c3.4,0,6.1,2.7,6.1,6.1V105.3z"></path>
  <path fill="#00cbf6" d="M384.6,512c-68,0-123.2-55.3-123.2-123.2c0-68,55.3-123.2,123.2-123.2c68,0,123.2,55.3,123.2,123.2C507.9,456.7,452.6,512,384.6,512z M384.6,276.2c-62.1,0-112.6,50.5-112.6,112.6c0,62.1,50.5,112.6,112.6,112.6s112.6-50.5,112.6-112.6C497.2,326.7,446.7,276.2,384.6,276.2z"></path>
  <path fill="#00cbf6" d="M384.6,480.3c-50.5,0-91.5-41.1-91.5-91.5s41.1-91.5,91.5-91.5s91.5,41.1,91.5,91.5S435.1,480.3,384.6,480.3z M384.6,307.9c-44.6,0-80.9,36.3-80.9,80.9s36.3,80.9,80.9,80.9c44.6,0,80.9-36.3,80.9-80.9S429.2,307.9,384.6,307.9z"></path>
  <path fill="#00cbf6" d="M389.9,384v-34.4c7,2.3,12.1,8.7,12.1,16.5c0,2.9,2.4,5.3,5.3,5.3s5.3-2.4,5.3-5.3c0-13.7-9.8-25-22.8-27.5v-5.6c0-2.9-2.4-5.3-5.3-5.3s-5.3,2.4-5.3,5.3v5.6c-12.9,2.5-22.7,13.9-22.7,27.5c0,13.7,9.8,25.1,22.7,27.6V428c-7-2.3-12.1-8.8-12.1-16.5c0-2.9-2.4-5.3-5.3-5.3s-5.3,2.4-5.3,5.3c0,13.7,9.8,25.1,22.7,27.6v5.6c0,2.9,2.4,5.3,5.3,5.3s5.3-2.4,5.3-5.3v-5.6c12.9-2.5,22.8-13.9,22.8-27.6C412.7,397.8,402.9,386.5,389.9,384z M367.2,366c0-7.7,5.1-14.2,12.1-16.5v33C372.3,380.2,367.2,373.7,367.2,366z M389.9,428v-33c7,2.3,12.1,8.7,12.1,16.5C402,419.2,396.9,425.7,389.9,428z"></path>
</svg>
