<svg version="1.1" id="Layer_1" xmlns="http://www.w3.org/2000/svg" xmlns:xlink="http://www.w3.org/1999/xlink" x="0px" y="0px"
	 viewBox="0 0 512 512" style="enable-background:new 0 0 512 512;" xml:space="preserve">
<style type="text/css">
	.st0{fill:#00A859;}
</style>
<g transform="translate(0.000000,512.000000) scale(0.100000,-0.100000)">
	<path class="st0" d="M1180,5040v-80H802c-447,0-455-1-538-84c-90-91-84,11-84-1373V2290h75h75v1210c0,1337-4,1249,63,1290
		c30,19,53,20,410,20h377v-75v-75H830H480V2480V300h1345h1345v75v75H1900H630v2030v2030l276-2l277-3l13-45c17-57,71-122,132-158
		c46-26,52-27,225-30l177-4v76v76h-152c-136,0-157,2-186,20c-56,35-62,63-62,310v220h831h831l-4-232c-3-209-5-236-22-261
		c-39-58-30-57-581-57h-505v-75v-75h513c572,0,568,0,647,67c41,36,90,119,90,156c0,16,20,17,280,17h280V3180V1850h75h75v1405v1405
		h-350h-350v75v75h373c334,0,376-2,407-18c61-30,70-62,70-264v-178h76h76l-4,203c-3,197-4,203-30,253c-15,29-46,68-70,88
		c-73,63-96,66-520,66h-378v80v80h-980h-980V5040z"/>
	<path class="st0" d="M2370,4745v-75h75h75v75v75h-75h-75V4745z"/>
	<path class="st0" d="M2670,4745v-75h75h75v75v75h-75h-75V4745z"/>
	<path class="st0" d="M3990,3050V1900h75h75v1150v1150h-75h-75V3050z"/>
	<path class="st0" d="M1580,3575v-525h580h580l-2,523l-3,522l-577,3l-578,2V3575z M1910,3780v-170h245h245l2,168l3,167h90h90l3-372
		l2-373h-430h-430v375v375h90h90V3780z M2250,3855v-95h-95h-95v88c0,49,3,92,7,95c3,4,46,7,95,7h88V3855z"/>
	<path class="st0" d="M810,2785v-75h75h76l-3,73l-3,72l-72,3l-73,3V2785z"/>
	<path class="st0" d="M1110,2785v-75h75h76l-3,73l-3,72l-72,3l-73,3V2785z"/>
	<path class="st0" d="M1410,2785v-75h75h76l-3,73l-3,72l-72,3l-73,3V2785z"/>
	<path class="st0" d="M1710,2785v-75h75h76l-3,73l-3,72l-72,3l-73,3V2785z"/>
	<path class="st0" d="M810,2480v-80h850h851l-3,78l-3,77l-847,3l-848,2V2480z"/>
	<path class="st0" d="M3064,2546c-3-7-4-42-2-77l3-64l223-3l222-2v80v80h-220C3114,2560,3068,2557,3064,2546z"/>
	<path class="st0" d="M810,2175v-75h550h550v75v75h-550H810V2175z"/>
	<path class="st0" d="M3060,2175v-75h225h225v75v75h-225h-225V2175z"/>
	<path class="st0" d="M180,1192c0-1085-5-1018,83-1107c90-89,51-85,834-85h683v75v75h-677c-655,0-679,1-710,20c-67,40-63-19-63,1025
		v945h-75h-75V1192z"/>
	<path class="st0" d="M810,1875v-75h750h750v75v75h-750H810V1875z"/>
	<path class="st0" d="M3060,1875v-75h225h225v75v75h-225h-225V1875z"/>
	<path class="st0" d="M3901,1740c-331-70-586-304-682-626c-27-90-37-289-19-388c17-95,61-215,111-299c50-83,162-204,244-262
		c405-287,959-186,1234,225c331,495,85,1164-489,1330C4215,1745,3980,1756,3901,1740z M4285,1567c315-103,523-407,502-732
		c-17-256-163-482-387-599c-400-209-878-14-1027,417c-35,99-43,272-18,381c20,92,88,231,146,301c94,114,239,207,381,245
		C3989,1609,4174,1603,4285,1567z"/>
	<path class="st0" d="M3990,1346v-73l-51-5c-61-6-120-44-163-106c-44-63-49-151-11-227c51-104,119-135,300-135h123l26-31
		c34-40,33-74-3-110l-29-29h-186h-186v-75v-75h90h90v-70v-70h75h75v70c0,67,1,70,23,70c93,0,196,88,218,186c24,105-24,206-120,256
		c-50,26-61,28-178,28c-124,0-155,7-180,39c-21,27-15,79,12,106c24,25,26,25,210,25h185v75v75h-85h-85v75v75h-75h-75V1346z"/>
	<path class="st0" d="M810,1475v-76l73,3l72,3l3,73l3,72h-76h-75V1475z"/>
	<path class="st0" d="M1110,1475v-75h75h75v75v75h-75h-75V1475z"/>
	<path class="st0" d="M1410,1475v-75h75h75v75v75h-75h-75V1475z"/>
	<path class="st0" d="M810,1175v-75h750h750v75v75h-750H810V1175z"/>
	<path class="st0" d="M810,875v-75h550h550v75v75h-550H810V875z"/>
	<path class="st0" d="M1930,75V0h750h750v75v75h-750h-750V75z"/>
</g>
</svg>
