
<svg version="1.1" id="Layer_1" xmlns="http://www.w3.org/2000/svg" xmlns:xlink="http://www.w3.org/1999/xlink" x="0px" y="0px"
	 viewBox="0 0 512 512" style="enable-background:new 0 0 512 512;" xml:space="preserve">
<style type="text/css">
	.st0{fill:#00A859;}
</style>
<g transform="translate(0.000000,512.000000) scale(0.100000,-0.100000)">
	<path class="st0" d="M25,5095l-25-24V2560V49l25-24L49,0h1766h1766l24,25c23,22,25,32,25,114v89l198-114C3936,51,4033,0,4043,0
		c26,0,43,10,562,309c259,149,480,283,493,297l22,25v598c0,556-1,600-17,619c-10,12-245,152-523,312c-363,209-513,290-535,290
		c-20,0-94-37-220-110l-190-110l-5,1426l-5,1426l-24,19c-23,19-65,19-1788,19H49L25,5095z M3470,3547V2135l-239-139
		c-164-95-242-146-250-163c-17-37-15-1179,2-1213c8-17,89-69,247-161l235-136l3-82l3-81H1815H160v2400v2400h1655h1655V3547z
		 M4460,2043c226-130,410-239,410-242s-185-113-412-244l-411-237l-201,116c-111,64-296,171-413,237c-117,67-212,124-213,127
		c0,3,96,61,213,128c116,67,300,173,407,236s199,114,203,115S4235,2174,4460,2043z M3546,1424c225-130,412-239,417-243
		c4-4,6-222,5-484l-3-477l-415,239l-415,240l-3,480c-1,265,0,481,2,481S3321,1554,3546,1424z M4953,699c-5-5-177-105-383-224
		s-390-226-407-237l-33-20v484v483l83,46c45,26,231,133,412,237l330,191l3-476C4959,921,4957,703,4953,699z"/>
	<path class="st0" d="M534,4618c-12-5-27-21-33-34c-15-35-15-893,0-927c6-14,22-30,36-36c16-8,175-11,509-11h485l24,25l25,24v250
		v250l75,67c42,37,78,78,81,91c13,50-32,103-86,103c-11,0-108-80-225-186l-206-187l-78,77c-86,83-109,91-155,55c-20-15-26-29-26-57
		c0-34,10-47,113-150c151-151,136-152,315,12l32,30v-122v-122h-385H650v350v350h440h441l24,25c40,39,32,96-16,120
		c-23,13-105,15-506,14C726,4629,547,4625,534,4618z"/>
	<path class="st0" d="M1965,4605c-16-15-25-36-25-55s9-40,25-55l24-25h548c598,0,583-1,597,56c9,36-9,79-40,93c-18,8-185,11-565,11
		h-540L1965,4605z"/>
	<path class="st0" d="M1965,4175c-16-15-25-36-25-55s9-40,25-55l24-25h546c331,0,553,4,564,10c10,5,24,23,31,40c15,35,0,84-31,100
		c-11,6-233,10-564,10h-546L1965,4175z"/>
	<path class="st0" d="M534,3058c-12-5-27-21-33-34c-15-35-15-893,0-927c6-14,22-30,36-36c16-8,172-11,499-11c500,0,521,2,538,45
		c3,9,6,126,6,260v244l75,67c42,37,78,78,81,91c13,50-32,103-86,103c-12,0-107-79-225-186l-206-186l-78,76c-86,83-109,91-155,55
		c-20-16-26-29-26-58c0-34,9-46,113-149c153-150,137-151,315,12l32,30v-122v-122h-385H650v350v350h440h441l24,25c16,15,25,36,25,55
		s-9,40-25,55l-24,25l-488-1C729,3069,547,3065,534,3058z"/>
	<path class="st0" d="M1965,3045c-16-15-25-36-25-55s9-40,25-55l24-25h548c598,0,583-1,597,56c9,36-9,79-40,93c-18,8-185,11-565,11
		h-540L1965,3045z"/>
	<path class="st0" d="M1965,2615c-16-15-25-36-25-55s9-40,25-55l24-25h546c331,0,553,4,564,10c10,5,24,23,31,40c15,35,0,84-31,100
		c-11,6-233,10-564,10h-546L1965,2615z"/>
	<path class="st0" d="M529,1497c-9-7-21-22-27-34c-16-30-17-891-1-926c6-14,22-30,36-36c35-16,966-15,996,1c45,24,46,31,47,290v247
		l74,66c41,37,77,78,81,92c9,37-12,79-45,93c-52,22-39,31-373-274l-97-89l-79,76c-86,84-109,92-155,56c-20-16-26-29-26-58
		c0-34,9-46,113-149c153-150,137-151,315,12l32,30V772V650h-385H650v350v350h440h441l24,25c16,15,25,36,25,55s-9,40-25,55l-24,25
		h-493C666,1509,541,1506,529,1497z"/>
	<path class="st0" d="M1965,1485c-16-15-25-36-25-55s9-40,25-55l24-25h263c216,0,267,3,285,15c44,31,37,111-13,134
		c-17,7-112,11-280,11h-255L1965,1485z"/>
	<path class="st0" d="M1965,1055c-16-15-25-36-25-55s9-40,25-55l24-25h264c251,0,264,1,285,20c12,11,24,31,28,44c7,28-18,81-41,90
		c-9,3-133,6-276,6h-260L1965,1055z"/>
</g>
</svg>
