
<svg version="1.1" id="Layer_1" xmlns="http://www.w3.org/2000/svg" xmlns:xlink="http://www.w3.org/1999/xlink" x="0px" y="0px"
	 viewBox="0 0 512 512" style="enable-background:new 0 0 512 512;" xml:space="preserve">
<style type="text/css">
	.st0{fill:#00A859;}
</style>
<g>
	<path class="st0" d="M129,1.6c-4.6-1.4-12.3-1.6-52.9-1.5c-36.2,0-48.6,0.3-51.8,1.3C15.5,4.2,6.7,12.1,2.7,20.8
		c-2.2,4.7-2.2,5.3-2.2,64.7v60l2.9,5.8c3.6,7,9.9,13,17.4,16.5l5.7,2.7h50h50l5.8-2.3c10.8-4.4,18.7-14.6,20.7-26.8
		c1.4-8.3,1.3-105.5-0.1-112.9C150.4,15,141.9,5.4,129,1.6z M135.9,140c-1.4,6.5-5.9,11.3-12.2,12.9c-7,1.7-90,1.5-95-0.3
		s-7.6-4.2-9.8-9.1c-1.7-3.7-1.9-7.8-1.9-58.2c0-35.9,0.4-55.1,1.1-57c1.4-3.7,5.7-8.2,9.4-9.9c2.4-1,12.8-1.3,49-1.4
		c45.8,0,46.1,0,50.5,2.2c5.4,2.8,8,6.2,9.1,11.9C137.4,37.8,137.2,133.9,135.9,140z"/>
	<path class="st0" d="M312.3,2.7c-4.7-2.2-5.5-2.2-54.3-2.4c-27.2-0.1-50.8,0.2-52.5,0.6c-10.2,2.6-18.7,9.7-23.1,19.4l-2.9,6.2v59
		v59l3.3,6.7c3.9,8,10.1,13.8,18.1,17c5.5,2.3,6.4,2.3,51.6,2.6c31.8,0.2,47.9,0,52-0.8c11.7-2.3,20.2-9,25.4-19.9l2.6-5.6v-59v-59
		l-2.9-6.2C326.3,13,319.3,6,312.3,2.7z M315.8,87.5l-0.3,54l-2.3,3.7c-1.3,2-4,4.7-6,6l-3.7,2.3h-47.6h-47.5l-4.2-2.7
		c-8-5.4-7.7-2.5-8-63.3c-0.2-35.9,0-55.2,0.7-57.6c1.5-5.1,4.8-8.8,9.5-11c3.8-1.7,7.4-1.9,49.6-1.9s45.8,0.2,49.6,1.9
		c4.7,2.2,8,5.9,9.5,11C315.8,32.3,316,51.6,315.8,87.5z"/>
	<path class="st0" d="M360.2,147.8c4.5,11.1,13.1,18.8,24.5,21.7c5.4,1.4,12.9,1.6,53.5,1.3l47.3-0.3l5.5-2.6
		c10.3-4.8,16.5-11.9,19.5-22.2c1.4-4.8,1.5-12.6,1.3-62.8l-0.3-57.4l-2.7-5.5c-3.5-7.1-9.7-13.3-16.7-16.8l-5.6-2.7L437,0.3
		c-39.1-0.2-50.4,0.1-53.7,1.1c-9.4,3-17.1,9.3-21.2,17.5c-3.8,7.4-4.2,14.3-3.9,70.6C358.5,137.4,358.7,144,360.2,147.8z M376,30.6
		c1.2-5.4,3.8-8.7,9-11.4c4.4-2.2,4.7-2.2,50.1-2.2c29.9,0,46.7,0.4,48.6,1.1c3.8,1.4,8.3,5.7,9.9,9.6c1.1,2.6,1.4,13.6,1.4,57.5
		c0,50.5-0.2,54.6-1.9,58.3c-2.2,4.9-4.8,7.3-9.8,9.1s-88,2-95,0.3c-6.3-1.6-10.8-6.4-12.2-12.9C374.7,133.7,374.6,36.3,376,30.6z"
		/>
	<path class="st0" d="M31.5,236.3c3.9,2.1,5.2,2.2,42.8,2.5c43.6,0.3,46,0,53.3-6.2c7.5-6.5,10.8-19.9,7.1-28.8
		c-2.2-5.3-7.7-10.9-13.2-13.4c-5-2.4-5.1-2.4-44.5-2.3c-21.7,0-40.7,0.4-42.2,0.9c-14.1,4.2-21.8,22.1-15.2,35.3
		C21.9,228.8,26.8,233.8,31.5,236.3z M35.2,209.7c2.4-4.6,2.4-4.6,41.4-4.7c36.1,0,37.2,0.1,39.8,2.1c1.9,1.5,2.6,3,2.6,5.4
		c0,9.5-0.1,9.5-43,9.5H39.8l-2.9-2.9C33.8,216,33.3,213.2,35.2,209.7z"/>
	<path class="st0" d="M210.4,236.3c4,2.1,5,2.2,43.5,2.5c45.5,0.3,46.2,0.2,54.2-7.8c4.6-4.7,7.9-11.9,7.9-17.5
		c0-5.3-3.3-12.9-7.6-17.6c-7.5-7.9-7.7-7.9-52.8-7.8c-24.3,0.1-40.3,0.5-42.4,1.2c-4.3,1.3-11.8,8-14.1,12.6
		C192.9,214,198,229.7,210.4,236.3z M216.4,207.4l2.7-2.4H256h36.9l2.7,2.4c3.6,3,3.9,8.6,0.6,11.9c-2.3,2.2-2.3,2.2-40.2,2.2
		s-37.9,0-40.2-2.2C212.5,216,212.8,210.4,216.4,207.4z"/>
	<path class="st0" d="M478.1,189.4c-2.7-1-13.6-1.3-43.1-1.3c-39.3-0.1-39.5-0.1-44.5,2.3c-5.5,2.5-11,8.1-13.2,13.4
		c-0.8,1.9-1.4,6.3-1.4,9.7c0,11.2,6.7,20.5,17.2,24c4,1.4,10.6,1.5,44,1.3c38.2-0.3,39.5-0.4,43.4-2.5c9.2-4.9,13.9-12.7,14-22.8
		c0-5.9-0.5-7.8-2.9-12.3C488.4,195.5,483.7,191.4,478.1,189.4z M475,219.1l-2.9,3l-37.6-0.3l-37.7-0.3l-1.9-2.4
		c-2.9-3.6-2.5-9.4,0.7-12c2.6-2,3.7-2.1,39.8-2.1c27.6,0.1,37.5,0.4,38.7,1.3C478.7,209.8,479.1,215.1,475,219.1z"/>
	<path class="st0" d="M134.2,276.8l-6.7-3.3l-49-0.2c-26.9-0.1-50.4,0.2-52.1,0.6c-9.5,2.4-19.5,10.7-23.7,19.9
		c-2.2,4.7-2.2,5.2-2.2,64.7v60l2.9,5.8c3.6,7,9.9,13,17.4,16.5l5.7,2.7H76c36.5,0,50.6-0.3,53.6-1.2c9.7-3,18.5-11.7,22.1-21.8
		c1.6-4.6,1.8-10,1.8-62.5v-57.5l-2.3-5.6C148,286.9,142.2,280.7,134.2,276.8z M128.7,423.8l-4.1,2.7l-45.3,0.3
		c-29.2,0.2-46.7-0.1-49.2-0.8c-5.2-1.4-9-4.5-11.2-9.4c-1.7-3.8-1.9-7.7-1.9-58.4c0-43.9,0.3-54.9,1.4-57.5
		c1.7-4.1,6.5-8.5,10.2-9.7c1.6-0.4,23.4-0.9,48.4-0.9c42.6-0.1,45.8,0.1,49.7,1.8c2.6,1.2,5.2,3.5,7,6.2l2.8,4.3v55.5
		C136.5,420.7,136.8,418.5,128.7,423.8z"/>
	<path class="st0" d="M308,274.6c-7.7-2.3-96.9-2.3-104.4,0c-9.7,3-16.8,9.3-21.3,18.9l-2.8,6v59v59l3.3,6.7
		c3.8,7.7,9.2,13,17.1,16.7l5.6,2.6H256h50.5l6.7-3.3c7.7-3.8,13-9.2,16.7-17.1l2.6-5.6v-59v-59l-2.8-6
		C325.1,283.7,318.1,277.6,308,274.6z M314.9,414.5c-1.4,5-6.4,10-11.4,11.4c-5.5,1.5-89.5,1.5-95,0c-5-1.4-10-6.4-11.4-11.4
		c-0.7-2.7-1.1-21.6-1.1-56.8c0-45.2,0.2-53.3,1.5-56.4c2.1-5,4.2-7.2,9-9.4c3.7-1.7,7.5-1.9,49.5-1.9s45.8,0.2,49.5,1.9
		c4.9,2.2,7.3,4.8,9.1,9.8C316.3,306.6,316.6,408.2,314.9,414.5z"/>
	<path class="st0" d="M492.1,276.3l-5.6-2.8l-49.5-0.2c-39.1-0.2-50.4,0.1-53.7,1.1c-9.4,3-17.1,9.3-21.2,17.5
		c-3.8,7.4-4.2,14.3-3.9,70.6c0.3,48.6,0.5,54.5,2.1,58.5c3.9,9.9,12.7,18.4,22.1,21.3c3,0.9,17.1,1.2,53.6,1.2h49.5l5.7-2.7
		c7.5-3.5,13.8-9.5,17.4-16.5l2.9-5.8v-60c0-59.5,0-60-2.2-64.7C506.3,287.2,498.8,279.5,492.1,276.3z M493.1,416.6
		c-2.2,4.9-6,8-11.2,9.4c-2.5,0.7-20,1-49.2,0.8l-45.3-0.3l-4.1-2.7c-8-5.3-7.8-3.7-8.1-61.3c-0.2-28.1,0-53.3,0.3-56.2
		c0.8-6.7,3.9-11.2,9.5-14.1c4.4-2.2,4.7-2.2,49.5-2.2c26.4,0,46.5,0.4,48.5,1c4.1,1.1,9.4,6.1,10.9,10.3c0.7,1.9,1.1,21.2,1.1,57
		C495,408.9,494.8,412.8,493.1,416.6z"/>
	<path class="st0" d="M121.5,463.4c-5-2.4-5.2-2.4-44.5-2.3c-30.9,0-40.3,0.3-43.2,1.4c-5.8,2.1-10.2,6-13.4,11.7
		c-2.4,4.5-2.9,6.4-2.9,12.3c0.1,10.1,4.8,17.9,14,22.8c3.9,2.1,5.2,2.2,43.4,2.5c33.4,0.2,40,0.1,44-1.3
		c10.5-3.5,17.2-12.8,17.2-24c0-3.4-0.6-7.8-1.4-9.7C132.5,471.5,127,465.9,121.5,463.4z M117.1,492.1l-1.9,2.4l-37.7,0.3l-37.6,0.3
		l-2.9-3c-3.7-3.6-3.8-7-0.4-11l2.6-3.1h37.4h37.5l2.4,2.5C119.6,483.5,119.8,488.8,117.1,492.1z"/>
	<path class="st0" d="M298.4,462.2c-5.5-1.6-80.2-1.5-85.4,0.1c-5.7,1.8-13.5,10.3-15.4,16.6c-2,6.7-2,8.4-0.1,14.7
		c1.8,6,7.2,12.7,12.9,15.7c4,2.2,4.7,2.2,45.6,2.2s41.6,0,45.6-2.2c5.7-3,11.1-9.7,12.9-15.7c1.9-6.3,1.9-8-0.1-14.7
		S304.7,464.1,298.4,462.2z M295.6,492.6l-2.7,2.4H256h-36.9l-2.7-2.4c-2.1-1.8-2.8-3.2-2.8-6.1s0.7-4.3,2.8-6.1l2.7-2.4H256h36.9
		l2.7,2.4c2.1,1.8,2.8,3.2,2.8,6.1S297.7,490.8,295.6,492.6z"/>
	<path class="st0" d="M485.4,466.5c-7-5.3-8.5-5.5-50.8-5.5c-38.8,0-39.1,0-44.1,2.4c-5.5,2.5-11,8.1-13.2,13.4
		c-0.8,1.9-1.4,6.3-1.4,9.7c0,11.2,6.7,20.5,17.2,24c4,1.4,10.6,1.5,44,1.3c38.2-0.3,39.5-0.4,43.4-2.5c9.2-4.9,13.9-12.7,14-22.8
		c0-5.9-0.5-7.8-2.9-12.3C490,471.4,487.2,467.9,485.4,466.5z M475,492.1l-2.9,3l-37.6-0.3l-37.7-0.3l-1.9-2.4
		c-2.7-3.3-2.5-8.6,0.6-11.6l2.4-2.5H435h37.2l2.9,2.9C478.9,484.7,478.9,488.3,475,492.1z"/>
	<path class="st0" d="M107.1,55.1c-4.2-5.6-9.1-9.4-13.5-10.6c-1.5-0.4-4.5-0.5-6-0.1c-2.3,0.5-4.6,2-6.1,4
		c-1.6,2.1-2.5,3.1-4.5,5.1c-8.1,8.2-18.2,15.4-29.7,21c-2.1,1-4.8,2.3-6,2.7c-2.7,1.1-3.4,1.5-4.3,2.5c-3.9,4.4-3.6,13.8,0.6,22.2
		c3.9,7.7,9.7,11.7,14.7,10.1c1-0.3,8.2-1.5,8.7-1.4c0.3,0,0.7,0.8,2,3.4c4,8.4,4.3,8.9,5,9.4c0.4,0.2,2.7,1.1,5.2,1.9
		s4.7,1.6,5,1.7c0.5,0.2,0.7,0.1,1.4-0.2c1.1-0.5,1.5-1.1,1.6-2.2c0-0.5-0.4-4.4-0.9-8.7c-0.5-4.3-1-7.9-0.9-7.9
		c0,0,1.3-0.1,2.7-0.3c1.7-0.1,5.8-0.2,11.3-0.2c7.8,0,8.9,0,10,0.3c7.4,1.8,13.4-3.4,15-13.1c1-6,0-15-2.5-22.5
		C113.8,65.9,110.5,59.5,107.1,55.1z M73.2,119.2l-1.8-0.5l-2.1-4.6l-2.1-4.6l0.7-0.1c0.4-0.1,1.8-0.2,3.1-0.4s2.4-0.3,2.5-0.4
		c0.1,0,0.1,0,0.1,0s0.3,2.5,0.7,5.6c0.4,3,0.7,5.6,0.7,5.6C74.9,119.7,74.1,119.5,73.2,119.2z M91.3,101.9
		c-2.7,0-10.4,0.4-13.6,0.6c-8.6,0.7-17.8,2.1-24.9,3.7c-1.5,0.3-2.8,0.6-3,0.6c-0.8,0-2.3-0.9-3.5-2.2c-2.9-2.9-5.4-7.9-6.2-12.4
		c-0.3-2-0.3-5.3,0-6.7c0.4-1.9,0.7-2.1,2.9-3c11.5-4.6,23.5-12.2,33.5-20.9l0.8-0.7l0.1,3.6c0.1,2,0.2,4.2,0.3,4.9
		c0.9,6.2,2.1,10.8,4.1,15.4c2.5,5.8,5.6,11,9.3,15.2l1.6,1.9H91.3z M92,91.1l-0.3,0.5l-0.3-0.4c-0.6-0.8-3.2-5.6-4.1-7.7
		c-2-4.5-4-11.8-4-14.5c0-0.9,0.3-0.9,1.7,0c3.4,2.2,6.5,8,7.6,13.9C93.1,85.9,92.8,89.5,92,91.1z M112.2,95.7
		c-0.9,3.7-3.3,6.5-5.7,6.9c-1.5,0.2-3.9-0.5-6-1.8c-1.5-1-3.9-3-4.8-4.1L95,95.9l0.8-0.9c1-1.1,1.7-2.6,2.3-4.5c0.5-2,0.5-6.4,0-9
		c-1.2-5.6-4.1-11.3-7.5-14.9c-0.7-0.7-1.7-1.6-2.4-2.1c-1.2-0.8-3.3-1.7-4.1-1.7c-1.1,0-1.2-0.2-1.2-1c0-1.9,1-6.3,1.9-8
		c0.7-1.5,2.2-3.1,3.4-3.6c1.1-0.5,2.7-0.5,4.3,0c6.6,2.2,13.6,11.6,17.9,24C113.1,81.6,113.7,89.7,112.2,95.7z"/>
	<path class="st0" d="M286.6,55.1c-4.2-5.6-9.1-9.4-13.5-10.6c-1.5-0.4-4.5-0.5-6-0.1c-2.3,0.5-4.6,2-6.1,4
		c-1.6,2.1-2.5,3.1-4.5,5.1c-8.1,8.2-18.2,15.4-29.7,21c-2.1,1-4.8,2.3-6,2.7c-2.7,1.1-3.4,1.5-4.3,2.5c-3.9,4.4-3.6,13.8,0.6,22.2
		c3.9,7.7,9.7,11.7,14.7,10.1c1-0.3,8.2-1.5,8.7-1.4c0.3,0,0.7,0.8,2,3.4c4,8.4,4.3,8.9,5,9.4c0.4,0.2,2.7,1.1,5.2,1.9
		s4.7,1.6,5,1.7c0.5,0.2,0.7,0.1,1.4-0.2c1.1-0.5,1.5-1.1,1.6-2.2c0-0.5-0.4-4.4-0.9-8.7c-0.5-4.3-1-7.9-0.9-7.9
		c0,0,1.3-0.1,2.7-0.3c1.7-0.1,5.8-0.2,11.3-0.2c7.8,0,8.9,0,10,0.3c7.4,1.8,13.4-3.4,15-13.1c1-6,0-15-2.5-22.5
		C293.2,65.9,290,59.5,286.6,55.1z M252.6,119.2l-1.8-0.5l-2.1-4.6l-2.1-4.6l0.7-0.1c0.4-0.1,1.8-0.2,3.1-0.4s2.4-0.3,2.5-0.4
		c0.1,0,0.1,0,0.1,0s0.3,2.5,0.7,5.6c0.4,3,0.7,5.6,0.7,5.6C254.4,119.7,253.6,119.5,252.6,119.2z M270.8,101.9
		c-2.7,0-10.4,0.4-13.6,0.6c-8.6,0.7-17.8,2.1-24.9,3.7c-1.5,0.3-2.8,0.6-3,0.6c-0.8,0-2.3-0.9-3.5-2.2c-2.9-2.9-5.4-7.9-6.2-12.4
		c-0.3-2-0.3-5.3,0-6.7c0.4-1.9,0.7-2.1,2.9-3C234,77.9,246,70.3,256,61.6l0.8-0.7l0.1,3.6c0.1,2,0.2,4.2,0.3,4.9
		c0.9,6.2,2.1,10.8,4.1,15.4c2.5,5.8,5.6,11,9.3,15.2l1.6,1.9H270.8z M271.5,91.1l-0.3,0.5l-0.3-0.4c-0.6-0.8-3.2-5.6-4.1-7.7
		c-2-4.5-4-11.8-4-14.5c0-0.9,0.3-0.9,1.7,0c3.4,2.2,6.5,8,7.6,13.9C272.5,85.9,272.3,89.5,271.5,91.1z M291.7,95.7
		c-0.9,3.7-3.3,6.5-5.7,6.9c-1.5,0.2-3.9-0.5-6-1.8c-1.5-1-3.9-3-4.8-4.1l-0.7-0.8l0.8-0.9c1-1.1,1.7-2.6,2.3-4.5c0.5-2,0.5-6.4,0-9
		c-1.2-5.6-4.1-11.3-7.5-14.9c-0.7-0.7-1.7-1.6-2.4-2.1c-1.2-0.8-3.3-1.7-4.1-1.7c-1.1,0-1.2-0.2-1.2-1c0-1.9,1-6.3,1.9-8
		c0.7-1.5,2.2-3.1,3.4-3.6c1.1-0.5,2.7-0.5,4.3,0c6.6,2.2,13.6,11.6,17.9,24C292.6,81.6,293.2,89.7,291.7,95.7z"/>
	<path class="st0" d="M410.5,112.1c1-0.3,8.2-1.5,8.7-1.4c0.3,0,0.7,0.8,2,3.4c4,8.4,4.3,8.9,5,9.4c0.4,0.2,2.7,1.1,5.2,1.9
		s4.7,1.6,5,1.7c0.5,0.2,0.7,0.1,1.4-0.2c1.1-0.5,1.5-1.1,1.6-2.2c0-0.5-0.4-4.4-0.9-8.7c-0.5-4.3-1-7.9-0.9-7.9
		c0,0,1.3-0.1,2.7-0.3c1.7-0.1,5.8-0.2,11.3-0.2c7.8,0,8.9,0,10,0.3c7.4,1.8,13.4-3.4,15-13.1c1-6,0-15-2.5-22.5
		c-2.1-6.4-5.4-12.7-8.8-17.2c-4.2-5.6-9.1-9.4-13.5-10.6c-1.5-0.4-4.5-0.5-6-0.1c-2.3,0.5-4.6,2-6.1,4c-1.6,2.1-2.5,3.1-4.5,5.1
		c-8.1,8.2-18.2,15.4-29.7,21c-2.1,1-4.8,2.3-6,2.7c-2.7,1.1-3.4,1.5-4.3,2.5c-3.9,4.4-3.6,13.8,0.6,22.2
		C399.8,109.7,405.5,113.7,410.5,112.1z M431.4,119.2l-1.8-0.5l-2.1-4.6l-2.1-4.6l0.7-0.1c0.4-0.1,1.8-0.2,3.1-0.4
		c1.3-0.2,2.4-0.3,2.5-0.4c0.1,0,0.1,0,0.1,0s0.3,2.5,0.7,5.6c0.4,3,0.7,5.6,0.7,5.6C433.2,119.7,432.4,119.5,431.4,119.2z
		 M443.1,53.7c0.7-1.5,2.2-3.1,3.4-3.6c1.1-0.5,2.7-0.5,4.3,0c6.6,2.2,13.6,11.6,17.9,24c2.6,7.5,3.2,15.6,1.7,21.6
		c-0.9,3.7-3.3,6.5-5.7,6.9c-1.5,0.2-3.9-0.5-6-1.8c-1.5-1-3.9-3-4.8-4.1l-0.7-0.8L454,95c1-1.1,1.7-2.6,2.3-4.5c0.5-2,0.5-6.4,0-9
		c-1.2-5.6-4.1-11.3-7.5-14.9c-0.7-0.7-1.7-1.6-2.4-2.1c-1.2-0.8-3.3-1.7-4.1-1.7c-1.1,0-1.2-0.2-1.2-1
		C441.2,59.8,442.3,55.4,443.1,53.7z M450.3,91.1l-0.3,0.5l-0.3-0.4c-0.6-0.8-3.2-5.6-4.1-7.7c-2-4.5-4-11.8-4-14.5
		c0-0.9,0.3-0.9,1.7,0c3.4,2.2,6.5,8,7.6,13.9C451.4,85.9,451.1,89.5,450.3,91.1z M398.3,85.6c0.4-1.9,0.7-2.1,2.9-3
		c11.5-4.6,23.5-12.2,33.5-20.9l0.8-0.7l0.1,3.6c0.1,2,0.2,4.2,0.3,4.9c0.9,6.2,2.1,10.8,4.1,15.4c2.5,5.8,5.6,11,9.3,15.2l1.6,1.9
		h-1.4c-2.7,0-10.4,0.4-13.6,0.6c-8.6,0.7-17.8,2.1-24.9,3.7c-1.5,0.3-2.8,0.6-3,0.6c-0.8,0-2.3-0.9-3.5-2.2
		c-2.9-2.9-5.4-7.9-6.2-12.4C398,90.4,398,87,398.3,85.6z"/>
	<path class="st0" d="M107.1,319.4c-4.2-5.6-9.1-9.4-13.5-10.6c-1.5-0.4-4.5-0.5-6-0.1c-2.3,0.5-4.6,2-6.1,4
		c-1.6,2.1-2.5,3.1-4.5,5.1c-8.1,8.2-18.2,15.4-29.7,21c-2.1,1-4.8,2.3-6,2.7c-2.7,1.1-3.4,1.5-4.3,2.5c-3.9,4.4-3.6,13.8,0.6,22.2
		c3.9,7.7,9.7,11.7,14.7,10.1c1-0.3,8.2-1.5,8.7-1.4c0.3,0,0.7,0.8,2,3.4c4,8.4,4.3,8.9,5,9.4c0.4,0.2,2.7,1.1,5.2,1.9
		s4.7,1.6,5,1.7c0.5,0.2,0.7,0.1,1.4-0.2c1.1-0.5,1.5-1.1,1.6-2.2c0-0.5-0.4-4.4-0.9-8.7c-0.5-4.3-1-7.9-0.9-7.9
		c0,0,1.3-0.1,2.7-0.3c1.7-0.1,5.8-0.2,11.3-0.2c7.8,0,8.9,0,10,0.3c7.4,1.8,13.4-3.4,15-13.1c1-6,0-15-2.5-22.5
		C113.8,330.3,110.5,323.9,107.1,319.4z M73.2,383.5l-1.8-0.5l-2.1-4.6l-2.1-4.6l0.7-0.1c0.4-0.1,1.8-0.2,3.1-0.4
		c1.3-0.2,2.4-0.3,2.5-0.4c0.1,0,0.1,0,0.1,0s0.3,2.5,0.7,5.6c0.4,3,0.7,5.6,0.7,5.6C74.9,384.1,74.1,383.8,73.2,383.5z M91.3,366.3
		c-2.7,0-10.4,0.4-13.6,0.6c-8.6,0.7-17.8,2.1-24.9,3.7c-1.5,0.3-2.8,0.6-3,0.6c-0.8,0-2.3-0.9-3.5-2.2c-2.9-2.9-5.4-7.9-6.2-12.4
		c-0.3-2-0.3-5.3,0-6.7c0.4-1.9,0.7-2.1,2.9-3c11.5-4.6,23.5-12.2,33.5-20.9l0.8-0.7l0.1,3.6c0.1,2,0.2,4.2,0.3,4.9
		c0.9,6.2,2.1,10.8,4.1,15.4c2.5,5.8,5.6,11,9.3,15.2l1.6,1.9H91.3z M92,355.4l-0.3,0.5l-0.3-0.4c-0.6-0.8-3.2-5.6-4.1-7.7
		c-2-4.5-4-11.8-4-14.5c0-0.9,0.3-0.9,1.7,0c3.4,2.2,6.5,8,7.6,13.9C93.1,350.3,92.8,353.8,92,355.4z M112.2,360.1
		c-0.9,3.7-3.3,6.5-5.7,6.9c-1.5,0.2-3.9-0.5-6-1.8c-1.5-1-3.9-3-4.8-4.1l-0.7-0.8l0.8-0.9c1-1.1,1.7-2.6,2.3-4.5c0.5-2,0.5-6.4,0-9
		c-1.2-5.6-4.1-11.3-7.5-14.9c-0.7-0.7-1.7-1.6-2.4-2.1c-1.2-0.8-3.3-1.7-4.1-1.7c-1.1,0-1.2-0.2-1.2-1c0-1.9,1-6.3,1.9-8
		c0.7-1.5,2.2-3.1,3.4-3.6c1.1-0.5,2.7-0.5,4.3,0c6.6,2.2,13.6,11.6,17.9,24C113.1,345.9,113.7,354,112.2,360.1z"/>
	<path class="st0" d="M286.6,319.4c-4.2-5.6-9.1-9.4-13.5-10.6c-1.5-0.4-4.5-0.5-6-0.1c-2.3,0.5-4.6,2-6.1,4
		c-1.6,2.1-2.5,3.1-4.5,5.1c-8.1,8.2-18.2,15.4-29.7,21c-2.1,1-4.8,2.3-6,2.7c-2.7,1.1-3.4,1.5-4.3,2.5c-3.9,4.4-3.6,13.8,0.6,22.2
		c3.9,7.7,9.7,11.7,14.7,10.1c1-0.3,8.2-1.5,8.7-1.4c0.3,0,0.7,0.8,2,3.4c4,8.4,4.3,8.9,5,9.4c0.4,0.2,2.7,1.1,5.2,1.9
		s4.7,1.6,5,1.7c0.5,0.2,0.7,0.1,1.4-0.2c1.1-0.5,1.5-1.1,1.6-2.2c0-0.5-0.4-4.4-0.9-8.7c-0.5-4.3-1-7.9-0.9-7.9
		c0,0,1.3-0.1,2.7-0.3c1.7-0.1,5.8-0.2,11.3-0.2c7.8,0,8.9,0,10,0.3c7.4,1.8,13.4-3.4,15-13.1c1-6,0-15-2.5-22.5
		C293.2,330.3,290,323.9,286.6,319.4z M252.6,383.5l-1.8-0.5l-2.1-4.6l-2.1-4.6l0.7-0.1c0.4-0.1,1.8-0.2,3.1-0.4
		c1.3-0.2,2.4-0.3,2.5-0.4c0.1,0,0.1,0,0.1,0s0.3,2.5,0.7,5.6c0.4,3,0.7,5.6,0.7,5.6S253.6,383.8,252.6,383.5z M270.8,366.3
		c-2.7,0-10.4,0.4-13.6,0.6c-8.6,0.7-17.8,2.1-24.9,3.7c-1.5,0.3-2.8,0.6-3,0.6c-0.8,0-2.3-0.9-3.5-2.2c-2.9-2.9-5.4-7.9-6.2-12.4
		c-0.3-2-0.3-5.3,0-6.7c0.4-1.9,0.7-2.1,2.9-3C234,342.3,246,334.7,256,326l0.8-0.7l0.1,3.6c0.1,2,0.2,4.2,0.3,4.9
		c0.9,6.2,2.1,10.8,4.1,15.4c2.5,5.8,5.6,11,9.3,15.2l1.6,1.9H270.8z M271.5,355.4l-0.3,0.5l-0.3-0.4c-0.6-0.8-3.2-5.6-4.1-7.7
		c-2-4.5-4-11.8-4-14.5c0-0.9,0.3-0.9,1.7,0c3.4,2.2,6.5,8,7.6,13.9C272.5,350.3,272.3,353.8,271.5,355.4z M291.7,360.1
		c-0.9,3.7-3.3,6.5-5.7,6.9c-1.5,0.2-3.9-0.5-6-1.8c-1.5-1-3.9-3-4.8-4.1l-0.7-0.8l0.8-0.9c1-1.1,1.7-2.6,2.3-4.5c0.5-2,0.5-6.4,0-9
		c-1.2-5.6-4.1-11.3-7.5-14.9c-0.7-0.7-1.7-1.6-2.4-2.1c-1.2-0.8-3.3-1.7-4.1-1.7c-1.1,0-1.2-0.2-1.2-1c0-1.9,1-6.3,1.9-8
		c0.7-1.5,2.2-3.1,3.4-3.6c1.1-0.5,2.7-0.5,4.3,0c6.6,2.2,13.6,11.6,17.9,24C292.6,345.9,293.2,354,291.7,360.1z"/>
	<path class="st0" d="M465.4,319.4c-4.2-5.6-9.1-9.4-13.5-10.6c-1.5-0.4-4.5-0.5-6-0.1c-2.3,0.5-4.6,2-6.1,4
		c-1.6,2.1-2.5,3.1-4.5,5.1c-8.1,8.2-18.2,15.4-29.7,21c-2.1,1-4.8,2.3-6,2.7c-2.7,1.1-3.4,1.5-4.3,2.5c-3.9,4.4-3.6,13.8,0.6,22.2
		c3.9,7.7,9.7,11.7,14.7,10.1c1-0.3,8.2-1.5,8.7-1.4c0.3,0,0.7,0.8,2,3.4c4,8.4,4.3,8.9,5,9.4c0.4,0.2,2.7,1.1,5.2,1.9
		s4.7,1.6,5,1.7c0.5,0.2,0.7,0.1,1.4-0.2c1.1-0.5,1.5-1.1,1.6-2.2c0-0.5-0.4-4.4-0.9-8.7c-0.5-4.3-1-7.9-0.9-7.9
		c0,0,1.3-0.1,2.7-0.3c1.7-0.1,5.8-0.2,11.3-0.2c7.8,0,8.9,0,10,0.3c7.4,1.8,13.4-3.4,15-13.1c1-6,0-15-2.5-22.5
		C472,330.3,468.8,323.9,465.4,319.4z M431.4,383.5l-1.8-0.5l-2.1-4.6l-2.1-4.6l0.7-0.1c0.4-0.1,1.8-0.2,3.1-0.4
		c1.3-0.2,2.4-0.3,2.5-0.4c0.1,0,0.1,0,0.1,0s0.3,2.5,0.7,5.6c0.4,3,0.7,5.6,0.7,5.6C433.2,384.1,432.4,383.8,431.4,383.5z
		 M449.6,366.3c-2.7,0-10.4,0.4-13.6,0.6c-8.6,0.7-17.8,2.1-24.9,3.7c-1.5,0.3-2.8,0.6-3,0.6c-0.8,0-2.3-0.9-3.5-2.2
		c-2.9-2.9-5.4-7.9-6.2-12.4c-0.3-2-0.3-5.3,0-6.7c0.4-1.9,0.7-2.1,2.9-3c11.5-4.6,23.5-12.2,33.5-20.9l0.8-0.7l0.1,3.6
		c0.1,2,0.2,4.2,0.3,4.9c0.9,6.2,2.1,10.8,4.1,15.4c2.5,5.8,5.6,11,9.3,15.2l1.6,1.9H449.6z M450.3,355.4L450,356l-0.3-0.4
		c-0.6-0.8-3.2-5.6-4.1-7.7c-2-4.5-4-11.8-4-14.5c0-0.9,0.3-0.9,1.7,0c3.4,2.2,6.5,8,7.6,13.9C451.4,350.3,451.1,353.8,450.3,355.4z
		 M470.5,360.1c-0.9,3.7-3.3,6.5-5.7,6.9c-1.5,0.2-3.9-0.5-6-1.8c-1.5-1-3.9-3-4.8-4.1l-0.7-0.8l0.8-0.9c1-1.1,1.7-2.6,2.3-4.5
		c0.5-2,0.5-6.4,0-9c-1.2-5.6-4.1-11.3-7.5-14.9c-0.7-0.7-1.7-1.6-2.4-2.1c-1.2-0.8-3.3-1.7-4.1-1.7c-1.1,0-1.2-0.2-1.2-1
		c0-1.9,1-6.3,1.9-8c0.7-1.5,2.2-3.1,3.4-3.6c1.1-0.5,2.7-0.5,4.3,0c6.6,2.2,13.6,11.6,17.9,24C471.4,345.9,472,354,470.5,360.1z"/>
</g>
</svg>
