
<svg version="1.1" id="Layer_1" xmlns="http://www.w3.org/2000/svg" xmlns:xlink="http://www.w3.org/1999/xlink" x="0px" y="0px"
	 viewBox="0 0 512 512" style="enable-background:new 0 0 512 512;" xml:space="preserve">
<style type="text/css">
	.st0{fill:#00A859;}
</style>
<g transform="translate(0.000000,512.000000) scale(0.100000,-0.100000)">
	<path class="st0" d="M134,4886c-58-27-106-80-123-135c-8-28-11-531-11-1888V1014l26-52c14-29,41-64,60-78c73-56,19-54,1423-54h1296
		l54-81c101-154,293-320,466-407c291-145,635-169,942-67c206,69,264,115,229,183c-27,53-56,54-156,6c-477-228-1069-63-1366,382
		c-133,200-192,415-181,658c22,476,349,878,815,1003c87,24,115,27,272,27s185-3,272-27c219-58,426-190,562-356
		c280-342,333-796,140-1187c-41-81-73-129-178-259c-36-45-39-90-7-117c40-31,79-24,123,25c288,309,394,751,282,1170
		c-30,112-104,270-176,374c-184,269-496,465-821,518c-156,25-284,20-508-21c-34-6-36-4-42,22c-9,47-49,98-97,122l-44,22h-870
		c-866,0-870,0-914-21c-26-13-54-38-70-62c-25-38-27-49-30-169c-3-116-1-133,18-174c14-28,38-56,63-72l41-27l668-5l669-5l-34-40
		c-56-66-123-171-168-266l-43-88l-546-3l-547-3l-41-29c-24-16-50-46-62-72c-19-39-21-58-18-172c3-122,5-131,31-171
		c54-82,43-81,609-81h497l6-37c18-117,29-166,51-238c14-44,28-86,30-92c8-18-2496-19-2529-1c-12,6-27,18-34,27
		c-10,12-12,368-13,1589v1572h1825h1825v-609c0-398,4-619,10-637c21-55,68-69,114-33l26,20v910c0,879-1,911-19,948
		c-26,50-91,107-138,120c-26,8-595,11-1823,11H185L134,4886z M3774,4739l26-20v-195v-194H1975H150v190c0,189,0,191,25,215l24,25
		h1774h1774L3774,4739z M3364,2664c11-4,16-18,16-43c0-34-3-37-60-65c-33-16-89-48-125-72l-65-44h-728c-553,0-731,3-740,12
		c-8,8-12,46-12,103s4,95,12,103c9,9,211,12,849,12C2972,2670,3355,2667,3364,2664z M2667,1713c-4-16-11-67-18-115l-12-88h-481
		c-362,0-485,3-494,12c-8,8-12,46-12,103s4,95,12,103c9,9,136,12,511,12h499L2667,1713z"/>
	<path class="st0" d="M394,4608c-22-10-44-47-44-74c0-25,47-64,78-64c36,0,72,37,72,74c0,31-40,76-67,75C423,4619,405,4614,394,4608
		z"/>
	<path class="st0" d="M675,4595c-47-46-17-125,49-125c29,0,76,39,76,64c0,28-22,64-47,75C717,4625,702,4623,675,4595z"/>
	<path class="st0" d="M2164,4597c-34-30-36-83-3-109c20-17,68-18,705-18c671,0,684,0,704,20c30,30,27,83-6,109c-26,21-34,21-700,21
		h-673L2164,4597z"/>
	<path class="st0" d="M1190,3922l-75-79l-35,16c-29,13-76,16-270,16c-222,0-237-1-275-22c-50-27-80-58-100-105c-12-30-15-82-15-265
		c0-199,3-233,19-268c23-52,81-102,128-112c49-10,437-10,486,0c47,10,105,60,128,112c16,35,19,69,19,271c0,203,2,233,17,245
		c9,8,47,49,85,92c76,86,83,113,43,152C1302,4019,1274,4010,1190,3922z M1000,3720c0-3-43-50-95-105l-94-100l-100,100
		c-84,82-98,101-84,107C646,3730,1000,3728,1000,3720z M1035,3261c-21-22-396-29-435-8c-25,12-25,15-28,147l-3,134l104-102
		c139-137,137-137,268,1c54,56,99,107,101,112c1,6,4-53,5-129C1050,3300,1048,3274,1035,3261z"/>
	<path class="st0" d="M1602,3729c-26-13-55-39-70-62c-26-39-27-45-27-182s1-143,27-182c16-24,44-49,70-62c44-21,48-21,914-21
		c827,0,871,1,910,19c23,10,54,36,70,57l29,37v152v152l-29,37c-60,79-26,76-789,76c-416,0-685-4-696-10c-10-5-24-22-30-39
		c-10-24-10-34,3-60c9-17,18-32,19-33c1-2,310-5,687-8l685-5v-110v-110l-849-3c-619-1-852,1-862,9s-14,38-14,103c0,95,8,116,42,116
		c27,0,68,45,68,75c0,14-11,37-25,50C1705,3756,1660,3757,1602,3729z"/>
	<path class="st0" d="M1190,2991c-75-78-75-78-105-65c-22,10-94,13-273,14c-270,0-290-4-345-70c-41-48-47-90-47-325
		c0-248,6-273,73-332c53-47,113-55,355-51c198,3,209,4,249,27c24,14,55,42,70,64l28,40l3,246l3,246l53,55c125,130,138,159,91,205
		C1302,3089,1274,3080,1190,2991z M897,2791l101-6l-94-102l-95-102l-99,102c-96,99-98,102-72,108C672,2799,767,2799,897,2791z
		 M1029,2328c-19-16-45-18-218-18c-257,0-241-11-241,162v132l104-102c139-137,136-137,270,4l101,107l3-134
		C1051,2352,1050,2344,1029,2328z"/>
	<path class="st0" d="M3800,2233c-336-178-578-312-601-335c-15-16-33-46-39-66c-6-22-10-180-10-397c0-328,2-364,19-400
		c10-22,27-47,37-56s157-87,325-173c251-128,315-156,349-156s97,28,342,153c179,90,314,165,334,184c18,18,38,50,43,70
		c15,52,15,710,0,768c-6,24-24,56-39,72s-160,100-322,187c-258,140-300,160-348,163C3850,2250,3826,2246,3800,2233z M4125,1974
		c129-69,235-129,235-132c0-4-108-62-240-128l-240-122l-246,125l-246,125l239,129c131,70,244,128,251,129
		C3885,2100,3996,2043,4125,1974z M3557,1588l243-123v-313V840l-250,125l-250,126v309c0,171,3,310,8,310
		C3312,1710,3424,1655,3557,1588z M4460,1406v-305l-27-19c-27-19-467-242-478-242c-3,0-5,139-5,309v309l243,125
		c133,69,248,126,255,126C4457,1710,4460,1643,4460,1406z"/>
	<path class="st0" d="M1190,2060l-76-81l-29,15c-25,13-73,16-270,16c-267,0-294-6-348-69c-41-49-47-90-47-326c0-191,3-225,19-260
		c21-46,79-101,119-112c15-5,133-8,262-8c230,0,236,0,277,24c24,14,55,42,70,64l28,40l3,246l3,246l53,55c125,130,138,159,91,205
		C1301,2159,1274,2150,1190,2060z M922,1773c-126-139-108-133-178-60c-32,34-77,81-99,105l-39,42h198h198L922,1773z M1029,1398
		c-19-16-45-18-218-18c-257,0-241-11-241,162v132l104-102c139-138,137-138,271,4l100,106l3-133C1051,1422,1050,1414,1029,1398z"/>
</g>
</svg>
