<svg xmlns="http://www.w3.org/2000/svg" viewBox="0 0 64 64">
  <path fill="#4a4a56" d="M5 18h54c1.1 0 2 .9 2 2v24c0 1.1-.9 2-2 2H5c-1.1 0-2-.9-2-2V20c0-1.1.9-2 2-2z"/>
  <path fill="#676b7f" d="M41 32v14h18c1.1 0 2-.9 2-2V32H41z"/>
  <path fill="#878b9b" d="M41 32V18h18c1.1 0 2 .9 2 2v12H41z"/>
  <path fill="#fff" d="M50 21h2v8h-2z"/>
  <path fill="#fff" d="M47 24h8v2h-8zM47 38h8v2h-8z"/>
  <path fill="#878b9b" d="M21 18h2v8h-2z"/>
  <path fill="#878b9b" d="M18 25h8v2h-8z"/>
  <path fill="#ddad6f" d="M26 43h-8v-7h6v-3h-6v-2h8v7h-6v3h6z"/>
</svg>
