<svg xmlns="http://www.w3.org/2000/svg" viewBox="0 0 64 64">
  <radialGradient id="a" cx="34.634" cy="48.988" r="2.125" gradientTransform="matrix(1 0 0 -1 0 66)" gradientUnits="userSpaceOnUse">
    <stop offset="0" stop-color="#f16571"/>
    <stop offset=".504" stop-color="#ef4959"/>
    <stop offset=".942" stop-color="#ea2c44"/>
  </radialGradient>
  <path fill="url(#a)" d="M32 16.48h3.58v2.39H32v-2.39z"/>
  <radialGradient id="b" cx="29.75" cy="56.254" r="8.774" gradientTransform="matrix(1 0 0 -1 0 66)" gradientUnits="userSpaceOnUse">
    <stop offset="0" stop-color="#6aa2b3"/>
    <stop offset=".504" stop-color="#528e9a"/>
    <stop offset=".942" stop-color="#3a7b86"/>
  </radialGradient>
  <path fill="url(#b)" d="M28.92 20.07h-2.89l2.39-11.93h2.39v10.05c0 1.03-.85 1.88-1.89 1.88z"/>
  <radialGradient id="c" cx="562.017" cy="56.938" r="9.513" gradientTransform="rotate(180 295.4 33)" gradientUnits="userSpaceOnUse">
    <stop offset="0" stop-color="#fff"/>
    <stop offset=".31" stop-color="#e6f3f6"/>
    <stop offset=".514" stop-color="#daedf1"/>
    <stop offset=".714" stop-color="#bbe1e8"/>
    <stop offset=".978" stop-color="#95d4d8"/>
  </radialGradient>
  <path fill="url(#c)" d="M28.42 8.13v9.01c0 .3.24.53.53.53h1.85v2.39h-2.88c-1.05 0-1.89-.85-1.89-1.89V8.13h2.39z"/>
  <radialGradient id="d" cx="35.232" cy="42.406" r="6.974" gradientTransform="matrix(1 0 0 -1 0 66)" gradientUnits="userSpaceOnUse">
    <stop offset="0" stop-color="#aa6eae"/>
    <stop offset=".504" stop-color="#9d5ca5"/>
    <stop offset=".983" stop-color="#914d9e"/>
  </radialGradient>
  <path fill="url(#d)" d="M32 22.45a2.981 2.981 0 0 0 0-5.96h3.58c1.65 0 3.58 1.93 3.58 3.58s-1.93 3.58-3.58 3.58L32 22.45z"/>
  <radialGradient id="e" cx="18.149" cy="503.811" r="9.836" gradientTransform="matrix(1 0 0 -.451 0 277.312)" gradientUnits="userSpaceOnUse">
    <stop offset=".001" stop-color="#dab3d4"/>
    <stop offset=".43" stop-color="#cc9bc7"/>
    <stop offset="1" stop-color="#aa6eae"/>
  </radialGradient>
  <path fill="url(#e)" d="M18.15 53.51a2.86 2.86 0 0 1-2.86-2.86l9.55-1.94c0 1.58-1.11 4.8.47 4.8h-7.16z"/>
  <radialGradient id="f" cx="27.561" cy="55.438" r="12.045" gradientTransform="matrix(1 0 0 -1 0 66)" gradientUnits="userSpaceOnUse">
    <stop offset="0" stop-color="#fbddea"/>
    <stop offset=".43" stop-color="#eed6e8"/>
    <stop offset="1" stop-color="#dab3d4"/>
  </radialGradient>
  <path fill="url(#f)" d="M28.42 10.52 15.29 21.26l8.35 2.39 11.93-13.13h-7.15z"/>
  <radialGradient id="g" cx="14.959" cy="36.347" r="22.193" gradientTransform="matrix(1 0 0 -1 0 66)" gradientUnits="userSpaceOnUse">
    <stop offset="0" stop-color="#fbddea"/>
    <stop offset=".43" stop-color="#eed6e8"/>
    <stop offset="1" stop-color="#dab3d4"/>
  </radialGradient>
  <path fill="url(#g)" d="M15.29 21.26v29.39h7.16l2.39-29.39h-9.55z"/>
  <radialGradient id="h" cx="41.771" cy="45.985" r="34.828" gradientTransform="matrix(1 0 0 -1 0 66)" gradientUnits="userSpaceOnUse">
    <stop offset=".001" stop-color="#dab3d4"/>
    <stop offset=".43" stop-color="#cc9bc7"/>
    <stop offset="1" stop-color="#aa6eae"/>
  </radialGradient>
  <path fill="url(#h)" d="M35.58 10.52 22.45 21.26v29.39a2.86 2.86 0 0 0 2.86 2.86h20.53a2.86 2.86 0 0 0 2.86-2.86V21.26L35.58 10.52zm0 11.93a2.981 2.981 0 0 1 0-5.96 2.981 2.981 0 0 1 0 5.96z"/>
  <radialGradient id="i" cx="37.84" cy="56.254" r="8.799" gradientTransform="matrix(1 0 0 -1 0 66)" gradientUnits="userSpaceOnUse">
    <stop offset="0" stop-color="#6aa2b3"/>
    <stop offset=".504" stop-color="#528e9a"/>
    <stop offset=".942" stop-color="#3a7b86"/>
  </radialGradient>
  <path fill="url(#i)" d="M35.91 20.07H33.2l2.39-3.58 1.19-8.35h2.39v8.68a3.271 3.271 0 0 1-3.26 3.25z"/>
  <radialGradient id="j" cx="33.574" cy="56.938" r="9.611" gradientTransform="matrix(1 0 0 -1 0 66)" gradientUnits="userSpaceOnUse">
    <stop offset="0" stop-color="#fff"/>
    <stop offset=".31" stop-color="#e6f3f6"/>
    <stop offset=".514" stop-color="#daedf1"/>
    <stop offset=".714" stop-color="#bbe1e8"/>
    <stop offset=".978" stop-color="#95d4d8"/>
  </radialGradient>
  <path fill="url(#j)" d="M34.39 8.13v7.49c0 .64-.29 1.22-.77 1.61a2.995 2.995 0 0 0-.96 2.84h.85c1.8 0 3.27-1.46 3.27-3.27V8.13h-2.39z"/>
  <radialGradient id="k" cx="34.483" cy="482.625" r="19.684" gradientTransform="matrix(.931 0 0 -.113 -.351 108.104)" gradientUnits="userSpaceOnUse">
    <stop offset="0" stop-color="#e8cbe2"/>
    <stop offset=".127" stop-color="#eed5e7"/>
    <stop offset=".496" stop-color="#f7ebf4"/>
    <stop offset=".888" stop-color="#fff"/>
  </radialGradient>
  <path fill="url(#k)" d="M32 55.87c10.55 0 19.1-1.06 19.1-2.36H12.9c0 1.3 8.55 2.36 19.1 2.36z"/>
  <radialGradient id="l" cx="736.424" cy="-399.937" r="28.283" gradientTransform="matrix(-1 0 0 .932 780.865 403.208)" gradientUnits="userSpaceOnUse">
    <stop offset="0" stop-color="#fef046"/>
    <stop offset=".512" stop-color="#fee900"/>
    <stop offset=".747" stop-color="#febe1c"/>
    <stop offset=".976" stop-color="#f8982e"/>
  </radialGradient>
  <path fill="url(#l)" d="m36.6 26.77 1.86 5.73h6.03c1.04 0 1.47 1.33.63 1.94l-4.88 3.54 1.86 5.73c.32.99-.81 1.81-1.65 1.2l-4.88-3.54-4.88 3.54c-.84.61-1.97-.21-1.65-1.2l1.86-5.73-4.88-3.54c-.84-.61-.41-1.94.63-1.94h6.03l1.86-5.73c.34-.98 1.74-.98 2.06 0z"/>
</svg>
