<svg xmlns="http://www.w3.org/2000/svg" viewBox="0 0 60 60">
  <path fill="#e1efff" d="M59 9v47a3 3 0 0 1-3 3H4a3 3 0 0 1-3-3V9l1-1h56Z"/>
  <path fill="#3596bc" d="M59 4v5H1V4a3 3 0 0 1 3-3h52a3 3 0 0 1 3 3Z"/>
  <path fill="#ec9f1b" d="m17.91 27.02-.42-2.39 3.25-3.1a.84.84 0 0 0-.48-1.44l-4.48-.64-2.01-3.98a.864.864 0 0 0-1.54 0l-2.01 3.98-4.48.64a.84.84 0 0 0-.48 1.44l3.25 3.1-.77 4.38a.857.857 0 0 0 1.25.89l1.14-.59zm31.959 2.29 1.14.59a.857.857 0 0 0 1.25-.89l-.77-4.38 3.25-3.1a.84.84 0 0 0-.48-1.44l-4.48-.64-2.01-3.98a.864.864 0 0 0-1.54 0l-2.01 3.98-4.48.64a.84.84 0 0 0-.48 1.44l3.25 3.1-.42 2.39z"/>
  <path fill="#f4b615" d="m31.932 16.193 5.013 10.089L48.153 27.9a2.137 2.137 0 0 1 1.194 3.651l-8.11 7.849 1.914 11.089a2.151 2.151 0 0 1-3.126 2.256L30 47.514l-10.025 5.235a2.151 2.151 0 0 1-3.126-2.256L18.763 39.4l-8.11-7.853a2.137 2.137 0 0 1 1.194-3.647l11.208-1.618 5.013-10.089a2.161 2.161 0 0 1 3.864 0Z"/>
  <path fill="#fff" d="M6 6H5a1 1 0 0 1 0-2h1a1 1 0 0 1 0 2zm5 0h-1a1 1 0 0 1 0-2h1a1 1 0 0 1 0 2zm5 0h-1a1 1 0 0 1 0-2h1a1 1 0 0 1 0 2z"/>
  <path fill="#276b89" d="M55 6h-6a1 1 0 0 1 0-2h6a1 1 0 0 1 0 2Z"/>
  <path fill="#fff" d="M27 42a.993.993 0 0 1-.707-.293l-2-2a1 1 0 0 1 1.414-1.414l1.21 1.21 7.3-9.128a1 1 0 1 1 1.562 1.25l-8 10a1 1 0 0 1-.725.373Z"/>
</svg>
