<svg xmlns="http://www.w3.org/2000/svg" viewBox="0 0 512 512" id="guestbook">
  <linearGradient id="a" x1="37.158" x2="454.76" y1="464.801" y2="47.199" gradientUnits="userSpaceOnUse">
    <stop offset="0" stop-color="#fcc60e"></stop>
    <stop offset="1" stop-color="#e92e29"></stop>
  </linearGradient>
  <path fill="url(#a)" d="M512 138.681c0-10.349-4.015-20.063-11.306-27.354l-8.679-8.679c-7.291-7.29-17.005-11.306-27.354-11.306a38.644 38.644 0 0 0-16.129 3.497V60.46c0-25.985-21.141-47.126-47.126-47.126H90.512c-25.985 0-47.126 21.141-47.126 47.126v19.93H21.35C9.578 80.39 0 89.967 0 101.739v14.833c0 11.772 9.578 21.35 21.35 21.35h22.036v40.364H21.35c-11.772 0-21.35 9.577-21.35 21.35v14.833c0 11.771 9.578 21.349 21.35 21.349h22.036v40.365H21.35C9.578 276.183 0 285.76 0 297.531v14.833c0 11.772 9.578 21.35 21.35 21.35h22.036v40.364H21.35c-11.772 0-21.35 9.577-21.35 21.35v14.833c0 11.772 9.578 21.35 21.35 21.35h22.036v19.93c0 25.985 21.141 47.126 47.126 47.126h310.894c25.986 0 47.126-21.141 47.126-47.126V218.196l52.161-52.161c7.291-7.291 11.307-17.006 11.307-27.354zM16 116.572v-14.833c0-2.899 2.45-5.35 5.35-5.35h50.374c2.9 0 5.35 2.45 5.35 5.35v14.833c0 2.899-2.45 5.35-5.35 5.35H21.35c-2.9 0-5.35-2.45-5.35-5.35zm0 97.897v-14.833c0-2.899 2.45-5.35 5.35-5.35h50.374c2.9 0 5.35 2.45 5.35 5.35v14.833c0 2.899-2.45 5.349-5.35 5.349H21.35c-2.9-.001-5.35-2.45-5.35-5.349zm0 97.895v-14.833c0-2.899 2.45-5.349 5.35-5.349h50.374c2.9 0 5.35 2.449 5.35 5.349v14.833c0 2.899-2.45 5.35-5.35 5.35H21.35c-2.9 0-5.35-2.45-5.35-5.35zm0 97.897v-14.833c0-2.899 2.45-5.35 5.35-5.35h50.374c2.9 0 5.35 2.45 5.35 5.35v14.833c0 2.899-2.45 5.35-5.35 5.35H21.35c-2.9-.001-5.35-2.451-5.35-5.35zm43.386 41.279v-19.93h12.337c11.772 0 21.35-9.577 21.35-21.35v-14.833c0-11.772-9.578-21.35-21.35-21.35H59.386v-40.364h12.337c11.772 0 21.35-9.577 21.35-21.35V297.53c0-11.771-9.578-21.349-21.35-21.349H59.386v-40.365h12.337c11.772 0 21.35-9.577 21.35-21.349v-14.833c0-11.772-9.578-21.35-21.35-21.35H59.386V137.92h12.337c11.772 0 21.35-9.577 21.35-21.35v-14.833c0-11.772-9.578-21.35-21.35-21.35H59.386V60.46c0-17.163 13.963-31.126 31.126-31.126H117.2v453.332H90.512c-17.163 0-31.126-13.963-31.126-31.126zm373.147 0c0 17.163-13.963 31.126-31.126 31.126H133.2V29.334h268.206c17.163 0 31.126 13.963 31.126 31.126v46.964l-42.047 42.047v-17.357c0-9.925-8.075-18-18-18H193.247c-9.925 0-18 8.075-18 18v42.963c0 9.925 8.075 18 18 18H346.88L216.869 323.088a8.005 8.005 0 0 0-2.071 3.587l-19.06 71.132a8.001 8.001 0 0 0 9.798 9.799l71.132-19.06a8 8 0 0 0 3.586-2.07l152.278-152.279V451.54zM362.88 177.076H193.247c-1.084 0-2-.916-2-2v-42.963c0-1.084.916-2 2-2h179.239c1.084 0 2 .916 2 2v33.357l-11.606 11.606zM226.666 344.2l32.476 32.476-44.364 11.887 11.888-44.363zM489.38 154.72 274.598 369.503l-40.758-40.758 214.782-214.782c8.845-8.846 23.235-8.846 32.08 0l8.679 8.679c4.269 4.268 6.62 9.964 6.62 16.039s-2.352 11.771-6.621 16.039z"></path>
</svg>
