<svg id="Layer_1" data-name="Layer 1" xmlns="http://www.w3.org/2000/svg" viewBox="0 0 22 22"><defs><style>.cls-1{fill:#00a14b;}</style></defs><title>01 ICON</title><path class="cls-1" d="M21,5.45h0a.5.5,0,0,0-.12-.28s.23.22-3.64-3.65A1.8,1.8,0,0,0,16,1H3.39A2.39,2.39,0,0,0,1,3.39V18.18A2.82,2.82,0,0,0,3.82,21H18.18A2.83,2.83,0,0,0,21,18.17ZM12,2.5h2.27V6a.83.83,0,0,1-.83.83H12Zm-6.73,0H10.5V6.83H6.11A.84.84,0,0,1,5.27,6Zm9,17h-9V15.33h9Zm0-5.67h-9v-.67a.84.84,0,0,1,.84-.83h7.33a.83.83,0,0,1,.83.83Zm5.23-3.06v7.41a1.32,1.32,0,0,1-1.32,1.32H15.77V13.16a2.33,2.33,0,0,0-2.33-2.33H6.11a2.33,2.33,0,0,0-2.34,2.33v6.33A1.32,1.32,0,0,1,2.5,18.18V3.39a.89.89,0,0,1,.89-.89h.38V6A2.34,2.34,0,0,0,6.11,8.33h7.33A2.33,2.33,0,0,0,15.77,6V2.5h.15a.43.43,0,0,1,.3.13l2.14,2.13,1,1a.39.39,0,0,1,.13.3Z"/></svg>