<!-- Generator: Adobe Illustrator 24.0.0, SVG Export Plug-In . SVG Version: 6.00 Build 0)  -->
<svg version="1.1" id="Layer_1" xmlns="http://www.w3.org/2000/svg" xmlns:xlink="http://www.w3.org/1999/xlink" x="0px" y="0px"
	 viewBox="0 0 22 22" style="enable-background:new 0 0 22 22;" xml:space="preserve">
<style type="text/css">
	.st0{fill:#FFFFFF;}
</style>
<title>01 ICON</title>
<path class="st0" d="M21,5.4L21,5.4c0-0.1-0.1-0.2-0.1-0.3c0,0,0.2,0.2-3.6-3.7C16.9,1.2,16.5,1,16,1H3.4C2.1,1,1,2.1,1,3.4v14.8
	C1,19.7,2.3,21,3.8,21h14.4c1.6,0,2.8-1.3,2.8-2.8V5.4z M12,2.5h2.3V6c0,0.5-0.4,0.8-0.8,0.8H12V2.5z M5.3,2.5h5.2v4.3H6.1
	C5.6,6.8,5.3,6.5,5.3,6V2.5z M14.3,19.5h-9v-4.2h9V19.5z M14.3,13.8h-9v-0.7c0-0.5,0.4-0.8,0.8-0.8h7.3c0.5,0,0.8,0.4,0.8,0.8V13.8z
	 M19.5,10.8v7.4c0,0.7-0.6,1.3-1.3,1.3h-2.4v-6.3c0-1.3-1-2.3-2.3-2.3H6.1c-1.3,0-2.3,1-2.3,2.3c0,0,0,0,0,0v6.3
	c-0.7,0-1.3-0.6-1.3-1.3V3.4c0-0.5,0.4-0.9,0.9-0.9l0,0h0.4V6c0,1.3,1.1,2.3,2.3,2.3h7.3c1.3,0,2.3-1,2.3-2.3V2.5h0.1
	c0.1,0,0.2,0,0.3,0.1l2.1,2.1l1,1c0.1,0.1,0.1,0.2,0.1,0.3L19.5,10.8z"/>
</svg>
