<!-- Generator: Adobe Illustrator 24.0.0, SVG Export Plug-In . SVG Version: 6.00 Build 0)  -->
<svg version="1.1" id="Layer_1" xmlns="http://www.w3.org/2000/svg" xmlns:xlink="http://www.w3.org/1999/xlink" x="0px" y="0px"
	 viewBox="0 0 22 22" style="enable-background:new 0 0 22 22;" xml:space="preserve">
<style type="text/css">
	.st0{fill:#AAAAAA;}
</style>
<title>01 ICON</title>
<g id="Layer_2_1_">
	<path class="st0" d="M20.2,16.4l-4.6-4.6c-0.3-0.3-0.6-0.5-1-0.6c0.4-0.9,0.7-2,0.7-3c0-4-3.2-7.2-7.2-7.2S0.9,4.2,0.9,8.2
		c0,4,3.2,7.2,7.2,7.2c1,0,2.1-0.2,3-0.7c0.1,0.4,0.3,0.7,0.6,1l4.6,4.6c1.1,1.1,2.8,1.1,3.8,0C21.2,19.3,21.3,17.5,20.2,16.4
		C20.3,16.4,20.2,16.4,20.2,16.4z M2.5,8.2C2.5,5,5,2.5,8.2,2.5s5.7,2.5,5.7,5.7c0,3.1-2.5,5.7-5.7,5.7c0,0,0,0,0,0
		C5,13.9,2.5,11.3,2.5,8.2z M19.1,19.2c-0.5,0.5-1.2,0.5-1.7,0c0,0,0,0,0,0l-4.6-4.6c-0.2-0.2-0.3-0.4-0.3-0.7
		c0.5-0.4,1-0.8,1.3-1.3c0.3,0,0.5,0.1,0.7,0.3l4.6,4.6C19.6,17.9,19.6,18.7,19.1,19.2L19.1,19.2z"/>
</g>
</svg>
