<svg version="1.1" id="Layer_1" xmlns="http://www.w3.org/2000/svg" xmlns:xlink="http://www.w3.org/1999/xlink" x="0px" y="0px"
	 viewBox="0 0 512 512" style="enable-background:new 0 0 512 512;" xml:space="preserve">
<style type="text/css">
	.st0{fill:#00A859;}
</style>
<g transform="translate(0.000000,512.000000) scale(0.100000,-0.100000)">
	<path class="st0" d="M145,4861c-53-24-119-100-134-153c-9-32-11-557-9-2109L5,534l38-76c43-87,98-142,186-185l56-28l1916-3
		c1854-2,1917-2,1939,16c31,25,31,75,1,105l-22,22l-1903,5l-1903,5l-49,30c-30,19-60,49-79,79l-30,49l-3,1764l-2,1763h2410h2410
		l-2-1763l-3-1764l-30-49c-19-30-49-60-79-79l-49-30l-193-5c-171-4-194-7-213-24c-28-25-28-79,0-107c20-20,29-20,227-17
		c203,3,208,4,263,31c88,43,143,98,186,185l38,76l3,2070c2,1913,1,2074-14,2115c-22,57-78,119-129,142c-38,18-122,19-1896,19H1223
		l-21-23c-27-29-28-67-3-98l19-24l1852-5l1852-5l24-28c24-28,24-30,24-248v-219H2560H150v221v221l29,29l29,29h346
		c365,0,385,2,405,47c16,34,14,47-10,77l-20,26H557C218,4880,181,4878,145,4861z"/>
	<path class="st0" d="M3825,4550c-75-30-59-140,20-140c68,0,102,88,49,129C3865,4562,3856,4563,3825,4550z"/>
	<path class="st0" d="M4160,4553c-75-28-61-144,18-143c31,1,54,16,71,48c15,29,7,56-26,82C4197,4560,4186,4563,4160,4553z"/>
	<path class="st0" d="M4466,4539c-54-42-19-129,51-129c22,0,38,8,52,26c28,36,26,60-8,95C4526,4565,4502,4567,4466,4539z"/>
	<path class="st0" d="M2999,3930c-229-27-476-156-625-325l-56-65h-370h-369l-24-25c-32-31-32-69,0-100l24-25h322c302,0,321-1,314-17
		c-37-89-66-184-79-253c-30-156-16-359,34-506c11-31,20-61,20-66c0-4-139-8-310-8c-297,0-311-1-330-20c-22-22-26-60-10-90
		c19-36,63-40,406-40h333l22-32c123-177,341-331,547-387c381-104,790,23,1039,322l48,57l188-187c104-104,197-205,208-225
		c24-48,24-91-1-144c-34-70-108-103-185-83c-31,9-66,36-151,120c-98,97-114,109-145,109c-44,0-72-28-72-72c0-26,17-48,124-153
		c140-138,180-159,297-158c173,1,315,160,299,333c-9,104-33,140-219,327l-171,172l232,3l233,3l24,28c29,34,30,56,3,91l-20,26h-266
		h-265l6,23c3,12,17,65,32,117c23,82,27,115,28,242l1,148h26c32,0,69,38,69,72c0,42-30,69-81,75l-45,5l-36,84l-35,84h277
		c257,0,280,1,301,19c32,26,32,86,0,112c-22,18-46,19-352,19c-181,0-329,4-329,8c0,5-35,44-78,88c-167,169-364,265-602,294
		C3137,3941,3097,3941,2999,3930z M3329,3759c155-39,294-122,407-242c399-419,269-1102-257-1352c-120-56-214-77-359-77
		c-147,0-240,20-365,81c-104,50-153,84-232,162c-108,106-180,227-224,375c-30,100-37,285-14,395c84,415,459,707,879,682
		C3214,3781,3288,3770,3329,3759z"/>
	<path class="st0" d="M2995,3596c-205-40-385-177-475-360c-53-109-70-180-70-301c0-177,58-326,176-454c349-376,958-247,1132,241
		c23,65,26,88,26,213c0,127-2,147-26,213c-39,108-84,178-168,262C3434,3566,3207,3637,2995,3596z M3275,3434c80-27,77-20,73-187
		c-4-199,12-187-243-187s-240-12-240,187v148l59,23c32,13,77,27,100,32C3081,3462,3216,3454,3275,3434z M3579,3179
		c100-184,74-421-62-583l-33-39l-21,35c-24,41-74,81-122,97c-44,14-422,15-476,0c-26-7-57-28-87-59l-47-49l-27,36
		c-77,101-109,212-102,352c6,103,25,167,75,243l28,43l6-90c7-105,29-157,86-204c55-45,110-53,338-49c182,3,204,5,240,25
		c89,47,116,102,123,246l5,109l23-29C3539,3248,3563,3210,3579,3179z M3331,2521c16-16,29-35,29-41c0-16-62-40-150-58s-190-8-280,27
		c-79,30-87,37-74,58c23,38,53,43,252,43h194L3331,2521z"/>
	<path class="st0" d="M630,3674c-46-20-77-50-103-99c-20-36-22-58-25-240c-5-253,2-290,68-355c65-66,102-73,355-68
		c192,3,202,4,245,28c24,14,58,45,75,68l30,44v253v253l-30,43c-16,23-50,53-74,66c-43,22-52,23-275,23C712,3689,658,3686,630,3674z
		 M1112,3523c16-15,18-35,18-218c0-158-3-205-14-221c-13-17-30-19-215-22l-201-3l-25,25c-25,25-25,25-25,221c0,182,1,196,20,215
		s33,20,222,20C1065,3540,1096,3538,1112,3523z"/>
	<path class="st0" d="M1573,3210c-46-19-57-83-20-118c22-21,32-22,214-22h192l20,26c26,33,27,65,2,95c-19,23-23,24-203,26
		C1678,3218,1585,3215,1573,3210z"/>
	<path class="st0" d="M645,2685c-53-19-120-91-135-145c-7-27-10-116-8-254c3-211,3-211,31-259c15-26,47-60,69-75l41-27l226-3
		c249-4,281,1,337,50c70,62,74,79,74,338c0,210-2,234-20,269c-24,48-79,95-129,110C1073,2706,696,2703,645,2685z M1108,2534
		c22-15,22-20,22-221c0-178-2-209-17-225s-35-18-217-18c-111,0-206,4-212,8c-29,19-34,56-34,237c0,251-17,235,242,235
		C1051,2550,1090,2547,1108,2534z"/>
	<path class="st0" d="M1551,2194c-28-35-26-69,4-99c24-25,26-25,210-25s186,0,210,25c30,30,32,64,4,99l-20,26h-194h-194L1551,2194z"
		/>
	<path class="st0" d="M640,1689c-44-18-90-59-113-102c-20-39-22-57-25-255c-4-251,3-287,71-349c63-58,100-65,343-61
		c193,3,212,5,250,25c51,27,90,72,104,121c7,24,10,120,8,268l-3,231l-27,39c-15,21-44,50-65,64c-36,25-39,25-277,27
		C761,1698,655,1695,640,1689z M1112,1533c16-15,18-35,18-220c0-190-1-204-20-223s-33-20-215-20c-263,0-245-18-245,245
		c0,182,1,196,20,215s33,20,222,20C1065,1550,1096,1548,1112,1533z"/>
	<path class="st0" d="M2830,1677c-52-27-97-86-110-143c-14-57-12-396,2-452c15-59,85-132,144-150c54-16,422-16,475-1
		c50,16,105,61,132,112c21,40,22,54,22,267c0,222,0,226-26,275c-15,30-42,62-68,80l-43,30l-241,3C2879,1701,2874,1701,2830,1677z
		 M3326,1529c17-19,19-38,19-221c0-259,21-238-240-238c-258,0-239-18-243,221c-2,100-1,193,2,205c13,52,22,54,240,54
		C3298,1550,3308,1549,3326,1529z"/>
	<path class="st0" d="M1555,1525c-14-13-25-36-25-50s11-37,25-50l24-25h388c421,0,423,0,437,55c7,29-15,79-39,89c-9,3-190,6-401,6
		h-385L1555,1525z"/>
	<path class="st0" d="M1575,1218c-50-27-60-80-22-116c22-21,32-22,213-22c186,0,191,1,212,23c36,38,28,88-19,112
		C1924,1233,1607,1236,1575,1218z"/>
	<path class="st0" d="M3785,1218c-48-28-57-70-24-112l20-26h194c187,0,195,1,215,22c25,27,26,69,1,99c-19,23-23,24-203,27
		C3861,1229,3799,1226,3785,1218z"/>
</g>
</svg>
