<svg xmlns="http://www.w3.org/2000/svg" xmlns:xlink="http://www.w3.org/1999/xlink" width="220" height="268.531" viewBox="0 0 220 268.531"><defs><radialGradient id="a" cx="0.5" cy="0.5" r="1.626" gradientTransform="translate(0.351 0.357) scale(0.299 0.287)" gradientUnits="objectBoundingBox"><stop offset="0"/><stop offset="1" stop-color="#fff"/></radialGradient><linearGradient id="b" x1="0.539" y1="0.448" x2="-0.007" y2="0.266" gradientUnits="objectBoundingBox"><stop offset="0" stop-color="#fff"/><stop offset="1" stop-color="#002f7f"/></linearGradient><linearGradient id="c" x1="0.256" y1="0.465" x2="1.088" y2="0.631" xlink:href="#b"/></defs><g transform="translate(-97 -206.053)"><ellipse cx="104.414" cy="31.185" rx="104.414" ry="31.185" transform="translate(102.686 412.215)" opacity="0.57" fill="url(#a)" style="mix-blend-mode:multiply;isolation:isolate"/><g transform="translate(97 356.642)"><path d="M227.532,269.227l-33.038,10.608-33.038-10.608-34.93,10.608L84.494,265.519,111.846,174.3l32.071,8,25.816-5.916,24.761,5.916,24.761-5.916,25.816,5.916,32.071-8,27.352,91.223-42.032,14.316Z" transform="translate(-84.494 -174.296)" fill="#fff"/><g transform="translate(14.047 9.139)"><path d="M123.625,263.983l-30.193-9.932,19.765-73.94,24.265,6.224Z" transform="translate(-93.432 -180.111)" fill="#3adc90"/><path d="M166.07,263.983l-31.963-9.932,6.588-73.94,25.375,6.224Z" transform="translate(-70.13 -180.111)" fill="#3adc90"/><path d="M146.376,254.051l-33.733,9.932,13.837-77.648,26.484-6.224Z" transform="translate(-82.425 -180.111)" fill="#92f2c5"/><path d="M186.408,254.051l-31.963,9.932V186.335l25.375-6.224Z" transform="translate(-58.479 -180.111)" fill="#92f2c5"/><path d="M210.912,263.983l-33.733-9.932-6.588-73.94,26.484,6.224Z" transform="translate(-49.224 -180.111)" fill="#3adc90"/><path d="M231.473,254.051l-30.193,9.932-13.837-77.648,24.266-6.224Z" transform="translate(-39.566 -180.111)" fill="#92f2c5"/></g><g transform="translate(30.527 10.454)"><path d="M138.96,228.667h0l-4.852-1.508Z" transform="translate(-86.625 -154.534)" fill="#fff"/><path d="M201.57,180.948l-5.36,1.375,5.36-1.375Z" transform="translate(-51.035 -180.948)" fill="#fff"/><path d="M164.926,231.192l8.583-2.667h0l-8.583,2.667Z" transform="translate(-68.969 -153.753)" fill="#fff"/><g transform="translate(0 5.35)"><path d="M113.072,233.62h0l-6.71-2.207Z" transform="translate(-102.521 -157.453)" fill="#fff"/><path d="M123.869,226.552l1.526-8.562c-1.564-1.914-2-4.38-1.447-7.57.121-.7.214-1.391.292-2.067l.014-.071h-.006a31.9,31.9,0,0,0,.211-3.277h3.25l.7-3.92h-4.213a18.019,18.019,0,0,0-6.91-11.977c-2.909-2.274-7.179-3.767-11.864-4.757l-1.5,5.622a20.583,20.583,0,0,1,7.713,3.4c4.173,3.373,5.862,8.433,4.952,15.211l-10.4,49.208,1.579.52,6.711,2.207,6.681-35.671A18.837,18.837,0,0,0,123.869,226.552Z" transform="translate(-103.918 -184.352)" fill="#fff"/></g><g transform="translate(47.491 22.085)"><path d="M166.07,219.824v-7.509c-8.3-1.955-17.823-2.265-27.072-2.559-.82-.027-1.63-.053-2.442-.082l-2.447,27.478,4.852,1.509,1.638-21.768C149.654,217.2,158.782,217.678,166.07,219.824Z" transform="translate(-134.108 -186.612)" fill="#fff"/><path d="M136.751,198.919h27.809V195H137.1Z" transform="translate(-132.597 -195)" fill="#fff"/></g><g transform="translate(19.951 22.085)"><path d="M147.214,195h-27.46l-.7,3.919h27.809Z" transform="translate(-115.217 -195)" fill="#fff"/><path d="M123.963,209.308a12.327,12.327,0,0,1-5.824-3.552l-1.526,8.562a25.521,25.521,0,0,0,3.509,1.493c6.832,2.342,15.7,2.819,25.208,3.146l-1.873,20.627.651-.192,2.447-27.478C137.8,211.624,129.667,211.217,123.963,209.308Z" transform="translate(-116.613 -188.852)" fill="#fff"/></g><g transform="translate(79.481 0.036)"><path d="M177.09,220.995c2.112-.008,4.254-.031,6.407-.1l-.588-6.6c-2.018.075-4.1.116-6.275.13l-2.323-33.455-6.827,1.674.924,20.374H154.445v3.92h14.141l1.317,29.073a31.9,31.9,0,0,0-10.329-5.807,49.663,49.663,0,0,0-5.13-1.482v7.509c.721.212,1.449.421,2.133.668,8.784,3.171,13.2,8.864,14.218,18.8l.121,2.678,8.582-2.667-.008-.119Z" transform="translate(-154.445 -180.971)" fill="#fff"/></g><g transform="translate(108.003 24.69)"><path d="M198.922,197.218c-6.352,6.046-15.125,7.693-26.365,8.111l.588,6.6c9.3-.3,18.74-1.5,26.445-6.114l8.355,48.168,1.843.544-10.313-57.868C199.293,196.845,199.112,197.037,198.922,197.218Z" transform="translate(-172.557 -196.658)" fill="#fff"/></g><g transform="translate(134.921 0)"><path d="M196.443,209.366c5.329-5.9,8.185-14.055,8.829-24.456.072-1.155.075-2.494.027-3.962l-5.359,1.375-1.683.431c-.017.333-.036.659-.063.963-.835,9.624-3.6,16.92-8.509,21.921L200,263.505,206.7,261.3,201.7,235.952h23.785l-1.251-4.676H200.773Z" transform="translate(-189.685 -180.948)" fill="#fff"/></g></g></g><g transform="translate(127.011 206.053)"><path d="M262.607,158.022c0,70.013-79.509,116.471-79.509,116.471s-27.687-16.873-50.37-44.69c-15.774-19.313-29.138-43.914-29.138-71.781a79.508,79.508,0,1,1,159.017,0Z" transform="translate(-103.59 -78.578)" fill="#00a859"/><circle cx="24.91" cy="24.91" r="24.91" transform="translate(49.538 84.326) rotate(-76.718)" fill="#fff"/><path d="M187.679,133.084l-65.564,65.564c22.664,27.817,50.329,44.69,50.329,44.69s74.751-43.722,79.226-110.254Z" transform="translate(-92.871 -47.423)" fill="url(#b)" style="mix-blend-mode:multiply;isolation:isolate"/><path d="M209.11,82.975a79.454,79.454,0,0,0-105.52,75.047,91.665,91.665,0,0,0,3.549,25l53.3-51.369Z" transform="translate(-103.59 -78.578)" fill="url(#c)" style="mix-blend-mode:multiply;isolation:isolate"/></g></g></svg>