<svg xmlns="http://www.w3.org/2000/svg" width="30" height="28.761" viewBox="0 0 30 28.761">
  <g id="Group_62775" data-name="Group 62775" transform="translate(-7.25 -7.251)">
    <path id="Path_115838" data-name="Path 115838" d="M15.5,35.641H7.714a.464.464,0,0,1-.464-.464V19.714a.464.464,0,0,1,.464-.464h10.7a.464.464,0,1,1,0,.928H8.178V34.713H15.5a.464.464,0,1,1,0,.928Z" transform="translate(0 -4.577)"/>
    <path id="Path_115839" data-name="Path 115839" d="M33.993,26.734c-.23,0-.467-.006-.69-.027a.464.464,0,1,1,.082-.924c.2.017.405.023.608.023a8.817,8.817,0,1,0-6.781-3.185.464.464,0,1,1-.714.594,9.741,9.741,0,1,1,7.495,3.519Z" transform="translate(-6.486)"/>
    <path id="Path_115840" data-name="Path 115840" d="M34.452,42.276H14.04a.464.464,0,0,1-.392-.713L23.854,25.482a.482.482,0,0,1,.783,0L34.843,41.564a.464.464,0,0,1-.392.713Zm-19.568-.928H33.608L24.246,26.6Zm2.175-11.635a.464.464,0,1,1,.656,0,.463.463,0,0,1-.656,0ZM15.747,28.4a.464.464,0,1,1,.656,0,.459.459,0,0,1-.328.136.449.449,0,0,1-.328-.136Zm-1.311-1.311a.456.456,0,0,1,0-.656.464.464,0,0,1,.656.656.486.486,0,0,1-.328.136.475.475,0,0,1-.328-.136ZM13.125,25.78a.466.466,0,1,1,.656-.662.474.474,0,0,1,0,.662.486.486,0,0,1-.328.136A.462.462,0,0,1,13.125,25.78Zm-1.317-1.311a.474.474,0,0,1,0-.662.466.466,0,1,1,.656.662.458.458,0,0,1-.328.13.481.481,0,0,1-.328-.13Z" transform="translate(-1.687 -6.264)"/>
    <path id="Path_115841" data-name="Path 115841" d="M7.714,23.162A.464.464,0,0,1,7.25,22.7V19.714a.464.464,0,0,1,.464-.464H10.7a.464.464,0,0,1,.464.464,3.451,3.451,0,0,1-3.448,3.448Zm.464-2.984v2.013a2.527,2.527,0,0,0,2.013-2.013Z" transform="translate(0 -4.577)"/>
  </g>
</svg>
