<svg style="width: 24px;" version="1.1" id="Layer_1" xmlns="http://www.w3.org/2000/svg" xmlns:xlink="http://www.w3.org/1999/xlink" x="0px" y="0px" width="24px" height="16px" viewBox="0 0 24 16" enable-background="new 0 0 24 16" xml:space="preserve">
  <path fill="#4399FA" d="M0,5v11h17V5H0z"></path>
  <path fill="none" d="M18,11.5c2.2-0.4,4-2.4,4-4.7C22,4.2,19.8,2,17.2,2c-1.7,0-3.1,0.8-4,2H18V11.5z"></path>
  <path d="M24,6.8C24,3.1,20.9,0,17.2,0C14.4,0,12,1.6,11,4h2.3c0.9-1.2,2.3-2,4-2C19.8,2,22,4.2,22,6.8
	c0,2.3-1.8,4.3-4,4.7v2C21.4,13.1,24,10.2,24,6.8z"></path>
</svg>
