<svg xmlns="http://www.w3.org/2000/svg" viewBox="0 0 51 51">
  <circle cx="25.5" cy="25.5" r="24" fill="#944AB3"/>
  <path fill="#81349B" d="M38.876 14.636v25.71l-2.49-1.5-2.49 1.5-2.49-1.5-2.49 1.5-2.49-1.5-2.5 1.5-2.5-1.5-2.49 1.5v-23.56a2.145 2.145 0 0 1 0-4.29h17.81c-.07 0-.15 0-.22.01h.22c1.18 0 2.13.95 2.13 2.13zm-21.64 5.95v16.8l-.85 1.7-.7 1.41-.71-1.41-.85-1.7v-16.8c0-.37.3-.68.68-.68h1.75c.38 0 .68.31.68.68z"/>
  <path fill="#FFF" d="M37.878 13.633v25.71l-2.49-1.5-2.49 1.5-2.49-1.5-2.49 1.5-2.49-1.5-2.5 1.5-2.5-1.5-2.49 1.5v-27.84h17.81a2.13 2.13 0 0 1 2.13 2.13z"/>
  <path fill="#BEC4C9" d="M17.934 11.5H35.74a2.143 2.143 0 0 0 0 4.284H17.934a2.143 2.143 0 0 1 0-4.284z"/>
  <path fill="#FED000" d="M16.24 21.413v14.969l-.85 1.701-.708 1.417-.709-1.417-.851-1.701.001-14.969z"/>
  <path fill="#1D364C" d="m15.39 38.083-.708 1.417-.71-1.417a1.382 1.382 0 0 1 1.417 0z"/>
  <path fill="#33ACFE" d="M13.123 21.414v14.969h.452c.611 0 1.107-.496 1.107-1.107V21.414h-1.559z"/>
  <path fill="#2C96E0" d="M14.682 21.414v13.862c0 .611.495 1.107 1.107 1.107h.452v-14.97h-1.559z"/>
  <path fill="#EAEEF2" d="M13.123 20.433h3.118v.98h-3.118z"/>
  <path fill="#EB4B33" d="M16.24 19.59v.843h-3.117v-.843c0-.379.307-.685.685-.685h1.747c.38 0 .685.306.685.685z"/>
  <path fill="#EAEEF2" d="M23.839 20.685h12.499v.962H23.839zM19.477 23.241h16.861v.962H19.477zM19.477 25.797h16.861v.962H19.477zM19.477 28.353h16.861v.962H19.477zM19.477 30.909h16.861v.962H19.477zM19.477 33.465h11.215v.962H19.477zM22.49 17.107h10.835v1.503H22.49z"/>
</svg>
