<?xml version="1.0" encoding="utf-8"?>
<!-- Generator: Adobe Illustrator 23.0.1, SVG Export Plug-In . SVG Version: 6.00 Build 0)  -->
<svg version="1.1" id="Layer_1" xmlns="http://www.w3.org/2000/svg" xmlns:xlink="http://www.w3.org/1999/xlink" x="0px" y="0px"
	 viewBox="0 0 450 450" style="enable-background:new 0 0 450 450;" xml:space="preserve">
<style type="text/css">
	.st0{fill:#E0E0E0;}
	.st1{fill:#EBEBEB;}
	.st2{fill:#00A859;}
	.st3{fill:#263238;}
	.st4{fill:#FAFAFA;}
	.st5{fill:none;}
	.st6{opacity:0.3;}
	.st7{fill:#FFFFFF;}
	.st8{font-family:'SegoeUI';}
	.st9{font-size:11px;}
	.st10{fill:#EB996E;}
	.st11{fill:#D1734A;}
	.st12{fill:#FFA64D;}
	.st13{fill:#455A64;}
</style>
<g id="Group_60641" transform="translate(-69.511 -27.926)">
	<g id="Background_Complete" transform="translate(88.716 110.061)">
		<g id="Group_60641-2">
			
				<rect id="Rectangle_14123" x="54.4" y="27.4" transform="matrix(0.9945 -0.1047 0.1047 0.9945 -18.2856 19.5665)" class="st0" width="245.6" height="313.1"/>
		</g>
		<g id="Group_60642" transform="translate(11.763 6.641)">
			
				<rect id="Rectangle_14124" x="58.7" y="32" transform="matrix(0.9889 -0.1484 0.1484 0.9889 -24.0972 28.7962)" class="st1" width="244.5" height="287.9"/>
		</g>
		<g id="Group_60658" transform="translate(232.108 31.565)">
			<g id="Group_60643">
				<path id="Path_143204" class="st0" d="M155.3,16.2c0,0-9.6-6.3-21.2,16.6S118,68.9,118,68.9s-3.1,4.8-6.4,1.7s-7.8-12-13.4-10.4
					c-5.8,1.7-7.7,8.1-6.6,17.7s2.8,30.5,2.9,32.4c0.1,1.9-0.9,4.6-3.5,2.8S73.5,94.6,66,102.2s0,33.6,0.8,36.4s0.2,4.1-1.2,4.8
					s-5.8-5.3-10.3-9.9s-10.4-9-14.3-4.3c-3.9,4.7-5.2,24.2,13.4,56l9.6,14.1l17.1-1c36.5-4.3,51.4-17,52.8-23s-5.8-8-12.1-8.8
					c-6.3-0.8-13.8-0.7-14.1-2.2s0.4-2.7,3.1-3.8s28-10.9,29.5-21.3s-20.7-12.4-23.6-13.4s-1.4-3.5,0.1-4.5
					c1.6-1,19.3-12.3,27.6-17.2s12.3-10.3,10.1-15.9c-2.1-5.4-11.9-3.7-16.4-4.4s-2.5-6.1-2.5-6.1s7.9-11.5,19.1-34.6s0.1-27,0.1-27
					"/>
			</g>
			<g id="Group_60645" transform="translate(12.971 21.291)">
				<g id="Group_60644">
					<path id="Path_143205" class="st1" d="M131.8,15.4c0,0-0.1,0.2-0.2,0.5l-0.7,1.4l-2.6,5.5c-2.3,4.8-5.6,11.6-9.8,20.1
						c-8.3,16.9-20,40.2-33,65.9s-24.8,49-33.2,65.9l-9.9,20c-1.2,2.3-2.1,4.2-2.7,5.4l-0.7,1.4c-0.2,0.3-0.3,0.5-0.3,0.5
						s0.1-0.2,0.2-0.5c0.2-0.3,0.4-0.8,0.7-1.4l2.6-5.5c2.3-4.8,5.6-11.6,9.8-20.1c8.3-16.9,20-40.2,33-65.9s24.8-49,33.2-65.9
						c4.2-8.4,7.6-15.3,9.9-20c1.2-2.3,2.1-4.2,2.7-5.4l0.7-1.4C131.7,15.6,131.8,15.4,131.8,15.4z"/>
				</g>
			</g>
			<g id="Group_60647" transform="translate(65.288 57.404)">
				<g id="Group_60646">
					<path id="Path_143206" class="st1" d="M38.7,15.4c0.2,0.4,0.3,0.8,0.4,1.2c0.2,0.8,0.6,1.9,1,3.2c0.8,2.7,1.7,6.5,2.7,10.7
						c1,4.2,1.8,7.9,2.5,10.8c0.3,1.3,0.6,2.4,0.8,3.3c0.1,0.4,0.2,0.8,0.2,1.2c-0.2-0.4-0.3-0.8-0.4-1.2c-0.2-0.8-0.6-1.9-0.9-3.2
						c-0.7-2.7-1.7-6.5-2.7-10.8c-1-4.1-1.9-7.9-2.6-10.8c-0.3-1.3-0.6-2.4-0.8-3.3C38.8,16.2,38.7,15.8,38.7,15.4z"/>
				</g>
			</g>
			<g id="Group_60649" transform="translate(74.535 78.097)">
				<g id="Group_60648">
					<path id="Path_143207" class="st1" d="M38.7,25.4c0-0.1,7.7-2.5,17.3-5.2s17.4-4.9,17.4-4.7s-7.7,2.5-17.3,5.2
						S38.7,25.5,38.7,25.4z"/>
				</g>
			</g>
			<g id="Group_60651" transform="translate(52.775 125.423)">
				<g id="Group_60650">
					<path id="Path_143208" class="st1" d="M38.7,16.6c0.4-0.1,0.8-0.1,1.3-0.1l3.4,0c2.9,0,6.9,0,11.3-0.2S63.1,16,66,15.7l3.4-0.3
						c0.4-0.1,0.8-0.1,1.3,0c-0.4,0.1-0.8,0.2-1.2,0.2c-0.8,0.1-2,0.3-3.4,0.4c-2.9,0.3-6.9,0.7-11.3,0.8s-8.4,0.1-11.3,0
						c-1.4-0.1-2.6-0.1-3.4-0.2C39.5,16.8,39.1,16.7,38.7,16.6z"/>
				</g>
			</g>
			<g id="Group_60653" transform="translate(38.307 100.731)">
				<g id="Group_60652">
					<path id="Path_143209" class="st1" d="M38.7,15.4c0.3,0.3,0.5,0.6,0.7,1c0.4,0.7,1,1.6,1.7,2.7c1.4,2.3,2.5,6.2,5.3,9
						c2,3.5,3.9,6.8,5.1,9.1l1.5,2.8c0.2,0.3,0.4,0.7,0.5,1.1c-0.3-0.3-0.5-0.6-0.7-1l-1.7-2.7c-1.4-2.3-3.2-5.5-5.3-9
						s-3.9-6.8-5.1-9.1l-1.5-2.8C39,16.1,38.8,15.8,38.7,15.4z"/>
				</g>
			</g>
			<g id="Group_60655" transform="translate(14.774 132.331)">
				<g id="Group_60654">
					<path id="Path_143210" class="st1" d="M38.7,15.4c0.3,0.4,0.6,0.8,0.8,1.2c0.6,0.9,1.3,2.1,2.1,3.5c1.8,2.9,4.2,7,6.9,11.5
						s5,8.6,6.7,11.6c0.8,1.4,1.5,2.6,2,3.5c0.3,0.4,0.5,0.9,0.7,1.3c-0.3-0.4-0.6-0.8-0.8-1.2c-0.6-0.9-1.3-2.1-2.1-3.5
						c-1.8-2.9-4.2-7-6.9-11.5s-5-8.6-6.7-11.6c-0.8-1.4-1.5-2.6-2-3.5C39.1,16.3,38.9,15.9,38.7,15.4z"/>
				</g>
			</g>
			<g id="Group_60657" transform="translate(33.74 161.441)">
				<g id="Group_60656">
					<path id="Path_143211" class="st1" d="M38.7,18.1c0.5-0.1,1.1-0.1,1.6-0.1l4.3-0.1c3.7-0.1,8.7-0.3,14.3-0.7s10.6-0.8,14.3-1.2
						l4.3-0.4c0.5-0.1,1.1-0.1,1.6-0.1c-0.5,0.1-1,0.2-1.6,0.3c-1,0.2-2.5,0.4-4.3,0.6c-3.6,0.5-8.7,1-14.3,1.3s-10.7,0.5-14.3,0.5
						c-1.8,0-3.3,0-4.4,0C39.8,18.2,39.2,18.1,38.7,18.1z"/>
				</g>
			</g>
		</g>
	</g>
	<g id="Plants" transform="translate(69.511 282.253)">
		<g id="Group_60668" transform="translate(0 14.827)">
			<g id="Group_60659">
				<path id="Path_143212" class="st2" d="M40,16.9c3.4-1.7,7.4-2,11-0.7c3.6,1.3,6.8,3.3,9.5,6.1c5.3,5.1,8.6,12.8,10.5,19.9
					c-8,1.6-16.2-3-20.3-5.6C44.3,32.5,35.3,21.3,40,16.9"/>
			</g>
			<g id="Group_60660" transform="translate(39.403 4.112)">
				<path id="Path_143213" class="st2" d="M45.4,39.7c-3.9-1.9-6.4-5.7-6.7-10.1c-0.2-4.3,1.4-8.4,4.3-11.6c1.3-1.5,3-2.8,5-2.7
					c1.9,0.2,3.5,1.4,4.2,3.1c0.7,1.7,0.9,3.6,0.7,5.4C52.2,30.1,50.5,36.1,45.4,39.7"/>
			</g>
			<g id="Group_60662" transform="translate(45.2 14.224)">
				<g id="Group_60661">
					<path id="Path_143214" class="st3" d="M52.5,49.4c-0.4-0.3-0.7-0.7-1.1-1.1l-2.8-3c-2.3-2.6-5.6-6.2-7.7-11.2
						c-1.9-4.2-2.6-8.8-2.2-13.3c0.2-1.4,0.5-2.7,1-4c0.1-0.4,0.3-0.7,0.4-1c0.1-0.2,0.2-0.3,0.2-0.3c-0.6,1.8-1,3.6-1.2,5.4
						c-0.4,4.5,0.4,9,2.3,13.1c2.1,4.8,5.3,8.5,7.5,11.1c1.1,1.3,2,2.4,2.6,3.2C51.9,48.6,52.2,49,52.5,49.4z"/>
				</g>
			</g>
			<g id="Group_60664" transform="translate(8.99 9.469)">
				<g id="Group_60663">
					<path id="Path_143215" class="st3" d="M38.7,15.4c0.2,0.1,0.4,0.2,0.6,0.3l1.6,1.1c1.3,0.9,3.3,2.3,5.6,4
						c4.7,3.4,11.2,8.2,18.2,13.7S78,45,82.4,48.7c2.2,1.9,4,3.4,5.3,4.5l1.4,1.2c0.2,0.1,0.3,0.3,0.5,0.5c-0.2-0.1-0.4-0.2-0.5-0.4
						l-1.5-1.2L82.2,49c-4.5-3.7-10.8-8.7-17.8-14.2S50.9,24.6,46.2,21.1L40.7,17l-1.5-1.1C39,15.7,38.8,15.6,38.7,15.4z"/>
				</g>
			</g>
			<g id="Group_60665" transform="translate(13.484 36.22)">
				<path id="Path_143216" class="st2" d="M68.4,18.7c-8-4.3-17.6-4.4-25.7-0.4c-2,1-4.2,2.8-4,5s2.6,3.6,4.8,4.3
					c9.4,2.6,19.3-0.8,25.3-8.4"/>
			</g>
			<g id="Group_60667" transform="translate(23.549 38.941)">
				<g id="Group_60666">
					<path id="Path_143217" class="st3" d="M38.7,19c0.4-0.3,0.8-0.5,1.2-0.7c0.5-0.3,1-0.5,1.5-0.7c0.6-0.2,1.3-0.5,2.1-0.8
						c0.8-0.3,1.7-0.5,2.6-0.7c1-0.2,2-0.4,3-0.5c2.3-0.3,4.7-0.3,7,0c2.3,0.3,4.6,0.9,6.8,1.7c1,0.4,1.9,0.8,2.8,1.3
						c0.8,0.4,1.6,0.8,2.3,1.3c0.6,0.4,1.2,0.8,1.8,1.3c0.5,0.3,0.9,0.7,1.3,1.1c0.4,0.3,0.7,0.6,1,1c-0.1,0.1-1.5-1.3-4.3-3
						c-0.8-0.5-1.5-0.9-2.3-1.3c-0.9-0.4-1.8-0.8-2.8-1.2c-2.2-0.8-4.4-1.3-6.7-1.6c-2.3-0.2-4.6-0.2-6.9,0c-1,0.1-2,0.3-3,0.5
						c-0.9,0.2-1.8,0.4-2.6,0.6C40.5,18.2,38.7,19.1,38.7,19z"/>
				</g>
			</g>
		</g>
		<g id="Group_60673" transform="translate(279.283)">
			<g id="Group_60672">
				<g id="Group_60669">
					<path id="Path_143218" class="st2" d="M49,107c-6.6-4.3-9-9.7-10.1-17.6c-1-8,1.5-15.9,6.8-21.9c4.4-4.9,10.6-8.2,13.8-14
						c3.4-6.1,3-14.3,7.9-19.3c3.4-3.5,8.4-4.5,12.6-7c3.4-2,6.1-4.9,9.2-7.4s6.7-4.5,10.7-4.4c5.9,0.2,10.8,5.8,11.3,11.8
						s-2.6,11.7-7,15.7c-3.2,2.9-7.1,5.2-9.1,9c-3.8,7.2,0.8,16.7-3.2,23.7c-3,5.1-10.1,7.8-10.8,13.6c-0.3,2.2,0.4,4.3,0.5,6.5
						c0.2,6.8-5.9,12.5-12.6,14S55.4,109.3,49,107"/>
				</g>
				<g id="Group_60671" transform="translate(10.966 24.344)">
					<g id="Group_60670">
						<path id="Path_143219" class="st3" d="M77,15.4c-0.2,0.3-0.4,0.6-0.7,0.8l-2,2.2c-0.9,0.9-2,2.1-3.1,3.4s-2.6,2.9-4,4.7
							c-1.4,1.8-3,3.7-4.6,5.9c-0.8,1.1-1.6,2.2-2.4,3.4l-2.4,3.7c-3.5,5.5-6.6,11.3-9.2,17.3c-2.6,6-4.6,12.2-6.2,18.6
							c-0.7,2.9-1.3,5.7-1.7,8.4c-0.5,2.6-0.8,5.1-1,7.4c-0.3,2.3-0.3,4.3-0.5,6.1s-0.2,3.4-0.2,4.6c0,1.2-0.1,2.2-0.1,2.9
							c0,0.3,0,0.7-0.1,1c-0.1-0.3-0.1-0.7-0.1-1c0-0.8,0-1.7-0.1-2.9c0-1.3-0.1-2.8,0-4.7s0.1-3.9,0.4-6.2c0.2-2.3,0.4-4.8,0.9-7.4
							c0.4-2.7,1-5.5,1.6-8.5c1.6-6.4,3.6-12.7,6.2-18.7c2.6-6,5.8-11.8,9.3-17.4l2.5-3.7c0.8-1.2,1.7-2.3,2.5-3.4
							c1.6-2.2,3.2-4.1,4.7-5.9c1.4-1.8,2.9-3.3,4.1-4.6s2.3-2.5,3.2-3.4l2.1-2.1C76.5,15.8,76.7,15.6,77,15.4z"/>
					</g>
				</g>
			</g>
		</g>
	</g>
	<g id="Window" transform="translate(120.236 133.248)">
		<g id="Group_60719">
			<g id="Group_60677">
				<g id="Group_60674" transform="translate(0.247 0.247)">
					<rect id="Rectangle_14125" x="38.7" y="15.4" class="st4" width="244.5" height="287.9"/>
				</g>
				<g id="Group_60676">
					<g id="Group_60675">
						<path id="Path_143220" class="st3" d="M283.5,303.6c0-1.9-0.1-116.4-0.2-287.9l0.2,0.2L39,15.9h0l0.2-0.2
							c0,106.3,0,205.3,0,287.9l-0.2-0.2L283.5,303.6l-244.5,0.2h-0.2v-0.2c0-82.6,0-181.6,0-287.9v-0.2H39l244.5,0h0.2v0.2
							C283.6,187.2,283.5,301.7,283.5,303.6z"/>
					</g>
				</g>
			</g>
			<g id="Group_60679" transform="translate(22.331 102.866)">
				<g id="Group_60678">
					<path id="Path_143221" class="st3" d="M134.9,45.8c0,0,0-0.2,0-0.5c0-0.4,0-0.9,0-1.5c0-1.4,0-3.4,0-5.9c0-5.2,0-12.7-0.1-22.1
						l0.2,0.2l-96,0.1h0l0.2-0.2c0,10.5,0,20.6,0,30.2l-0.2-0.2l68.6,0.1l20.1,0.1l5.4,0l1.4,0C134.7,45.8,134.9,45.8,134.9,45.8
						c0,0-0.2,0-0.5,0l-1.4,0l-5.3,0l-20,0.1l-68.8,0.1h-0.2v-0.2c0-9.6,0-19.7,0-30.2v-0.2h0.3l96,0.1h0.2v0.2
						c0,9.5-0.1,17.1-0.1,22.2c0,2.6,0,4.5,0,5.9c0,0.7,0,1.2,0,1.5C134.9,45.7,134.9,45.8,134.9,45.8z"/>
				</g>
			</g>
			<g id="Group_60681" transform="translate(22.331 143.715)">
				<g id="Group_60680">
					<path id="Path_143222" class="st3" d="M241.1,45.8c0,0,0-0.7,0-2s0-3.3,0-5.8c0-5.1,0-12.6-0.1-22.4l0.1,0.1L39,15.9h0l0.2-0.2
						c0,10.3,0,20.5,0,30.2l-0.2-0.2l143.8,0.1l42.7,0.1l11.5,0l3,0C240.8,45.8,241.1,45.8,241.1,45.8c0,0-0.3,0-1,0l-3,0l-11.5,0
						L183,46l-144,0.1h-0.2v-0.2c0-9.7,0-19.8,0-30.2v-0.2H39l202.2,0.1h0.1v0.1c0,9.8-0.1,17.3-0.1,22.4c0,2.5,0,4.5,0,5.8
						S241.1,45.8,241.1,45.8z"/>
				</g>
			</g>
			<g id="Group_60683" transform="translate(22.331 184.278)">
				<g id="Group_60682">
					<path id="Path_143223" class="st3" d="M241.1,45.8c0,0,0-0.7,0-2s0-3.3,0-5.8c0-5.1,0-12.6-0.1-22.4l0.1,0.1L39,15.9h0l0.2-0.2
						c0,10.3,0,20.5,0,30.2l-0.2-0.2l143.8,0.1l42.7,0.1l11.5,0l3,0C240.8,45.8,241.1,45.8,241.1,45.8c0,0-0.3,0-1,0l-3,0l-11.5,0
						L183,46l-144,0.1h-0.2v-0.2c0-9.7,0-19.8,0-30.2v-0.2H39l202.2,0.1h0.1v0.1c0,9.8-0.1,17.3-0.1,22.4c0,2.5,0,4.5,0,5.8
						S241.1,45.8,241.1,45.8z"/>
				</g>
			</g>
			<g id="Group_60685" transform="translate(128.544 102.866)">
				<g id="Group_60684" transform="translate(0)">
					<path id="Path_143224" class="st3" d="M134.9,45.8c0,0,0-0.2,0-0.5c0-0.4,0-0.9,0-1.5c0-1.4,0-3.4,0-5.9c0-5.2,0-12.7-0.1-22.1
						l0.2,0.2l-96,0.1h0l0.2-0.2c0,10.5,0,20.6,0,30.2l-0.2-0.2l68.6,0.1l20.1,0.1l5.4,0l1.4,0C134.7,45.8,134.9,45.8,134.9,45.8
						c0,0-0.2,0-0.5,0l-1.4,0l-5.3,0l-20,0.1l-68.8,0.1h-0.2v-0.2c0-9.6,0-19.7,0-30.2v-0.2h0.3l96,0.1h0.2v0.2
						c0,9.5-0.1,17.1-0.1,22.2c0,2.6,0,4.5,0,5.9c0,0.7,0,1.2,0,1.5C134.9,45.7,134.9,45.8,134.9,45.8z"/>
				</g>
			</g>
			<g id="Group_60690" transform="translate(31.603 112.103)">
				<g id="Group_60689">
					<g id="Group_60688">
						<g id="Group_60687">
							<g id="Group_60686">
								<path id="Path_143225" class="st2" d="M49.8,25.9c-0.2,0-0.5,0.1-0.7,0L46.9,26C45,26,42.3,26.1,39,26.2h-0.3l0.1-0.3
									c0.3-1,0.8-1.8,1.5-2.5c0.8-0.7,1.8-1.2,2.9-1.4l-0.1,0.5c-1.2-0.5-2.1-1.7-2.2-3.1c-0.1-1.5,0.7-3,2-3.7
									c1.3-0.6,2.8-0.3,3.8,0.8c0.8,0.9,1.1,2.2,0.8,3.5c-0.3,1.1-1,1.9-2,2.4l0-0.3c0.8,0.1,1.6,0.4,2.3,0.9
									c0.5,0.4,0.9,0.9,1.3,1.4C49.5,24.8,49.7,25.3,49.8,25.9c-0.1-0.1-0.1-0.2-0.2-0.4c-0.2-0.4-0.3-0.7-0.6-1
									c-0.8-1.2-2.1-2-3.5-2.1l-0.6-0.1l0.6-0.3c0.9-0.4,1.5-1.2,1.7-2.1c0.3-1.1,0-2.2-0.7-3.1c-0.8-0.9-2.1-1.2-3.2-0.7
									c-1.2,0.6-1.9,1.9-1.7,3.2c0.1,1.2,0.8,2.2,1.9,2.7l0.8,0.3l-0.9,0.1c-1,0.1-1.9,0.6-2.7,1.2c-0.7,0.6-1.2,1.4-1.4,2.3
									L39,25.7c3.2,0,5.8,0,7.7,0.1l2.2,0C49.2,25.8,49.5,25.8,49.8,25.9z"/>
							</g>
						</g>
					</g>
				</g>
			</g>
			<g id="Group_60695" transform="translate(144.095 112.103)">
				<g id="Group_60694">
					<g id="Group_60693">
						<g id="Group_60692">
							<g id="Group_60691">
								<path id="Path_143226" class="st2" d="M49.8,25.9c-0.2,0-0.5,0.1-0.7,0L46.9,26C45,26,42.3,26.1,39,26.2h-0.3l0.1-0.3
									c0.3-1,0.8-1.8,1.5-2.5c0.8-0.7,1.8-1.2,2.9-1.4l-0.1,0.5c-1.2-0.5-2.1-1.7-2.2-3.1c-0.1-1.5,0.7-3,2-3.7
									c1.3-0.6,2.8-0.3,3.8,0.8c0.8,0.9,1.1,2.2,0.8,3.5c-0.3,1.1-1,1.9-2,2.4l0-0.3c0.8,0.1,1.6,0.4,2.3,0.9
									c0.5,0.4,0.9,0.9,1.3,1.4C49.5,24.8,49.7,25.3,49.8,25.9c-0.1-0.1-0.1-0.2-0.2-0.4c-0.2-0.4-0.3-0.7-0.6-1
									c-0.8-1.2-2.1-2-3.5-2.1l-0.6-0.1l0.6-0.3c0.9-0.4,1.5-1.2,1.7-2.1c0.3-1.1,0-2.2-0.7-3.1c-0.8-0.9-2.1-1.2-3.2-0.7
									c-1.2,0.6-1.9,1.9-1.7,3.2c0.1,1.2,0.8,2.2,1.9,2.7l0.8,0.3l-0.9,0.1c-1,0.1-1.9,0.6-2.7,1.2c-0.7,0.6-1.2,1.4-1.4,2.3
									L39,25.7c3.2,0,5.8,0,7.7,0.1l2.2,0C49.2,25.8,49.5,25.8,49.8,25.9z"/>
							</g>
						</g>
					</g>
				</g>
			</g>
			<g id="Group_60703" transform="translate(33.319 192.614)">
				<g id="Group_60696" transform="translate(0.253 0.174)">
					<path id="Path_143227" class="st5" d="M46.7,19.6l0-1c0-1.8-1.5-3.2-3.3-3.2c-1.7,0-3.1,1.4-3.2,3.2l0,1
						c-0.9,0.1-1.5,0.9-1.5,1.8v5.8c0,1,0.8,1.8,1.8,1.8h0h6c1,0,1.8-0.8,1.8-1.8l0,0v-5.8C48.3,20.5,47.6,19.7,46.7,19.6z
						 M44.3,25.8h-1.6l0.2-1.1c-0.5-0.3-0.6-0.9-0.3-1.3c0.3-0.5,0.9-0.6,1.3-0.3s0.6,0.9,0.3,1.3c-0.1,0.1-0.2,0.2-0.3,0.3
						C44.2,25.1,44.3,25.8,44.3,25.8L44.3,25.8z M46,19.6h-5.1l0-1c0-1.4,1.1-2.5,2.5-2.5c1.4,0,2.5,1.1,2.5,2.5L46,19.6z"/>
				</g>
				<g id="Group_60698" transform="translate(2.255 0.636)">
					<g id="Group_60697">
						<path id="Path_143228" class="st2" d="M44,19.2c0-0.2-0.1-0.4-0.1-0.6c0-0.5-0.1-1-0.3-1.4c-0.4-0.6-1-1.1-1.7-1.2
							c-0.9-0.1-1.8,0.3-2.3,1c-0.2,0.3-0.3,0.7-0.4,1.1c0,0.4,0,0.8,0,1.2l-0.2-0.2C40.6,18.9,42.3,19,44,19.2
							c-1.7,0.2-3.4,0.3-5.1,0.2h-0.2v-0.2c0-0.4,0-0.7,0-1.2c0-0.5,0.2-0.9,0.4-1.3c0.6-0.9,1.7-1.4,2.8-1.2c0.9,0.1,1.6,0.7,2,1.5
							c0.2,0.5,0.3,1.1,0.2,1.7C44.1,19,44,19.2,44,19.2z"/>
					</g>
				</g>
				<g id="Group_60700" transform="translate(3.874 7.392)">
					<g id="Group_60699">
						<path id="Path_143229" class="st2" d="M40.7,18.6c-0.2-0.4-0.3-0.7-0.5-1.1l0-0.1l0.1-0.1c0.3-0.2,0.4-0.7,0.2-1
							c-0.2-0.3-0.7-0.5-1-0.3c-0.3,0.2-0.5,0.7-0.3,1c0.1,0.1,0.1,0.2,0.2,0.2l0.1,0.1l0,0.2c-0.1,0.4-0.2,0.8-0.3,1.1l-0.2-0.2
							C39.7,18.4,40.2,18.5,40.7,18.6c-0.5,0.1-1,0.2-1.6,0.2l-0.2,0l0-0.2c0.1-0.4,0.1-0.8,0.2-1.1l0.1,0.2
							c-0.6-0.3-0.7-1.1-0.4-1.6c0.3-0.4,0.7-0.6,1.2-0.6c0.4,0.1,0.7,0.3,0.9,0.6c0.3,0.5,0.1,1.2-0.4,1.5l0.1-0.2
							C40.7,17.8,40.7,18.2,40.7,18.6z"/>
					</g>
				</g>
				<g id="Group_60702">
					<g id="Group_60701">
						<path id="Path_143230" class="st2" d="M47,19.8c0.1,0,0.3,0,0.4,0c0.4,0.1,0.8,0.4,1,0.7c0.2,0.2,0.3,0.5,0.3,0.8
							c0,0.3,0,0.7,0,1c0,0.7,0,1.6,0,2.5c0,0.5,0,0.9,0,1.4c0,0.5,0,1.1-0.1,1.6c-0.2,0.6-0.6,1.1-1.2,1.3
							c-0.3,0.1-0.6,0.2-0.9,0.1l-0.9,0l-3.8,0h-1c-0.4,0-0.8-0.1-1.1-0.3c-0.7-0.4-1.1-1.2-1.1-2c0-1.5,0-2.9,0-4.3
							c0-0.3,0-0.7,0-1c0-0.4,0-0.7,0.1-1.1c0.3-0.7,0.9-1.2,1.6-1.3l-0.2,0.2c0-0.5,0-0.9,0-1.3c0.1-1.3,1-2.4,2.2-2.9
							c1.3-0.5,2.8-0.1,3.7,0.9c0.6,0.6,0.9,1.5,0.8,2.4C47,19.2,47,19.5,47,19.8c0-0.3-0.1-0.6-0.1-0.9c0-0.8-0.3-1.6-0.9-2.2
							c-1.2-1.2-3.1-1.3-4.3-0.1c-0.2,0.2-0.5,0.5-0.6,0.8c-0.2,0.3-0.3,0.7-0.3,1.1c0,0.4,0,0.9,0,1.3V20l-0.2,0
							c-0.6,0.1-1,0.5-1.2,1c-0.1,0.3-0.1,0.6-0.1,0.9c0,0.3,0,0.7,0,1c0,1.4,0,2.8,0,4.3c-0.1,0.6,0.3,1.2,0.8,1.5
							c0.3,0.1,0.6,0.2,0.9,0.2h1l3.8,0c0.6,0,1.1,0,1.7-0.1c0.5-0.2,0.8-0.6,1-1.1c0.1-0.5,0.1-1,0.1-1.5c0-0.5,0-1,0-1.4
							c0-0.9,0-1.7,0-2.5c0-0.4,0-0.7,0-1c0-0.3-0.1-0.5-0.3-0.8C47.9,20.2,47.5,19.9,47,19.8z"/>
					</g>
				</g>
			</g>
			<g id="Group_60714" transform="translate(30.859 155.477)">
				<g id="Group_60707">
					<g id="Group_60706">
						<g id="Group_60705">
							<g id="Group_60704">
								<path id="Path_143231" class="st2" d="M53.6,25.4c0-0.2-0.1-0.5-0.1-0.7c0-0.5,0-1.2-0.1-2c0-1.8-0.1-4.2-0.2-7l0.2,0.2
									L39,16c-0.1,0.1,0.5-0.5,0.2-0.2v0.3v0.3l0,0.6c0,0.4,0,0.9,0,1.3c0,0.8,0,1.7,0,2.5c0,1.6,0,3.2,0,4.7l-0.2-0.2
									c4.2,0,7.8,0,10.4,0l3,0C52.8,25.3,53.2,25.3,53.6,25.4c-0.3,0.1-0.7,0.1-1,0.1l-2.9,0.1c-2.5,0.1-6.2,0.2-10.5,0.2h-0.2
									v-0.2c0-1.5,0-3.1-0.1-4.7c0-0.8,0-1.6,0-2.5c0-0.4,0-0.8,0-1.3l0-0.6v-0.3v-0.2v-0.2C38.5,16,39,15.5,39,15.5l14.5-0.1h0.2
									v0.2c0,2.9,0,5.4,0,7.2c0,0.8,0,1.4,0,1.9C53.6,24.9,53.6,25.2,53.6,25.4z"/>
							</g>
						</g>
					</g>
				</g>
				<g id="Group_60709" transform="translate(0.3 0.195)">
					<g id="Group_60708">
						<path id="Path_143232" class="st2" d="M53.2,15.4c-0.6,0.6-1.3,1.2-2,1.7c-1.3,1-3.1,2.3-5,3.7c0.3,0-0.4,0-0.3,0l0,0h0l0,0
							l0,0l0,0l-0.1-0.1l-0.2-0.1l-0.4-0.3l-0.7-0.5l-1.4-1l-2.3-1.7c-0.7-0.5-1.4-1-2-1.6c0.8,0.4,1.5,0.8,2.2,1.3l2.3,1.6l1.4,0.9
							l0.7,0.5l0.4,0.3l0.2,0.1l0.1,0.1l0,0l0,0l0,0h0l0,0c0.1,0-0.5,0-0.3,0c2-1.4,3.8-2.7,5.1-3.6C51.6,16.3,52.4,15.8,53.2,15.4z
							"/>
					</g>
				</g>
				<g id="Group_60711" transform="translate(0.67 3.961)">
					<g id="Group_60710">
						<path id="Path_143233" class="st2" d="M38.7,21.5c1.3-2.2,3-4.3,4.8-6.1C42.2,17.7,40.6,19.7,38.7,21.5L38.7,21.5z"/>
					</g>
				</g>
				<g id="Group_60713" transform="translate(10.208 3.961)">
					<g id="Group_60712">
						<path id="Path_143234" class="st2" d="M38.7,15.4c1.8,1.8,3.4,3.8,4.6,6C41.5,19.6,40,17.6,38.7,15.4z"/>
					</g>
				</g>
			</g>
			<g id="Group_60718" transform="translate(22.578 225.988)">
				<g id="Group_60715" transform="translate(0 4.291)">
					<path id="Rectangle_14126" class="st2" d="M41.4,15.4h196.9c1.5,0,2.7,1.2,2.7,2.7v25.5c0,1.5-1.2,2.7-2.7,2.7H41.4
						c-1.5,0-2.7-1.2-2.7-2.7V18.1C38.7,16.6,39.9,15.4,41.4,15.4z"/>
				</g>
				<g id="Group_60716" transform="translate(0 4.291)" class="st6">
					<path id="Rectangle_14127" d="M41.4,15.4h196.9c1.5,0,2.7,1.2,2.7,2.7v25.5c0,1.5-1.2,2.7-2.7,2.7H41.4c-1.5,0-2.7-1.2-2.7-2.7
						V18.1C38.7,16.6,39.9,15.4,41.4,15.4z"/>
				</g>
				<g id="Group_60717">
					<path id="Rectangle_14128" class="st2" d="M41.4,15.4h196.9c1.5,0,2.7,1.2,2.7,2.7v25.5c0,1.5-1.2,2.7-2.7,2.7H41.4
						c-1.5,0-2.7-1.2-2.7-2.7V18.1C38.7,16.6,39.9,15.4,41.4,15.4z"/>
				</g>
				<text transform="matrix(1 0 0 1 102.7493 34.1224)" class="st7 st8 st9">TẠO TÀI KHOẢN</text>
			</g>
			<text transform="matrix(1 0 0 1 177.1063 62.0264)" class="st8 st9">Form Đăng ký</text>
			<text transform="matrix(1 0 0 1 86.8213 137.9234)" class="st8 st9">Họ</text>
			<text transform="matrix(1 0 0 1 198.1523 137.9224)" class="st8 st9">Tên</text>
			<text transform="matrix(1 0 0 1 86.8213 219.8374)" class="st8 st9">Mật khẩu</text>
			<text transform="matrix(1 0 0 1 86.8213 179.0254)" class="st8 st9">Email</text>
		</g>
	</g>
	<g id="Character" transform="translate(73.256 27.925)">
		<g id="Group_60800">
			<g id="Group_60720" transform="translate(0 12.701)">
				<circle id="Ellipse_2726" class="st0" cx="133.1" cy="109.9" r="66.8"/>
			</g>
			<g id="Group_60721" transform="translate(108.651 16.088)">
				<path id="Path_143235" class="st3" d="M62.7,16.2c-2.4,3-2.8,7.1-1,10.5c0.8,1.5,2.1,2.8,2.3,4.5c0.3,2.8-2.4,5.3-1.9,8
					c0.3,1.9,1.9,3.2,2.8,4.9c1.1,2.2,0.8,4.9-0.7,6.8c-1.2,1.5-3.1,2.4-3.9,4.2c-0.6,1.3-0.4,2.8-0.9,4.2c-0.9,2.1-2.8,3.5-5.1,3.8
					c-2.2,0.3-4.5,0.1-6.6-0.4c0.2-0.8,0.3-1.6,0.5-2.4c-0.8,1.3-2.3,2.1-3.8,2.1c-1.5,0-3-0.2-4.5-0.7c-0.9-4.1-1.8-8.4-0.5-12.3
					c1.1-3.6,3.9-6.4,6.2-9.3c2.5-3.3,4.6-7,6-10.9c1-2.8,1.8-5.7,3.3-8.4s3.8-5,6.7-5.5"/>
			</g>
			<g id="Group_60729" transform="translate(132.209 51.592)">
				<g id="Group_60722">
					<path id="Path_143236" class="st10" d="M82.6,36.8l-13.2,0.9l-0.1-3.4c-0.2-1.7,0.2-3.4,1.1-4.8c0.1-0.3,0.2-0.5,0.3-0.8
						c0.1-1-1.4-6.1-1.9-7.9c-0.6-2.2,0.6-3.4,1.1-2.5c0.9,1.7,3.3,8.8,4,9.4s0.3-3,0.3-3c-1.2-7.8-1.7-9-0.3-9.3
						c1.6-0.3,3.4,11.3,3.4,11.3s-0.2-1.6,1-2s1.8,1.3,1.8,1.3c-0.2-0.8,1-1,1-1C84.2,25.5,82.6,36.8,82.6,36.8l-13.2,0.9l-6.3,44.2
						l-6.8-10.4L38.7,84.1l15.9,19c2.8,3.3,7,5.2,11.3,5l0,0c7.3-0.3,13.1-6,13.5-13.3L82.6,36.8z"/>
				</g>
				<g id="Group_60724" transform="translate(31.993 13.643)">
					<g id="Group_60723">
						<path id="Path_143237" class="st11" d="M40.3,23.3c-0.1-0.1,0.6-0.7,1.6-1.8c0.5-0.7,1-1.4,1.5-2.1c0.3-0.4,0.5-0.9,0.7-1.4
							c0.3-0.4,0.4-0.9,0.5-1.4c0-0.2-0.2-0.5-0.4-0.5c-0.3,0-0.5,0-0.8,0.1c-0.5,0.2-1,0.5-1.5,0.9c-0.7,0.6-1.4,1.2-1.9,2
							l-0.1,0.2l-0.1-0.2c-0.3-0.5-0.6-1-1.1-1.3c0,0,0.7,0.2,1.3,1.2l-0.3,0c0.5-0.8,1.1-1.6,1.9-2.2c0.5-0.4,1-0.7,1.5-1
							c0.3-0.2,0.7-0.2,1.1-0.2c0.4,0.1,0.7,0.5,0.7,1c0,0.6-0.2,1.2-0.5,1.7c-0.6,1.3-1.4,2.5-2.4,3.5C41.6,22.3,41,22.8,40.3,23.3
							z"/>
					</g>
				</g>
				<g id="Group_60726" transform="translate(38.113 11.647)">
					<g id="Group_60725">
						<path id="Path_143238" class="st11" d="M39.4,15.9c0.1,0.8,0.1,1.6,0,2.4c0,0.8-0.1,1.7-0.1,2.6c-0.1,0.5-0.1,1,0,1.5
							c0,0.5,0.4,0.9,0.8,0.7c0.4-0.2,0.5-0.8,0.7-1.3s0.3-1,0.4-1.5c0.2-1,0.4-1.8,0.5-2.6c0.1-0.8,0.3-1.6,0.6-2.4
							c0,0.8-0.1,1.6-0.2,2.4c-0.1,0.7-0.2,1.6-0.4,2.6c-0.1,0.5-0.2,1-0.3,1.5c-0.1,0.6-0.4,1.2-0.9,1.6c-0.4,0.2-0.8,0.1-1.1-0.2
							c-0.2-0.2-0.4-0.5-0.4-0.9c0-0.5,0-1.1,0.1-1.6c0.1-0.9,0.2-1.8,0.3-2.6C39.1,17.5,39.2,16.7,39.4,15.9z"/>
					</g>
				</g>
				<g id="Group_60728" transform="translate(40.616 12.719)">
					<g id="Group_60727">
						<path id="Path_143239" class="st11" d="M39.1,18.1c0.1,0-0.1,0.6-0.1,1.4c0,0.5,0.2,0.9,0.4,1.3c0.2,0.2,0.3,0.2,0.4,0
							c0.2-0.3,0.3-0.5,0.4-0.8c0.6-1.5,1.1-3,1.4-4.6c0.1,1.7-0.2,3.3-1,4.8c-0.1,0.3-0.3,0.6-0.5,0.9c-0.1,0.2-0.4,0.3-0.6,0.3
							c-0.2,0-0.4-0.1-0.6-0.3c-0.2-0.3-0.3-0.5-0.4-0.9c0-0.3-0.1-0.5-0.1-0.8C38.7,18.6,39.1,18.1,39.1,18.1z"/>
					</g>
				</g>
			</g>
			<g id="Group_60732" transform="translate(28.432 63.568)">
				<g id="Group_60731">
					<g id="Group_60730">
						<path id="Path_143240" class="st12" d="M127.9,101.9l1.2,19.2c-37.6,14.4-65.5-9.5-65.5-9.5l5.6-17.2l1-30l-7.3,8l-3.4-2.8
							L42.4,55.3l-3.7-3.1l17.9-18.9C79.2,9,96.7,16.5,96.7,16.5l26.4,2.5c0,0,18.3,2.6,27.1,18.6c7.2,13,15,26.9,15,26.9
							l-22.6,16.2l-7.2-13.2L127.9,101.9z"/>
					</g>
				</g>
			</g>
			<g id="Group_60733" transform="translate(27.658 103.09)">
				<path id="Path_143241" class="st10" d="M38.7,19.2c0,1.1,0,2.3,0.1,3.4c0.2,4.5,0.8,8.9,1.8,13.2c0,0,0,0.1,0,0.1
					c0.1,0.5,0.3,1.1,0.4,1.6c0.6,2.1,1.4,3.9,2.1,6c0.1,0.3,0.2,0.5,0.3,0.8c2.4-0.6,8.7-6.6,16.5-14.5L42.7,15.4
					C40.5,17.8,39.4,18.9,38.7,19.2z"/>
			</g>
			<g id="Group_60755" transform="translate(86.158 6.214)">
				<g id="Group_60754">
					<g id="Group_60753">
						<g id="Group_60735">
							<g id="Group_60734">
								<path id="Path_143242" class="st10" d="M63.1,78.8c0.9-6.5,2-13.4,2-13.4s8.6-0.2,11.9-11c3.1-10.3,4.7-34.7,4.7-34.7l0,0
									c-11.6-6.6-26.1-5.3-36.3,3.2l0,0l-6.6,53.3c-0.8,6.2,3.9,11.8,10.6,12.5l0,0C56,89.4,62.2,85,63.1,78.8z"/>
							</g>
						</g>
						<g id="Group_60741" transform="translate(34.207 19.541)">
							<g id="Group_60737" transform="translate(0.219 1.686)">
								<g id="Group_60736">
									<path id="Path_143243" class="st3" d="M41.5,16.9c-0.1,0.8-0.8,1.3-1.6,1.2c-0.8,0-1.3-0.7-1.3-1.4c0,0,0,0,0,0
										c0.1-0.8,0.8-1.3,1.6-1.2C41,15.5,41.6,16.1,41.5,16.9C41.5,16.9,41.5,16.9,41.5,16.9z"/>
								</g>
							</g>
							<g id="Group_60740">
								<g id="Group_60739">
									<g id="Group_60738">
										<path id="Path_143244" class="st3" d="M44.3,17.3c-0.2,0.2-1.2-0.8-2.7-1c-1.5-0.2-2.7,0.4-2.9,0.2
											c-0.1-0.1,0.2-0.4,0.7-0.7c0.7-0.4,1.5-0.5,2.3-0.4c0.8,0.1,1.5,0.5,2.1,1C44.2,16.9,44.4,17.2,44.3,17.3z"/>
									</g>
								</g>
							</g>
						</g>
						<g id="Group_60747" transform="translate(18.279 17.907)">
							<g id="Group_60743" transform="translate(0.558 1.444)">
								<g id="Group_60742">
									<path id="Path_143245" class="st3" d="M41.5,16.9c-0.1,0.8-0.8,1.3-1.6,1.2c-0.8,0-1.3-0.7-1.3-1.4c0,0,0,0,0,0
										c0.1-0.8,0.8-1.3,1.6-1.2C41,15.5,41.6,16.1,41.5,16.9C41.5,16.9,41.5,16.9,41.5,16.9z"/>
								</g>
							</g>
							<g id="Group_60746">
								<g id="Group_60745">
									<g id="Group_60744">
										<path id="Path_143246" class="st3" d="M44.3,17.3c-0.2,0.2-1.2-0.8-2.7-1c-1.5-0.2-2.7,0.4-2.9,0.2
											c-0.1-0.1,0.2-0.4,0.7-0.7c0.7-0.4,1.5-0.5,2.3-0.4c0.8,0.1,1.5,0.5,2.1,1C44.2,16.9,44.4,17.2,44.3,17.3z"/>
									</g>
								</g>
							</g>
						</g>
						<g id="Group_60750" transform="translate(27.809 19.082)">
							<g id="Group_60749">
								<g id="Group_60748">
									<path id="Path_143247" class="st3" d="M38.7,28.2c0.8-0.1,1.7-0.2,2.5-0.1c0.4,0,0.8,0,0.9-0.3c0.1-0.4,0.1-0.8-0.1-1.2
										c-0.2-1-0.5-2-0.7-3.1c-1-4.4-1.7-8-1.5-8.1s1.1,3.5,2.2,7.9c0.2,1.1,0.5,2.1,0.7,3.1c0.2,0.5,0.2,1.1,0,1.6
										c-0.2,0.3-0.4,0.4-0.7,0.5c-0.2,0-0.4,0-0.7,0C40.4,28.5,39.5,28.4,38.7,28.2z"/>
								</g>
							</g>
						</g>
						<g id="Group_60752" transform="translate(12.18 43.99)">
							<g id="Group_60751">
								<path id="Path_143248" class="st11" d="M52.9,21.4c-5.2-0.6-10.1-2.7-14.2-6c0,0,2.5,8.1,13.7,8.5L52.9,21.4z"/>
							</g>
						</g>
					</g>
				</g>
			</g>
			<g id="Group_60756" transform="translate(60.429)">
				<path id="Path_143249" class="st3" d="M96,22.4c0.7,1.7-0.4,3.8-2,4.8c-1.7,0.9-3.5,1.4-5.4,1.5c-1.9,0.1-3.7,0.8-5.2,2
					c-2.6,2.3-1.9,5.7-4.5,8.7c-1.2,1.7-3.4,2.6-5.5,2.3c-2.1-0.3-4.8,0.2-5.9,2.6c-1,2.3,0.2,4.2,1.4,6.4c1.2,2.2,0.9,4.5,0.2,6.9
					c-0.5,1.8-2,3.1-2.3,4.9c-0.5,2.8,1.9,6,0.3,8.4s-5.8,1.3-7.6,3.4c-0.7,0.8-1,1.9-2,2.2c-0.6,0.1-1.2,0-1.8-0.3l-8.6-3.6
					c0.2-0.9,0.5-1.8,0.7-2.7c-2.2,2.2-5.9,2.3-8.1,0c-0.4-0.4-0.8-0.9-1-1.4c1.8-1,3.4-2.3,4.9-3.7c1.5-1.5,2.4-3.4,2.6-5.5
					c0.1-2.5-1.3-5-0.5-7.4c1.1-3.4,5.7-4.3,7.7-7.2c1.9-2.7,1.3-6.7,3.2-9.4c2.3-3.1,7.1-3.3,9.7-6.1c1.8-1.9,2.2-4.8,3.5-7
					c1.7-2.7,4.3-4.7,7.3-5.6c3-0.9,6.2-1.3,9.4-1.1c2.4-0.1,4.7,0.4,6.9,1.4c2.1,1.1,3.6,3.5,3.1,5.8"/>
			</g>
			<g id="Group_60758" transform="translate(88.103 25.926)">
				<g id="Group_60757">
					<path id="Path_143250" class="st10" d="M45.8,15.8c-1.1-0.4-2.4-0.5-3.6-0.3c-1.2,0.3-2.2,1-2.9,2c-0.6,1.1-0.8,2.3-0.5,3.5
						c0.3,1.2,0.8,2.3,1.6,3.2c0.5,0.7,1.2,1.3,1.9,1.7c0.8,0.4,1.7,0.4,2.5,0"/>
				</g>
			</g>
			<g id="Group_60761" transform="translate(90.589 27.547)">
				<g id="Group_60760">
					<g id="Group_60759">
						<path id="Path_143251" class="st11" d="M41.7,21.2c0.1,0.1-0.5,0.7-1.5,0.3c-0.6-0.3-1-0.8-1.2-1.3c-0.2-0.7-0.3-1.3-0.3-2
							c0-0.7,0.3-1.4,0.8-2c0.4-0.5,1-0.7,1.7-0.7c1.1,0.1,1.3,0.9,1.2,0.9c-0.1,0.1-0.5-0.4-1.2-0.3c-1,0.2-1.6,1.1-1.5,2.1
							c0,1.2,0.3,2.4,0.9,2.8C41.1,21.4,41.6,21.1,41.7,21.2z"/>
					</g>
				</g>
			</g>
			<g id="Group_60762" transform="translate(117.181 3.402)">
				<path id="Path_143252" class="st3" d="M39.3,19.6c-0.9,2.4,0.1,5.2,2.3,6.6c1.2,0.7,2.8,0.9,3.8,1.9c1,1.1,1.5,2.4,1.6,3.8
					c0.1,1.4,0.3,2.8,0.8,4.2c0.5,1.4,1.9,2.2,3.3,2.1l2.4-7c0.9-2.6,1.8-5.3,1.1-8c-0.9-3.8-4.7-6.3-8.4-7.3
					c-1.7-0.6-3.6-0.6-5.3,0c-1.6,0.8-2.7,2.9-1.9,4.5"/>
			</g>
			<g id="Group_60764" transform="translate(71.987 5.315)">
				<g id="Group_60763">
					<path id="Path_143253" class="st13" d="M38.7,68.4c0.2-0.2,0.4-0.4,0.6-0.6c0.5-0.6,0.7-1.4,0.8-2.2c0-1.2,0-2.5-0.2-3.7
						c-0.2-1.7,0.4-3.4,1.6-4.7c1.2-1.4,3-2.5,4.5-4c0.8-0.8,1.4-1.7,1.7-2.7c0.3-1.1,0.3-2.3,0.1-3.4c-0.2-1.2-0.5-2.4-0.6-3.7
						c-0.6-4.3,2.2-8.4,6.5-9.3c2.8-0.6,5.7-0.2,8-1.4c1.1-0.6,2-1.5,2.5-2.7c0.5-1.1,0.9-2.3,1.2-3.5c0.3-1.2,0.8-2.3,1.4-3.3
						c0.6-1,1.5-1.8,2.6-2.2c1.9-0.7,4-0.9,6-0.6c1.6,0.2,3.3,0.1,4.9-0.3c1.2-0.3,2.3-0.9,3.2-1.7c0.5-0.6,0.8-1.3,1-2.1
						c0.1-0.5,0.1-0.8,0.1-0.8c0,0.3,0,0.6,0,0.8c-0.1,0.8-0.4,1.6-0.9,2.2c-0.9,0.9-2.1,1.5-3.3,1.9c-1.6,0.4-3.3,0.5-5,0.4
						c-2-0.2-4,0-5.8,0.7c-1,0.4-1.8,1.1-2.4,2.1c-0.6,1-1,2.1-1.3,3.2c-0.3,1.2-0.7,2.4-1.2,3.6c-0.3,0.6-0.6,1.2-1.1,1.7
						c-0.5,0.5-1,0.9-1.6,1.3c-2.5,1.3-5.4,0.9-8.1,1.5c-4,0.9-6.7,4.7-6.1,8.8c0.1,1.2,0.4,2.5,0.6,3.7c0.2,1.2,0.2,2.4-0.1,3.6
						c-0.4,1.1-1,2.1-1.8,2.9c-1.6,1.5-3.3,2.6-4.5,4c-1.1,1.2-1.7,2.8-1.6,4.4c0.2,1.2,0.2,2.5,0.1,3.8c-0.1,0.8-0.4,1.6-0.9,2.2
						C39.2,68.1,38.9,68.3,38.7,68.4z"/>
				</g>
			</g>
			<g id="Group_60766" transform="translate(117.666 5.315)">
				<g id="Group_60765">
					<path id="Path_143254" class="st13" d="M43.9,73.9c0.2-0.2,0.3-0.3,0.4-0.5c0.4-0.5,0.5-1.2,0.6-1.8c0.1-0.8-0.1-1.9-0.1-3.1
						c0.2-1.4,0.8-2.7,1.7-3.8c0.9-1.2,2.1-2.5,2.4-4.2S48.4,57,48.1,55c-0.2-1-0.2-2.1,0.1-3.2c0.4-1,0.9-2,1.5-2.9
						c0.6-0.9,1.3-1.8,1.8-2.8c0.6-0.9,0.9-2,1-3.1c0-1.1-0.4-2.2-1.1-3.1c-0.7-0.9-1.2-1.9-1.6-3c-0.7-2.2-0.1-4.4,0-6.3
						c0.1-1,0.1-1.9-0.1-2.9c-0.1-0.9-0.5-1.7-1-2.4c-1.1-1.2-2.4-2.2-3.9-2.9c-1.2-0.6-2.4-1.3-3.5-2.1c-0.8-0.6-1.5-1.4-2.1-2.3
						c-0.3-0.6-0.5-1.2-0.6-1.9c0-0.2,0-0.5,0-0.7c0,0,0,0.2,0.1,0.7c0.1,0.6,0.3,1.3,0.6,1.8c0.5,0.9,1.2,1.6,2.1,2.2
						c1.1,0.8,2.3,1.5,3.5,2c1.5,0.7,2.9,1.7,4,3c0.6,0.8,1,1.6,1.1,2.6c0.2,1,0.2,2,0.1,3c-0.1,2-0.6,4.1,0,6.2
						c0.4,1,0.9,2,1.5,2.9c0.7,1,1.1,2.1,1.1,3.3c-0.1,1.2-0.4,2.3-1,3.4c-0.6,1-1.2,1.9-1.8,2.8C49.5,50.1,49,51,48.7,52
						c-0.3,1-0.3,2-0.1,2.9c0.3,1.9,1.1,3.8,0.7,5.7c-0.2,0.9-0.5,1.7-1.1,2.4c-0.5,0.7-1,1.3-1.4,1.9c-0.9,1-1.5,2.2-1.7,3.6
						c-0.1,1.2,0.1,2.2,0,3.1c0,0.7-0.3,1.3-0.7,1.8C44.3,73.7,44.1,73.8,43.9,73.9z"/>
				</g>
			</g>
			<g id="Group_60768" transform="translate(62.301 4.001)">
				<g id="Group_60767">
					<path id="Path_143255" class="st13" d="M38.7,65.3c0,0,0.3,0.1,0.9,0.1c0.9,0,1.7-0.1,2.5-0.5c1.3-0.5,2.3-1.4,3.1-2.5
						c1-1.5,1.6-3.2,1.7-5c0.2-2-0.3-4.2-0.3-6.6c-0.1-1.3,0.2-2.5,0.8-3.7c0.8-1.1,1.8-2,3-2.6c1.2-0.6,2.1-1.6,2.8-2.8
						c0.4-1.3,0.6-2.7,0.6-4.1c0-1.5,0.3-3,0.9-4.4c0.3-0.7,0.7-1.4,1.3-2c0.6-0.5,1.4-0.9,2.2-1c1.6-0.3,3.1-0.1,4.6-0.3
						c1.4-0.1,2.8-0.7,3.8-1.7c1-1,1.8-2.2,2.4-3.4c0.6-1.2,1.1-2.5,1.7-3.7c0.6-1.2,1.3-2.3,2.1-3.3c0.8-1,1.9-1.7,3.1-2.1
						c1.1-0.3,2.4-0.3,3.5,0c1,0.3,2,0.7,3,1.1c1.6,0.9,3.3,1.4,5.1,1.6c1.4,0.1,2.7-0.1,4-0.6c1.1-0.4,2.1-1,3-1.7
						c-0.2,0.2-0.4,0.4-0.7,0.6c-0.7,0.5-1.5,1-2.3,1.3c-1.3,0.5-2.7,0.8-4.1,0.7c-1.8-0.2-3.6-0.7-5.2-1.6c-1-0.4-1.9-0.8-2.9-1.1
						c-1.1-0.3-2.2-0.3-3.3,0c-1.1,0.4-2.1,1.1-2.9,2c-0.8,1-1.5,2.1-2.1,3.2c-1.1,2.4-2,5.2-4.2,7.3c-0.5,0.5-1.2,1-1.9,1.3
						c-0.7,0.3-1.5,0.5-2.2,0.6c-1.5,0.2-3.1,0-4.5,0.3c-0.7,0.1-1.4,0.4-1.9,0.9c-0.5,0.5-0.9,1.1-1.2,1.8
						c-0.5,1.4-0.8,2.8-0.8,4.2c0,1.5-0.2,2.9-0.7,4.3c-0.7,1.3-1.7,2.3-2.9,3c-1.1,0.6-2.1,1.4-2.9,2.4c-0.6,1.1-0.8,2.2-0.8,3.4
						c0,2.3,0.5,4.6,0.3,6.6c-0.1,1.9-0.8,3.6-1.8,5.2c-0.8,1.1-2,2-3.3,2.5c-0.8,0.3-1.7,0.5-2.6,0.4C39.3,65.4,39,65.4,38.7,65.3z
						"/>
				</g>
			</g>
			<g id="Group_60770" transform="translate(118.246 4.664)">
				<g id="Group_60769">
					<path id="Path_143256" class="st13" d="M52.5,28.4c-0.1-1-0.3-1.9-0.8-2.7c-0.5-0.9-1.2-1.7-2-2.3c-1-0.8-2.1-1.4-3.3-1.9
						c-1.2-0.6-2.5-1.1-3.5-1.7c-0.9-0.5-1.8-1.1-2.6-1.9c-0.5-0.5-1-1.1-1.3-1.7c-0.1-0.2-0.2-0.5-0.3-0.8c0.5,0.8,1.1,1.6,1.8,2.2
						c0.8,0.7,1.7,1.3,2.6,1.7c1,0.6,2.3,1,3.5,1.6c1.2,0.5,2.3,1.2,3.4,2c0.8,0.7,1.5,1.5,2,2.5c0.3,0.7,0.5,1.4,0.6,2.1
						C52.6,27.9,52.6,28.2,52.5,28.4z"/>
				</g>
			</g>
			<g id="Group_60772" transform="translate(104.347 20.846)">
				<g id="Group_60771">
					<path id="Path_143257" class="st3" d="M44.9,16.8c-0.1,0.1-0.4,0-1-0.2c-1.4-0.3-2.9-0.3-4.3,0c-0.5,0.1-0.9,0.3-1,0.2
						c-0.1-0.1,0.1-0.5,0.7-0.8c1.5-0.8,3.3-0.8,4.8,0C44.8,16.3,45,16.7,44.9,16.8z"/>
				</g>
			</g>
			<g id="Group_60774" transform="translate(120.143 23.222)">
				<g id="Group_60773">
					<path id="Path_143258" class="st3" d="M43,16.3c0,0.3-1,0.3-2.2,0.2s-2.1-0.5-2.1-0.8s1-0.3,2.2-0.2S43,16,43,16.3z"/>
				</g>
			</g>
			<g id="Group_60776" transform="translate(82.008 36.214)">
				<g id="Group_60775" transform="translate(0 0)">
					<path id="Path_143259" class="st3" d="M47.9,15.4c0,0,0.1,0.1,0.2,0.2c0.2,0.2,0.4,0.5,0.5,0.8c0.5,1.1,0.6,2.3,0.4,3.5
						c-0.3,1.7-0.9,3.4-1.7,4.9c-0.4,0.9-0.6,1.9-0.4,2.8c0.3,1,0.8,2,1.3,2.9c1.2,2,0.9,4.5-0.6,6.1c-0.6,0.7-1.5,1.2-2.4,1.5
						c-0.8,0.2-1.6,0.3-2.4,0.3c-1.1,0-2.3,0.3-3.3,0.8c-0.3,0.2-0.6,0.5-0.9,0.9c0,0,0-0.1,0.1-0.3c0.2-0.3,0.4-0.5,0.6-0.7
						c1-0.7,2.2-1,3.3-1c0.8,0,1.6-0.1,2.3-0.3c0.9-0.2,1.6-0.7,2.2-1.4c0.6-0.7,1.1-1.6,1.2-2.6c0.1-1-0.1-2.1-0.7-3
						c-0.6-0.9-1-2-1.4-3c-0.2-1.1,0-2.1,0.5-3.1c0.4-0.9,0.9-1.7,1.1-2.5c0.3-0.7,0.5-1.5,0.6-2.3c0.2-1.1,0.2-2.3-0.3-3.3
						C48.2,15.8,47.9,15.4,47.9,15.4z"/>
				</g>
			</g>
			<g id="Group_60778" transform="translate(131.491 8.649)">
				<g id="Group_60777">
					<path id="Path_143260" class="st3" d="M42.5,68.5c-0.2,0.1-0.4,0.1-0.6,0.1c-0.6,0-1.2-0.3-1.6-0.8c-0.7-0.7-1-1.7-0.8-2.7
						c0.3-1.2,0.9-2.3,1.8-3.2c1.1-1,2-2.1,2.8-3.3c0.4-0.7,0.6-1.5,0.5-2.3c-0.1-0.8-0.3-1.7-0.6-2.5c-0.8-1.7-1.6-3.4-2.3-5.2
						c-0.3-1-0.3-2.1,0-3.1c0.4-1,0.9-1.9,1.4-2.8c0.5-0.8,0.8-1.8,0.6-2.8c-0.3-0.9-0.8-1.7-1.5-2.4c-0.7-0.7-1.4-1.4-2-2.1
						c-0.6-0.7-1.1-1.6-1.3-2.5c-0.4-1.7-0.3-3.5,0.1-5.2c0.3-1.6,0.8-3,1.1-4.3c0.6-2.1,0.5-4.2-0.3-6.2c-0.3-0.7-0.8-1.3-1.3-1.9
						c0,0,0.1,0,0.1,0.1c0.1,0.1,0.2,0.2,0.3,0.3c0.4,0.4,0.8,0.9,1,1.4c0.4,0.8,0.7,1.8,0.7,2.7c0.1,1.2,0,2.5-0.3,3.7
						c-0.3,1.3-0.7,2.8-1,4.3c-0.4,1.6-0.4,3.3,0,5c0.2,0.9,0.6,1.7,1.2,2.3c0.6,0.7,1.3,1.4,2,2.1c0.8,0.7,1.3,1.6,1.6,2.6
						c0.2,1.1-0.1,2.2-0.7,3.1c-0.5,0.8-1,1.7-1.4,2.7c-0.3,0.9-0.2,1.9,0,2.8c0.7,1.8,1.4,3.5,2.2,5.1c0.4,0.8,0.6,1.7,0.6,2.6
						c0,0.9-0.2,1.7-0.6,2.5c-0.8,1.2-1.8,2.4-3,3.4c-0.9,0.8-1.5,1.9-1.8,3c-0.2,0.9,0.1,1.8,0.6,2.5c0.4,0.4,0.9,0.7,1.4,0.8
						C42.3,68.6,42.5,68.5,42.5,68.5z"/>
				</g>
			</g>
			<g id="Group_60780" transform="translate(167.818 70.871)">
				<g id="Group_60779">
					<path id="Path_143261" class="st11" d="M43.4,19.1c-0.6-0.8-1.3-1.5-2.1-2.2c-0.8-0.6-1.7-1-2.7-1.4
						C40.9,15.5,42.8,17,43.4,19.1z"/>
				</g>
			</g>
			<g id="Group_60782" transform="translate(156.549 117.771)">
				<g id="Group_60781">
					<path id="Path_143262" class="st11" d="M40.5,24.2c-1.2-2.8-1.8-5.8-1.8-8.8c0.4,1.5,0.7,2.9,0.9,4.4
						C40,21.3,40.3,22.7,40.5,24.2z"/>
				</g>
			</g>
			<g id="Group_60786" transform="translate(79.566 98.321)">
				<g id="Group_60785">
					<g id="Group_60784">
						<g id="Group_60783">
							<path id="Path_143263" class="st7" d="M57,33c3.4-1.1,5.8-4.2,6.1-7.8c0.5-4.9-2.8-9.3-7.4-9.8s-8.7,3.1-9.2,8.1
								c-0.4,3.6,1.3,7.1,4.5,8.9c-7.1,0.4-10.6,4.8-12.2,8.7c2.6,3.7,6.5,6.3,10.9,7.4l5.1,0.5c4.6-0.2,9-2,12.4-5.2
								C66.2,39.7,63.8,34.8,57,33z"/>
						</g>
					</g>
				</g>
			</g>
			<g id="Group_60787" transform="translate(53.404 108.269)" class="st6">
				<path id="Path_143264" d="M45.3,19.8l4.2-4.3c0,0-1.8,31.4-3.1,35.2S38.7,67,38.7,67l5.6-17.2L45.3,19.8z"/>
			</g>
			<g id="Group_60789" transform="translate(52.421 102.943)">
				<g id="Group_60788">
					<path id="Path_143265" class="st3" d="M55.6,15.4c0.1,0.1-3.6,4.1-8.3,9s-8.5,8.7-8.6,8.6s3.6-4.1,8.3-9S55.5,15.3,55.6,15.4z"
						/>
				</g>
			</g>
			<g id="Group_60791" transform="translate(123.148 100.485)">
				<g id="Group_60790">
					<path id="Path_143266" class="st3" d="M43.8,15.4c0,0.3,0,0.7,0,1c-0.1,0.6-0.2,1.5-0.3,2.7c-0.3,2.2-0.8,5.3-1.5,8.7
						s-1.5,6.4-2.1,8.6c-0.3,1.1-0.6,2-0.8,2.6c-0.1,0.3-0.2,0.6-0.4,0.9c0-0.3,0.1-0.7,0.2-1l0.6-2.6c0.5-2.2,1.2-5.2,1.9-8.6
						s1.3-6.4,1.7-8.7c0.2-1,0.3-1.9,0.5-2.6C43.6,16,43.7,15.7,43.8,15.4z"/>
				</g>
			</g>
			<g id="Group_60794" transform="translate(108.964 38.481)">
				<g id="Group_60793">
					<g id="Group_60792">
						<path id="Path_143267" class="st3" d="M39.1,15.4c0.3,0,0,1.7,1.3,3s3,1.4,3,1.7c0,0.1-0.4,0.3-1.2,0.2
							c-1-0.1-1.9-0.6-2.5-1.3c-0.6-0.7-1-1.6-1-2.5C38.7,15.8,39,15.4,39.1,15.4z"/>
					</g>
				</g>
			</g>
			<g id="Group_60795" transform="translate(80.269 4.186)">
				<path id="Path_143268" class="st3" d="M46.7,25.1c1.1-1.3,1.8-3,2-4.7c0-2.5-1.9-4.7-4.4-5c-2.5-0.2-4.8,1.5-5.5,3.9
					c-0.5,2.5,0.6,5,2.8,6.2c2.3,1.1,5,0.7,6.8-1"/>
			</g>
			<g id="Group_60797" transform="translate(86.696 8.978)">
				<g id="Group_60796">
					<path id="Path_143269" class="st13" d="M42.5,15.4c0.1,1.2-0.2,2.5-1,3.5c-0.6,1.1-1.6,1.9-2.8,2.3c0.9-0.8,1.7-1.6,2.4-2.6
						C41.6,17.6,42.1,16.5,42.5,15.4z"/>
				</g>
			</g>
			<g id="Group_60799" transform="translate(84.412 4.283)">
				<g id="Group_60798">
					<path id="Path_143270" class="st13" d="M41.8,25.4c0-1.8-0.2-3.6-0.6-5.3c-0.6-1.7-1.5-3.3-2.5-4.7c0,0,0.5,0.3,1.2,1.1
						c1.6,2.1,2.4,4.7,2.3,7.3C42.1,24.4,42,24.9,41.8,25.4z"/>
				</g>
			</g>
		</g>
	</g>
	<g id="Icon" transform="translate(170.161 163.183)">
		<g id="Group_60809">
			<g id="Group_60801" transform="translate(0 4.473)">
				<circle id="Ellipse_2727" class="st2" cx="62.8" cy="39.5" r="24.1"/>
			</g>
			<g id="Group_60802" transform="translate(0 4.473)" class="st6">
				<circle id="Ellipse_2728" cx="62.8" cy="39.5" r="24.1"/>
			</g>
			<g id="Group_60803">
				<circle id="Ellipse_2729" class="st2" cx="62.8" cy="39.5" r="24.1"/>
			</g>
			<g id="Group_60808" transform="translate(9.843 9.843)">
				<g id="Group_60805" transform="translate(13.019)">
					<g id="Group_60804">
						<path id="Path_143271" class="st7" d="M39.9,43.9c-0.7,0-1.2-6.4-1.2-14.3s0.6-14.3,1.2-14.3s1.2,6.4,1.2,14.3
							S40.6,43.9,39.9,43.9z"/>
					</g>
				</g>
				<g id="Group_60807" transform="translate(0 13.019)">
					<g id="Group_60806">
						<path id="Path_143272" class="st7" d="M67.2,16.7c0,0.7-6.4,1.2-14.3,1.2s-14.3-0.6-14.3-1.2c0-0.7,6.4-1.2,14.3-1.2
							S67.2,16,67.2,16.7z"/>
					</g>
				</g>
			</g>
		</g>
	</g>
</g>
</svg>
