<svg xmlns="http://www.w3.org/2000/svg" viewBox="0 0 32 32">
  <path fill="#424242" d="M12.87 24.936 11 26.758V3a1 1 0 0 0-2 0v23.544l-1.878-1.786a1 1 0 0 0-1.378 1.449l3.699 3.518a1 1 0 0 0 1.387-.01l3.435-3.347c.943-.89-.48-2.352-1.395-1.431Z"/>
  <path fill="#ffa000" d="M25.356 13.581 22.27 3.518a1.616 1.616 0 0 0-2.688 0L16.493 13.58c-.215.887 1.715 1.477 2 .608l.592-2.128h3.68l.607 2.128c.258.88 2.242.253 1.984-.608Zm-5.823-3.151 1.391-4.912 1.392 4.912Z"/>
  <path fill="#1976d2" d="M24.237 28.472h-6.64c-.76.019-.73-.787-.4-1.296l4.752-8.576H17.9c-.856-.023-.877-1.804 0-1.824h6.08c.776-.01.723.784.384 1.312l-4.736 8.56h4.608c.873.038.878 1.786 0 1.824Z"/>
</svg>
