
<svg version="1.1" id="Layer_1" xmlns="http://www.w3.org/2000/svg" xmlns:xlink="http://www.w3.org/1999/xlink" x="0px" y="0px"
	 viewBox="0 0 512 512" style="enable-background:new 0 0 512 512;" xml:space="preserve">
<style type="text/css">
	.st0{fill:#00A859;}
</style>
<g transform="translate(0.000000,512.000000) scale(0.100000,-0.100000)">
	<path class="st0" d="M150,4567c-49-16-123-93-138-143c-9-32-12-441-12-1787C0,926,0,891,20,828c36-118,130-218,250-265
		c42-17,120-18,1175-21c849-2,1135,0,1152,9c32,17,44,58,27,97c-7,18-14,33-16,34c-2,2-514,5-1138,8c-1082,5-1137,6-1170,24
		c-49,26-98,74-123,121l-22,40l-3,1753l-2,1753l24,24l25,25h494c485,0,495,0,521-21l26-20v-379c0-257,4-387,11-403c6-14,22-30,36-36
		c17-8,534-11,1854-11h1829l-2-1342l-3-1343l-22-40c-25-47-74-95-123-121c-33-18-83-19-993-24l-959-5l-19-24c-26-32-24-67,6-97
		l25-24l962,2c958,3,963,3,1015,24c110,45,197,134,240,244c17,42,18,142,21,1714c3,1897,10,1729-83,1822c-91,91,78,84-1905,84H1383
		l-27,43c-30,47-76,83-127,97C1180,4584,195,4581,150,4567z M2480,3995v-285l-542,2l-543,3l-3,283l-2,282h545h545V3995z M3728,3998
		l-3-283l-542-3l-543-2v285v285h545h545L3728,3998z M4900,4262c64-32,70-57,70-319v-233h-545h-545v285v285h493
		C4821,4280,4868,4278,4900,4262z"/>
	<path class="st0" d="M1702,4047c-31-33-29-80,4-106c25-19,40-21,189-21s164,2,189,21c33,26,36,79,6,109c-18,18-33,20-193,20
		C1729,4070,1723,4069,1702,4047z"/>
	<path class="st0" d="M2983,4044c-20-20-24-31-19-57c12-62,29-67,218-67c166,0,169,0,193,25c14,13,25,36,25,50s-11,37-25,50
		c-24,25-27,25-195,25C3010,4070,3009,4070,2983,4044z"/>
	<path class="st0" d="M4237,4058c-24-19-36-59-25-87c17-47,32-50,209-51c153,0,168,2,193,21c34,27,36,77,3,107c-22,21-33,22-193,22
		C4303,4070,4249,4066,4237,4058z"/>
	<path class="st0" d="M445,4045c-14-13-25-36-25-50s11-37,25-50c24-25,27-25,193-25c151,0,172,2,193,19c32,26,32,86,0,112
		c-21,17-42,19-193,19C472,4070,469,4070,445,4045z"/>
	<path class="st0" d="M1335,3214c-91-19-165-39-188-51c-55-28-57-93-3-129c24-15,31-15,108,7c114,31,295,38,408,15
		c347-71,620-332,701-671c27-114,31-356,6-324c-81,101-389,452-414,471c-42,32-116,50-163,39c-77-17-122-56-219-186
		c-29-38-58-70-64-70s-59,59-117,130c-86,107-115,135-160,158c-71,37-143,34-214-7c-49-28-144-147-331-415l-80-114l-3,111
		c-6,242,84,459,266,640c77,77,83,87,80,119c-4,46-44,79-84,69c-32-8-139-108-200-187c-144-187-214-394-215-639
		c-1-200,46-373,147-542c61-101,199-248,299-317c463-320,1083-222,1428,226c90,117,158,266,194,426c21,96,21,316-1,415
		c-94,425-426,746-850,821C1609,3219,1378,3222,1335,3214z M1176,2462c11-9,49-53,85-97c50-63,668-806,738-888c15-18,14-20-9-39
		c-45-37-203-107-290-129c-119-30-292-30-414,0c-269,65-491,246-607,495l-30,64l134,189c269,380,305,423,351,423
		C1145,2480,1164,2472,1176,2462z M2076,2168c119-139,227-263,238-276l21-23l-47-92c-47-92-134-212-155-212c-18,0-524,615-517,628
		c24,40,157,208,171,216c10,6,30,11,45,11C1855,2420,1891,2383,2076,2168z"/>
	<path class="st0" d="M2802,2963c-21-8-43-61-36-88c14-57-22-55,857-55h808l24,25c14,13,25,36,25,50s-11,37-25,50l-24,25l-808-1
		C3179,2969,2809,2966,2802,2963z"/>
	<path class="st0" d="M2793,2465c-11-8-24-26-27-40c-7-29,15-79,39-89c9-3,164-6,345-6s336,3,345,6c24,10,46,60,39,89
		c-13,54-20,55-384,55C2870,2480,2811,2478,2793,2465z"/>
	<path class="st0" d="M3767,2468c-24-19-36-59-25-87c18-50,21-50,366-51h323l24,25c14,13,25,36,25,50s-11,37-25,50l-24,25h-324
		C3864,2480,3780,2477,3767,2468z"/>
	<path class="st0" d="M2788,1973c-38-43-28-102,21-123c18-7,269-10,829-8l804,3l19,24c25,30,24,62-2,95l-20,26h-818
		C2855,1990,2802,1989,2788,1973z"/>
	<path class="st0" d="M2810,1497c-13-7-31-25-40-40c-13-24-13-30,0-54c9-15,27-33,40-40c33-17,1573-19,1616-3c72,28,72,112,0,140
		C4383,1516,2843,1514,2810,1497z"/>
</g>
</svg>
