<svg xmlns="http://www.w3.org/2000/svg" width="31.072" height="21.866" viewBox="0 0 31.072 21.866">
  <g id="Group_62726" data-name="Group 62726" transform="translate(-5 -13)">
    <path id="Path_115805" data-name="Path 115805" d="M35.095,20.883a1.7,1.7,0,0,0,.978-1.554v-4.6A1.7,1.7,0,0,0,34.347,13H6.726A1.7,1.7,0,0,0,5,14.726v4.488a1.69,1.69,0,0,0,1.036,1.554A3.5,3.5,0,0,1,8.05,23.933,3.407,3.407,0,0,1,6.036,27.1,1.69,1.69,0,0,0,5,28.652V33.14a1.7,1.7,0,0,0,1.726,1.726h27.62a1.7,1.7,0,0,0,1.726-1.726V28.594a1.8,1.8,0,0,0-.978-1.554,3.458,3.458,0,0,1-1.9-3.05A3.545,3.545,0,0,1,35.095,20.883Zm-3.05,3.05a4.539,4.539,0,0,0,2.532,4.086.615.615,0,0,1,.345.518v4.6a.544.544,0,0,1-.575.575H6.726a.544.544,0,0,1-.575-.575V28.652a.553.553,0,0,1,.4-.518,4.614,4.614,0,0,0,0-8.4.614.614,0,0,1-.4-.518V14.726a.544.544,0,0,1,.575-.575h27.62a.544.544,0,0,1,.575.575v4.546a.553.553,0,0,1-.345.518A4.69,4.69,0,0,0,32.045,23.933Z" fill="#231f20"/>
    <path id="Path_115806" data-name="Path 115806" d="M30.933,28.056a2.877,2.877,0,1,0,2.877,2.877A2.849,2.849,0,0,0,30.933,28.056Zm0,4.6a1.726,1.726,0,1,1,1.726-1.726A1.7,1.7,0,0,1,30.933,32.659Zm-8.056-6.905A2.877,2.877,0,1,0,20,22.877,2.849,2.849,0,0,0,22.877,25.754Zm0-4.6a1.726,1.726,0,1,1-1.726,1.726A1.7,1.7,0,0,1,22.877,21.151Zm10.358,1.093a1.656,1.656,0,0,0-.518-1.208,1.7,1.7,0,0,0-2.359,0l-9.264,9.322a1.794,1.794,0,0,0-.518,1.208A1.77,1.77,0,0,0,22.3,33.292a1.755,1.755,0,0,0,1.208-.518l9.207-9.322A1.656,1.656,0,0,0,33.235,22.244Zm-1.323.345h0l-9.322,9.322a.492.492,0,0,1-.748,0,.5.5,0,0,1-.173-.345.41.41,0,0,1,.173-.345L31.163,21.9a.5.5,0,0,1,.345-.173.41.41,0,0,1,.345.173.5.5,0,0,1,.173.345C32.026,22.359,32.026,22.532,31.911,22.589Z" transform="translate(-6.369 -2.972)" fill="#231f20"/>
  </g>
</svg>
