<svg xmlns="http://www.w3.org/2000/svg" width="14.182" height="24" viewBox="0 0 14.182 24">
  <path id="_15_Price_Tag_Label_money" data-name="15 Price Tag, Label, money" d="M25.078,9.86,21.86,5.5a.545.545,0,0,0-.436-.224H18.636V2H17.545V5.273H14.273a.545.545,0,0,0-.458.256L11.087,9.893a.545.545,0,0,0-.087.289V24.364A1.636,1.636,0,0,0,12.636,26H23.545a1.636,1.636,0,0,0,1.636-1.636V10.182a.545.545,0,0,0-.1-.322Zm-.987,14.5a.545.545,0,0,1-.545.545H12.636a.545.545,0,0,1-.545-.545V10.34l2.493-3.976h2.962V9.091H15.909v1.091h4.364V9.091H18.636V6.364h2.509l2.945,4ZM13.182,17.818a4.909,4.909,0,1,0,4.909-4.909,4.909,4.909,0,0,0-4.909,4.909Zm8.727,0A3.818,3.818,0,1,1,18.091,14,3.818,3.818,0,0,1,21.909,17.818Zm-3.273-2.727v.545h1.091v1.091H17.545v.545h1.636a.545.545,0,0,1,.545.545v1.636a.545.545,0,0,1-.545.545h-.545v.545H17.545V20H16.455V18.909h2.182v-.545H17a.545.545,0,0,1-.545-.545V16.182A.545.545,0,0,1,17,15.636h.545v-.545Z" transform="translate(-11 -2)"/>
</svg>
