<svg id="Layer_1" data-name="Layer 1" xmlns="http://www.w3.org/2000/svg" viewBox="0 0 64 64">
  <defs>
    <style>.cls-1{fill:#fff;}</style>
  </defs>
  <title>Menu trang thiet ke</title>
  <path class="cls-1" d="M44.56,26.06l0,0-11.16-4.3-.17,0a1.08,1.08,0,0,0-.19,0,.76.76,0,0,0-.21,0,.77.77,0,0,0-.15,0L21.11,26l0,0a1.51,1.51,0,0,0-.17.1l-.16.11a1,1,0,0,0-.09.13.8.8,0,0,0-.13.19l0,.13a1,1,0,0,0-.05.25v.31h0V41a1,1,0,0,0,.29.72h0a1,1,0,0,0,.32.21l11.38,4.77a1.09,1.09,0,0,0,.39.08,1,1,0,0,0,.38-.08l11.17-4.55a.91.91,0,0,0,.37-.27,1,1,0,0,0,.31-.71L45.22,27A1,1,0,0,0,44.56,26.06ZM31.83,44.28l-9.37-3.92V28.63l9.37,3.45ZM33,30.35l-9-3.3,9-3.29,8.64,3.33Zm10.06,10.2L33.85,44.3V32.19l9.34-3.53Z"/>
  <path class="cls-1" d="M23.26,24.18l1.31-.48L21,17.51a.71.71,0,0,0-1.19,0L6.85,40a.69.69,0,0,0,.6,1H19.5V39.6H8.65L20.4,19.24Z"/>
  <path class="cls-1" d="M46.1,18.15a11.08,11.08,0,0,0-8.69,4.2l1.36.52A9.75,9.75,0,1,1,46.1,39v1.38a11.14,11.14,0,1,0,0-22.27Z"/>
</svg>
