<svg id="Group_57416" data-name="Group 57416" xmlns="http://www.w3.org/2000/svg" width="18.889" height="18.889" viewBox="0 0 18.889 18.889">
  <path id="Path_141462" data-name="Path 141462" d="M11.445,20.96a9.445,9.445,0,1,1,9.445-9.445A9.455,9.455,0,0,1,11.445,20.96Zm0-17.378a7.934,7.934,0,1,0,7.934,7.934,7.942,7.942,0,0,0-7.934-7.934Z" transform="translate(-2 -2.071)" fill="#373737"/>
  <path id="Path_141463" data-name="Path 141463" d="M14.256,18.149a.756.756,0,0,1-.756-.756V8.327a.756.756,0,1,1,1.511,0v9.067A.756.756,0,0,1,14.256,18.149Z" transform="translate(-4.811 -3.415)" fill="#373737"/>
  <path id="Path_141464" data-name="Path 141464" d="M17.322,15.082H8.256a.756.756,0,0,1,0-1.511h9.067a.756.756,0,1,1,0,1.511Z" transform="translate(-3.344 -4.882)" fill="#373737"/>
</svg>
