<svg id="Group_62782" data-name="Group 62782" xmlns="http://www.w3.org/2000/svg" width="32" height="32" viewBox="0 0 32 32">
  <path id="Path_115844" data-name="Path 115844" d="M0,0H32V32H0Z" fill="none" fill-rule="evenodd"/>
  <path id="Path_115845" data-name="Path 115845" d="M17,6.995v1a1.023,1.023,0,0,1-1.9.423A1.053,1.053,0,0,1,15,7.994v-1h-3a1.042,1.042,0,0,1-.755-1.653A.879.879,0,0,1,12.005,5q1.5,0,3-.009V4a.87.87,0,0,1,.05-.313A1.023,1.023,0,0,1,16.02,3,1,1,0,0,1,17,4v.977c2-.012,3.995-.023,5.993-.013V4a1,1,0,0,1,.979-1h.039a1,1,0,0,1,.979,1v.982L26.062,5a3.079,3.079,0,0,1,2.922,2.959q.057,9.025,0,18.053a3.088,3.088,0,0,1-2.959,2.959q-10.025.062-20.05,0A3.074,3.074,0,0,1,3.016,26.01q-.057-9.027,0-18.053A3.07,3.07,0,0,1,6.009,5h1V4a.848.848,0,0,1,.05-.313A1.022,1.022,0,0,1,8.029,3a1,1,0,0,1,.979,1V7.994a1.023,1.023,0,0,1-1.886.459,1.036,1.036,0,0,1-.111-.459v-1q-.512,0-1.024,0a1.035,1.035,0,0,0-.974.974q-.167,9.013,0,18.028a1.035,1.035,0,0,0,.974.974q10.012.186,20.026,0A1.035,1.035,0,0,0,26.987,26q.167-9.012,0-18.028a1.035,1.035,0,0,0-1-.974h-1v1a1.026,1.026,0,0,1-1.886.459,1.05,1.05,0,0,1-.111-.459V7H17ZM8.009,22.976a1,1,0,1,1-.968,1A1,1,0,0,1,8.009,22.976Zm4,0a1,1,0,1,1-.956,1A1,1,0,0,1,12.005,22.976Zm3.995,0a1,1,0,1,1-.955,1,1,1,0,0,1,.955-1Zm-7.991-4a1,1,0,1,1-.967,1,1,1,0,0,1,.967-1Zm4,0a1,1,0,1,1-1,1,1,1,0,0,1,1-1Zm3.995,0a1,1,0,1,1-.968,1A1,1,0,0,1,16,18.981Zm3.995,0a1,1,0,1,1-.968,1A1,1,0,0,1,19.995,18.981Zm3.995,0a1,1,0,1,1-.967,1,1,1,0,0,1,.967-1ZM12,14.986a1,1,0,1,1-1,1,1,1,0,0,1,1-1Zm3.995,0a1,1,0,1,1-.955,1,1,1,0,0,1,.955-1Zm4,0a1,1,0,1,1-.955,1,1,1,0,0,1,.955-1Zm3.995,0a1,1,0,1,1-1,1,1,1,0,0,1,1-1Z" fill-rule="evenodd"/>
</svg>
