<svg xmlns="http://www.w3.org/2000/svg" data-name="Layer 1" viewBox="0 0 64 64">
  <path fill="#eaeaea" d="M62.63,61.77c-.92,1.38-15.77,2.07-30.63,2.07V56.93H49.14a1,1,0,0,0,0-2H32V48.11H55.14a1,1,0,0,0,0-2H32V30.46H55.14a1,1,0,0,0,0-2H32V22.24c12.14,0,24.28-.16,25-.47,1.5-.61,1.5-12.62,0-13.24-.75-.31-12.89-.46-25-.46V.16c14.86,0,29.71.69,30.63,2.07C64.46,5,64.46,59,62.63,61.77Z"/>
  <path fill="#f5f6fa" d="M32,.16V63.84c-14.86,0-29.71-.69-30.63-2.07C-.46,59-.46,5,1.37,2.23,2.29.85,17.14.16,32,.16Z"/>
  <path fill="#b8bfc4" d="M56.14,29.46a1,1,0,0,1-1,1H32v-2H55.14A1,1,0,0,1,56.14,29.46Z"/>
  <path fill="#d2dae2" d="M32,28.46v2H8.86a1,1,0,1,1,0-2Z"/>
  <path fill="#b8bfc4" d="M33.11,38.28a1,1,0,0,1-1,1H32v-2h.09A1,1,0,0,1,33.11,38.28Z"/>
  <path fill="#d2dae2" d="M32,37.28v2H8.89a1,1,0,1,1,0-2Z"/>
  <path fill="#b8bfc4" d="M56.14,47.11a1,1,0,0,1-1,1H32v-2H55.14A1,1,0,0,1,56.14,47.11Z"/>
  <path fill="#d2dae2" d="M32,46.11v2H8.86a1,1,0,1,1,0-2Z"/>
  <path fill="#b8bfc4" d="M50.14,55.93a1,1,0,0,1-1,1H32v-2H49.14A1,1,0,0,1,50.14,55.93Z"/>
  <path fill="#d2dae2" d="M32,54.93v2H8.86a1,1,0,1,1,0-2Z"/>
  <path fill="#0fbcf9" d="M57,21.77c-.75.31-12.89.47-25,.47V8.07c12.14,0,24.28.15,25,.46C58.53,9.15,58.53,21.16,57,21.77Z"/>
  <path fill="#4bcffa" d="M32,8.07V22.24c-12.14,0-24.28-.16-25-.47C5.48,21.16,5.48,9.15,7,8.53,7.72,8.22,19.86,8.07,32,8.07Z"/>
  <path fill="#808e9b" d="M18.94,11.15a1,1,0,0,0-1,1v3.66l-3.2-4.23a1.32,1.32,0,0,0-2.3.89v5.68a1,1,0,0,0,2,0V14.49l3.21,4.23a1.3,1.3,0,0,0,1,.43,1.36,1.36,0,0,0,.48-.09,1.31,1.31,0,0,0,.84-1.23V12.15A1,1,0,0,0,18.94,11.15Z"/>
  <path fill="#677177" d="M42.22 11.2A1 1 0 0041 12L40.09 16l-1.32-2.13a1.3 1.3 0 00-1.11-.63 1.24 1.24 0 00-1.11.62l-1.36 2.16-.93-4.13a1 1 0 10-1.95.44l1.29 5.72a1.35 1.35 0 001.08 1l.21 0A1.33 1.33 0 0036 18.53l1.65-2.63 1.62 2.61a1.31 1.31 0 001.32.62 1.35 1.35 0 001.08-1L43 12.4A1 1 0 0042.22 11.2zM51 11.46a3.16 3.16 0 00-.44-.16 3.22 3.22 0 00-.49-.11 3.51 3.51 0 00-1.48.09 2.74 2.74 0 00-.9.46 2.3 2.3 0 00-.66.82 2.5 2.5 0 00-.24 1.1 2.59 2.59 0 00.17.95 2.52 2.52 0 00.44.7 2.85 2.85 0 00.57.47 3.74 3.74 0 00.52.28c.35.16.46.23.5.33a.46.46 0 010 .38.62.62 0 01-.14.18 1 1 0 01-.28.14 1.76 1.76 0 01-.79 0l-.27-.07a1 1 0 10-.66 1.89 3.33 3.33 0 00.55.15 3.88 3.88 0 00.7.06 3.58 3.58 0 001-.15 2.77 2.77 0 00.95-.49 2.53 2.53 0 00.69-.86 2.44 2.44 0 000-2.08 2.65 2.65 0 00-1.49-1.32 3.07 3.07 0 01-.31-.17.53.53 0 01-.14-.12.35.35 0 01-.07-.11.76.76 0 010-.19.46.46 0 010-.22.3.3 0 01.1-.13.65.65 0 01.22-.11 1.6 1.6 0 01.62 0l.22 0 .14.06A1 1 0 0051 11.46z"/>
  <path fill="#808e9b" d="M28.1,17.15H25.73V16h2.21a1,1,0,1,0,0-2H25.73v-.89h2.36a1,1,0,0,0,0-2h-3a1.41,1.41,0,0,0-.91.33,1.36,1.36,0,0,0-.45,1v5.24a1.35,1.35,0,0,0,.44,1,1.39,1.39,0,0,0,.92.34h3a1,1,0,0,0,0-2Z"/>
</svg>
