<svg id="Layer_1" data-name="Layer 1" xmlns="http://www.w3.org/2000/svg" viewBox="0 0 32 32"><defs><style>.cls-1{fill:#fff;}</style></defs><title>01 ICON</title><path class="cls-1" d="M29.73,6.81,26,1.62A1.49,1.49,0,0,0,24.74,1H9.23A1.49,1.49,0,0,0,8,1.62L4.18,6.89A3.51,3.51,0,0,0,3,9.51v9.65L1.15,24.24a2.5,2.5,0,0,0,1.5,3.2,2.47,2.47,0,0,0,2.2-.26L15,30.86a2.25,2.25,0,0,0,3-1.56c0-.1,0-.2,0-.3h9.52A3.51,3.51,0,0,0,31,25.49v-16a3.47,3.47,0,0,0-1.27-2.7M9.23,2.5H24.74L27.29,6H6.68ZM4.44,25.44h0a1,1,0,0,1-1.88-.69L6.32,14.42a1,1,0,0,1,1.88.68l-.14.38ZM13,27l1.28.47,1.71.62a.75.75,0,0,1,.44,1,.74.74,0,0,1-1,.44L11.34,28,5.85,26,9.61,15.61a3.25,3.25,0,0,0,.11-.42l8.87-1.55a.75.75,0,0,1,.26,1.47l-3.1.54h0L14,16l-.22,0a.91.91,0,0,0-.61.44l-.06.17a.73.73,0,0,0,.43.93h0l7,2.53A.75.75,0,1,1,20,21.51l-3.69-1.34-.65-.24a.81.81,0,0,0-.83.15A.73.73,0,0,0,15,21.31l4.42,1.61h0l1.4.51a.75.75,0,0,1-.51,1.41l-1.5-.54L15.25,23l-.7-.26a.75.75,0,0,0-1,.45.74.74,0,0,0,.45,1l.7.26h0l3.69,1.34a.75.75,0,0,1-.51,1.41l-1.51-.55L14.81,26l-1.29-.47A.75.75,0,1,0,13,27M29.5,25.49a2,2,0,0,1-2,2H20.15a2.18,2.18,0,0,0,.2-.5,1.93,1.93,0,0,0,.06-.63,2.24,2.24,0,0,0,1.48-4.07,2.13,2.13,0,0,0,.51-.92,2.32,2.32,0,0,0-1.52-2.73l-4.41-1.6,2.64-.46a2.25,2.25,0,0,0-.78-4.43L9.53,13.7a2.46,2.46,0,0,0-1.41-1.29A2.51,2.51,0,0,0,4.91,13.9L4.5,15V9.51a2,2,0,0,1,2-2h21a2,2,0,0,1,2,2Z"/></svg>