<svg xmlns="http://www.w3.org/2000/svg" enable-background="new 0 0 481.3 480" viewBox="0 0 481.3 480">
  <path fill="#edaf40" d="M225.3 318l0 84-87.48 78c-21.918-40.322-31.007-73.432 0-84C151.069 343.899 184.319 324.609 225.3 318zM430.95 368.34l0 33.66-87.47 78c-14.945-38.45-26.234-74.343 0-84 6.982-35.595 19.833-58.559 49.89-44.5C416.569 340.271 431.098 345.07 430.95 368.34zM328.12 128.34l0 33.66-87.47 78c-18.436-43.347-22.502-74.732 0-84 6.338-35.595 18.939-58.559 49.9-44.5C309.065 109.337 323.552 114.415 328.12 128.34z"/>
  <path fill="#f4be53" d="M343.48 396v84L256 402l0-84C297.436 323.757 332.378 340.222 343.48 396zM137.82 396l0 84-87.47-78 0-33.66c3.327-21.322 20.111-21.655 37.58-16.84C117.27 353.537 134.61 367.655 137.82 396zM240.65 156v84l-87.47-78 0-84C197.948 85.325 228.292 109.904 240.65 156z"/>
  <path fill="#f9c95f" d="M225.3 318l-87.48 78-49.89-44.5c7.95-8.91-11.301-20.64-11.301-33.5 0-12.87 19.251-24.61 11.301-33.51L137.82 240 225.3 318zM343.48 240l49.89 44.49c-7.95 8.9 4.195 16.576 4.195 29.446 0 12.86-12.145 28.654-4.195 37.564L343.48 396 256 318 343.48 240zM240.65 0l49.9 44.49c-7.95 8.9 0 20.64 0 33.51 0 12.86-7.95 24.59 0 33.5l-49.9 44.5-87.47-78L240.65 0z"/>
  <path fill="#c84f4f" d="M87.93,284.49c7.95,8.9,12.77,20.64,12.77,33.51c0,12.86-4.82,24.59-12.77,33.5   c-9.22,10.33-22.64,16.84-37.58,16.84C22.55,368.34,0,345.8,0,318c0-27.81,22.55-50.35,50.35-50.35   C65.29,267.65,78.71,274.15,87.93,284.49z"/>
  <path fill="#82af7e" d="M430.95 267.65c27.8 0 50.35 22.54 50.35 50.35 0 27.8-22.55 50.34-50.35 50.34-14.94 0-28.36-6.51-37.58-16.84-7.95-8.91-12.77-20.64-12.77-33.5 0-12.87 4.82-24.61 12.77-33.51C402.59 274.15 416.01 267.65 430.95 267.65zM328.12 27.65c27.81 0 50.35 22.54 50.35 50.35 0 27.8-22.54 50.34-50.35 50.34-14.94 0-28.36-6.51-37.57-16.84-7.95-8.91-12.77-20.64-12.77-33.5 0-12.87 4.82-24.61 12.77-33.51C299.77 34.15 313.19 27.65 328.12 27.65z"/>
  <path fill="#b0d2a5" d="M341.324 57.855l-21.078 23.242-5.521-5.656c-3.085-3.161-8.15-3.224-11.313-.137-3.162 3.086-3.223 8.151-.137 11.313l11.46 11.74c1.507 1.544 3.571 2.412 5.725 2.412.049 0 .098 0 .146-.001 2.206-.041 4.298-.99 5.779-2.624l26.79-29.54c2.969-3.273 2.722-8.333-.552-11.3C349.353 54.336 344.293 54.582 341.324 57.855zM455.443 297.303c-3.271-2.967-8.331-2.721-11.3.554l-21.068 23.24-5.521-5.655c-3.085-3.161-8.149-3.224-11.313-.137-3.162 3.086-3.223 8.151-.137 11.313l11.46 11.74c1.507 1.544 3.571 2.412 5.725 2.412.049 0 .099 0 .147-.001 2.206-.041 4.298-.991 5.779-2.625l26.78-29.54C458.964 305.33 458.716 300.271 455.443 297.303z"/>
  <path fill="#ff7d7d" d="M61.148,318l8.519-9.397c2.968-3.273,2.72-8.333-0.554-11.3c-3.273-2.967-8.333-2.72-11.3,0.554   l-7.463,8.232l-7.464-8.233c-2.969-3.274-8.027-3.521-11.3-0.553c-3.273,2.967-3.521,8.027-0.554,11.3L39.552,318l-8.519,9.396   c-2.968,3.273-2.72,8.333,0.554,11.3c1.531,1.389,3.454,2.073,5.371,2.073c2.179,0,4.35-0.885,5.929-2.626l7.464-8.233l7.463,8.232   c1.579,1.742,3.75,2.627,5.929,2.627c1.917,0,3.84-0.685,5.371-2.073c3.273-2.968,3.521-8.027,0.554-11.3L61.148,318z"/>
</svg>
