<svg id="Layer_1" data-name="Layer 1" xmlns="http://www.w3.org/2000/svg" viewBox="0 0 22 22"><defs><style>.cls-1{fill:#fff;}</style></defs><title>01 ICON</title><path class="cls-1" d="M6.89,7.05l3.33-3.38V13.72a.78.78,0,0,0,1.56,0v-10l3.33,3.38a.78.78,0,0,0,1.1,0,.82.82,0,0,0,.23-.56A.76.76,0,0,0,16.22,6L11.55,1.23a.77.77,0,0,0-1.1,0L5.78,6a.78.78,0,0,0,0,1.1A.78.78,0,0,0,6.89,7.05Z"/><path class="cls-1" d="M20.25,8.5a.75.75,0,0,0-.74.75v9.17a1.09,1.09,0,0,1-1.09,1.09H3.58a1.09,1.09,0,0,1-1.09-1.09V9.25a.75.75,0,0,0-.74-.75A.76.76,0,0,0,1,9.25v9.17A2.59,2.59,0,0,0,3.58,21H18.42A2.59,2.59,0,0,0,21,18.42V9.25A.75.75,0,0,0,20.25,8.5Z"/></svg>