<svg id="Layer_1" data-name="Layer 1" xmlns="http://www.w3.org/2000/svg" viewBox="0 0 13 13"><defs><style>.cls-1{fill:#8e8e93;}</style></defs><title>01 ICON</title><path class="cls-1" d="M6.89,3.63a.75.75,0,0,0-.22-.54L4.12.48A.77.77,0,0,0,3,.48L.47,3.09A.78.78,0,1,0,1.58,4.18L2.79,2.92V12a.78.78,0,0,0,1.56,0v-9L5.56,4.18a.78.78,0,0,0,1.1,0A.82.82,0,0,0,6.89,3.63Z"/><path class="cls-1" d="M12.52,8.81a.78.78,0,0,0-1.1,0l-1.21,1.26V1A.78.78,0,1,0,8.65,1v9.05L7.44,8.82a.78.78,0,0,0-1.1,0,.82.82,0,0,0-.23.56.75.75,0,0,0,.22.54l2.55,2.61a.77.77,0,0,0,1.1,0l2.55-2.61A.78.78,0,0,0,12.52,8.81Z"/></svg>