<!-- Generator: Adobe Illustrator 24.0.0, SVG Export Plug-In . SVG Version: 6.00 Build 0)  -->
<svg version="1.1" id="Layer_1" xmlns="http://www.w3.org/2000/svg" xmlns:xlink="http://www.w3.org/1999/xlink" x="0px" y="0px"
	 viewBox="0 0 35 35" style="enable-background:new 0 0 35 35;" xml:space="preserve">
<style type="text/css">
	.st0{fill:#FFFFFF;}
</style>
<title>01 ICON</title>
<path class="st0" d="M34.5,30.1L34.5,30.1c-0.2-6.4-5.1-11.7-11.8-13.4c4-2.9,4.9-8.4,2-12.4s-8.4-4.9-12.4-2s-4.9,8.4-2,12.4
	c0.6,0.8,1.2,1.5,2,2C5.6,18.4,0.7,23.6,0.5,30v0.1l0,0v3.3c0,0.6,0.5,1.2,1.2,1.2h31.7c0.6,0,1.2-0.5,1.2-1.2V30.1L34.5,30.1z
	 M10.9,9.2c0.1-3.6,3.2-6.5,6.8-6.3C21.3,3,24.2,6,24.1,9.7c-0.1,3.5-2.9,6.2-6.4,6.3h-0.4C13.7,15.9,10.8,12.9,10.9,9.2 M32.2,30.1
	v1.5c0,0.4-0.4,0.6-0.7,0.6c0,0,0,0,0,0H3.6c-0.4,0-0.7-0.2-0.7-0.6c0,0,0,0,0,0v-1.5C3,23.6,9.5,18.3,17.4,18.3h0.3
	C25.5,18.3,32,23.6,32.2,30.1L32.2,30.1z"/>
</svg>
