<svg id="Layer_1" data-name="Layer 1" xmlns="http://www.w3.org/2000/svg" viewBox="0 0 64 64"><defs><style>.cls-1{fill:#fff;}</style></defs><title>Menu trang thiet ke</title><path class="cls-1" d="M28.2,10.53H12.08a1.54,1.54,0,0,0-1.55,1.55V28.2a1.55,1.55,0,0,0,1.55,1.55H28.2a1.56,1.56,0,0,0,1.55-1.55V12.08A1.55,1.55,0,0,0,28.2,10.53Zm.12,17.67a.13.13,0,0,1-.12.12H12.08A.13.13,0,0,1,12,28.2V12.08a.13.13,0,0,1,.13-.13H28.2a.13.13,0,0,1,.12.13Z"/><path class="cls-1" d="M28.2,34.25H12.08a1.55,1.55,0,0,0-1.55,1.55V51.92a1.54,1.54,0,0,0,1.55,1.55H28.2a1.55,1.55,0,0,0,1.55-1.55V35.8A1.56,1.56,0,0,0,28.2,34.25Zm.12,17.67a.13.13,0,0,1-.12.13H12.08a.13.13,0,0,1-.13-.13V35.8a.13.13,0,0,1,.13-.12H28.2a.13.13,0,0,1,.12.12Z"/><path class="cls-1" d="M51.92,10.53H35.8a1.55,1.55,0,0,0-1.55,1.55V28.2a1.56,1.56,0,0,0,1.55,1.55H51.92a1.55,1.55,0,0,0,1.55-1.55V12.08A1.54,1.54,0,0,0,51.92,10.53Zm.13,17.67a.13.13,0,0,1-.13.12H35.8a.13.13,0,0,1-.12-.12V12.08A.13.13,0,0,1,35.8,12H51.92a.13.13,0,0,1,.13.13Z"/><path class="cls-1" d="M51.46,42.56h-6.3V36.27a1.3,1.3,0,1,0-2.6,0v6.29H36.27a1.3,1.3,0,0,0,0,2.6h6.29v6.3a1.3,1.3,0,0,0,2.6,0v-6.3h6.3a1.3,1.3,0,0,0,0-2.6Z"/></svg>
