<svg xmlns="http://www.w3.org/2000/svg" viewBox="0 0 16 16">
  <path fill="#455A64" d="M15 0H1C.449 0 0 .449 0 1v14c0 .552.449 1 1 1h14a1 1 0 0 0 1-1V1c0-.551-.448-1-1-1z"/>
  <path fill="#FAFAFA" d="M15 15.5V15H1V3h14v12h.001z"/>
  <circle cx="14.5" cy="1.5" r=".5" fill="#2196F3"/>
  <circle cx="12.5" cy="1.5" r=".5" fill="#FFC107"/>
  <path fill="#2196F3" d="M7 9h.5a.5.5 0 0 0 .5-.5v-2a.5.5 0 0 0-.5-.5H6.407a.495.495 0 0 0-.465.334C5.804 6.721 5.433 7 5 7s-.804-.279-.942-.666A.495.495 0 0 0 3.593 6H2.5a.5.5 0 0 0-.5.5v2a.5.5 0 0 0 .5.5H3v2.5a.5.5 0 0 0 .5.5h3a.5.5 0 0 0 .5-.5V9z"/>
  <path fill="#90A4AE" d="M10.5 7h3a.5.5 0 0 0 0-1h-3a.5.5 0 0 0 0 1zM13.5 8h-3a.5.5 0 0 0 0 1h3a.5.5 0 0 0 0-1zM12.5 10h-2a.5.5 0 0 0 0 1h2a.5.5 0 0 0 0-1z"/>
</svg>
