<svg id="_12" data-name="12" xmlns="http://www.w3.org/2000/svg" width="18.889" height="18.902" viewBox="0 0 18.889 18.902">
  <path id="Path_141677" data-name="Path 141677" d="M1.774-509.682v2.321l-.5-.5-.5-.5-.388.388L0-507.583l1.172,1.172,1.175,1.175,1.172-1.172,1.175-1.176-.4-.4-.4-.4-.506.506-.51.51V-512H1.774Z" transform="translate(0 512)"/>
  <path id="Path_141678" data-name="Path 141678" d="M129.552-511.161c-1.479.939-4.2,2.68-5.175,3.308a4.913,4.913,0,0,0-.643.455,4.784,4.784,0,0,0,.573.4c1,.632,1.845,1.19,1.845,1.213s-.274.207-1.782,1.179c-.362.233-.658.432-.658.444s.3.211.658.444c1.36.88,1.782,1.161,1.782,1.187s-.4.281-.876.591-1.035.669-1.227.795l-.347.233.643.421c.355.229.906.591,1.224.8a3.185,3.185,0,0,1,.562.414c-.03.048-.639.455-1.549,1.031-.425.27-.8.51-.824.536-.044.037-.022.066.111.159.111.078,5.981,3.841,6.946,4.454a11,11,0,0,0,1.811-1.083c4.085-2.61,5.286-3.393,5.341-3.478.037-.059.044-.055-1.257-.883-.621-.4-1.131-.728-1.131-.739s.492-.34,1.874-1.242a3.8,3.8,0,0,0,.554-.4c0-.019-.551-.381-1.209-.806s-1.205-.787-1.212-.806a8.307,8.307,0,0,1,.795-.547c1.2-.773,1.638-1.061,1.638-1.083s-.17-.129-1.686-1.12c-.388-.251-.717-.473-.728-.492a11.437,11.437,0,0,1,1.109-.754c1.3-.832,1.29-.824,1.253-.883-.015-.022-.322-.24-.68-.481-.676-.447-6.388-4.107-6.41-4.107C130.871-512,130.272-511.623,129.552-511.161Zm3.641,1.974c2.369,1.508,2.695,1.719,2.706,1.76s-2.17,1.486-4.436,2.9l-.588.366-.244-.144c-.137-.081-.806-.5-1.486-.939-3.323-2.122-3.367-2.151-3.319-2.2s1.615-1.046,4.868-3.12l.163-.1.336.207C131.378-510.34,132.28-509.771,133.193-509.187Zm-4.439,8.273a11.741,11.741,0,0,0,2.177,1.309c.026-.011.769-.484,1.652-1.046s1.678-1.065,1.763-1.113l.155-.089.122.07c.34.2,1.286.839,1.286.869a14.591,14.591,0,0,1-2.218,1.464c-2.9,1.856-2.761,1.771-2.872,1.723-.329-.148-4.92-3.083-4.983-3.183-.011-.018.126-.129.3-.248a12.525,12.525,0,0,1,1.131-.677C127.289-501.835,127.958-501.421,128.753-500.914Zm6.4,2.713c.588.377.758.5.758.547a14.109,14.109,0,0,1-1.767,1.168c-1.782,1.135-3.2,2.018-3.26,2.033a6.01,6.01,0,0,1-.928-.536c-2.61-1.66-4.085-2.61-4.129-2.65s.074-.126.606-.462c.362-.229.7-.432.754-.455.111-.041-.037-.129,2.166,1.272.795.506,1.471.92,1.5.92.063,0,.68-.377,2.381-1.456,1.09-.691,1.257-.787,1.323-.754C134.6-498.552,134.867-498.382,135.152-498.2Z" transform="translate(-119.127 512)"/>
</svg>
