<?xml version="1.0" encoding="utf-8"?>
<!-- Generator: Adobe Illustrator 23.0.1, SVG Export Plug-In . SVG Version: 6.00 Build 0)  -->
<svg version="1.1" id="Layer_1" xmlns="http://www.w3.org/2000/svg" xmlns:xlink="http://www.w3.org/1999/xlink" x="0px" y="0px"
	 viewBox="0 0 50 50" style="enable-background:new 0 0 50 50;" xml:space="preserve">
<style type="text/css">
	.st0{fill-rule:evenodd;clip-rule:evenodd;fill:#0068FF;}
	.st1{opacity:0.12;fill-rule:evenodd;clip-rule:evenodd;fill:#001A33;enable-background:new    ;}
	.st2{fill-rule:evenodd;clip-rule:evenodd;fill:#FFFFFF;}
	.st3{fill:#0068FF;}
	.st4{fill:#FFFFFF;}
	.st5{fill-rule:evenodd;clip-rule:evenodd;fill:#FFFFFF;stroke:#8E8E8E;stroke-width:0.4307;stroke-miterlimit:10;}
	.st6{fill:#8E8E8E;}
</style>
<g>
	<path class="st0" d="M22.7,0.2h4.4c6.1,0,9.6,0.9,12.8,2.6c3.2,1.7,5.6,4.2,7.3,7.3c1.7,3.2,2.6,6.7,2.6,12.8v4.4
		c0,6.1-0.9,9.6-2.6,12.8c-1.7,3.2-4.2,5.6-7.3,7.3c-3.2,1.7-6.7,2.6-12.8,2.6h-4.4c-6.1,0-9.6-0.9-12.8-2.6
		c-3.2-1.7-5.6-4.2-7.3-7.3C0.9,36.9,0,33.4,0,27.3v-4.4c0-6.1,0.9-9.6,2.6-12.8c1.7-3.2,4.2-5.6,7.3-7.3C13,1.1,16.6,0.2,22.7,0.2z
		"/>
	<path class="st1" d="M49.8,26.6v0.7c0,6.1-0.9,9.6-2.6,12.8c-1.7,3.2-4.2,5.6-7.3,7.3c-3.2,1.7-6.7,2.6-12.8,2.6h-4.4
		c-5,0-8.3-0.6-11-1.7l-4.6-4.7L49.8,26.6z"/>
	<path class="st2" d="M7.6,43.7c2.3,0.3,5.2-0.4,7.3-1.4c9,5,23,4.7,31.5-0.7c0.3-0.5,0.6-1,0.9-1.5c1.7-3.2,2.6-6.7,2.6-12.8v-4.4
		c0-6.1-0.9-9.7-2.6-12.8c-1.7-3.2-4.2-5.7-7.3-7.3C36.9,0.9,33.3,0,27.2,0h-4.4c-5.2,0-8.6,0.7-11.4,1.9C11.2,2,11,2.2,10.9,2.3
		c-8.3,8-9,25.4-1.9,34.9c0,0,0,0,0,0c1.1,1.6,0,4.4-1.6,6.1C7.1,43.5,7.2,43.7,7.6,43.7z"/>
	<path class="st3" d="M20.5,17.1h-9.8v2.1h6.8l-6.7,8.3c-0.2,0.3-0.4,0.6-0.4,1.2v0.5h9.2c0.5,0,0.8-0.4,0.8-0.8v-1.1h-7.1l6.3-7.9
		c0.1-0.1,0.3-0.3,0.3-0.4l0-0.1c0.4-0.5,0.4-1,0.4-1.5V17.1z"/>
	<path class="st3" d="M32.9,29.2h1.4V17.1h-2.1v11.4C32.2,28.9,32.5,29.2,32.9,29.2z"/>
	<path class="st3" d="M25.7,19.8c-2.6,0-4.8,2.1-4.8,4.8s2.1,4.8,4.8,4.8s4.8-2.1,4.8-4.8C30.5,21.9,28.4,19.8,25.7,19.8z
		 M25.7,27.3c-1.5,0-2.8-1.3-2.8-2.8s1.3-2.8,2.8-2.8c1.5,0,2.8,1.3,2.8,2.8S27.3,27.3,25.7,27.3z"/>
	<path class="st3" d="M40.5,19.7c-2.6,0-4.8,2.1-4.8,4.8c0,2.6,2.1,4.8,4.8,4.8c2.6,0,4.8-2.1,4.8-4.8
		C45.2,21.8,43.1,19.7,40.5,19.7z M40.5,27.3c-1.6,0-2.8-1.3-2.8-2.8s1.3-2.8,2.8-2.8c1.6,0,2.8,1.3,2.8,2.8S42,27.3,40.5,27.3z"/>
	<path class="st3" d="M29.4,29.2h1.1V20h-2v8.3C28.6,28.8,28.9,29.2,29.4,29.2z"/>
</g>
</svg>
