<?xml version="1.0" encoding="utf-8"?>
<!-- Generator: Adobe Illustrator 23.0.1, SVG Export Plug-In . SVG Version: 6.00 Build 0)  -->
<svg version="1.1" id="Layer_1" xmlns="http://www.w3.org/2000/svg" xmlns:xlink="http://www.w3.org/1999/xlink" x="0px" y="0px"
	 viewBox="0 0 100 34.6" style="enable-background:new 0 0 100 34.6;" xml:space="preserve">
<style type="text/css">
	.st0{fill-rule:evenodd;clip-rule:evenodd;fill:#0068FF;}
	.st1{opacity:0.12;fill-rule:evenodd;clip-rule:evenodd;fill:#001A33;enable-background:new    ;}
	.st2{fill-rule:evenodd;clip-rule:evenodd;fill:#FFFFFF;}
	.st3{fill:#0068FF;}
	.st4{fill:#FFFFFF;}
	.st5{fill-rule:evenodd;clip-rule:evenodd;fill:#FFFFFF;stroke:#8E8E8E;stroke-width:0.4307;stroke-miterlimit:10;}
	.st6{fill:#8E8E8E;}
</style>
<g>
	<path class="st0" d="M94.8,34.5H5.2c-2.8,0-5-2.2-5-5V5.1c0-2.8,2.2-5,5-5h89.5c2.8,0,5,2.2,5,5v24.4
		C99.8,32.2,97.5,34.5,94.8,34.5z"/>
	<g>
		<path class="st2" d="M24.5,3.3c-7.9,0-14.3,6.3-14.3,14c0,2.7,0.8,5.2,2.1,7.4c-0.1,1.3-0.5,3.7-2.4,5.3c-0.8,0.7,4.5-0.9,4.9-2.3
			c2.5,2.2,5.9,3.6,9.5,3.6c7.9,0,14.3-6.3,14.3-14S32.4,3.3,24.5,3.3z"/>
		<g>
			<path class="st3" d="M20.2,13.9h-5.6V15h3.9l-3.8,4.6c-0.1,0.2-0.2,0.3-0.2,0.7v0.3h5.2c0.3,0,0.5-0.2,0.5-0.5v-0.6h-4.1l3.6-4.4
				c0.1-0.1,0.2-0.2,0.2-0.2l0,0c0.2-0.3,0.2-0.6,0.2-0.9V13.9z"/>
			<path class="st3" d="M27.3,20.6h0.8v-6.8h-1.2v6.4C26.9,20.5,27,20.6,27.3,20.6z"/>
			<path class="st3" d="M23.2,15.4c-1.5,0-2.7,1.2-2.7,2.7s1.2,2.7,2.7,2.7s2.7-1.2,2.7-2.7C25.9,16.6,24.7,15.4,23.2,15.4z
				 M23.2,19.6c-0.9,0-1.6-0.7-1.6-1.6c0-0.9,0.7-1.6,1.6-1.6c0.9,0,1.6,0.7,1.6,1.6C24.8,18.9,24.1,19.6,23.2,19.6z"/>
			<path class="st3" d="M31.6,15.3c-1.5,0-2.7,1.2-2.7,2.7c0,1.5,1.2,2.7,2.7,2.7c1.5,0,2.7-1.2,2.7-2.7
				C34.3,16.5,33.1,15.3,31.6,15.3z M31.6,19.6c-0.9,0-1.6-0.7-1.6-1.6s0.7-1.6,1.6-1.6c0.9,0,1.6,0.7,1.6,1.6S32.5,19.6,31.6,19.6z
				"/>
			<path class="st3" d="M25.3,20.6h0.6v-5.1h-1.1v4.7C24.8,20.4,25,20.6,25.3,20.6z"/>
		</g>
	</g>
	<g>
		<path class="st4" d="M52.2,21.9c-0.6,0.3-1.7,0.5-3.1,0.5c-3.3,0-5.7-2-5.7-5.7c0-3.6,2.5-6,6.1-6c1.4,0,2.4,0.3,2.8,0.5l-0.4,1.2
			c-0.6-0.3-1.4-0.5-2.3-0.5c-2.7,0-4.5,1.7-4.5,4.7c0,2.8,1.6,4.6,4.5,4.6c0.9,0,1.8-0.2,2.4-0.5L52.2,21.9z"/>
		<path class="st4" d="M54,10.3h1.5v5.1h0c0.2-0.4,0.6-0.8,1.1-1c0.4-0.3,1-0.4,1.5-0.4c1.1,0,2.9,0.7,2.9,3.5v4.9h-1.5v-4.7
			c0-1.3-0.5-2.4-1.9-2.4c-1,0-1.8,0.7-2,1.5c-0.1,0.2-0.1,0.4-0.1,0.7v4.9H54V10.3z"/>
		<path class="st4" d="M65.3,11.8c0,0.5-0.4,0.9-1,0.9c-0.5,0-0.9-0.4-0.9-0.9c0-0.5,0.4-0.9,0.9-0.9C64.9,10.9,65.3,11.3,65.3,11.8
			z M63.6,22.2v-8.2h1.5v8.2H63.6z"/>
		<path class="st4" d="M72.2,22.2l-0.1-1h-0.1c-0.5,0.6-1.4,1.2-2.5,1.2c-1.7,0-2.5-1.2-2.5-2.3c0-2,1.8-3.1,5-3v-0.2
			c0-0.7-0.2-1.9-1.9-1.9c-0.8,0-1.6,0.2-2.2,0.6l-0.3-1c0.7-0.4,1.7-0.7,2.7-0.7c2.5,0,3.2,1.7,3.2,3.3v3.1c0,0.7,0,1.4,0.1,2H72.2
			z M72,18.1c-1.7,0-3.5,0.3-3.5,1.8c0,1,0.7,1.4,1.4,1.4c1.1,0,1.8-0.7,2-1.4c0.1-0.2,0.1-0.3,0.1-0.5V18.1z"/>
		<path class="st4" d="M79.3,20.7c0.4,0.3,1.2,0.6,2,0.6c1.1,0,1.6-0.5,1.6-1.2c0-0.7-0.4-1.1-1.5-1.5c-1.5-0.5-2.2-1.3-2.2-2.3
			c0-1.3,1.1-2.4,2.9-2.4c0.8,0,1.6,0.2,2,0.5l-0.4,1.1C83.4,15.3,82.8,15,82,15c-0.9,0-1.4,0.5-1.4,1.1c0,0.7,0.5,1,1.6,1.4
			c1.4,0.5,2.2,1.2,2.2,2.5c0,1.4-1.1,2.4-3.1,2.4c-0.9,0-1.8-0.2-2.3-0.6L79.3,20.7z"/>
		<path class="st4" d="M87.2,18.4c0,2,1.3,2.8,2.9,2.8c1.1,0,1.7-0.2,2.3-0.4l0.3,1.1c-0.5,0.2-1.4,0.5-2.8,0.5
			c-2.6,0-4.1-1.7-4.1-4.1c0-2.5,1.5-4.4,3.9-4.4c2.7,0,3.4,2.3,3.4,3.8c0,0.3,0,0.5-0.1,0.7H87.2z M91.7,17.4
			c0-0.9-0.4-2.4-2.1-2.4c-1.5,0-2.2,1.4-2.3,2.4H91.7z M88.8,13.1c0.2-0.7,1-1,1-1.6c0-0.4-0.3-0.6-0.6-0.6c-0.4,0-0.6,0.3-0.8,0.6
			l-0.6-0.3c0.3-0.6,0.8-1.1,1.7-1.1c0.8,0,1.5,0.5,1.5,1.3c0,0.9-0.9,1.2-1.3,2L88.8,13.1z"/>
	</g>
</g>
</svg>
