<?xml version="1.0" encoding="utf-8"?>
<!-- Generator: Adobe Illustrator 23.0.1, SVG Export Plug-In . SVG Version: 6.00 Build 0)  -->
<svg version="1.1" id="Layer_1" xmlns="http://www.w3.org/2000/svg" xmlns:xlink="http://www.w3.org/1999/xlink" x="0px" y="0px"
	 viewBox="0 0 30 45" style="enable-background:new 0 0 30 45;" xml:space="preserve">
<style type="text/css">
	.st0{fill-rule:evenodd;clip-rule:evenodd;fill:#0068FF;}
	.st1{opacity:0.12;fill-rule:evenodd;clip-rule:evenodd;fill:#001A33;enable-background:new    ;}
	.st2{fill-rule:evenodd;clip-rule:evenodd;fill:#FFFFFF;}
	.st3{fill:#0068FF;}
	.st4{fill:#FFFFFF;}
	.st5{fill-rule:evenodd;clip-rule:evenodd;fill:#FFFFFF;stroke:#8E8E8E;stroke-width:0.4307;stroke-miterlimit:10;}
	.st6{fill:#8E8E8E;}
</style>
<g>
	<g>
		<path class="st0" d="M25,30.6H5c-2.8,0-5-2.3-5-5.1V5.1C0,2.3,2.2,0,5,0h20c2.8,0,5,2.3,5,5.1v20.4C30,28.3,27.8,30.6,25,30.6z"/>
		<g>
			<path class="st2" d="M15.1,3.5C8.7,3.5,3.5,8.8,3.5,15.3c0,2.3,0.6,4.4,1.7,6.2c-0.1,1.1-0.4,3.1-1.9,4.5c-0.7,0.6,3.7-0.8,4-1.9
				c2.1,1.9,4.8,3,7.7,3c6.4,0,11.6-5.3,11.6-11.8S21.5,3.5,15.1,3.5z"/>
			<g>
				<path class="st3" d="M11.6,12.4H7.1v1h3.1l-3.1,3.9c-0.1,0.1-0.2,0.3-0.2,0.6v0.3h4.3c0.2,0,0.4-0.2,0.4-0.4v-0.5H8.3l2.9-3.7
					c0-0.1,0.1-0.2,0.2-0.2l0,0c0.2-0.3,0.2-0.5,0.2-0.7V12.4z"/>
				<path class="st3" d="M17.3,18.1H18v-5.7h-1v5.4C17,18,17.2,18.1,17.3,18.1z"/>
				<path class="st3" d="M14,13.7c-1.2,0-2.2,1-2.2,2.2s1,2.2,2.2,2.2s2.2-1,2.2-2.2C16.2,14.7,15.2,13.7,14,13.7z M14,17.2
					c-0.7,0-1.3-0.6-1.3-1.3s0.6-1.3,1.3-1.3c0.7,0,1.3,0.6,1.3,1.3S14.7,17.2,14,17.2z"/>
				<path class="st3" d="M20.8,13.6c-1.2,0-2.2,1-2.2,2.3c0,1.2,1,2.3,2.2,2.3c1.2,0,2.2-1,2.2-2.3C23.1,14.7,22.1,13.6,20.8,13.6z
					 M20.8,17.2c-0.7,0-1.3-0.6-1.3-1.3c0-0.7,0.6-1.3,1.3-1.3c0.7,0,1.3,0.6,1.3,1.3C22.2,16.6,21.6,17.2,20.8,17.2z"/>
				<path class="st3" d="M15.7,18.1h0.5v-4.3h-0.9v3.9C15.3,17.9,15.5,18.1,15.7,18.1z"/>
			</g>
		</g>
	</g>
	<g>
		<path class="st5" d="M28,45H2c-1.1,0-2-0.9-2-2v-8.2c0-1.1,0.9-2,2-2h26c1.1,0,2,0.9,2,2V43C30,44.1,29.1,45,28,45z"/>
		<g>
			<path class="st6" d="M7,41.8C6.7,41.9,6.2,42,5.4,42c-1.6,0-2.9-1-2.9-2.9c0-1.8,1.2-3,3-3c0.7,0,1.2,0.2,1.4,0.3l-0.2,0.6
				c-0.3-0.1-0.7-0.2-1.2-0.2c-1.4,0-2.3,0.9-2.3,2.4c0,1.4,0.8,2.3,2.2,2.3c0.5,0,0.9-0.1,1.2-0.2L7,41.8z"/>
			<path class="st6" d="M7.9,35.8h0.8v2.6h0C8.8,38.2,9,38,9.2,37.9c0.2-0.1,0.5-0.2,0.8-0.2c0.6,0,1.5,0.3,1.5,1.8v2.5h-0.8v-2.4
				c0-0.7-0.2-1.2-1-1.2c-0.5,0-0.9,0.3-1,0.8c0,0.1-0.1,0.2-0.1,0.4v2.5H7.9V35.8z"/>
			<path class="st6" d="M13.5,36.6c0,0.3-0.2,0.5-0.5,0.5c-0.3,0-0.5-0.2-0.5-0.5c0-0.3,0.2-0.5,0.5-0.5
				C13.3,36.1,13.5,36.4,13.5,36.6z M12.7,41.9v-4.2h0.8v4.2H12.7z"/>
			<path class="st6" d="M17,41.9l-0.1-0.5h0c-0.2,0.3-0.7,0.6-1.3,0.6c-0.8,0-1.3-0.6-1.3-1.2c0-1,0.9-1.6,2.5-1.5v-0.1
				c0-0.3-0.1-1-0.9-1c-0.4,0-0.8,0.1-1.1,0.3l-0.2-0.5c0.3-0.2,0.8-0.4,1.4-0.4c1.3,0,1.6,0.9,1.6,1.7v1.6c0,0.4,0,0.7,0.1,1H17z
				 M16.9,39.8c-0.8,0-1.8,0.1-1.8,0.9c0,0.5,0.3,0.7,0.7,0.7c0.5,0,0.9-0.3,1-0.7c0-0.1,0-0.2,0-0.2V39.8z"/>
			<path class="st6" d="M20.5,41.2c0.2,0.1,0.6,0.3,1,0.3c0.6,0,0.8-0.3,0.8-0.6c0-0.4-0.2-0.6-0.8-0.8c-0.7-0.3-1.1-0.7-1.1-1.2
				c0-0.7,0.5-1.2,1.4-1.2c0.4,0,0.8,0.1,1,0.3l-0.2,0.5c-0.2-0.1-0.5-0.2-0.9-0.2c-0.4,0-0.7,0.3-0.7,0.6c0,0.3,0.2,0.5,0.8,0.7
				c0.7,0.3,1.1,0.6,1.1,1.3c0,0.7-0.6,1.2-1.6,1.2c-0.5,0-0.9-0.1-1.2-0.3L20.5,41.2z"/>
			<path class="st6" d="M24.5,40c0,1,0.7,1.4,1.4,1.4c0.5,0,0.9-0.1,1.2-0.2l0.1,0.5c-0.3,0.1-0.7,0.3-1.4,0.3c-1.3,0-2-0.8-2-2.1
				c0-1.3,0.7-2.2,2-2.2c1.4,0,1.7,1.2,1.7,2c0,0.2,0,0.3,0,0.4H24.5z M26.7,39.5c0-0.5-0.2-1.2-1-1.2c-0.8,0-1.1,0.7-1.2,1.2H26.7z
				 M25.3,37.3c0.1-0.4,0.5-0.5,0.5-0.8c0-0.2-0.1-0.3-0.3-0.3c-0.2,0-0.3,0.1-0.4,0.3l-0.3-0.2c0.1-0.3,0.4-0.6,0.8-0.6
				c0.4,0,0.7,0.3,0.7,0.6c0,0.5-0.5,0.6-0.7,1L25.3,37.3z"/>
		</g>
	</g>
</g>
</svg>
