<?xml version="1.0" encoding="utf-8"?>
<!-- Generator: Adobe Illustrator 23.0.1, SVG Export Plug-In . SVG Version: 6.00 Build 0)  -->
<svg version="1.1" id="Layer_1" xmlns="http://www.w3.org/2000/svg" xmlns:xlink="http://www.w3.org/1999/xlink" x="0px" y="0px"
	 viewBox="0 0 35 35" style="enable-background:new 0 0 35 35;" xml:space="preserve">
<style type="text/css">
	.st0{fill-rule:evenodd;clip-rule:evenodd;fill:#0068FF;}
	.st1{opacity:0.12;fill-rule:evenodd;clip-rule:evenodd;fill:#001A33;enable-background:new    ;}
	.st2{fill-rule:evenodd;clip-rule:evenodd;fill:#FFFFFF;}
	.st3{fill:#0068FF;}
	.st4{fill:#FFFFFF;}
	.st5{fill-rule:evenodd;clip-rule:evenodd;fill:#FFFFFF;stroke:#8E8E8E;stroke-width:0.4307;stroke-miterlimit:10;}
	.st6{fill:#8E8E8E;}
</style>
<g>
	<path class="st0" d="M29.2,35H5.8C2.6,35,0,32.4,0,29.2V5.8C0,2.6,2.6,0,5.8,0h23.3C32.4,0,35,2.6,35,5.8v23.3
		C35,32.4,32.4,35,29.2,35z"/>
	<g>
		<path class="st2" d="M17.6,4C10.2,4,4.1,10,4.1,17.5c0,2.6,0.7,5.1,2,7.1c-0.1,1.2-0.5,3.6-2.2,5.1c-0.8,0.7,4.3-0.9,4.7-2.2
			c2.4,2.2,5.6,3.5,9,3.5c7.5,0,13.5-6.1,13.5-13.5S25.1,4,17.6,4z"/>
		<g>
			<path class="st3" d="M13.5,14.2H8.2v1.1h3.7l-3.6,4.5c-0.1,0.2-0.2,0.3-0.2,0.7v0.3h5c0.2,0,0.5-0.2,0.5-0.5v-0.6H9.7l3.4-4.3
				c0.1-0.1,0.1-0.2,0.2-0.2l0,0c0.2-0.3,0.2-0.5,0.2-0.8V14.2z"/>
			<path class="st3" d="M20.2,20.8H21v-6.6h-1.1v6.2C19.8,20.6,20,20.8,20.2,20.8z"/>
			<path class="st3" d="M16.4,15.7c-1.4,0-2.6,1.2-2.6,2.6c0,1.4,1.2,2.6,2.6,2.6s2.6-1.2,2.6-2.6C18.9,16.8,17.8,15.7,16.4,15.7z
				 M16.4,19.7c-0.8,0-1.5-0.7-1.5-1.5c0-0.8,0.7-1.5,1.5-1.5c0.8,0,1.5,0.7,1.5,1.5C17.9,19.1,17.2,19.7,16.4,19.7z"/>
			<path class="st3" d="M24.3,15.6c-1.4,0-2.6,1.2-2.6,2.6c0,1.4,1.2,2.6,2.6,2.6c1.4,0,2.6-1.2,2.6-2.6
				C26.9,16.8,25.8,15.6,24.3,15.6z M24.3,19.7c-0.8,0-1.5-0.7-1.5-1.5c0-0.8,0.7-1.5,1.5-1.5c0.8,0,1.5,0.7,1.5,1.5
				C25.8,19.1,25.2,19.7,24.3,19.7z"/>
			<path class="st3" d="M18.3,20.8h0.6v-5h-1.1v4.5C17.9,20.6,18.1,20.8,18.3,20.8z"/>
		</g>
	</g>
</g>
</svg>
